G04 ================== begin FILE IDENTIFICATION RECORD ==================*
G04 Layout Name:  C:/Users/dmigh/OneDrive/Documents/GitHub/OnyxPSU/allegro/ONYXPSU.brd*
G04 Film Name:    ASSEMBLY_BOTTOM*
G04 File Format:  Gerber RS274X*
G04 File Origin:  Cadence Allegro 16.6-P004*
G04 Origin Date:  Mon Feb 13 13:33:03 2017*
G04 *
G04 Layer:  USER PART NUMBER/ASSEMBLY_BOTTOM*
G04 Layer:  TOLERANCE/ASSEMBLY_BOTTOM*
G04 Layer:  REF DES/ASSEMBLY_BOTTOM*
G04 Layer:  PACKAGE GEOMETRY/ASSEMBLY_BOTTOM*
G04 Layer:  DEVICE TYPE/ASSEMBLY_BOTTOM*
G04 Layer:  COMPONENT VALUE/ASSEMBLY_BOTTOM*
G04 Layer:  BOARD GEOMETRY/OUTLINE*
G04 Layer:  BOARD GEOMETRY/ASSEMBLY_DETAIL*
G04 *
G04 Offset:    (0.00 0.00)*
G04 Mirror:    No*
G04 Mode:      Positive*
G04 Rotation:  0*
G04 FullContactRelief:  No*
G04 UndefLineWidth:     0.00*
G04 ================== end FILE IDENTIFICATION RECORD ====================*
%FSLAX25Y25*MOIN*%
%IR0*IPPOS*OFA0.00000B0.00000*MIA0B0*SFA1.00000B1.00000*%
%ADD10C,.004*%
G75*
%LPD*%
G75*
G54D10*
G01X38593Y147717D02*
X38513Y147647D01*
X38420Y147600D01*
X38313D01*
X38193Y147670D01*
X38100Y147787D01*
X38033Y147927D01*
X37980Y148160D01*
X37967Y148370D01*
X37993Y148580D01*
X38033Y148720D01*
X38113Y148860D01*
X38207Y148953D01*
X38300Y149000D01*
X38393D01*
X38487Y148953D01*
X38567Y148883D01*
X38633Y148790D01*
G01X39300Y149467D02*
X40100D01*
G01X40793Y149000D02*
Y147600D01*
X41407Y149000D01*
Y147600D01*
G01X42233Y149000D02*
Y147600D01*
X42553D01*
X42660Y147670D01*
X42740Y147833D01*
X42767Y148020D01*
X42740Y148207D01*
X42673Y148347D01*
X42553Y148417D01*
X42233D01*
G01X43500Y149467D02*
X44300D01*
G01X45007Y149000D02*
Y147600D01*
X45273D01*
X45380Y147670D01*
X45460Y147763D01*
X45527Y147903D01*
X45580Y148067D01*
X45593Y148300D01*
X45580Y148533D01*
X45527Y148697D01*
X45460Y148837D01*
X45380Y148930D01*
X45273Y149000D01*
X45007D01*
G01X46407D02*
Y147600D01*
G01X46913D02*
X46407Y148463D01*
G01X46993Y149000D02*
X46633Y148067D01*
G01X47700Y149467D02*
X48500D01*
G01X49500Y147600D02*
X49393Y147647D01*
X49313Y147763D01*
X49260Y147903D01*
X49220Y148090D01*
X49207Y148300D01*
X49220Y148510D01*
X49260Y148697D01*
X49313Y148837D01*
X49393Y148953D01*
X49500Y149000D01*
X49607Y148953D01*
X49687Y148837D01*
X49740Y148697D01*
X49780Y148510D01*
X49793Y148300D01*
X49780Y148090D01*
X49740Y147903D01*
X49687Y147763D01*
X49607Y147647D01*
X49500Y147600D01*
G01X50647Y148417D02*
X50740Y148253D01*
X50820Y148160D01*
X50927Y148113D01*
X51020Y148160D01*
X51087Y148253D01*
X51140Y148393D01*
X51153Y148557D01*
X51140Y148697D01*
X51087Y148837D01*
X51007Y148953D01*
X50913Y149000D01*
X50807Y148953D01*
X50713Y148813D01*
X50660Y148603D01*
X50647Y148370D01*
X50673Y148067D01*
X50713Y147903D01*
X50780Y147740D01*
X50873Y147623D01*
X50967Y147600D01*
X51060Y147647D01*
X51127Y147763D01*
G01X52300Y147600D02*
X52193Y147647D01*
X52113Y147763D01*
X52060Y147903D01*
X52020Y148090D01*
X52007Y148300D01*
X52020Y148510D01*
X52060Y148697D01*
X52113Y148837D01*
X52193Y148953D01*
X52300Y149000D01*
X52407Y148953D01*
X52487Y148837D01*
X52540Y148697D01*
X52580Y148510D01*
X52593Y148300D01*
X52580Y148090D01*
X52540Y147903D01*
X52487Y147763D01*
X52407Y147647D01*
X52300Y147600D01*
G01X53407Y148720D02*
X53487Y148883D01*
X53593Y148977D01*
X53713Y149000D01*
X53820Y148977D01*
X53927Y148860D01*
X53993Y148720D01*
X54007Y148580D01*
X53980Y148417D01*
X53887Y148300D01*
X53793Y148253D01*
X53673D01*
G01X53793D02*
X53873Y148183D01*
X53940Y148067D01*
X53967Y147927D01*
X53940Y147787D01*
X53873Y147670D01*
X53753Y147600D01*
X53633Y147623D01*
X53513Y147717D01*
G01X54700Y149467D02*
X55500D01*
G01X56247Y147833D02*
X56327Y147693D01*
X56420Y147623D01*
X56527Y147600D01*
X56660Y147647D01*
X56753Y147763D01*
X56780Y147903D01*
X56767Y148043D01*
X56713Y148160D01*
X56447Y148393D01*
X56327Y148557D01*
X56247Y148790D01*
X56220Y149000D01*
X56780D01*
G01X57647Y147833D02*
X57727Y147693D01*
X57820Y147623D01*
X57927Y147600D01*
X58060Y147647D01*
X58153Y147763D01*
X58180Y147903D01*
X58167Y148043D01*
X58113Y148160D01*
X57847Y148393D01*
X57727Y148557D01*
X57647Y148790D01*
X57620Y149000D01*
X58180D01*
G01X59033D02*
Y147600D01*
X59353D01*
X59460Y147670D01*
X59540Y147833D01*
X59567Y148020D01*
X59540Y148207D01*
X59473Y148347D01*
X59353Y148417D01*
X59033D01*
G01X60447Y149000D02*
Y147600D01*
X60953D01*
G01X60767Y148277D02*
X60447D01*
G01X40133Y155000D02*
Y153600D01*
X40467D01*
X40573Y153670D01*
X40640Y153763D01*
X40667Y153950D01*
X40640Y154137D01*
X40560Y154253D01*
X40467Y154323D01*
X40133D01*
G01X40467D02*
X40667Y155000D01*
G01X41400Y155467D02*
X42200D01*
G01X42907Y155000D02*
Y153600D01*
X43173D01*
X43280Y153670D01*
X43360Y153763D01*
X43427Y153903D01*
X43480Y154067D01*
X43493Y154300D01*
X43480Y154533D01*
X43427Y154697D01*
X43360Y154837D01*
X43280Y154930D01*
X43173Y155000D01*
X42907D01*
G01X44307D02*
Y153600D01*
G01X44813D02*
X44307Y154463D01*
G01X44893Y155000D02*
X44533Y154067D01*
G01X45600Y155467D02*
X46400D01*
G01X47400Y153600D02*
X47293Y153647D01*
X47213Y153763D01*
X47160Y153903D01*
X47120Y154090D01*
X47107Y154300D01*
X47120Y154510D01*
X47160Y154697D01*
X47213Y154837D01*
X47293Y154953D01*
X47400Y155000D01*
X47507Y154953D01*
X47587Y154837D01*
X47640Y154697D01*
X47680Y154510D01*
X47693Y154300D01*
X47680Y154090D01*
X47640Y153903D01*
X47587Y153763D01*
X47507Y153647D01*
X47400Y153600D01*
G01X48547Y154417D02*
X48640Y154253D01*
X48720Y154160D01*
X48827Y154113D01*
X48920Y154160D01*
X48987Y154253D01*
X49040Y154393D01*
X49053Y154557D01*
X49040Y154697D01*
X48987Y154837D01*
X48907Y154953D01*
X48813Y155000D01*
X48707Y154953D01*
X48613Y154813D01*
X48560Y154603D01*
X48547Y154370D01*
X48573Y154067D01*
X48613Y153903D01*
X48680Y153740D01*
X48773Y153623D01*
X48867Y153600D01*
X48960Y153647D01*
X49027Y153763D01*
G01X50200Y153600D02*
X50093Y153647D01*
X50013Y153763D01*
X49960Y153903D01*
X49920Y154090D01*
X49907Y154300D01*
X49920Y154510D01*
X49960Y154697D01*
X50013Y154837D01*
X50093Y154953D01*
X50200Y155000D01*
X50307Y154953D01*
X50387Y154837D01*
X50440Y154697D01*
X50480Y154510D01*
X50493Y154300D01*
X50480Y154090D01*
X50440Y153903D01*
X50387Y153763D01*
X50307Y153647D01*
X50200Y153600D01*
G01X51307Y154720D02*
X51387Y154883D01*
X51493Y154977D01*
X51613Y155000D01*
X51720Y154977D01*
X51827Y154860D01*
X51893Y154720D01*
X51907Y154580D01*
X51880Y154417D01*
X51787Y154300D01*
X51693Y154253D01*
X51573D01*
G01X51693D02*
X51773Y154183D01*
X51840Y154067D01*
X51867Y153927D01*
X51840Y153787D01*
X51773Y153670D01*
X51653Y153600D01*
X51533Y153623D01*
X51413Y153717D01*
G01X52600Y155467D02*
X53400D01*
G01X54373Y155000D02*
X54400Y154697D01*
X54440Y154440D01*
X54493Y154207D01*
X54560Y153950D01*
X54667Y153600D01*
X54133D01*
G01X55507Y154720D02*
X55587Y154883D01*
X55693Y154977D01*
X55813Y155000D01*
X55920Y154977D01*
X56027Y154860D01*
X56093Y154720D01*
X56107Y154580D01*
X56080Y154417D01*
X55987Y154300D01*
X55893Y154253D01*
X55773D01*
G01X55893D02*
X55973Y154183D01*
X56040Y154067D01*
X56067Y153927D01*
X56040Y153787D01*
X55973Y153670D01*
X55853Y153600D01*
X55733Y153623D01*
X55613Y153717D01*
G01X56947Y153833D02*
X57027Y153693D01*
X57120Y153623D01*
X57227Y153600D01*
X57360Y153647D01*
X57453Y153763D01*
X57480Y153903D01*
X57467Y154043D01*
X57413Y154160D01*
X57147Y154393D01*
X57027Y154557D01*
X56947Y154790D01*
X56920Y155000D01*
X57480D01*
G01X58307D02*
Y153600D01*
G01X58813D02*
X58307Y154463D01*
G01X58893Y155000D02*
X58533Y154067D01*
G01X58867Y156000D02*
Y157400D01*
X58533D01*
X58427Y157330D01*
X58360Y157237D01*
X58333Y157050D01*
X58360Y156863D01*
X58440Y156747D01*
X58533Y156677D01*
X58867D01*
G01X58533D02*
X58333Y156000D01*
G01X57600Y155533D02*
X56800D01*
G01X56093Y156000D02*
Y157400D01*
X55827D01*
X55720Y157330D01*
X55640Y157237D01*
X55573Y157097D01*
X55520Y156933D01*
X55507Y156700D01*
X55520Y156467D01*
X55573Y156303D01*
X55640Y156163D01*
X55720Y156070D01*
X55827Y156000D01*
X56093D01*
G01X54693D02*
Y157400D01*
G01X54187D02*
X54693Y156537D01*
G01X54107Y156000D02*
X54467Y156933D01*
G01X53400Y155533D02*
X52600D01*
G01X51600Y157400D02*
X51707Y157353D01*
X51787Y157237D01*
X51840Y157097D01*
X51880Y156910D01*
X51893Y156700D01*
X51880Y156490D01*
X51840Y156303D01*
X51787Y156163D01*
X51707Y156047D01*
X51600Y156000D01*
X51493Y156047D01*
X51413Y156163D01*
X51360Y156303D01*
X51320Y156490D01*
X51307Y156700D01*
X51320Y156910D01*
X51360Y157097D01*
X51413Y157237D01*
X51493Y157353D01*
X51600Y157400D01*
G01X50453Y156583D02*
X50360Y156747D01*
X50280Y156840D01*
X50173Y156887D01*
X50080Y156840D01*
X50013Y156747D01*
X49960Y156607D01*
X49947Y156443D01*
X49960Y156303D01*
X50013Y156163D01*
X50093Y156047D01*
X50187Y156000D01*
X50293Y156047D01*
X50387Y156187D01*
X50440Y156397D01*
X50453Y156630D01*
X50427Y156933D01*
X50387Y157097D01*
X50320Y157260D01*
X50227Y157377D01*
X50133Y157400D01*
X50040Y157353D01*
X49973Y157237D01*
G01X48800Y157400D02*
X48907Y157353D01*
X48987Y157237D01*
X49040Y157097D01*
X49080Y156910D01*
X49093Y156700D01*
X49080Y156490D01*
X49040Y156303D01*
X48987Y156163D01*
X48907Y156047D01*
X48800Y156000D01*
X48693Y156047D01*
X48613Y156163D01*
X48560Y156303D01*
X48520Y156490D01*
X48507Y156700D01*
X48520Y156910D01*
X48560Y157097D01*
X48613Y157237D01*
X48693Y157353D01*
X48800Y157400D01*
G01X47693Y156280D02*
X47613Y156117D01*
X47507Y156023D01*
X47387Y156000D01*
X47280Y156023D01*
X47173Y156140D01*
X47107Y156280D01*
X47093Y156420D01*
X47120Y156583D01*
X47213Y156700D01*
X47307Y156747D01*
X47427D01*
G01X47307D02*
X47227Y156817D01*
X47160Y156933D01*
X47133Y157073D01*
X47160Y157213D01*
X47227Y157330D01*
X47347Y157400D01*
X47467Y157377D01*
X47587Y157283D01*
G01X46400Y155533D02*
X45600D01*
G01X44600Y156000D02*
Y157400D01*
X44760Y157120D01*
G01Y156000D02*
X44440D01*
G01X43453Y157167D02*
X43373Y157307D01*
X43280Y157377D01*
X43173Y157400D01*
X43040Y157353D01*
X42947Y157237D01*
X42920Y157097D01*
X42933Y156957D01*
X42987Y156840D01*
X43253Y156607D01*
X43373Y156443D01*
X43453Y156210D01*
X43480Y156000D01*
X42920D01*
G01X41800D02*
Y157400D01*
X41960Y157120D01*
G01Y156000D02*
X41640D01*
G01X40693D02*
Y157400D01*
G01X40187D02*
X40693Y156537D01*
G01X40107Y156000D02*
X40467Y156933D01*
G01X71367Y117500D02*
Y118900D01*
X71033D01*
X70927Y118830D01*
X70860Y118737D01*
X70833Y118550D01*
X70860Y118363D01*
X70940Y118247D01*
X71033Y118177D01*
X71367D01*
G01X71033D02*
X70833Y117500D01*
G01X70100Y117033D02*
X69300D01*
G01X68593Y117500D02*
Y118900D01*
X68327D01*
X68220Y118830D01*
X68140Y118737D01*
X68073Y118597D01*
X68020Y118433D01*
X68007Y118200D01*
X68020Y117967D01*
X68073Y117803D01*
X68140Y117663D01*
X68220Y117570D01*
X68327Y117500D01*
X68593D01*
G01X67193D02*
Y118900D01*
G01X66687D02*
X67193Y118037D01*
G01X66607Y117500D02*
X66967Y118433D01*
G01X65900Y117033D02*
X65100D01*
G01X64100Y118900D02*
X64207Y118853D01*
X64287Y118737D01*
X64340Y118597D01*
X64380Y118410D01*
X64393Y118200D01*
X64380Y117990D01*
X64340Y117803D01*
X64287Y117663D01*
X64207Y117547D01*
X64100Y117500D01*
X63993Y117547D01*
X63913Y117663D01*
X63860Y117803D01*
X63820Y117990D01*
X63807Y118200D01*
X63820Y118410D01*
X63860Y118597D01*
X63913Y118737D01*
X63993Y118853D01*
X64100Y118900D01*
G01X62953Y118083D02*
X62860Y118247D01*
X62780Y118340D01*
X62673Y118387D01*
X62580Y118340D01*
X62513Y118247D01*
X62460Y118107D01*
X62447Y117943D01*
X62460Y117803D01*
X62513Y117663D01*
X62593Y117547D01*
X62687Y117500D01*
X62793Y117547D01*
X62887Y117687D01*
X62940Y117897D01*
X62953Y118130D01*
X62927Y118433D01*
X62887Y118597D01*
X62820Y118760D01*
X62727Y118877D01*
X62633Y118900D01*
X62540Y118853D01*
X62473Y118737D01*
G01X61300Y118900D02*
X61407Y118853D01*
X61487Y118737D01*
X61540Y118597D01*
X61580Y118410D01*
X61593Y118200D01*
X61580Y117990D01*
X61540Y117803D01*
X61487Y117663D01*
X61407Y117547D01*
X61300Y117500D01*
X61193Y117547D01*
X61113Y117663D01*
X61060Y117803D01*
X61020Y117990D01*
X61007Y118200D01*
X61020Y118410D01*
X61060Y118597D01*
X61113Y118737D01*
X61193Y118853D01*
X61300Y118900D01*
G01X60193Y117780D02*
X60113Y117617D01*
X60007Y117523D01*
X59887Y117500D01*
X59780Y117523D01*
X59673Y117640D01*
X59607Y117780D01*
X59593Y117920D01*
X59620Y118083D01*
X59713Y118200D01*
X59807Y118247D01*
X59927D01*
G01X59807D02*
X59727Y118317D01*
X59660Y118433D01*
X59633Y118573D01*
X59660Y118713D01*
X59727Y118830D01*
X59847Y118900D01*
X59967Y118877D01*
X60087Y118783D01*
G01X58900Y117033D02*
X58100D01*
G01X57100Y117500D02*
Y118900D01*
X57260Y118620D01*
G01Y117500D02*
X56940D01*
G01X55993Y117710D02*
X55913Y117593D01*
X55820Y117523D01*
X55700Y117500D01*
X55580Y117547D01*
X55487Y117640D01*
X55420Y117803D01*
X55407Y117990D01*
X55433Y118177D01*
X55500Y118293D01*
X55593Y118387D01*
X55687Y118410D01*
X55780Y118387D01*
X55900Y118293D01*
X55860Y118900D01*
X55500D01*
G01X54140Y117500D02*
Y118900D01*
X54633Y117897D01*
X53967D01*
G01X53193Y117500D02*
Y118900D01*
G01X52687D02*
X53193Y118037D01*
G01X52607Y117500D02*
X52967Y118433D01*
G01X67233Y117500D02*
X66900Y118900D01*
X66567Y117500D01*
G01X66687Y117990D02*
X67113D01*
G01X65207Y118783D02*
X65287Y118853D01*
X65380Y118900D01*
X65487D01*
X65607Y118830D01*
X65700Y118713D01*
X65767Y118573D01*
X65820Y118340D01*
X65833Y118130D01*
X65807Y117920D01*
X65767Y117780D01*
X65687Y117640D01*
X65593Y117547D01*
X65500Y117500D01*
X65407D01*
X65313Y117547D01*
X65233Y117617D01*
X65167Y117710D01*
G01X64380Y117687D02*
X64273Y117570D01*
X64153Y117500D01*
X64047D01*
X63940Y117570D01*
X63860Y117687D01*
X63820Y117850D01*
X63847Y118013D01*
X63913Y118153D01*
X64033Y118247D01*
X64193Y118293D01*
X64287Y118387D01*
X64327Y118550D01*
X64300Y118713D01*
X64233Y118830D01*
X64140Y118900D01*
X64047D01*
X63953Y118853D01*
X63873Y118737D01*
G01X62433Y117500D02*
X62967D01*
Y118900D01*
X62433D01*
G01X62647Y118223D02*
X62967D01*
G01X61300Y118900D02*
Y117500D01*
G01X61607Y118900D02*
X60993D01*
G01X60300Y117033D02*
X59500D01*
G01X58767Y117500D02*
Y118900D01*
X58433D01*
X58327Y118830D01*
X58260Y118737D01*
X58233Y118550D01*
X58260Y118363D01*
X58340Y118247D01*
X58433Y118177D01*
X58767D01*
G01X58433D02*
X58233Y117500D01*
G01X57353Y118667D02*
X57273Y118807D01*
X57180Y118877D01*
X57073Y118900D01*
X56940Y118853D01*
X56847Y118737D01*
X56820Y118597D01*
X56833Y118457D01*
X56887Y118340D01*
X57153Y118107D01*
X57273Y117943D01*
X57353Y117710D01*
X57380Y117500D01*
X56820D01*
G01X71367Y130500D02*
Y131900D01*
X71033D01*
X70927Y131830D01*
X70860Y131737D01*
X70833Y131550D01*
X70860Y131363D01*
X70940Y131247D01*
X71033Y131177D01*
X71367D01*
G01X71033D02*
X70833Y130500D01*
G01X70100Y130033D02*
X69300D01*
G01X68593Y130500D02*
Y131900D01*
X68327D01*
X68220Y131830D01*
X68140Y131737D01*
X68073Y131597D01*
X68020Y131433D01*
X68007Y131200D01*
X68020Y130967D01*
X68073Y130803D01*
X68140Y130663D01*
X68220Y130570D01*
X68327Y130500D01*
X68593D01*
G01X67193D02*
Y131900D01*
G01X66687D02*
X67193Y131037D01*
G01X66607Y130500D02*
X66967Y131433D01*
G01X65900Y130033D02*
X65100D01*
G01X64100Y131900D02*
X64207Y131853D01*
X64287Y131737D01*
X64340Y131597D01*
X64380Y131410D01*
X64393Y131200D01*
X64380Y130990D01*
X64340Y130803D01*
X64287Y130663D01*
X64207Y130547D01*
X64100Y130500D01*
X63993Y130547D01*
X63913Y130663D01*
X63860Y130803D01*
X63820Y130990D01*
X63807Y131200D01*
X63820Y131410D01*
X63860Y131597D01*
X63913Y131737D01*
X63993Y131853D01*
X64100Y131900D01*
G01X62953Y131083D02*
X62860Y131247D01*
X62780Y131340D01*
X62673Y131387D01*
X62580Y131340D01*
X62513Y131247D01*
X62460Y131107D01*
X62447Y130943D01*
X62460Y130803D01*
X62513Y130663D01*
X62593Y130547D01*
X62687Y130500D01*
X62793Y130547D01*
X62887Y130687D01*
X62940Y130897D01*
X62953Y131130D01*
X62927Y131433D01*
X62887Y131597D01*
X62820Y131760D01*
X62727Y131877D01*
X62633Y131900D01*
X62540Y131853D01*
X62473Y131737D01*
G01X61300Y131900D02*
X61407Y131853D01*
X61487Y131737D01*
X61540Y131597D01*
X61580Y131410D01*
X61593Y131200D01*
X61580Y130990D01*
X61540Y130803D01*
X61487Y130663D01*
X61407Y130547D01*
X61300Y130500D01*
X61193Y130547D01*
X61113Y130663D01*
X61060Y130803D01*
X61020Y130990D01*
X61007Y131200D01*
X61020Y131410D01*
X61060Y131597D01*
X61113Y131737D01*
X61193Y131853D01*
X61300Y131900D01*
G01X60193Y130780D02*
X60113Y130617D01*
X60007Y130523D01*
X59887Y130500D01*
X59780Y130523D01*
X59673Y130640D01*
X59607Y130780D01*
X59593Y130920D01*
X59620Y131083D01*
X59713Y131200D01*
X59807Y131247D01*
X59927D01*
G01X59807D02*
X59727Y131317D01*
X59660Y131433D01*
X59633Y131573D01*
X59660Y131713D01*
X59727Y131830D01*
X59847Y131900D01*
X59967Y131877D01*
X60087Y131783D01*
G01X58900Y130033D02*
X58100D01*
G01X57100Y130500D02*
Y131900D01*
X57260Y131620D01*
G01Y130500D02*
X56940D01*
G01X55993Y130710D02*
X55913Y130593D01*
X55820Y130523D01*
X55700Y130500D01*
X55580Y130547D01*
X55487Y130640D01*
X55420Y130803D01*
X55407Y130990D01*
X55433Y131177D01*
X55500Y131293D01*
X55593Y131387D01*
X55687Y131410D01*
X55780Y131387D01*
X55900Y131293D01*
X55860Y131900D01*
X55500D01*
G01X54140Y130500D02*
Y131900D01*
X54633Y130897D01*
X53967D01*
G01X53193Y130500D02*
Y131900D01*
G01X52687D02*
X53193Y131037D01*
G01X52607Y130500D02*
X52967Y131433D01*
G01X67060Y131900D02*
X66740D01*
G01X66900D02*
Y130500D01*
G01X67060D02*
X66740D01*
G01X65780Y130687D02*
X65673Y130570D01*
X65553Y130500D01*
X65447D01*
X65340Y130570D01*
X65260Y130687D01*
X65220Y130850D01*
X65247Y131013D01*
X65313Y131153D01*
X65433Y131247D01*
X65593Y131293D01*
X65687Y131387D01*
X65727Y131550D01*
X65700Y131713D01*
X65633Y131830D01*
X65540Y131900D01*
X65447D01*
X65353Y131853D01*
X65273Y131737D01*
G01X63833Y130500D02*
X64367D01*
Y131900D01*
X63833D01*
G01X64047Y131223D02*
X64367D01*
G01X62700Y131900D02*
Y130500D01*
G01X63007Y131900D02*
X62393D01*
G01X61300Y130500D02*
Y131900D01*
X61460Y131620D01*
G01Y130500D02*
X61140D01*
G01X60300Y130033D02*
X59500D01*
G01X58767Y130500D02*
Y131900D01*
X58433D01*
X58327Y131830D01*
X58260Y131737D01*
X58233Y131550D01*
X58260Y131363D01*
X58340Y131247D01*
X58433Y131177D01*
X58767D01*
G01X58433D02*
X58233Y130500D01*
G01X57353Y131667D02*
X57273Y131807D01*
X57180Y131877D01*
X57073Y131900D01*
X56940Y131853D01*
X56847Y131737D01*
X56820Y131597D01*
X56833Y131457D01*
X56887Y131340D01*
X57153Y131107D01*
X57273Y130943D01*
X57353Y130710D01*
X57380Y130500D01*
X56820D01*
G01X70667Y124000D02*
Y125400D01*
X70333D01*
X70227Y125330D01*
X70160Y125237D01*
X70133Y125050D01*
X70160Y124863D01*
X70240Y124747D01*
X70333Y124677D01*
X70667D01*
G01X70333D02*
X70133Y124000D01*
G01X69400Y123533D02*
X68600D01*
G01X67893Y124000D02*
Y125400D01*
X67627D01*
X67520Y125330D01*
X67440Y125237D01*
X67373Y125097D01*
X67320Y124933D01*
X67307Y124700D01*
X67320Y124467D01*
X67373Y124303D01*
X67440Y124163D01*
X67520Y124070D01*
X67627Y124000D01*
X67893D01*
G01X66493D02*
Y125400D01*
G01X65987D02*
X66493Y124537D01*
G01X65907Y124000D02*
X66267Y124933D01*
G01X65200Y123533D02*
X64400D01*
G01X63400Y125400D02*
X63507Y125353D01*
X63587Y125237D01*
X63640Y125097D01*
X63680Y124910D01*
X63693Y124700D01*
X63680Y124490D01*
X63640Y124303D01*
X63587Y124163D01*
X63507Y124047D01*
X63400Y124000D01*
X63293Y124047D01*
X63213Y124163D01*
X63160Y124303D01*
X63120Y124490D01*
X63107Y124700D01*
X63120Y124910D01*
X63160Y125097D01*
X63213Y125237D01*
X63293Y125353D01*
X63400Y125400D01*
G01X62253Y124583D02*
X62160Y124747D01*
X62080Y124840D01*
X61973Y124887D01*
X61880Y124840D01*
X61813Y124747D01*
X61760Y124607D01*
X61747Y124443D01*
X61760Y124303D01*
X61813Y124163D01*
X61893Y124047D01*
X61987Y124000D01*
X62093Y124047D01*
X62187Y124187D01*
X62240Y124397D01*
X62253Y124630D01*
X62227Y124933D01*
X62187Y125097D01*
X62120Y125260D01*
X62027Y125377D01*
X61933Y125400D01*
X61840Y125353D01*
X61773Y125237D01*
G01X60600Y125400D02*
X60707Y125353D01*
X60787Y125237D01*
X60840Y125097D01*
X60880Y124910D01*
X60893Y124700D01*
X60880Y124490D01*
X60840Y124303D01*
X60787Y124163D01*
X60707Y124047D01*
X60600Y124000D01*
X60493Y124047D01*
X60413Y124163D01*
X60360Y124303D01*
X60320Y124490D01*
X60307Y124700D01*
X60320Y124910D01*
X60360Y125097D01*
X60413Y125237D01*
X60493Y125353D01*
X60600Y125400D01*
G01X59493Y124280D02*
X59413Y124117D01*
X59307Y124023D01*
X59187Y124000D01*
X59080Y124023D01*
X58973Y124140D01*
X58907Y124280D01*
X58893Y124420D01*
X58920Y124583D01*
X59013Y124700D01*
X59107Y124747D01*
X59227D01*
G01X59107D02*
X59027Y124817D01*
X58960Y124933D01*
X58933Y125073D01*
X58960Y125213D01*
X59027Y125330D01*
X59147Y125400D01*
X59267Y125377D01*
X59387Y125283D01*
G01X58200Y123533D02*
X57400D01*
G01X56400Y124000D02*
Y125400D01*
X56560Y125120D01*
G01Y124000D02*
X56240D01*
G01X55000Y125400D02*
X55107Y125353D01*
X55187Y125237D01*
X55240Y125097D01*
X55280Y124910D01*
X55293Y124700D01*
X55280Y124490D01*
X55240Y124303D01*
X55187Y124163D01*
X55107Y124047D01*
X55000Y124000D01*
X54893Y124047D01*
X54813Y124163D01*
X54760Y124303D01*
X54720Y124490D01*
X54707Y124700D01*
X54720Y124910D01*
X54760Y125097D01*
X54813Y125237D01*
X54893Y125353D01*
X55000Y125400D01*
G01X53893Y124000D02*
Y125400D01*
G01X53387D02*
X53893Y124537D01*
G01X53307Y124000D02*
X53667Y124933D01*
G01X67060Y125400D02*
X66740D01*
G01X66900D02*
Y124000D01*
G01X67060D02*
X66740D01*
G01X65780Y124187D02*
X65673Y124070D01*
X65553Y124000D01*
X65447D01*
X65340Y124070D01*
X65260Y124187D01*
X65220Y124350D01*
X65247Y124513D01*
X65313Y124653D01*
X65433Y124747D01*
X65593Y124793D01*
X65687Y124887D01*
X65727Y125050D01*
X65700Y125213D01*
X65633Y125330D01*
X65540Y125400D01*
X65447D01*
X65353Y125353D01*
X65273Y125237D01*
G01X63833Y124000D02*
X64367D01*
Y125400D01*
X63833D01*
G01X64047Y124723D02*
X64367D01*
G01X62700Y125400D02*
Y124000D01*
G01X63007Y125400D02*
X62393D01*
G01X61553Y125167D02*
X61473Y125307D01*
X61380Y125377D01*
X61273Y125400D01*
X61140Y125353D01*
X61047Y125237D01*
X61020Y125097D01*
X61033Y124957D01*
X61087Y124840D01*
X61353Y124607D01*
X61473Y124443D01*
X61553Y124210D01*
X61580Y124000D01*
X61020D01*
G01X60300Y123533D02*
X59500D01*
G01X58767Y124000D02*
Y125400D01*
X58433D01*
X58327Y125330D01*
X58260Y125237D01*
X58233Y125050D01*
X58260Y124863D01*
X58340Y124747D01*
X58433Y124677D01*
X58767D01*
G01X58433D02*
X58233Y124000D01*
G01X57353Y125167D02*
X57273Y125307D01*
X57180Y125377D01*
X57073Y125400D01*
X56940Y125353D01*
X56847Y125237D01*
X56820Y125097D01*
X56833Y124957D01*
X56887Y124840D01*
X57153Y124607D01*
X57273Y124443D01*
X57353Y124210D01*
X57380Y124000D01*
X56820D01*
G01X45667Y147600D02*
X46000Y149000D01*
X46333Y147600D01*
G01X47147Y149000D02*
Y147600D01*
X47653D01*
G01X47467Y148277D02*
X47147D01*
G01X48907Y148253D02*
X48960Y148183D01*
X49000Y148067D01*
X49027Y147903D01*
X49000Y147763D01*
X48947Y147670D01*
X48853Y147600D01*
X48493D01*
Y149000D01*
X48933D01*
X49027Y148907D01*
X49080Y148767D01*
X49107Y148603D01*
X49080Y148440D01*
X49000Y148300D01*
X48907Y148253D01*
X48493D01*
G01X49800Y149467D02*
X50600D01*
G01X51893Y147717D02*
X51813Y147647D01*
X51720Y147600D01*
X51613D01*
X51493Y147670D01*
X51400Y147787D01*
X51333Y147927D01*
X51280Y148160D01*
X51267Y148370D01*
X51293Y148580D01*
X51333Y148720D01*
X51413Y148860D01*
X51507Y148953D01*
X51600Y149000D01*
X51693D01*
X51787Y148953D01*
X51867Y148883D01*
X51933Y148790D01*
G01X53000Y149000D02*
Y147600D01*
X52840Y147880D01*
G01Y149000D02*
X53160D01*
G01X45667Y153600D02*
X46000Y155000D01*
X46333Y153600D01*
G01X47147Y155000D02*
Y153600D01*
X47653D01*
G01X47467Y154277D02*
X47147D01*
G01X48907Y154253D02*
X48960Y154183D01*
X49000Y154067D01*
X49027Y153903D01*
X49000Y153763D01*
X48947Y153670D01*
X48853Y153600D01*
X48493D01*
Y155000D01*
X48933D01*
X49027Y154907D01*
X49080Y154767D01*
X49107Y154603D01*
X49080Y154440D01*
X49000Y154300D01*
X48907Y154253D01*
X48493D01*
G01X49800Y155467D02*
X50600D01*
G01X51333Y155000D02*
Y153600D01*
X51667D01*
X51773Y153670D01*
X51840Y153763D01*
X51867Y153950D01*
X51840Y154137D01*
X51760Y154253D01*
X51667Y154323D01*
X51333D01*
G01X51667D02*
X51867Y155000D01*
G01X53000D02*
Y153600D01*
X52840Y153880D01*
G01Y155000D02*
X53160D01*
G01X53333Y157400D02*
X53000Y156000D01*
X52667Y157400D01*
G01X51853Y156000D02*
Y157400D01*
X51347D01*
G01X51533Y156723D02*
X51853D01*
G01X50093Y156747D02*
X50040Y156817D01*
X50000Y156933D01*
X49973Y157097D01*
X50000Y157237D01*
X50053Y157330D01*
X50147Y157400D01*
X50507D01*
Y156000D01*
X50067D01*
X49973Y156093D01*
X49920Y156233D01*
X49893Y156397D01*
X49920Y156560D01*
X50000Y156700D01*
X50093Y156747D01*
X50507D01*
G01X49200Y155533D02*
X48400D01*
G01X47667Y156000D02*
Y157400D01*
X47333D01*
X47227Y157330D01*
X47160Y157237D01*
X47133Y157050D01*
X47160Y156863D01*
X47240Y156747D01*
X47333Y156677D01*
X47667D01*
G01X47333D02*
X47133Y156000D01*
G01X46253Y157167D02*
X46173Y157307D01*
X46080Y157377D01*
X45973Y157400D01*
X45840Y157353D01*
X45747Y157237D01*
X45720Y157097D01*
X45733Y156957D01*
X45787Y156840D01*
X46053Y156607D01*
X46173Y156443D01*
X46253Y156210D01*
X46280Y156000D01*
X45720D01*
G01X91867Y117500D02*
Y118900D01*
X91533D01*
X91427Y118830D01*
X91360Y118737D01*
X91333Y118550D01*
X91360Y118363D01*
X91440Y118247D01*
X91533Y118177D01*
X91867D01*
G01X91533D02*
X91333Y117500D01*
G01X90600Y117033D02*
X89800D01*
G01X89093Y117500D02*
Y118900D01*
X88827D01*
X88720Y118830D01*
X88640Y118737D01*
X88573Y118597D01*
X88520Y118433D01*
X88507Y118200D01*
X88520Y117967D01*
X88573Y117803D01*
X88640Y117663D01*
X88720Y117570D01*
X88827Y117500D01*
X89093D01*
G01X87693D02*
Y118900D01*
G01X87187D02*
X87693Y118037D01*
G01X87107Y117500D02*
X87467Y118433D01*
G01X86400Y117033D02*
X85600D01*
G01X84600Y118900D02*
X84707Y118853D01*
X84787Y118737D01*
X84840Y118597D01*
X84880Y118410D01*
X84893Y118200D01*
X84880Y117990D01*
X84840Y117803D01*
X84787Y117663D01*
X84707Y117547D01*
X84600Y117500D01*
X84493Y117547D01*
X84413Y117663D01*
X84360Y117803D01*
X84320Y117990D01*
X84307Y118200D01*
X84320Y118410D01*
X84360Y118597D01*
X84413Y118737D01*
X84493Y118853D01*
X84600Y118900D01*
G01X83453Y118083D02*
X83360Y118247D01*
X83280Y118340D01*
X83173Y118387D01*
X83080Y118340D01*
X83013Y118247D01*
X82960Y118107D01*
X82947Y117943D01*
X82960Y117803D01*
X83013Y117663D01*
X83093Y117547D01*
X83187Y117500D01*
X83293Y117547D01*
X83387Y117687D01*
X83440Y117897D01*
X83453Y118130D01*
X83427Y118433D01*
X83387Y118597D01*
X83320Y118760D01*
X83227Y118877D01*
X83133Y118900D01*
X83040Y118853D01*
X82973Y118737D01*
G01X81800Y118900D02*
X81907Y118853D01*
X81987Y118737D01*
X82040Y118597D01*
X82080Y118410D01*
X82093Y118200D01*
X82080Y117990D01*
X82040Y117803D01*
X81987Y117663D01*
X81907Y117547D01*
X81800Y117500D01*
X81693Y117547D01*
X81613Y117663D01*
X81560Y117803D01*
X81520Y117990D01*
X81507Y118200D01*
X81520Y118410D01*
X81560Y118597D01*
X81613Y118737D01*
X81693Y118853D01*
X81800Y118900D01*
G01X80693Y117780D02*
X80613Y117617D01*
X80507Y117523D01*
X80387Y117500D01*
X80280Y117523D01*
X80173Y117640D01*
X80107Y117780D01*
X80093Y117920D01*
X80120Y118083D01*
X80213Y118200D01*
X80307Y118247D01*
X80427D01*
G01X80307D02*
X80227Y118317D01*
X80160Y118433D01*
X80133Y118573D01*
X80160Y118713D01*
X80227Y118830D01*
X80347Y118900D01*
X80467Y118877D01*
X80587Y118783D01*
G01X79400Y117033D02*
X78600D01*
G01X77600Y117500D02*
Y118900D01*
X77760Y118620D01*
G01Y117500D02*
X77440D01*
G01X76200Y118900D02*
X76307Y118853D01*
X76387Y118737D01*
X76440Y118597D01*
X76480Y118410D01*
X76493Y118200D01*
X76480Y117990D01*
X76440Y117803D01*
X76387Y117663D01*
X76307Y117547D01*
X76200Y117500D01*
X76093Y117547D01*
X76013Y117663D01*
X75960Y117803D01*
X75920Y117990D01*
X75907Y118200D01*
X75920Y118410D01*
X75960Y118597D01*
X76013Y118737D01*
X76093Y118853D01*
X76200Y118900D01*
G01X74800D02*
X74907Y118853D01*
X74987Y118737D01*
X75040Y118597D01*
X75080Y118410D01*
X75093Y118200D01*
X75080Y117990D01*
X75040Y117803D01*
X74987Y117663D01*
X74907Y117547D01*
X74800Y117500D01*
X74693Y117547D01*
X74613Y117663D01*
X74560Y117803D01*
X74520Y117990D01*
X74507Y118200D01*
X74520Y118410D01*
X74560Y118597D01*
X74613Y118737D01*
X74693Y118853D01*
X74800Y118900D01*
G01X73693Y117500D02*
Y118900D01*
G01X73187D02*
X73693Y118037D01*
G01X73107Y117500D02*
X73467Y118433D01*
G01X87733Y117500D02*
X87400Y118900D01*
X87067Y117500D01*
G01X87187Y117990D02*
X87613D01*
G01X85707Y118783D02*
X85787Y118853D01*
X85880Y118900D01*
X85987D01*
X86107Y118830D01*
X86200Y118713D01*
X86267Y118573D01*
X86320Y118340D01*
X86333Y118130D01*
X86307Y117920D01*
X86267Y117780D01*
X86187Y117640D01*
X86093Y117547D01*
X86000Y117500D01*
X85907D01*
X85813Y117547D01*
X85733Y117617D01*
X85667Y117710D01*
G01X84880Y117687D02*
X84773Y117570D01*
X84653Y117500D01*
X84547D01*
X84440Y117570D01*
X84360Y117687D01*
X84320Y117850D01*
X84347Y118013D01*
X84413Y118153D01*
X84533Y118247D01*
X84693Y118293D01*
X84787Y118387D01*
X84827Y118550D01*
X84800Y118713D01*
X84733Y118830D01*
X84640Y118900D01*
X84547D01*
X84453Y118853D01*
X84373Y118737D01*
G01X82933Y117500D02*
X83467D01*
Y118900D01*
X82933D01*
G01X83147Y118223D02*
X83467D01*
G01X81800Y118900D02*
Y117500D01*
G01X82107Y118900D02*
X81493D01*
G01X80800Y117033D02*
X80000D01*
G01X79267Y117500D02*
Y118900D01*
X78933D01*
X78827Y118830D01*
X78760Y118737D01*
X78733Y118550D01*
X78760Y118363D01*
X78840Y118247D01*
X78933Y118177D01*
X79267D01*
G01X78933D02*
X78733Y117500D01*
G01X77600D02*
Y118900D01*
X77760Y118620D01*
G01Y117500D02*
X77440D01*
G01X84367Y130500D02*
Y131900D01*
X84033D01*
X83927Y131830D01*
X83860Y131737D01*
X83833Y131550D01*
X83860Y131363D01*
X83940Y131247D01*
X84033Y131177D01*
X84367D01*
G01X84033D02*
X83833Y130500D01*
G01X83100Y130033D02*
X82300D01*
G01X81593Y130500D02*
Y131900D01*
X81327D01*
X81220Y131830D01*
X81140Y131737D01*
X81073Y131597D01*
X81020Y131433D01*
X81007Y131200D01*
X81020Y130967D01*
X81073Y130803D01*
X81140Y130663D01*
X81220Y130570D01*
X81327Y130500D01*
X81593D01*
G01X80193D02*
Y131900D01*
G01X79687D02*
X80193Y131037D01*
G01X79607Y130500D02*
X79967Y131433D01*
G01X78900Y130033D02*
X78100D01*
G01X77100Y131900D02*
X77207Y131853D01*
X77287Y131737D01*
X77340Y131597D01*
X77380Y131410D01*
X77393Y131200D01*
X77380Y130990D01*
X77340Y130803D01*
X77287Y130663D01*
X77207Y130547D01*
X77100Y130500D01*
X76993Y130547D01*
X76913Y130663D01*
X76860Y130803D01*
X76820Y130990D01*
X76807Y131200D01*
X76820Y131410D01*
X76860Y131597D01*
X76913Y131737D01*
X76993Y131853D01*
X77100Y131900D01*
G01X75953Y131083D02*
X75860Y131247D01*
X75780Y131340D01*
X75673Y131387D01*
X75580Y131340D01*
X75513Y131247D01*
X75460Y131107D01*
X75447Y130943D01*
X75460Y130803D01*
X75513Y130663D01*
X75593Y130547D01*
X75687Y130500D01*
X75793Y130547D01*
X75887Y130687D01*
X75940Y130897D01*
X75953Y131130D01*
X75927Y131433D01*
X75887Y131597D01*
X75820Y131760D01*
X75727Y131877D01*
X75633Y131900D01*
X75540Y131853D01*
X75473Y131737D01*
G01X74300Y131900D02*
X74407Y131853D01*
X74487Y131737D01*
X74540Y131597D01*
X74580Y131410D01*
X74593Y131200D01*
X74580Y130990D01*
X74540Y130803D01*
X74487Y130663D01*
X74407Y130547D01*
X74300Y130500D01*
X74193Y130547D01*
X74113Y130663D01*
X74060Y130803D01*
X74020Y130990D01*
X74007Y131200D01*
X74020Y131410D01*
X74060Y131597D01*
X74113Y131737D01*
X74193Y131853D01*
X74300Y131900D01*
G01X73193Y130780D02*
X73113Y130617D01*
X73007Y130523D01*
X72887Y130500D01*
X72780Y130523D01*
X72673Y130640D01*
X72607Y130780D01*
X72593Y130920D01*
X72620Y131083D01*
X72713Y131200D01*
X72807Y131247D01*
X72927D01*
G01X72807D02*
X72727Y131317D01*
X72660Y131433D01*
X72633Y131573D01*
X72660Y131713D01*
X72727Y131830D01*
X72847Y131900D01*
X72967Y131877D01*
X73087Y131783D01*
G01X71900Y130033D02*
X71100D01*
G01X70100Y130500D02*
Y131900D01*
X70260Y131620D01*
G01Y130500D02*
X69940D01*
G01X68700Y131900D02*
X68807Y131853D01*
X68887Y131737D01*
X68940Y131597D01*
X68980Y131410D01*
X68993Y131200D01*
X68980Y130990D01*
X68940Y130803D01*
X68887Y130663D01*
X68807Y130547D01*
X68700Y130500D01*
X68593Y130547D01*
X68513Y130663D01*
X68460Y130803D01*
X68420Y130990D01*
X68407Y131200D01*
X68420Y131410D01*
X68460Y131597D01*
X68513Y131737D01*
X68593Y131853D01*
X68700Y131900D01*
G01X67300D02*
X67407Y131853D01*
X67487Y131737D01*
X67540Y131597D01*
X67580Y131410D01*
X67593Y131200D01*
X67580Y130990D01*
X67540Y130803D01*
X67487Y130663D01*
X67407Y130547D01*
X67300Y130500D01*
X67193Y130547D01*
X67113Y130663D01*
X67060Y130803D01*
X67020Y130990D01*
X67007Y131200D01*
X67020Y131410D01*
X67060Y131597D01*
X67113Y131737D01*
X67193Y131853D01*
X67300Y131900D01*
G01X66193Y130500D02*
Y131900D01*
G01X65687D02*
X66193Y131037D01*
G01X65607Y130500D02*
X65967Y131433D01*
G01X80060Y131900D02*
X79740D01*
G01X79900D02*
Y130500D01*
G01X80060D02*
X79740D01*
G01X78780Y130687D02*
X78673Y130570D01*
X78553Y130500D01*
X78447D01*
X78340Y130570D01*
X78260Y130687D01*
X78220Y130850D01*
X78247Y131013D01*
X78313Y131153D01*
X78433Y131247D01*
X78593Y131293D01*
X78687Y131387D01*
X78727Y131550D01*
X78700Y131713D01*
X78633Y131830D01*
X78540Y131900D01*
X78447D01*
X78353Y131853D01*
X78273Y131737D01*
G01X76833Y130500D02*
X77367D01*
Y131900D01*
X76833D01*
G01X77047Y131223D02*
X77367D01*
G01X75700Y131900D02*
Y130500D01*
G01X76007Y131900D02*
X75393D01*
G01X74300Y130500D02*
Y131900D01*
X74460Y131620D01*
G01Y130500D02*
X74140D01*
G01X73300Y130033D02*
X72500D01*
G01X71767Y130500D02*
Y131900D01*
X71433D01*
X71327Y131830D01*
X71260Y131737D01*
X71233Y131550D01*
X71260Y131363D01*
X71340Y131247D01*
X71433Y131177D01*
X71767D01*
G01X71433D02*
X71233Y130500D01*
G01X70100D02*
Y131900D01*
X70260Y131620D01*
G01Y130500D02*
X69940D01*
G01X91367Y124000D02*
Y125400D01*
X91033D01*
X90927Y125330D01*
X90860Y125237D01*
X90833Y125050D01*
X90860Y124863D01*
X90940Y124747D01*
X91033Y124677D01*
X91367D01*
G01X91033D02*
X90833Y124000D01*
G01X90100Y123533D02*
X89300D01*
G01X88593Y124000D02*
Y125400D01*
X88327D01*
X88220Y125330D01*
X88140Y125237D01*
X88073Y125097D01*
X88020Y124933D01*
X88007Y124700D01*
X88020Y124467D01*
X88073Y124303D01*
X88140Y124163D01*
X88220Y124070D01*
X88327Y124000D01*
X88593D01*
G01X87193D02*
Y125400D01*
G01X86687D02*
X87193Y124537D01*
G01X86607Y124000D02*
X86967Y124933D01*
G01X85900Y123533D02*
X85100D01*
G01X84100Y125400D02*
X84207Y125353D01*
X84287Y125237D01*
X84340Y125097D01*
X84380Y124910D01*
X84393Y124700D01*
X84380Y124490D01*
X84340Y124303D01*
X84287Y124163D01*
X84207Y124047D01*
X84100Y124000D01*
X83993Y124047D01*
X83913Y124163D01*
X83860Y124303D01*
X83820Y124490D01*
X83807Y124700D01*
X83820Y124910D01*
X83860Y125097D01*
X83913Y125237D01*
X83993Y125353D01*
X84100Y125400D01*
G01X82953Y124583D02*
X82860Y124747D01*
X82780Y124840D01*
X82673Y124887D01*
X82580Y124840D01*
X82513Y124747D01*
X82460Y124607D01*
X82447Y124443D01*
X82460Y124303D01*
X82513Y124163D01*
X82593Y124047D01*
X82687Y124000D01*
X82793Y124047D01*
X82887Y124187D01*
X82940Y124397D01*
X82953Y124630D01*
X82927Y124933D01*
X82887Y125097D01*
X82820Y125260D01*
X82727Y125377D01*
X82633Y125400D01*
X82540Y125353D01*
X82473Y125237D01*
G01X81300Y125400D02*
X81407Y125353D01*
X81487Y125237D01*
X81540Y125097D01*
X81580Y124910D01*
X81593Y124700D01*
X81580Y124490D01*
X81540Y124303D01*
X81487Y124163D01*
X81407Y124047D01*
X81300Y124000D01*
X81193Y124047D01*
X81113Y124163D01*
X81060Y124303D01*
X81020Y124490D01*
X81007Y124700D01*
X81020Y124910D01*
X81060Y125097D01*
X81113Y125237D01*
X81193Y125353D01*
X81300Y125400D01*
G01X80193Y124280D02*
X80113Y124117D01*
X80007Y124023D01*
X79887Y124000D01*
X79780Y124023D01*
X79673Y124140D01*
X79607Y124280D01*
X79593Y124420D01*
X79620Y124583D01*
X79713Y124700D01*
X79807Y124747D01*
X79927D01*
G01X79807D02*
X79727Y124817D01*
X79660Y124933D01*
X79633Y125073D01*
X79660Y125213D01*
X79727Y125330D01*
X79847Y125400D01*
X79967Y125377D01*
X80087Y125283D01*
G01X78900Y123533D02*
X78100D01*
G01X77100Y124000D02*
Y125400D01*
X77260Y125120D01*
G01Y124000D02*
X76940D01*
G01X75993Y124280D02*
X75913Y124117D01*
X75807Y124023D01*
X75687Y124000D01*
X75580Y124023D01*
X75473Y124140D01*
X75407Y124280D01*
X75393Y124420D01*
X75420Y124583D01*
X75513Y124700D01*
X75607Y124747D01*
X75727D01*
G01X75607D02*
X75527Y124817D01*
X75460Y124933D01*
X75433Y125073D01*
X75460Y125213D01*
X75527Y125330D01*
X75647Y125400D01*
X75767Y125377D01*
X75887Y125283D01*
G01X74300Y125400D02*
X74407Y125353D01*
X74487Y125237D01*
X74540Y125097D01*
X74580Y124910D01*
X74593Y124700D01*
X74580Y124490D01*
X74540Y124303D01*
X74487Y124163D01*
X74407Y124047D01*
X74300Y124000D01*
X74193Y124047D01*
X74113Y124163D01*
X74060Y124303D01*
X74020Y124490D01*
X74007Y124700D01*
X74020Y124910D01*
X74060Y125097D01*
X74113Y125237D01*
X74193Y125353D01*
X74300Y125400D01*
G01X73193Y124000D02*
Y125400D01*
G01X72687D02*
X73193Y124537D01*
G01X72607Y124000D02*
X72967Y124933D01*
G01X87060Y125400D02*
X86740D01*
G01X86900D02*
Y124000D01*
G01X87060D02*
X86740D01*
G01X85780Y124187D02*
X85673Y124070D01*
X85553Y124000D01*
X85447D01*
X85340Y124070D01*
X85260Y124187D01*
X85220Y124350D01*
X85247Y124513D01*
X85313Y124653D01*
X85433Y124747D01*
X85593Y124793D01*
X85687Y124887D01*
X85727Y125050D01*
X85700Y125213D01*
X85633Y125330D01*
X85540Y125400D01*
X85447D01*
X85353Y125353D01*
X85273Y125237D01*
G01X83833Y124000D02*
X84367D01*
Y125400D01*
X83833D01*
G01X84047Y124723D02*
X84367D01*
G01X82700Y125400D02*
Y124000D01*
G01X83007Y125400D02*
X82393D01*
G01X81553Y125167D02*
X81473Y125307D01*
X81380Y125377D01*
X81273Y125400D01*
X81140Y125353D01*
X81047Y125237D01*
X81020Y125097D01*
X81033Y124957D01*
X81087Y124840D01*
X81353Y124607D01*
X81473Y124443D01*
X81553Y124210D01*
X81580Y124000D01*
X81020D01*
G01X80300Y123533D02*
X79500D01*
G01X78767Y124000D02*
Y125400D01*
X78433D01*
X78327Y125330D01*
X78260Y125237D01*
X78233Y125050D01*
X78260Y124863D01*
X78340Y124747D01*
X78433Y124677D01*
X78767D01*
G01X78433D02*
X78233Y124000D01*
G01X77100D02*
Y125400D01*
X77260Y125120D01*
G01Y124000D02*
X76940D01*
G01X162307Y45783D02*
X162387Y45853D01*
X162480Y45900D01*
X162587D01*
X162707Y45830D01*
X162800Y45713D01*
X162867Y45573D01*
X162920Y45340D01*
X162933Y45130D01*
X162907Y44920D01*
X162867Y44780D01*
X162787Y44640D01*
X162693Y44547D01*
X162600Y44500D01*
X162507D01*
X162413Y44547D01*
X162333Y44617D01*
X162267Y44710D01*
G01X161600Y44033D02*
X160800D01*
G01X160107Y44500D02*
Y45900D01*
X159493Y44500D01*
Y45900D01*
G01X158667Y44500D02*
Y45900D01*
X158347D01*
X158240Y45830D01*
X158160Y45667D01*
X158133Y45480D01*
X158160Y45293D01*
X158227Y45153D01*
X158347Y45083D01*
X158667D01*
G01X157400Y44033D02*
X156600D01*
G01X155893Y44500D02*
Y45900D01*
X155627D01*
X155520Y45830D01*
X155440Y45737D01*
X155373Y45597D01*
X155320Y45433D01*
X155307Y45200D01*
X155320Y44967D01*
X155373Y44803D01*
X155440Y44663D01*
X155520Y44570D01*
X155627Y44500D01*
X155893D01*
G01X154493D02*
Y45900D01*
G01X153987D02*
X154493Y45037D01*
G01X153907Y44500D02*
X154267Y45433D01*
G01X153200Y44033D02*
X152400D01*
G01X151400Y44500D02*
Y45900D01*
X151560Y45620D01*
G01Y44500D02*
X151240D01*
G01X150253Y45667D02*
X150173Y45807D01*
X150080Y45877D01*
X149973Y45900D01*
X149840Y45853D01*
X149747Y45737D01*
X149720Y45597D01*
X149733Y45457D01*
X149787Y45340D01*
X150053Y45107D01*
X150173Y44943D01*
X150253Y44710D01*
X150280Y44500D01*
X149720D01*
G01X148600Y45900D02*
X148707Y45853D01*
X148787Y45737D01*
X148840Y45597D01*
X148880Y45410D01*
X148893Y45200D01*
X148880Y44990D01*
X148840Y44803D01*
X148787Y44663D01*
X148707Y44547D01*
X148600Y44500D01*
X148493Y44547D01*
X148413Y44663D01*
X148360Y44803D01*
X148320Y44990D01*
X148307Y45200D01*
X148320Y45410D01*
X148360Y45597D01*
X148413Y45737D01*
X148493Y45853D01*
X148600Y45900D01*
G01X147453Y45083D02*
X147360Y45247D01*
X147280Y45340D01*
X147173Y45387D01*
X147080Y45340D01*
X147013Y45247D01*
X146960Y45107D01*
X146947Y44943D01*
X146960Y44803D01*
X147013Y44663D01*
X147093Y44547D01*
X147187Y44500D01*
X147293Y44547D01*
X147387Y44687D01*
X147440Y44897D01*
X147453Y45130D01*
X147427Y45433D01*
X147387Y45597D01*
X147320Y45760D01*
X147227Y45877D01*
X147133Y45900D01*
X147040Y45853D01*
X146973Y45737D01*
G01X146200Y44033D02*
X145400D01*
G01X144400Y44500D02*
Y45900D01*
X144560Y45620D01*
G01Y44500D02*
X144240D01*
G01X143000Y45900D02*
X143107Y45853D01*
X143187Y45737D01*
X143240Y45597D01*
X143280Y45410D01*
X143293Y45200D01*
X143280Y44990D01*
X143240Y44803D01*
X143187Y44663D01*
X143107Y44547D01*
X143000Y44500D01*
X142893Y44547D01*
X142813Y44663D01*
X142760Y44803D01*
X142720Y44990D01*
X142707Y45200D01*
X142720Y45410D01*
X142760Y45597D01*
X142813Y45737D01*
X142893Y45853D01*
X143000Y45900D01*
G01X141893D02*
Y44897D01*
X141840Y44687D01*
X141733Y44547D01*
X141600Y44500D01*
X141467Y44547D01*
X141360Y44687D01*
X141307Y44897D01*
Y45900D01*
G01X140453Y44500D02*
Y45900D01*
X139947D01*
G01X140133Y45223D02*
X140453D01*
G01X162307Y55183D02*
X162387Y55253D01*
X162480Y55300D01*
X162587D01*
X162707Y55230D01*
X162800Y55113D01*
X162867Y54973D01*
X162920Y54740D01*
X162933Y54530D01*
X162907Y54320D01*
X162867Y54180D01*
X162787Y54040D01*
X162693Y53947D01*
X162600Y53900D01*
X162507D01*
X162413Y53947D01*
X162333Y54017D01*
X162267Y54110D01*
G01X161600Y53433D02*
X160800D01*
G01X160107Y53900D02*
Y55300D01*
X159493Y53900D01*
Y55300D01*
G01X158667Y53900D02*
Y55300D01*
X158347D01*
X158240Y55230D01*
X158160Y55067D01*
X158133Y54880D01*
X158160Y54693D01*
X158227Y54553D01*
X158347Y54483D01*
X158667D01*
G01X157400Y53433D02*
X156600D01*
G01X155893Y53900D02*
Y55300D01*
X155627D01*
X155520Y55230D01*
X155440Y55137D01*
X155373Y54997D01*
X155320Y54833D01*
X155307Y54600D01*
X155320Y54367D01*
X155373Y54203D01*
X155440Y54063D01*
X155520Y53970D01*
X155627Y53900D01*
X155893D01*
G01X154493D02*
Y55300D01*
G01X153987D02*
X154493Y54437D01*
G01X153907Y53900D02*
X154267Y54833D01*
G01X153200Y53433D02*
X152400D01*
G01X151400Y53900D02*
Y55300D01*
X151560Y55020D01*
G01Y53900D02*
X151240D01*
G01X150253Y55067D02*
X150173Y55207D01*
X150080Y55277D01*
X149973Y55300D01*
X149840Y55253D01*
X149747Y55137D01*
X149720Y54997D01*
X149733Y54857D01*
X149787Y54740D01*
X150053Y54507D01*
X150173Y54343D01*
X150253Y54110D01*
X150280Y53900D01*
X149720D01*
G01X148600Y55300D02*
X148707Y55253D01*
X148787Y55137D01*
X148840Y54997D01*
X148880Y54810D01*
X148893Y54600D01*
X148880Y54390D01*
X148840Y54203D01*
X148787Y54063D01*
X148707Y53947D01*
X148600Y53900D01*
X148493Y53947D01*
X148413Y54063D01*
X148360Y54203D01*
X148320Y54390D01*
X148307Y54600D01*
X148320Y54810D01*
X148360Y54997D01*
X148413Y55137D01*
X148493Y55253D01*
X148600Y55300D01*
G01X147453Y54483D02*
X147360Y54647D01*
X147280Y54740D01*
X147173Y54787D01*
X147080Y54740D01*
X147013Y54647D01*
X146960Y54507D01*
X146947Y54343D01*
X146960Y54203D01*
X147013Y54063D01*
X147093Y53947D01*
X147187Y53900D01*
X147293Y53947D01*
X147387Y54087D01*
X147440Y54297D01*
X147453Y54530D01*
X147427Y54833D01*
X147387Y54997D01*
X147320Y55160D01*
X147227Y55277D01*
X147133Y55300D01*
X147040Y55253D01*
X146973Y55137D01*
G01X146200Y53433D02*
X145400D01*
G01X144400Y53900D02*
Y55300D01*
X144560Y55020D01*
G01Y53900D02*
X144240D01*
G01X143000Y55300D02*
X143107Y55253D01*
X143187Y55137D01*
X143240Y54997D01*
X143280Y54810D01*
X143293Y54600D01*
X143280Y54390D01*
X143240Y54203D01*
X143187Y54063D01*
X143107Y53947D01*
X143000Y53900D01*
X142893Y53947D01*
X142813Y54063D01*
X142760Y54203D01*
X142720Y54390D01*
X142707Y54600D01*
X142720Y54810D01*
X142760Y54997D01*
X142813Y55137D01*
X142893Y55253D01*
X143000Y55300D01*
G01X141893D02*
Y54297D01*
X141840Y54087D01*
X141733Y53947D01*
X141600Y53900D01*
X141467Y53947D01*
X141360Y54087D01*
X141307Y54297D01*
Y55300D01*
G01X140453Y53900D02*
Y55300D01*
X139947D01*
G01X140133Y54623D02*
X140453D01*
G01X162307Y64583D02*
X162387Y64653D01*
X162480Y64700D01*
X162587D01*
X162707Y64630D01*
X162800Y64513D01*
X162867Y64373D01*
X162920Y64140D01*
X162933Y63930D01*
X162907Y63720D01*
X162867Y63580D01*
X162787Y63440D01*
X162693Y63347D01*
X162600Y63300D01*
X162507D01*
X162413Y63347D01*
X162333Y63417D01*
X162267Y63510D01*
G01X161600Y62833D02*
X160800D01*
G01X160107Y63300D02*
Y64700D01*
X159493Y63300D01*
Y64700D01*
G01X158667Y63300D02*
Y64700D01*
X158347D01*
X158240Y64630D01*
X158160Y64467D01*
X158133Y64280D01*
X158160Y64093D01*
X158227Y63953D01*
X158347Y63883D01*
X158667D01*
G01X157400Y62833D02*
X156600D01*
G01X155893Y63300D02*
Y64700D01*
X155627D01*
X155520Y64630D01*
X155440Y64537D01*
X155373Y64397D01*
X155320Y64233D01*
X155307Y64000D01*
X155320Y63767D01*
X155373Y63603D01*
X155440Y63463D01*
X155520Y63370D01*
X155627Y63300D01*
X155893D01*
G01X154493D02*
Y64700D01*
G01X153987D02*
X154493Y63837D01*
G01X153907Y63300D02*
X154267Y64233D01*
G01X153200Y62833D02*
X152400D01*
G01X151400Y63300D02*
Y64700D01*
X151560Y64420D01*
G01Y63300D02*
X151240D01*
G01X150253Y64467D02*
X150173Y64607D01*
X150080Y64677D01*
X149973Y64700D01*
X149840Y64653D01*
X149747Y64537D01*
X149720Y64397D01*
X149733Y64257D01*
X149787Y64140D01*
X150053Y63907D01*
X150173Y63743D01*
X150253Y63510D01*
X150280Y63300D01*
X149720D01*
G01X148600Y64700D02*
X148707Y64653D01*
X148787Y64537D01*
X148840Y64397D01*
X148880Y64210D01*
X148893Y64000D01*
X148880Y63790D01*
X148840Y63603D01*
X148787Y63463D01*
X148707Y63347D01*
X148600Y63300D01*
X148493Y63347D01*
X148413Y63463D01*
X148360Y63603D01*
X148320Y63790D01*
X148307Y64000D01*
X148320Y64210D01*
X148360Y64397D01*
X148413Y64537D01*
X148493Y64653D01*
X148600Y64700D01*
G01X147453Y63883D02*
X147360Y64047D01*
X147280Y64140D01*
X147173Y64187D01*
X147080Y64140D01*
X147013Y64047D01*
X146960Y63907D01*
X146947Y63743D01*
X146960Y63603D01*
X147013Y63463D01*
X147093Y63347D01*
X147187Y63300D01*
X147293Y63347D01*
X147387Y63487D01*
X147440Y63697D01*
X147453Y63930D01*
X147427Y64233D01*
X147387Y64397D01*
X147320Y64560D01*
X147227Y64677D01*
X147133Y64700D01*
X147040Y64653D01*
X146973Y64537D01*
G01X146200Y62833D02*
X145400D01*
G01X144400Y63300D02*
Y64700D01*
X144560Y64420D01*
G01Y63300D02*
X144240D01*
G01X143000Y64700D02*
X143107Y64653D01*
X143187Y64537D01*
X143240Y64397D01*
X143280Y64210D01*
X143293Y64000D01*
X143280Y63790D01*
X143240Y63603D01*
X143187Y63463D01*
X143107Y63347D01*
X143000Y63300D01*
X142893Y63347D01*
X142813Y63463D01*
X142760Y63603D01*
X142720Y63790D01*
X142707Y64000D01*
X142720Y64210D01*
X142760Y64397D01*
X142813Y64537D01*
X142893Y64653D01*
X143000Y64700D01*
G01X141893D02*
Y63697D01*
X141840Y63487D01*
X141733Y63347D01*
X141600Y63300D01*
X141467Y63347D01*
X141360Y63487D01*
X141307Y63697D01*
Y64700D01*
G01X140453Y63300D02*
Y64700D01*
X139947D01*
G01X140133Y64023D02*
X140453D01*
G01X154493Y44710D02*
X154413Y44593D01*
X154320Y44523D01*
X154200Y44500D01*
X154080Y44547D01*
X153987Y44640D01*
X153920Y44803D01*
X153907Y44990D01*
X153933Y45177D01*
X154000Y45293D01*
X154093Y45387D01*
X154187Y45410D01*
X154280Y45387D01*
X154400Y45293D01*
X154360Y45900D01*
X154000D01*
G01X153133D02*
X152800Y44500D01*
X152467Y45900D01*
G01X151800Y44033D02*
X151000D01*
G01X149707Y45783D02*
X149787Y45853D01*
X149880Y45900D01*
X149987D01*
X150107Y45830D01*
X150200Y45713D01*
X150267Y45573D01*
X150320Y45340D01*
X150333Y45130D01*
X150307Y44920D01*
X150267Y44780D01*
X150187Y44640D01*
X150093Y44547D01*
X150000Y44500D01*
X149907D01*
X149813Y44547D01*
X149733Y44617D01*
X149667Y44710D01*
G01X148600Y44500D02*
Y45900D01*
X148760Y45620D01*
G01Y44500D02*
X148440D01*
G01X154493Y54110D02*
X154413Y53993D01*
X154320Y53923D01*
X154200Y53900D01*
X154080Y53947D01*
X153987Y54040D01*
X153920Y54203D01*
X153907Y54390D01*
X153933Y54577D01*
X154000Y54693D01*
X154093Y54787D01*
X154187Y54810D01*
X154280Y54787D01*
X154400Y54693D01*
X154360Y55300D01*
X154000D01*
G01X153133D02*
X152800Y53900D01*
X152467Y55300D01*
G01X151800Y53433D02*
X151000D01*
G01X149707Y55183D02*
X149787Y55253D01*
X149880Y55300D01*
X149987D01*
X150107Y55230D01*
X150200Y55113D01*
X150267Y54973D01*
X150320Y54740D01*
X150333Y54530D01*
X150307Y54320D01*
X150267Y54180D01*
X150187Y54040D01*
X150093Y53947D01*
X150000Y53900D01*
X149907D01*
X149813Y53947D01*
X149733Y54017D01*
X149667Y54110D01*
G01X148853Y55067D02*
X148773Y55207D01*
X148680Y55277D01*
X148573Y55300D01*
X148440Y55253D01*
X148347Y55137D01*
X148320Y54997D01*
X148333Y54857D01*
X148387Y54740D01*
X148653Y54507D01*
X148773Y54343D01*
X148853Y54110D01*
X148880Y53900D01*
X148320D01*
G01X154493Y63510D02*
X154413Y63393D01*
X154320Y63323D01*
X154200Y63300D01*
X154080Y63347D01*
X153987Y63440D01*
X153920Y63603D01*
X153907Y63790D01*
X153933Y63977D01*
X154000Y64093D01*
X154093Y64187D01*
X154187Y64210D01*
X154280Y64187D01*
X154400Y64093D01*
X154360Y64700D01*
X154000D01*
G01X153133D02*
X152800Y63300D01*
X152467Y64700D01*
G01X151800Y62833D02*
X151000D01*
G01X149707Y64583D02*
X149787Y64653D01*
X149880Y64700D01*
X149987D01*
X150107Y64630D01*
X150200Y64513D01*
X150267Y64373D01*
X150320Y64140D01*
X150333Y63930D01*
X150307Y63720D01*
X150267Y63580D01*
X150187Y63440D01*
X150093Y63347D01*
X150000Y63300D01*
X149907D01*
X149813Y63347D01*
X149733Y63417D01*
X149667Y63510D01*
G01X148893Y63580D02*
X148813Y63417D01*
X148707Y63323D01*
X148587Y63300D01*
X148480Y63323D01*
X148373Y63440D01*
X148307Y63580D01*
X148293Y63720D01*
X148320Y63883D01*
X148413Y64000D01*
X148507Y64047D01*
X148627D01*
G01X148507D02*
X148427Y64117D01*
X148360Y64233D01*
X148333Y64373D01*
X148360Y64513D01*
X148427Y64630D01*
X148547Y64700D01*
X148667Y64677D01*
X148787Y64583D01*
G01X196207Y43783D02*
X196287Y43853D01*
X196380Y43900D01*
X196487D01*
X196607Y43830D01*
X196700Y43713D01*
X196767Y43573D01*
X196820Y43340D01*
X196833Y43130D01*
X196807Y42920D01*
X196767Y42780D01*
X196687Y42640D01*
X196593Y42547D01*
X196500Y42500D01*
X196407D01*
X196313Y42547D01*
X196233Y42617D01*
X196167Y42710D01*
G01X195500Y42033D02*
X194700D01*
G01X194007Y42500D02*
Y43900D01*
X193393Y42500D01*
Y43900D01*
G01X192567Y42500D02*
Y43900D01*
X192247D01*
X192140Y43830D01*
X192060Y43667D01*
X192033Y43480D01*
X192060Y43293D01*
X192127Y43153D01*
X192247Y43083D01*
X192567D01*
G01X191300Y42033D02*
X190500D01*
G01X189793Y42500D02*
Y43900D01*
X189527D01*
X189420Y43830D01*
X189340Y43737D01*
X189273Y43597D01*
X189220Y43433D01*
X189207Y43200D01*
X189220Y42967D01*
X189273Y42803D01*
X189340Y42663D01*
X189420Y42570D01*
X189527Y42500D01*
X189793D01*
G01X188393D02*
Y43900D01*
G01X187887D02*
X188393Y43037D01*
G01X187807Y42500D02*
X188167Y43433D01*
G01X187100Y42033D02*
X186300D01*
G01X185300Y43900D02*
X185407Y43853D01*
X185487Y43737D01*
X185540Y43597D01*
X185580Y43410D01*
X185593Y43200D01*
X185580Y42990D01*
X185540Y42803D01*
X185487Y42663D01*
X185407Y42547D01*
X185300Y42500D01*
X185193Y42547D01*
X185113Y42663D01*
X185060Y42803D01*
X185020Y42990D01*
X185007Y43200D01*
X185020Y43410D01*
X185060Y43597D01*
X185113Y43737D01*
X185193Y43853D01*
X185300Y43900D01*
G01X184153Y43083D02*
X184060Y43247D01*
X183980Y43340D01*
X183873Y43387D01*
X183780Y43340D01*
X183713Y43247D01*
X183660Y43107D01*
X183647Y42943D01*
X183660Y42803D01*
X183713Y42663D01*
X183793Y42547D01*
X183887Y42500D01*
X183993Y42547D01*
X184087Y42687D01*
X184140Y42897D01*
X184153Y43130D01*
X184127Y43433D01*
X184087Y43597D01*
X184020Y43760D01*
X183927Y43877D01*
X183833Y43900D01*
X183740Y43853D01*
X183673Y43737D01*
G01X182500Y43900D02*
X182607Y43853D01*
X182687Y43737D01*
X182740Y43597D01*
X182780Y43410D01*
X182793Y43200D01*
X182780Y42990D01*
X182740Y42803D01*
X182687Y42663D01*
X182607Y42547D01*
X182500Y42500D01*
X182393Y42547D01*
X182313Y42663D01*
X182260Y42803D01*
X182220Y42990D01*
X182207Y43200D01*
X182220Y43410D01*
X182260Y43597D01*
X182313Y43737D01*
X182393Y43853D01*
X182500Y43900D01*
G01X181393Y42780D02*
X181313Y42617D01*
X181207Y42523D01*
X181087Y42500D01*
X180980Y42523D01*
X180873Y42640D01*
X180807Y42780D01*
X180793Y42920D01*
X180820Y43083D01*
X180913Y43200D01*
X181007Y43247D01*
X181127D01*
G01X181007D02*
X180927Y43317D01*
X180860Y43433D01*
X180833Y43573D01*
X180860Y43713D01*
X180927Y43830D01*
X181047Y43900D01*
X181167Y43877D01*
X181287Y43783D01*
G01X180100Y42033D02*
X179300D01*
G01X178553Y43667D02*
X178473Y43807D01*
X178380Y43877D01*
X178273Y43900D01*
X178140Y43853D01*
X178047Y43737D01*
X178020Y43597D01*
X178033Y43457D01*
X178087Y43340D01*
X178353Y43107D01*
X178473Y42943D01*
X178553Y42710D01*
X178580Y42500D01*
X178020D01*
G01X177153Y43667D02*
X177073Y43807D01*
X176980Y43877D01*
X176873Y43900D01*
X176740Y43853D01*
X176647Y43737D01*
X176620Y43597D01*
X176633Y43457D01*
X176687Y43340D01*
X176953Y43107D01*
X177073Y42943D01*
X177153Y42710D01*
X177180Y42500D01*
X176620D01*
G01X175793Y43900D02*
Y42897D01*
X175740Y42687D01*
X175633Y42547D01*
X175500Y42500D01*
X175367Y42547D01*
X175260Y42687D01*
X175207Y42897D01*
Y43900D01*
G01X174353Y42500D02*
Y43900D01*
X173847D01*
G01X174033Y43223D02*
X174353D01*
G01X188393Y42710D02*
X188313Y42593D01*
X188220Y42523D01*
X188100Y42500D01*
X187980Y42547D01*
X187887Y42640D01*
X187820Y42803D01*
X187807Y42990D01*
X187833Y43177D01*
X187900Y43293D01*
X187993Y43387D01*
X188087Y43410D01*
X188180Y43387D01*
X188300Y43293D01*
X188260Y43900D01*
X187900D01*
G01X187033D02*
X186700Y42500D01*
X186367Y43900D01*
G01X185700Y42033D02*
X184900D01*
G01X183607Y43783D02*
X183687Y43853D01*
X183780Y43900D01*
X183887D01*
X184007Y43830D01*
X184100Y43713D01*
X184167Y43573D01*
X184220Y43340D01*
X184233Y43130D01*
X184207Y42920D01*
X184167Y42780D01*
X184087Y42640D01*
X183993Y42547D01*
X183900Y42500D01*
X183807D01*
X183713Y42547D01*
X183633Y42617D01*
X183567Y42710D01*
G01X182340Y42500D02*
Y43900D01*
X182833Y42897D01*
X182167D01*
G01X185507Y40483D02*
X185587Y40553D01*
X185680Y40600D01*
X185787D01*
X185907Y40530D01*
X186000Y40413D01*
X186067Y40273D01*
X186120Y40040D01*
X186133Y39830D01*
X186107Y39620D01*
X186067Y39480D01*
X185987Y39340D01*
X185893Y39247D01*
X185800Y39200D01*
X185707D01*
X185613Y39247D01*
X185533Y39317D01*
X185467Y39410D01*
G01X184800Y38733D02*
X184000D01*
G01X183307Y39200D02*
Y40600D01*
X182693Y39200D01*
Y40600D01*
G01X181867Y39200D02*
Y40600D01*
X181547D01*
X181440Y40530D01*
X181360Y40367D01*
X181333Y40180D01*
X181360Y39993D01*
X181427Y39853D01*
X181547Y39783D01*
X181867D01*
G01X180600Y38733D02*
X179800D01*
G01X179093Y39200D02*
Y40600D01*
X178827D01*
X178720Y40530D01*
X178640Y40437D01*
X178573Y40297D01*
X178520Y40133D01*
X178507Y39900D01*
X178520Y39667D01*
X178573Y39503D01*
X178640Y39363D01*
X178720Y39270D01*
X178827Y39200D01*
X179093D01*
G01X177693D02*
Y40600D01*
G01X177187D02*
X177693Y39737D01*
G01X177107Y39200D02*
X177467Y40133D01*
G01X176400Y38733D02*
X175600D01*
G01X174600Y40600D02*
X174707Y40553D01*
X174787Y40437D01*
X174840Y40297D01*
X174880Y40110D01*
X174893Y39900D01*
X174880Y39690D01*
X174840Y39503D01*
X174787Y39363D01*
X174707Y39247D01*
X174600Y39200D01*
X174493Y39247D01*
X174413Y39363D01*
X174360Y39503D01*
X174320Y39690D01*
X174307Y39900D01*
X174320Y40110D01*
X174360Y40297D01*
X174413Y40437D01*
X174493Y40553D01*
X174600Y40600D01*
G01X173453Y39783D02*
X173360Y39947D01*
X173280Y40040D01*
X173173Y40087D01*
X173080Y40040D01*
X173013Y39947D01*
X172960Y39807D01*
X172947Y39643D01*
X172960Y39503D01*
X173013Y39363D01*
X173093Y39247D01*
X173187Y39200D01*
X173293Y39247D01*
X173387Y39387D01*
X173440Y39597D01*
X173453Y39830D01*
X173427Y40133D01*
X173387Y40297D01*
X173320Y40460D01*
X173227Y40577D01*
X173133Y40600D01*
X173040Y40553D01*
X172973Y40437D01*
G01X171800Y40600D02*
X171907Y40553D01*
X171987Y40437D01*
X172040Y40297D01*
X172080Y40110D01*
X172093Y39900D01*
X172080Y39690D01*
X172040Y39503D01*
X171987Y39363D01*
X171907Y39247D01*
X171800Y39200D01*
X171693Y39247D01*
X171613Y39363D01*
X171560Y39503D01*
X171520Y39690D01*
X171507Y39900D01*
X171520Y40110D01*
X171560Y40297D01*
X171613Y40437D01*
X171693Y40553D01*
X171800Y40600D01*
G01X170693Y39480D02*
X170613Y39317D01*
X170507Y39223D01*
X170387Y39200D01*
X170280Y39223D01*
X170173Y39340D01*
X170107Y39480D01*
X170093Y39620D01*
X170120Y39783D01*
X170213Y39900D01*
X170307Y39947D01*
X170427D01*
G01X170307D02*
X170227Y40017D01*
X170160Y40133D01*
X170133Y40273D01*
X170160Y40413D01*
X170227Y40530D01*
X170347Y40600D01*
X170467Y40577D01*
X170587Y40483D01*
G01X169400Y38733D02*
X168600D01*
G01X167600Y39153D02*
X167627Y39177D01*
Y39223D01*
X167600Y39247D01*
X167573Y39223D01*
Y39177D01*
X167600Y39153D01*
G01X166200Y39200D02*
Y40600D01*
X166360Y40320D01*
G01Y39200D02*
X166040D01*
G01X165093Y40600D02*
Y39597D01*
X165040Y39387D01*
X164933Y39247D01*
X164800Y39200D01*
X164667Y39247D01*
X164560Y39387D01*
X164507Y39597D01*
Y40600D01*
G01X163653Y39200D02*
Y40600D01*
X163147D01*
G01X163333Y39923D02*
X163653D01*
G01X177693Y39410D02*
X177613Y39293D01*
X177520Y39223D01*
X177400Y39200D01*
X177280Y39247D01*
X177187Y39340D01*
X177120Y39503D01*
X177107Y39690D01*
X177133Y39877D01*
X177200Y39993D01*
X177293Y40087D01*
X177387Y40110D01*
X177480Y40087D01*
X177600Y39993D01*
X177560Y40600D01*
X177200D01*
G01X176333D02*
X176000Y39200D01*
X175667Y40600D01*
G01X175000Y38733D02*
X174200D01*
G01X172907Y40483D02*
X172987Y40553D01*
X173080Y40600D01*
X173187D01*
X173307Y40530D01*
X173400Y40413D01*
X173467Y40273D01*
X173520Y40040D01*
X173533Y39830D01*
X173507Y39620D01*
X173467Y39480D01*
X173387Y39340D01*
X173293Y39247D01*
X173200Y39200D01*
X173107D01*
X173013Y39247D01*
X172933Y39317D01*
X172867Y39410D01*
G01X171827Y39200D02*
X171800Y39503D01*
X171760Y39760D01*
X171707Y39993D01*
X171640Y40250D01*
X171533Y40600D01*
X172067D01*
G01X196207Y49733D02*
X196287Y49803D01*
X196380Y49850D01*
X196487D01*
X196607Y49780D01*
X196700Y49663D01*
X196767Y49523D01*
X196820Y49290D01*
X196833Y49080D01*
X196807Y48870D01*
X196767Y48730D01*
X196687Y48590D01*
X196593Y48497D01*
X196500Y48450D01*
X196407D01*
X196313Y48497D01*
X196233Y48567D01*
X196167Y48660D01*
G01X195500Y47983D02*
X194700D01*
G01X194007Y48450D02*
Y49850D01*
X193393Y48450D01*
Y49850D01*
G01X192567Y48450D02*
Y49850D01*
X192247D01*
X192140Y49780D01*
X192060Y49617D01*
X192033Y49430D01*
X192060Y49243D01*
X192127Y49103D01*
X192247Y49033D01*
X192567D01*
G01X191300Y47983D02*
X190500D01*
G01X189793Y48450D02*
Y49850D01*
X189527D01*
X189420Y49780D01*
X189340Y49687D01*
X189273Y49547D01*
X189220Y49383D01*
X189207Y49150D01*
X189220Y48917D01*
X189273Y48753D01*
X189340Y48613D01*
X189420Y48520D01*
X189527Y48450D01*
X189793D01*
G01X188393D02*
Y49850D01*
G01X187887D02*
X188393Y48987D01*
G01X187807Y48450D02*
X188167Y49383D01*
G01X187100Y47983D02*
X186300D01*
G01X185300Y49850D02*
X185407Y49803D01*
X185487Y49687D01*
X185540Y49547D01*
X185580Y49360D01*
X185593Y49150D01*
X185580Y48940D01*
X185540Y48753D01*
X185487Y48613D01*
X185407Y48497D01*
X185300Y48450D01*
X185193Y48497D01*
X185113Y48613D01*
X185060Y48753D01*
X185020Y48940D01*
X185007Y49150D01*
X185020Y49360D01*
X185060Y49547D01*
X185113Y49687D01*
X185193Y49803D01*
X185300Y49850D01*
G01X184153Y49033D02*
X184060Y49197D01*
X183980Y49290D01*
X183873Y49337D01*
X183780Y49290D01*
X183713Y49197D01*
X183660Y49057D01*
X183647Y48893D01*
X183660Y48753D01*
X183713Y48613D01*
X183793Y48497D01*
X183887Y48450D01*
X183993Y48497D01*
X184087Y48637D01*
X184140Y48847D01*
X184153Y49080D01*
X184127Y49383D01*
X184087Y49547D01*
X184020Y49710D01*
X183927Y49827D01*
X183833Y49850D01*
X183740Y49803D01*
X183673Y49687D01*
G01X182500Y49850D02*
X182607Y49803D01*
X182687Y49687D01*
X182740Y49547D01*
X182780Y49360D01*
X182793Y49150D01*
X182780Y48940D01*
X182740Y48753D01*
X182687Y48613D01*
X182607Y48497D01*
X182500Y48450D01*
X182393Y48497D01*
X182313Y48613D01*
X182260Y48753D01*
X182220Y48940D01*
X182207Y49150D01*
X182220Y49360D01*
X182260Y49547D01*
X182313Y49687D01*
X182393Y49803D01*
X182500Y49850D01*
G01X181393Y48730D02*
X181313Y48567D01*
X181207Y48473D01*
X181087Y48450D01*
X180980Y48473D01*
X180873Y48590D01*
X180807Y48730D01*
X180793Y48870D01*
X180820Y49033D01*
X180913Y49150D01*
X181007Y49197D01*
X181127D01*
G01X181007D02*
X180927Y49267D01*
X180860Y49383D01*
X180833Y49523D01*
X180860Y49663D01*
X180927Y49780D01*
X181047Y49850D01*
X181167Y49827D01*
X181287Y49733D01*
G01X180100Y47983D02*
X179300D01*
G01X178553Y49617D02*
X178473Y49757D01*
X178380Y49827D01*
X178273Y49850D01*
X178140Y49803D01*
X178047Y49687D01*
X178020Y49547D01*
X178033Y49407D01*
X178087Y49290D01*
X178353Y49057D01*
X178473Y48893D01*
X178553Y48660D01*
X178580Y48450D01*
X178020D01*
G01X177153Y49617D02*
X177073Y49757D01*
X176980Y49827D01*
X176873Y49850D01*
X176740Y49803D01*
X176647Y49687D01*
X176620Y49547D01*
X176633Y49407D01*
X176687Y49290D01*
X176953Y49057D01*
X177073Y48893D01*
X177153Y48660D01*
X177180Y48450D01*
X176620D01*
G01X175793Y49850D02*
Y48847D01*
X175740Y48637D01*
X175633Y48497D01*
X175500Y48450D01*
X175367Y48497D01*
X175260Y48637D01*
X175207Y48847D01*
Y49850D01*
G01X174353Y48450D02*
Y49850D01*
X173847D01*
G01X174033Y49173D02*
X174353D01*
G01X188393Y48660D02*
X188313Y48543D01*
X188220Y48473D01*
X188100Y48450D01*
X187980Y48497D01*
X187887Y48590D01*
X187820Y48753D01*
X187807Y48940D01*
X187833Y49127D01*
X187900Y49243D01*
X187993Y49337D01*
X188087Y49360D01*
X188180Y49337D01*
X188300Y49243D01*
X188260Y49850D01*
X187900D01*
G01X187033D02*
X186700Y48450D01*
X186367Y49850D01*
G01X185700Y47983D02*
X184900D01*
G01X183607Y49733D02*
X183687Y49803D01*
X183780Y49850D01*
X183887D01*
X184007Y49780D01*
X184100Y49663D01*
X184167Y49523D01*
X184220Y49290D01*
X184233Y49080D01*
X184207Y48870D01*
X184167Y48730D01*
X184087Y48590D01*
X183993Y48497D01*
X183900Y48450D01*
X183807D01*
X183713Y48497D01*
X183633Y48567D01*
X183567Y48660D01*
G01X182793D02*
X182713Y48543D01*
X182620Y48473D01*
X182500Y48450D01*
X182380Y48497D01*
X182287Y48590D01*
X182220Y48753D01*
X182207Y48940D01*
X182233Y49127D01*
X182300Y49243D01*
X182393Y49337D01*
X182487Y49360D01*
X182580Y49337D01*
X182700Y49243D01*
X182660Y49850D01*
X182300D01*
G01X196207Y55683D02*
X196287Y55753D01*
X196380Y55800D01*
X196487D01*
X196607Y55730D01*
X196700Y55613D01*
X196767Y55473D01*
X196820Y55240D01*
X196833Y55030D01*
X196807Y54820D01*
X196767Y54680D01*
X196687Y54540D01*
X196593Y54447D01*
X196500Y54400D01*
X196407D01*
X196313Y54447D01*
X196233Y54517D01*
X196167Y54610D01*
G01X195500Y53933D02*
X194700D01*
G01X194007Y54400D02*
Y55800D01*
X193393Y54400D01*
Y55800D01*
G01X192567Y54400D02*
Y55800D01*
X192247D01*
X192140Y55730D01*
X192060Y55567D01*
X192033Y55380D01*
X192060Y55193D01*
X192127Y55053D01*
X192247Y54983D01*
X192567D01*
G01X191300Y53933D02*
X190500D01*
G01X189793Y54400D02*
Y55800D01*
X189527D01*
X189420Y55730D01*
X189340Y55637D01*
X189273Y55497D01*
X189220Y55333D01*
X189207Y55100D01*
X189220Y54867D01*
X189273Y54703D01*
X189340Y54563D01*
X189420Y54470D01*
X189527Y54400D01*
X189793D01*
G01X188393D02*
Y55800D01*
G01X187887D02*
X188393Y54937D01*
G01X187807Y54400D02*
X188167Y55333D01*
G01X187100Y53933D02*
X186300D01*
G01X185300Y55800D02*
X185407Y55753D01*
X185487Y55637D01*
X185540Y55497D01*
X185580Y55310D01*
X185593Y55100D01*
X185580Y54890D01*
X185540Y54703D01*
X185487Y54563D01*
X185407Y54447D01*
X185300Y54400D01*
X185193Y54447D01*
X185113Y54563D01*
X185060Y54703D01*
X185020Y54890D01*
X185007Y55100D01*
X185020Y55310D01*
X185060Y55497D01*
X185113Y55637D01*
X185193Y55753D01*
X185300Y55800D01*
G01X184153Y54983D02*
X184060Y55147D01*
X183980Y55240D01*
X183873Y55287D01*
X183780Y55240D01*
X183713Y55147D01*
X183660Y55007D01*
X183647Y54843D01*
X183660Y54703D01*
X183713Y54563D01*
X183793Y54447D01*
X183887Y54400D01*
X183993Y54447D01*
X184087Y54587D01*
X184140Y54797D01*
X184153Y55030D01*
X184127Y55333D01*
X184087Y55497D01*
X184020Y55660D01*
X183927Y55777D01*
X183833Y55800D01*
X183740Y55753D01*
X183673Y55637D01*
G01X182500Y55800D02*
X182607Y55753D01*
X182687Y55637D01*
X182740Y55497D01*
X182780Y55310D01*
X182793Y55100D01*
X182780Y54890D01*
X182740Y54703D01*
X182687Y54563D01*
X182607Y54447D01*
X182500Y54400D01*
X182393Y54447D01*
X182313Y54563D01*
X182260Y54703D01*
X182220Y54890D01*
X182207Y55100D01*
X182220Y55310D01*
X182260Y55497D01*
X182313Y55637D01*
X182393Y55753D01*
X182500Y55800D01*
G01X181393Y54680D02*
X181313Y54517D01*
X181207Y54423D01*
X181087Y54400D01*
X180980Y54423D01*
X180873Y54540D01*
X180807Y54680D01*
X180793Y54820D01*
X180820Y54983D01*
X180913Y55100D01*
X181007Y55147D01*
X181127D01*
G01X181007D02*
X180927Y55217D01*
X180860Y55333D01*
X180833Y55473D01*
X180860Y55613D01*
X180927Y55730D01*
X181047Y55800D01*
X181167Y55777D01*
X181287Y55683D01*
G01X180100Y53933D02*
X179300D01*
G01X178553Y55567D02*
X178473Y55707D01*
X178380Y55777D01*
X178273Y55800D01*
X178140Y55753D01*
X178047Y55637D01*
X178020Y55497D01*
X178033Y55357D01*
X178087Y55240D01*
X178353Y55007D01*
X178473Y54843D01*
X178553Y54610D01*
X178580Y54400D01*
X178020D01*
G01X177153Y55567D02*
X177073Y55707D01*
X176980Y55777D01*
X176873Y55800D01*
X176740Y55753D01*
X176647Y55637D01*
X176620Y55497D01*
X176633Y55357D01*
X176687Y55240D01*
X176953Y55007D01*
X177073Y54843D01*
X177153Y54610D01*
X177180Y54400D01*
X176620D01*
G01X175793Y55800D02*
Y54797D01*
X175740Y54587D01*
X175633Y54447D01*
X175500Y54400D01*
X175367Y54447D01*
X175260Y54587D01*
X175207Y54797D01*
Y55800D01*
G01X174353Y54400D02*
Y55800D01*
X173847D01*
G01X174033Y55123D02*
X174353D01*
G01X188393Y54610D02*
X188313Y54493D01*
X188220Y54423D01*
X188100Y54400D01*
X187980Y54447D01*
X187887Y54540D01*
X187820Y54703D01*
X187807Y54890D01*
X187833Y55077D01*
X187900Y55193D01*
X187993Y55287D01*
X188087Y55310D01*
X188180Y55287D01*
X188300Y55193D01*
X188260Y55800D01*
X187900D01*
G01X187033D02*
X186700Y54400D01*
X186367Y55800D01*
G01X185700Y53933D02*
X184900D01*
G01X183607Y55683D02*
X183687Y55753D01*
X183780Y55800D01*
X183887D01*
X184007Y55730D01*
X184100Y55613D01*
X184167Y55473D01*
X184220Y55240D01*
X184233Y55030D01*
X184207Y54820D01*
X184167Y54680D01*
X184087Y54540D01*
X183993Y54447D01*
X183900Y54400D01*
X183807D01*
X183713Y54447D01*
X183633Y54517D01*
X183567Y54610D01*
G01X182753Y54983D02*
X182660Y55147D01*
X182580Y55240D01*
X182473Y55287D01*
X182380Y55240D01*
X182313Y55147D01*
X182260Y55007D01*
X182247Y54843D01*
X182260Y54703D01*
X182313Y54563D01*
X182393Y54447D01*
X182487Y54400D01*
X182593Y54447D01*
X182687Y54587D01*
X182740Y54797D01*
X182753Y55030D01*
X182727Y55333D01*
X182687Y55497D01*
X182620Y55660D01*
X182527Y55777D01*
X182433Y55800D01*
X182340Y55753D01*
X182273Y55637D01*
G01X215333Y29800D02*
Y28400D01*
X215667D01*
X215773Y28470D01*
X215840Y28563D01*
X215867Y28750D01*
X215840Y28937D01*
X215760Y29053D01*
X215667Y29123D01*
X215333D01*
G01X215667D02*
X215867Y29800D01*
G01X216600Y30267D02*
X217400D01*
G01X218107Y29800D02*
Y28400D01*
X218373D01*
X218480Y28470D01*
X218560Y28563D01*
X218627Y28703D01*
X218680Y28867D01*
X218693Y29100D01*
X218680Y29333D01*
X218627Y29497D01*
X218560Y29637D01*
X218480Y29730D01*
X218373Y29800D01*
X218107D01*
G01X219507D02*
Y28400D01*
G01X220013D02*
X219507Y29263D01*
G01X220093Y29800D02*
X219733Y28867D01*
G01X220800Y30267D02*
X221600D01*
G01X222600Y28400D02*
X222493Y28447D01*
X222413Y28563D01*
X222360Y28703D01*
X222320Y28890D01*
X222307Y29100D01*
X222320Y29310D01*
X222360Y29497D01*
X222413Y29637D01*
X222493Y29753D01*
X222600Y29800D01*
X222707Y29753D01*
X222787Y29637D01*
X222840Y29497D01*
X222880Y29310D01*
X222893Y29100D01*
X222880Y28890D01*
X222840Y28703D01*
X222787Y28563D01*
X222707Y28447D01*
X222600Y28400D01*
G01X223747Y29217D02*
X223840Y29053D01*
X223920Y28960D01*
X224027Y28913D01*
X224120Y28960D01*
X224187Y29053D01*
X224240Y29193D01*
X224253Y29357D01*
X224240Y29497D01*
X224187Y29637D01*
X224107Y29753D01*
X224013Y29800D01*
X223907Y29753D01*
X223813Y29613D01*
X223760Y29403D01*
X223747Y29170D01*
X223773Y28867D01*
X223813Y28703D01*
X223880Y28540D01*
X223973Y28423D01*
X224067Y28400D01*
X224160Y28447D01*
X224227Y28563D01*
G01X225400Y28400D02*
X225293Y28447D01*
X225213Y28563D01*
X225160Y28703D01*
X225120Y28890D01*
X225107Y29100D01*
X225120Y29310D01*
X225160Y29497D01*
X225213Y29637D01*
X225293Y29753D01*
X225400Y29800D01*
X225507Y29753D01*
X225587Y29637D01*
X225640Y29497D01*
X225680Y29310D01*
X225693Y29100D01*
X225680Y28890D01*
X225640Y28703D01*
X225587Y28563D01*
X225507Y28447D01*
X225400Y28400D01*
G01X226507Y29520D02*
X226587Y29683D01*
X226693Y29777D01*
X226813Y29800D01*
X226920Y29777D01*
X227027Y29660D01*
X227093Y29520D01*
X227107Y29380D01*
X227080Y29217D01*
X226987Y29100D01*
X226893Y29053D01*
X226773D01*
G01X226893D02*
X226973Y28983D01*
X227040Y28867D01*
X227067Y28727D01*
X227040Y28587D01*
X226973Y28470D01*
X226853Y28400D01*
X226733Y28423D01*
X226613Y28517D01*
G01X227800Y30267D02*
X228600D01*
G01X229600Y29800D02*
Y28400D01*
X229440Y28680D01*
G01Y29800D02*
X229760D01*
G01X230707D02*
Y28400D01*
G01X231213D02*
X230707Y29263D01*
G01X231293Y29800D02*
X230933Y28867D01*
G01X218807Y28400D02*
Y29403D01*
X218860Y29613D01*
X218967Y29753D01*
X219100Y29800D01*
X219233Y29753D01*
X219340Y29613D01*
X219393Y29403D01*
Y28400D01*
G01X220167Y29800D02*
X220500Y28400D01*
X220833Y29800D01*
G01X220713Y29310D02*
X220287D01*
G01X221633Y29800D02*
Y28400D01*
X221967D01*
X222073Y28470D01*
X222140Y28563D01*
X222167Y28750D01*
X222140Y28937D01*
X222060Y29053D01*
X221967Y29123D01*
X221633D01*
G01X221967D02*
X222167Y29800D01*
G01X223300Y28400D02*
Y29800D01*
G01X222993Y28400D02*
X223607D01*
G01X224300Y30267D02*
X225100D01*
G01X225833Y29800D02*
Y28400D01*
X226167D01*
X226273Y28470D01*
X226340Y28563D01*
X226367Y28750D01*
X226340Y28937D01*
X226260Y29053D01*
X226167Y29123D01*
X225833D01*
G01X226167D02*
X226367Y29800D01*
G01X227500D02*
Y28400D01*
X227340Y28680D01*
G01Y29800D02*
X227660D01*
G01X215233Y36700D02*
Y35300D01*
X215567D01*
X215673Y35370D01*
X215740Y35463D01*
X215767Y35650D01*
X215740Y35837D01*
X215660Y35953D01*
X215567Y36023D01*
X215233D01*
G01X215567D02*
X215767Y36700D01*
G01X216500Y37167D02*
X217300D01*
G01X218007Y36700D02*
Y35300D01*
X218273D01*
X218380Y35370D01*
X218460Y35463D01*
X218527Y35603D01*
X218580Y35767D01*
X218593Y36000D01*
X218580Y36233D01*
X218527Y36397D01*
X218460Y36537D01*
X218380Y36630D01*
X218273Y36700D01*
X218007D01*
G01X219407D02*
Y35300D01*
G01X219913D02*
X219407Y36163D01*
G01X219993Y36700D02*
X219633Y35767D01*
G01X220700Y37167D02*
X221500D01*
G01X222500Y35300D02*
X222393Y35347D01*
X222313Y35463D01*
X222260Y35603D01*
X222220Y35790D01*
X222207Y36000D01*
X222220Y36210D01*
X222260Y36397D01*
X222313Y36537D01*
X222393Y36653D01*
X222500Y36700D01*
X222607Y36653D01*
X222687Y36537D01*
X222740Y36397D01*
X222780Y36210D01*
X222793Y36000D01*
X222780Y35790D01*
X222740Y35603D01*
X222687Y35463D01*
X222607Y35347D01*
X222500Y35300D01*
G01X223647Y36117D02*
X223740Y35953D01*
X223820Y35860D01*
X223927Y35813D01*
X224020Y35860D01*
X224087Y35953D01*
X224140Y36093D01*
X224153Y36257D01*
X224140Y36397D01*
X224087Y36537D01*
X224007Y36653D01*
X223913Y36700D01*
X223807Y36653D01*
X223713Y36513D01*
X223660Y36303D01*
X223647Y36070D01*
X223673Y35767D01*
X223713Y35603D01*
X223780Y35440D01*
X223873Y35323D01*
X223967Y35300D01*
X224060Y35347D01*
X224127Y35463D01*
G01X225300Y35300D02*
X225193Y35347D01*
X225113Y35463D01*
X225060Y35603D01*
X225020Y35790D01*
X225007Y36000D01*
X225020Y36210D01*
X225060Y36397D01*
X225113Y36537D01*
X225193Y36653D01*
X225300Y36700D01*
X225407Y36653D01*
X225487Y36537D01*
X225540Y36397D01*
X225580Y36210D01*
X225593Y36000D01*
X225580Y35790D01*
X225540Y35603D01*
X225487Y35463D01*
X225407Y35347D01*
X225300Y35300D01*
G01X226407Y36420D02*
X226487Y36583D01*
X226593Y36677D01*
X226713Y36700D01*
X226820Y36677D01*
X226927Y36560D01*
X226993Y36420D01*
X227007Y36280D01*
X226980Y36117D01*
X226887Y36000D01*
X226793Y35953D01*
X226673D01*
G01X226793D02*
X226873Y35883D01*
X226940Y35767D01*
X226967Y35627D01*
X226940Y35487D01*
X226873Y35370D01*
X226753Y35300D01*
X226633Y35323D01*
X226513Y35417D01*
G01X227700Y37167D02*
X228500D01*
G01X229500Y36700D02*
Y35300D01*
X229340Y35580D01*
G01Y36700D02*
X229660D01*
G01X230607D02*
Y35300D01*
G01X231113D02*
X230607Y36163D01*
G01X231193Y36700D02*
X230833Y35767D01*
G01X218707Y35300D02*
Y36303D01*
X218760Y36513D01*
X218867Y36653D01*
X219000Y36700D01*
X219133Y36653D01*
X219240Y36513D01*
X219293Y36303D01*
Y35300D01*
G01X220067Y36700D02*
X220400Y35300D01*
X220733Y36700D01*
G01X220613Y36210D02*
X220187D01*
G01X221533Y36700D02*
Y35300D01*
X221867D01*
X221973Y35370D01*
X222040Y35463D01*
X222067Y35650D01*
X222040Y35837D01*
X221960Y35953D01*
X221867Y36023D01*
X221533D01*
G01X221867D02*
X222067Y36700D01*
G01X223200Y35300D02*
Y36700D01*
G01X222893Y35300D02*
X223507D01*
G01X224200Y37167D02*
X225000D01*
G01X225733Y36700D02*
Y35300D01*
X226067D01*
X226173Y35370D01*
X226240Y35463D01*
X226267Y35650D01*
X226240Y35837D01*
X226160Y35953D01*
X226067Y36023D01*
X225733D01*
G01X226067D02*
X226267Y36700D01*
G01X227147Y35533D02*
X227227Y35393D01*
X227320Y35323D01*
X227427Y35300D01*
X227560Y35347D01*
X227653Y35463D01*
X227680Y35603D01*
X227667Y35743D01*
X227613Y35860D01*
X227347Y36093D01*
X227227Y36257D01*
X227147Y36490D01*
X227120Y36700D01*
X227680D01*
G01X253207Y139483D02*
X253287Y139553D01*
X253380Y139600D01*
X253487D01*
X253607Y139530D01*
X253700Y139413D01*
X253767Y139273D01*
X253820Y139040D01*
X253833Y138830D01*
X253807Y138620D01*
X253767Y138480D01*
X253687Y138340D01*
X253593Y138247D01*
X253500Y138200D01*
X253407D01*
X253313Y138247D01*
X253233Y138317D01*
X253167Y138410D01*
G01X252500Y137733D02*
X251700D01*
G01X251007Y138200D02*
Y139600D01*
X250393Y138200D01*
Y139600D01*
G01X249567Y138200D02*
Y139600D01*
X249247D01*
X249140Y139530D01*
X249060Y139367D01*
X249033Y139180D01*
X249060Y138993D01*
X249127Y138853D01*
X249247Y138783D01*
X249567D01*
G01X248300Y137733D02*
X247500D01*
G01X246793Y138200D02*
Y139600D01*
X246527D01*
X246420Y139530D01*
X246340Y139437D01*
X246273Y139297D01*
X246220Y139133D01*
X246207Y138900D01*
X246220Y138667D01*
X246273Y138503D01*
X246340Y138363D01*
X246420Y138270D01*
X246527Y138200D01*
X246793D01*
G01X245393D02*
Y139600D01*
G01X244887D02*
X245393Y138737D01*
G01X244807Y138200D02*
X245167Y139133D01*
G01X244100Y137733D02*
X243300D01*
G01X242300Y139600D02*
X242407Y139553D01*
X242487Y139437D01*
X242540Y139297D01*
X242580Y139110D01*
X242593Y138900D01*
X242580Y138690D01*
X242540Y138503D01*
X242487Y138363D01*
X242407Y138247D01*
X242300Y138200D01*
X242193Y138247D01*
X242113Y138363D01*
X242060Y138503D01*
X242020Y138690D01*
X242007Y138900D01*
X242020Y139110D01*
X242060Y139297D01*
X242113Y139437D01*
X242193Y139553D01*
X242300Y139600D01*
G01X241153Y138783D02*
X241060Y138947D01*
X240980Y139040D01*
X240873Y139087D01*
X240780Y139040D01*
X240713Y138947D01*
X240660Y138807D01*
X240647Y138643D01*
X240660Y138503D01*
X240713Y138363D01*
X240793Y138247D01*
X240887Y138200D01*
X240993Y138247D01*
X241087Y138387D01*
X241140Y138597D01*
X241153Y138830D01*
X241127Y139133D01*
X241087Y139297D01*
X241020Y139460D01*
X240927Y139577D01*
X240833Y139600D01*
X240740Y139553D01*
X240673Y139437D01*
G01X239500Y139600D02*
X239607Y139553D01*
X239687Y139437D01*
X239740Y139297D01*
X239780Y139110D01*
X239793Y138900D01*
X239780Y138690D01*
X239740Y138503D01*
X239687Y138363D01*
X239607Y138247D01*
X239500Y138200D01*
X239393Y138247D01*
X239313Y138363D01*
X239260Y138503D01*
X239220Y138690D01*
X239207Y138900D01*
X239220Y139110D01*
X239260Y139297D01*
X239313Y139437D01*
X239393Y139553D01*
X239500Y139600D01*
G01X238393Y138480D02*
X238313Y138317D01*
X238207Y138223D01*
X238087Y138200D01*
X237980Y138223D01*
X237873Y138340D01*
X237807Y138480D01*
X237793Y138620D01*
X237820Y138783D01*
X237913Y138900D01*
X238007Y138947D01*
X238127D01*
G01X238007D02*
X237927Y139017D01*
X237860Y139133D01*
X237833Y139273D01*
X237860Y139413D01*
X237927Y139530D01*
X238047Y139600D01*
X238167Y139577D01*
X238287Y139483D01*
G01X237100Y137733D02*
X236300D01*
G01X235300Y138153D02*
X235327Y138177D01*
Y138223D01*
X235300Y138247D01*
X235273Y138223D01*
Y138177D01*
X235300Y138153D01*
G01X233900Y138200D02*
Y139600D01*
X234060Y139320D01*
G01Y138200D02*
X233740D01*
G01X232793Y139600D02*
Y138597D01*
X232740Y138387D01*
X232633Y138247D01*
X232500Y138200D01*
X232367Y138247D01*
X232260Y138387D01*
X232207Y138597D01*
Y139600D01*
G01X231353Y138200D02*
Y139600D01*
X230847D01*
G01X231033Y138923D02*
X231353D01*
G01X246093Y138410D02*
X246013Y138293D01*
X245920Y138223D01*
X245800Y138200D01*
X245680Y138247D01*
X245587Y138340D01*
X245520Y138503D01*
X245507Y138690D01*
X245533Y138877D01*
X245600Y138993D01*
X245693Y139087D01*
X245787Y139110D01*
X245880Y139087D01*
X246000Y138993D01*
X245960Y139600D01*
X245600D01*
G01X244733D02*
X244400Y138200D01*
X244067Y139600D01*
G01X243400Y137733D02*
X242600D01*
G01X241307Y139483D02*
X241387Y139553D01*
X241480Y139600D01*
X241587D01*
X241707Y139530D01*
X241800Y139413D01*
X241867Y139273D01*
X241920Y139040D01*
X241933Y138830D01*
X241907Y138620D01*
X241867Y138480D01*
X241787Y138340D01*
X241693Y138247D01*
X241600Y138200D01*
X241507D01*
X241413Y138247D01*
X241333Y138317D01*
X241267Y138410D01*
G01X240200Y138200D02*
Y139600D01*
X240360Y139320D01*
G01Y138200D02*
X240040D01*
G01X238640D02*
Y139600D01*
X239133Y138597D01*
X238467D01*
G01X253207Y156883D02*
X253287Y156953D01*
X253380Y157000D01*
X253487D01*
X253607Y156930D01*
X253700Y156813D01*
X253767Y156673D01*
X253820Y156440D01*
X253833Y156230D01*
X253807Y156020D01*
X253767Y155880D01*
X253687Y155740D01*
X253593Y155647D01*
X253500Y155600D01*
X253407D01*
X253313Y155647D01*
X253233Y155717D01*
X253167Y155810D01*
G01X252500Y155133D02*
X251700D01*
G01X251007Y155600D02*
Y157000D01*
X250393Y155600D01*
Y157000D01*
G01X249567Y155600D02*
Y157000D01*
X249247D01*
X249140Y156930D01*
X249060Y156767D01*
X249033Y156580D01*
X249060Y156393D01*
X249127Y156253D01*
X249247Y156183D01*
X249567D01*
G01X248300Y155133D02*
X247500D01*
G01X246793Y155600D02*
Y157000D01*
X246527D01*
X246420Y156930D01*
X246340Y156837D01*
X246273Y156697D01*
X246220Y156533D01*
X246207Y156300D01*
X246220Y156067D01*
X246273Y155903D01*
X246340Y155763D01*
X246420Y155670D01*
X246527Y155600D01*
X246793D01*
G01X245393D02*
Y157000D01*
G01X244887D02*
X245393Y156137D01*
G01X244807Y155600D02*
X245167Y156533D01*
G01X244100Y155133D02*
X243300D01*
G01X242300Y157000D02*
X242407Y156953D01*
X242487Y156837D01*
X242540Y156697D01*
X242580Y156510D01*
X242593Y156300D01*
X242580Y156090D01*
X242540Y155903D01*
X242487Y155763D01*
X242407Y155647D01*
X242300Y155600D01*
X242193Y155647D01*
X242113Y155763D01*
X242060Y155903D01*
X242020Y156090D01*
X242007Y156300D01*
X242020Y156510D01*
X242060Y156697D01*
X242113Y156837D01*
X242193Y156953D01*
X242300Y157000D01*
G01X241153Y156183D02*
X241060Y156347D01*
X240980Y156440D01*
X240873Y156487D01*
X240780Y156440D01*
X240713Y156347D01*
X240660Y156207D01*
X240647Y156043D01*
X240660Y155903D01*
X240713Y155763D01*
X240793Y155647D01*
X240887Y155600D01*
X240993Y155647D01*
X241087Y155787D01*
X241140Y155997D01*
X241153Y156230D01*
X241127Y156533D01*
X241087Y156697D01*
X241020Y156860D01*
X240927Y156977D01*
X240833Y157000D01*
X240740Y156953D01*
X240673Y156837D01*
G01X239500Y157000D02*
X239607Y156953D01*
X239687Y156837D01*
X239740Y156697D01*
X239780Y156510D01*
X239793Y156300D01*
X239780Y156090D01*
X239740Y155903D01*
X239687Y155763D01*
X239607Y155647D01*
X239500Y155600D01*
X239393Y155647D01*
X239313Y155763D01*
X239260Y155903D01*
X239220Y156090D01*
X239207Y156300D01*
X239220Y156510D01*
X239260Y156697D01*
X239313Y156837D01*
X239393Y156953D01*
X239500Y157000D01*
G01X238393Y155880D02*
X238313Y155717D01*
X238207Y155623D01*
X238087Y155600D01*
X237980Y155623D01*
X237873Y155740D01*
X237807Y155880D01*
X237793Y156020D01*
X237820Y156183D01*
X237913Y156300D01*
X238007Y156347D01*
X238127D01*
G01X238007D02*
X237927Y156417D01*
X237860Y156533D01*
X237833Y156673D01*
X237860Y156813D01*
X237927Y156930D01*
X238047Y157000D01*
X238167Y156977D01*
X238287Y156883D01*
G01X237100Y155133D02*
X236300D01*
G01X235553Y156767D02*
X235473Y156907D01*
X235380Y156977D01*
X235273Y157000D01*
X235140Y156953D01*
X235047Y156837D01*
X235020Y156697D01*
X235033Y156557D01*
X235087Y156440D01*
X235353Y156207D01*
X235473Y156043D01*
X235553Y155810D01*
X235580Y155600D01*
X235020D01*
G01X234153Y156767D02*
X234073Y156907D01*
X233980Y156977D01*
X233873Y157000D01*
X233740Y156953D01*
X233647Y156837D01*
X233620Y156697D01*
X233633Y156557D01*
X233687Y156440D01*
X233953Y156207D01*
X234073Y156043D01*
X234153Y155810D01*
X234180Y155600D01*
X233620D01*
G01X232793Y157000D02*
Y155997D01*
X232740Y155787D01*
X232633Y155647D01*
X232500Y155600D01*
X232367Y155647D01*
X232260Y155787D01*
X232207Y155997D01*
Y157000D01*
G01X231353Y155600D02*
Y157000D01*
X230847D01*
G01X231033Y156323D02*
X231353D01*
G01X246093Y155810D02*
X246013Y155693D01*
X245920Y155623D01*
X245800Y155600D01*
X245680Y155647D01*
X245587Y155740D01*
X245520Y155903D01*
X245507Y156090D01*
X245533Y156277D01*
X245600Y156393D01*
X245693Y156487D01*
X245787Y156510D01*
X245880Y156487D01*
X246000Y156393D01*
X245960Y157000D01*
X245600D01*
G01X244733D02*
X244400Y155600D01*
X244067Y157000D01*
G01X243400Y155133D02*
X242600D01*
G01X241307Y156883D02*
X241387Y156953D01*
X241480Y157000D01*
X241587D01*
X241707Y156930D01*
X241800Y156813D01*
X241867Y156673D01*
X241920Y156440D01*
X241933Y156230D01*
X241907Y156020D01*
X241867Y155880D01*
X241787Y155740D01*
X241693Y155647D01*
X241600Y155600D01*
X241507D01*
X241413Y155647D01*
X241333Y155717D01*
X241267Y155810D01*
G01X240200Y155600D02*
Y157000D01*
X240360Y156720D01*
G01Y155600D02*
X240040D01*
G01X238800D02*
Y157000D01*
X238960Y156720D01*
G01Y155600D02*
X238640D01*
G01X253207Y151083D02*
X253287Y151153D01*
X253380Y151200D01*
X253487D01*
X253607Y151130D01*
X253700Y151013D01*
X253767Y150873D01*
X253820Y150640D01*
X253833Y150430D01*
X253807Y150220D01*
X253767Y150080D01*
X253687Y149940D01*
X253593Y149847D01*
X253500Y149800D01*
X253407D01*
X253313Y149847D01*
X253233Y149917D01*
X253167Y150010D01*
G01X252500Y149333D02*
X251700D01*
G01X251007Y149800D02*
Y151200D01*
X250393Y149800D01*
Y151200D01*
G01X249567Y149800D02*
Y151200D01*
X249247D01*
X249140Y151130D01*
X249060Y150967D01*
X249033Y150780D01*
X249060Y150593D01*
X249127Y150453D01*
X249247Y150383D01*
X249567D01*
G01X248300Y149333D02*
X247500D01*
G01X246793Y149800D02*
Y151200D01*
X246527D01*
X246420Y151130D01*
X246340Y151037D01*
X246273Y150897D01*
X246220Y150733D01*
X246207Y150500D01*
X246220Y150267D01*
X246273Y150103D01*
X246340Y149963D01*
X246420Y149870D01*
X246527Y149800D01*
X246793D01*
G01X245393D02*
Y151200D01*
G01X244887D02*
X245393Y150337D01*
G01X244807Y149800D02*
X245167Y150733D01*
G01X244100Y149333D02*
X243300D01*
G01X242300Y151200D02*
X242407Y151153D01*
X242487Y151037D01*
X242540Y150897D01*
X242580Y150710D01*
X242593Y150500D01*
X242580Y150290D01*
X242540Y150103D01*
X242487Y149963D01*
X242407Y149847D01*
X242300Y149800D01*
X242193Y149847D01*
X242113Y149963D01*
X242060Y150103D01*
X242020Y150290D01*
X242007Y150500D01*
X242020Y150710D01*
X242060Y150897D01*
X242113Y151037D01*
X242193Y151153D01*
X242300Y151200D01*
G01X241153Y150383D02*
X241060Y150547D01*
X240980Y150640D01*
X240873Y150687D01*
X240780Y150640D01*
X240713Y150547D01*
X240660Y150407D01*
X240647Y150243D01*
X240660Y150103D01*
X240713Y149963D01*
X240793Y149847D01*
X240887Y149800D01*
X240993Y149847D01*
X241087Y149987D01*
X241140Y150197D01*
X241153Y150430D01*
X241127Y150733D01*
X241087Y150897D01*
X241020Y151060D01*
X240927Y151177D01*
X240833Y151200D01*
X240740Y151153D01*
X240673Y151037D01*
G01X239500Y151200D02*
X239607Y151153D01*
X239687Y151037D01*
X239740Y150897D01*
X239780Y150710D01*
X239793Y150500D01*
X239780Y150290D01*
X239740Y150103D01*
X239687Y149963D01*
X239607Y149847D01*
X239500Y149800D01*
X239393Y149847D01*
X239313Y149963D01*
X239260Y150103D01*
X239220Y150290D01*
X239207Y150500D01*
X239220Y150710D01*
X239260Y150897D01*
X239313Y151037D01*
X239393Y151153D01*
X239500Y151200D01*
G01X238393Y150080D02*
X238313Y149917D01*
X238207Y149823D01*
X238087Y149800D01*
X237980Y149823D01*
X237873Y149940D01*
X237807Y150080D01*
X237793Y150220D01*
X237820Y150383D01*
X237913Y150500D01*
X238007Y150547D01*
X238127D01*
G01X238007D02*
X237927Y150617D01*
X237860Y150733D01*
X237833Y150873D01*
X237860Y151013D01*
X237927Y151130D01*
X238047Y151200D01*
X238167Y151177D01*
X238287Y151083D01*
G01X237100Y149333D02*
X236300D01*
G01X235553Y150967D02*
X235473Y151107D01*
X235380Y151177D01*
X235273Y151200D01*
X235140Y151153D01*
X235047Y151037D01*
X235020Y150897D01*
X235033Y150757D01*
X235087Y150640D01*
X235353Y150407D01*
X235473Y150243D01*
X235553Y150010D01*
X235580Y149800D01*
X235020D01*
G01X234153Y150967D02*
X234073Y151107D01*
X233980Y151177D01*
X233873Y151200D01*
X233740Y151153D01*
X233647Y151037D01*
X233620Y150897D01*
X233633Y150757D01*
X233687Y150640D01*
X233953Y150407D01*
X234073Y150243D01*
X234153Y150010D01*
X234180Y149800D01*
X233620D01*
G01X232793Y151200D02*
Y150197D01*
X232740Y149987D01*
X232633Y149847D01*
X232500Y149800D01*
X232367Y149847D01*
X232260Y149987D01*
X232207Y150197D01*
Y151200D01*
G01X231353Y149800D02*
Y151200D01*
X230847D01*
G01X231033Y150523D02*
X231353D01*
G01X246093Y150010D02*
X246013Y149893D01*
X245920Y149823D01*
X245800Y149800D01*
X245680Y149847D01*
X245587Y149940D01*
X245520Y150103D01*
X245507Y150290D01*
X245533Y150477D01*
X245600Y150593D01*
X245693Y150687D01*
X245787Y150710D01*
X245880Y150687D01*
X246000Y150593D01*
X245960Y151200D01*
X245600D01*
G01X244733D02*
X244400Y149800D01*
X244067Y151200D01*
G01X243400Y149333D02*
X242600D01*
G01X241307Y151083D02*
X241387Y151153D01*
X241480Y151200D01*
X241587D01*
X241707Y151130D01*
X241800Y151013D01*
X241867Y150873D01*
X241920Y150640D01*
X241933Y150430D01*
X241907Y150220D01*
X241867Y150080D01*
X241787Y149940D01*
X241693Y149847D01*
X241600Y149800D01*
X241507D01*
X241413Y149847D01*
X241333Y149917D01*
X241267Y150010D01*
G01X240200Y149800D02*
Y151200D01*
X240360Y150920D01*
G01Y149800D02*
X240040D01*
G01X239053Y150967D02*
X238973Y151107D01*
X238880Y151177D01*
X238773Y151200D01*
X238640Y151153D01*
X238547Y151037D01*
X238520Y150897D01*
X238533Y150757D01*
X238587Y150640D01*
X238853Y150407D01*
X238973Y150243D01*
X239053Y150010D01*
X239080Y149800D01*
X238520D01*
G01X253207Y145283D02*
X253287Y145353D01*
X253380Y145400D01*
X253487D01*
X253607Y145330D01*
X253700Y145213D01*
X253767Y145073D01*
X253820Y144840D01*
X253833Y144630D01*
X253807Y144420D01*
X253767Y144280D01*
X253687Y144140D01*
X253593Y144047D01*
X253500Y144000D01*
X253407D01*
X253313Y144047D01*
X253233Y144117D01*
X253167Y144210D01*
G01X252500Y143533D02*
X251700D01*
G01X251007Y144000D02*
Y145400D01*
X250393Y144000D01*
Y145400D01*
G01X249567Y144000D02*
Y145400D01*
X249247D01*
X249140Y145330D01*
X249060Y145167D01*
X249033Y144980D01*
X249060Y144793D01*
X249127Y144653D01*
X249247Y144583D01*
X249567D01*
G01X248300Y143533D02*
X247500D01*
G01X246793Y144000D02*
Y145400D01*
X246527D01*
X246420Y145330D01*
X246340Y145237D01*
X246273Y145097D01*
X246220Y144933D01*
X246207Y144700D01*
X246220Y144467D01*
X246273Y144303D01*
X246340Y144163D01*
X246420Y144070D01*
X246527Y144000D01*
X246793D01*
G01X245393D02*
Y145400D01*
G01X244887D02*
X245393Y144537D01*
G01X244807Y144000D02*
X245167Y144933D01*
G01X244100Y143533D02*
X243300D01*
G01X242300Y145400D02*
X242407Y145353D01*
X242487Y145237D01*
X242540Y145097D01*
X242580Y144910D01*
X242593Y144700D01*
X242580Y144490D01*
X242540Y144303D01*
X242487Y144163D01*
X242407Y144047D01*
X242300Y144000D01*
X242193Y144047D01*
X242113Y144163D01*
X242060Y144303D01*
X242020Y144490D01*
X242007Y144700D01*
X242020Y144910D01*
X242060Y145097D01*
X242113Y145237D01*
X242193Y145353D01*
X242300Y145400D01*
G01X241153Y144583D02*
X241060Y144747D01*
X240980Y144840D01*
X240873Y144887D01*
X240780Y144840D01*
X240713Y144747D01*
X240660Y144607D01*
X240647Y144443D01*
X240660Y144303D01*
X240713Y144163D01*
X240793Y144047D01*
X240887Y144000D01*
X240993Y144047D01*
X241087Y144187D01*
X241140Y144397D01*
X241153Y144630D01*
X241127Y144933D01*
X241087Y145097D01*
X241020Y145260D01*
X240927Y145377D01*
X240833Y145400D01*
X240740Y145353D01*
X240673Y145237D01*
G01X239500Y145400D02*
X239607Y145353D01*
X239687Y145237D01*
X239740Y145097D01*
X239780Y144910D01*
X239793Y144700D01*
X239780Y144490D01*
X239740Y144303D01*
X239687Y144163D01*
X239607Y144047D01*
X239500Y144000D01*
X239393Y144047D01*
X239313Y144163D01*
X239260Y144303D01*
X239220Y144490D01*
X239207Y144700D01*
X239220Y144910D01*
X239260Y145097D01*
X239313Y145237D01*
X239393Y145353D01*
X239500Y145400D01*
G01X238393Y144280D02*
X238313Y144117D01*
X238207Y144023D01*
X238087Y144000D01*
X237980Y144023D01*
X237873Y144140D01*
X237807Y144280D01*
X237793Y144420D01*
X237820Y144583D01*
X237913Y144700D01*
X238007Y144747D01*
X238127D01*
G01X238007D02*
X237927Y144817D01*
X237860Y144933D01*
X237833Y145073D01*
X237860Y145213D01*
X237927Y145330D01*
X238047Y145400D01*
X238167Y145377D01*
X238287Y145283D01*
G01X237100Y143533D02*
X236300D01*
G01X235553Y145167D02*
X235473Y145307D01*
X235380Y145377D01*
X235273Y145400D01*
X235140Y145353D01*
X235047Y145237D01*
X235020Y145097D01*
X235033Y144957D01*
X235087Y144840D01*
X235353Y144607D01*
X235473Y144443D01*
X235553Y144210D01*
X235580Y144000D01*
X235020D01*
G01X234153Y145167D02*
X234073Y145307D01*
X233980Y145377D01*
X233873Y145400D01*
X233740Y145353D01*
X233647Y145237D01*
X233620Y145097D01*
X233633Y144957D01*
X233687Y144840D01*
X233953Y144607D01*
X234073Y144443D01*
X234153Y144210D01*
X234180Y144000D01*
X233620D01*
G01X232793Y145400D02*
Y144397D01*
X232740Y144187D01*
X232633Y144047D01*
X232500Y144000D01*
X232367Y144047D01*
X232260Y144187D01*
X232207Y144397D01*
Y145400D01*
G01X231353Y144000D02*
Y145400D01*
X230847D01*
G01X231033Y144723D02*
X231353D01*
G01X246093Y144210D02*
X246013Y144093D01*
X245920Y144023D01*
X245800Y144000D01*
X245680Y144047D01*
X245587Y144140D01*
X245520Y144303D01*
X245507Y144490D01*
X245533Y144677D01*
X245600Y144793D01*
X245693Y144887D01*
X245787Y144910D01*
X245880Y144887D01*
X246000Y144793D01*
X245960Y145400D01*
X245600D01*
G01X244733D02*
X244400Y144000D01*
X244067Y145400D01*
G01X243400Y143533D02*
X242600D01*
G01X241307Y145283D02*
X241387Y145353D01*
X241480Y145400D01*
X241587D01*
X241707Y145330D01*
X241800Y145213D01*
X241867Y145073D01*
X241920Y144840D01*
X241933Y144630D01*
X241907Y144420D01*
X241867Y144280D01*
X241787Y144140D01*
X241693Y144047D01*
X241600Y144000D01*
X241507D01*
X241413Y144047D01*
X241333Y144117D01*
X241267Y144210D01*
G01X240200Y144000D02*
Y145400D01*
X240360Y145120D01*
G01Y144000D02*
X240040D01*
G01X239093Y144280D02*
X239013Y144117D01*
X238907Y144023D01*
X238787Y144000D01*
X238680Y144023D01*
X238573Y144140D01*
X238507Y144280D01*
X238493Y144420D01*
X238520Y144583D01*
X238613Y144700D01*
X238707Y144747D01*
X238827D01*
G01X238707D02*
X238627Y144817D01*
X238560Y144933D01*
X238533Y145073D01*
X238560Y145213D01*
X238627Y145330D01*
X238747Y145400D01*
X238867Y145377D01*
X238987Y145283D01*
G01X248693Y141517D02*
X248613Y141447D01*
X248520Y141400D01*
X248413D01*
X248293Y141470D01*
X248200Y141587D01*
X248133Y141727D01*
X248080Y141960D01*
X248067Y142170D01*
X248093Y142380D01*
X248133Y142520D01*
X248213Y142660D01*
X248307Y142753D01*
X248400Y142800D01*
X248493D01*
X248587Y142753D01*
X248667Y142683D01*
X248733Y142590D01*
G01X249400Y143267D02*
X250200D01*
G01X250893Y142800D02*
Y141400D01*
X251507Y142800D01*
Y141400D01*
G01X252333Y142800D02*
Y141400D01*
X252653D01*
X252760Y141470D01*
X252840Y141633D01*
X252867Y141820D01*
X252840Y142007D01*
X252773Y142147D01*
X252653Y142217D01*
X252333D01*
G01X253600Y143267D02*
X254400D01*
G01X255107Y142800D02*
Y141400D01*
X255373D01*
X255480Y141470D01*
X255560Y141563D01*
X255627Y141703D01*
X255680Y141867D01*
X255693Y142100D01*
X255680Y142333D01*
X255627Y142497D01*
X255560Y142637D01*
X255480Y142730D01*
X255373Y142800D01*
X255107D01*
G01X256507D02*
Y141400D01*
G01X257013D02*
X256507Y142263D01*
G01X257093Y142800D02*
X256733Y141867D01*
G01X257800Y143267D02*
X258600D01*
G01X259600Y142800D02*
Y141400D01*
X259440Y141680D01*
G01Y142800D02*
X259760D01*
G01X260747Y141633D02*
X260827Y141493D01*
X260920Y141423D01*
X261027Y141400D01*
X261160Y141447D01*
X261253Y141563D01*
X261280Y141703D01*
X261267Y141843D01*
X261213Y141960D01*
X260947Y142193D01*
X260827Y142357D01*
X260747Y142590D01*
X260720Y142800D01*
X261280D01*
G01X262400Y141400D02*
X262293Y141447D01*
X262213Y141563D01*
X262160Y141703D01*
X262120Y141890D01*
X262107Y142100D01*
X262120Y142310D01*
X262160Y142497D01*
X262213Y142637D01*
X262293Y142753D01*
X262400Y142800D01*
X262507Y142753D01*
X262587Y142637D01*
X262640Y142497D01*
X262680Y142310D01*
X262693Y142100D01*
X262680Y141890D01*
X262640Y141703D01*
X262587Y141563D01*
X262507Y141447D01*
X262400Y141400D01*
G01X263547Y142217D02*
X263640Y142053D01*
X263720Y141960D01*
X263827Y141913D01*
X263920Y141960D01*
X263987Y142053D01*
X264040Y142193D01*
X264053Y142357D01*
X264040Y142497D01*
X263987Y142637D01*
X263907Y142753D01*
X263813Y142800D01*
X263707Y142753D01*
X263613Y142613D01*
X263560Y142403D01*
X263547Y142170D01*
X263573Y141867D01*
X263613Y141703D01*
X263680Y141540D01*
X263773Y141423D01*
X263867Y141400D01*
X263960Y141447D01*
X264027Y141563D01*
G01X264800Y143267D02*
X265600D01*
G01X266600Y142800D02*
Y141400D01*
X266440Y141680D01*
G01Y142800D02*
X266760D01*
G01X268000Y141400D02*
X267893Y141447D01*
X267813Y141563D01*
X267760Y141703D01*
X267720Y141890D01*
X267707Y142100D01*
X267720Y142310D01*
X267760Y142497D01*
X267813Y142637D01*
X267893Y142753D01*
X268000Y142800D01*
X268107Y142753D01*
X268187Y142637D01*
X268240Y142497D01*
X268280Y142310D01*
X268293Y142100D01*
X268280Y141890D01*
X268240Y141703D01*
X268187Y141563D01*
X268107Y141447D01*
X268000Y141400D01*
G01X269107D02*
Y142403D01*
X269160Y142613D01*
X269267Y142753D01*
X269400Y142800D01*
X269533Y142753D01*
X269640Y142613D01*
X269693Y142403D01*
Y141400D01*
G01X270547Y142800D02*
Y141400D01*
X271053D01*
G01X270867Y142077D02*
X270547D01*
G01X255807Y142590D02*
X255887Y142707D01*
X255980Y142777D01*
X256100Y142800D01*
X256220Y142753D01*
X256313Y142660D01*
X256380Y142497D01*
X256393Y142310D01*
X256367Y142123D01*
X256300Y142007D01*
X256207Y141913D01*
X256113Y141890D01*
X256020Y141913D01*
X255900Y142007D01*
X255940Y141400D01*
X256300D01*
G01X257167D02*
X257500Y142800D01*
X257833Y141400D01*
G01X258500Y143267D02*
X259300D01*
G01X260593Y141517D02*
X260513Y141447D01*
X260420Y141400D01*
X260313D01*
X260193Y141470D01*
X260100Y141587D01*
X260033Y141727D01*
X259980Y141960D01*
X259967Y142170D01*
X259993Y142380D01*
X260033Y142520D01*
X260113Y142660D01*
X260207Y142753D01*
X260300Y142800D01*
X260393D01*
X260487Y142753D01*
X260567Y142683D01*
X260633Y142590D01*
G01X261700Y142800D02*
Y141400D01*
X261540Y141680D01*
G01Y142800D02*
X261860D01*
G01X263100Y141400D02*
X262993Y141447D01*
X262913Y141563D01*
X262860Y141703D01*
X262820Y141890D01*
X262807Y142100D01*
X262820Y142310D01*
X262860Y142497D01*
X262913Y142637D01*
X262993Y142753D01*
X263100Y142800D01*
X263207Y142753D01*
X263287Y142637D01*
X263340Y142497D01*
X263380Y142310D01*
X263393Y142100D01*
X263380Y141890D01*
X263340Y141703D01*
X263287Y141563D01*
X263207Y141447D01*
X263100Y141400D01*
G01X248693Y160517D02*
X248613Y160447D01*
X248520Y160400D01*
X248413D01*
X248293Y160470D01*
X248200Y160587D01*
X248133Y160727D01*
X248080Y160960D01*
X248067Y161170D01*
X248093Y161380D01*
X248133Y161520D01*
X248213Y161660D01*
X248307Y161753D01*
X248400Y161800D01*
X248493D01*
X248587Y161753D01*
X248667Y161683D01*
X248733Y161590D01*
G01X249400Y162267D02*
X250200D01*
G01X250893Y161800D02*
Y160400D01*
X251507Y161800D01*
Y160400D01*
G01X252333Y161800D02*
Y160400D01*
X252653D01*
X252760Y160470D01*
X252840Y160633D01*
X252867Y160820D01*
X252840Y161007D01*
X252773Y161147D01*
X252653Y161217D01*
X252333D01*
G01X253600Y162267D02*
X254400D01*
G01X255107Y161800D02*
Y160400D01*
X255373D01*
X255480Y160470D01*
X255560Y160563D01*
X255627Y160703D01*
X255680Y160867D01*
X255693Y161100D01*
X255680Y161333D01*
X255627Y161497D01*
X255560Y161637D01*
X255480Y161730D01*
X255373Y161800D01*
X255107D01*
G01X256507D02*
Y160400D01*
G01X257013D02*
X256507Y161263D01*
G01X257093Y161800D02*
X256733Y160867D01*
G01X257800Y162267D02*
X258600D01*
G01X259600Y161800D02*
Y160400D01*
X259440Y160680D01*
G01Y161800D02*
X259760D01*
G01X260747Y160633D02*
X260827Y160493D01*
X260920Y160423D01*
X261027Y160400D01*
X261160Y160447D01*
X261253Y160563D01*
X261280Y160703D01*
X261267Y160843D01*
X261213Y160960D01*
X260947Y161193D01*
X260827Y161357D01*
X260747Y161590D01*
X260720Y161800D01*
X261280D01*
G01X262400Y160400D02*
X262293Y160447D01*
X262213Y160563D01*
X262160Y160703D01*
X262120Y160890D01*
X262107Y161100D01*
X262120Y161310D01*
X262160Y161497D01*
X262213Y161637D01*
X262293Y161753D01*
X262400Y161800D01*
X262507Y161753D01*
X262587Y161637D01*
X262640Y161497D01*
X262680Y161310D01*
X262693Y161100D01*
X262680Y160890D01*
X262640Y160703D01*
X262587Y160563D01*
X262507Y160447D01*
X262400Y160400D01*
G01X263547Y161217D02*
X263640Y161053D01*
X263720Y160960D01*
X263827Y160913D01*
X263920Y160960D01*
X263987Y161053D01*
X264040Y161193D01*
X264053Y161357D01*
X264040Y161497D01*
X263987Y161637D01*
X263907Y161753D01*
X263813Y161800D01*
X263707Y161753D01*
X263613Y161613D01*
X263560Y161403D01*
X263547Y161170D01*
X263573Y160867D01*
X263613Y160703D01*
X263680Y160540D01*
X263773Y160423D01*
X263867Y160400D01*
X263960Y160447D01*
X264027Y160563D01*
G01X264800Y162267D02*
X265600D01*
G01X266600Y161800D02*
Y160400D01*
X266440Y160680D01*
G01Y161800D02*
X266760D01*
G01X268000Y160400D02*
X267893Y160447D01*
X267813Y160563D01*
X267760Y160703D01*
X267720Y160890D01*
X267707Y161100D01*
X267720Y161310D01*
X267760Y161497D01*
X267813Y161637D01*
X267893Y161753D01*
X268000Y161800D01*
X268107Y161753D01*
X268187Y161637D01*
X268240Y161497D01*
X268280Y161310D01*
X268293Y161100D01*
X268280Y160890D01*
X268240Y160703D01*
X268187Y160563D01*
X268107Y160447D01*
X268000Y160400D01*
G01X269107D02*
Y161403D01*
X269160Y161613D01*
X269267Y161753D01*
X269400Y161800D01*
X269533Y161753D01*
X269640Y161613D01*
X269693Y161403D01*
Y160400D01*
G01X270547Y161800D02*
Y160400D01*
X271053D01*
G01X270867Y161077D02*
X270547D01*
G01X256507Y161590D02*
X256587Y161707D01*
X256680Y161777D01*
X256800Y161800D01*
X256920Y161753D01*
X257013Y161660D01*
X257080Y161497D01*
X257093Y161310D01*
X257067Y161123D01*
X257000Y161007D01*
X256907Y160913D01*
X256813Y160890D01*
X256720Y160913D01*
X256600Y161007D01*
X256640Y160400D01*
X257000D01*
G01X257867D02*
X258200Y161800D01*
X258533Y160400D01*
G01X259200Y162267D02*
X260000D01*
G01X261293Y160517D02*
X261213Y160447D01*
X261120Y160400D01*
X261013D01*
X260893Y160470D01*
X260800Y160587D01*
X260733Y160727D01*
X260680Y160960D01*
X260667Y161170D01*
X260693Y161380D01*
X260733Y161520D01*
X260813Y161660D01*
X260907Y161753D01*
X261000Y161800D01*
X261093D01*
X261187Y161753D01*
X261267Y161683D01*
X261333Y161590D01*
G01X262400Y161800D02*
X262493Y161777D01*
X262600Y161707D01*
X262667Y161590D01*
X262693Y161427D01*
X262667Y161263D01*
X262587Y161123D01*
X262467Y161053D01*
X262333D01*
X262253Y161007D01*
X262187Y160890D01*
X262160Y160727D01*
X262200Y160563D01*
X262293Y160447D01*
X262400Y160400D01*
X262507Y160447D01*
X262600Y160563D01*
X262640Y160727D01*
X262613Y160890D01*
X262547Y161007D01*
X262467Y161053D01*
X262333D01*
X262213Y161123D01*
X262133Y161263D01*
X262107Y161427D01*
X262133Y161590D01*
X262200Y161707D01*
X262307Y161777D01*
X262400Y161800D01*
G01X248693Y151017D02*
X248613Y150947D01*
X248520Y150900D01*
X248413D01*
X248293Y150970D01*
X248200Y151087D01*
X248133Y151227D01*
X248080Y151460D01*
X248067Y151670D01*
X248093Y151880D01*
X248133Y152020D01*
X248213Y152160D01*
X248307Y152253D01*
X248400Y152300D01*
X248493D01*
X248587Y152253D01*
X248667Y152183D01*
X248733Y152090D01*
G01X249400Y152767D02*
X250200D01*
G01X250893Y152300D02*
Y150900D01*
X251507Y152300D01*
Y150900D01*
G01X252333Y152300D02*
Y150900D01*
X252653D01*
X252760Y150970D01*
X252840Y151133D01*
X252867Y151320D01*
X252840Y151507D01*
X252773Y151647D01*
X252653Y151717D01*
X252333D01*
G01X253600Y152767D02*
X254400D01*
G01X255107Y152300D02*
Y150900D01*
X255373D01*
X255480Y150970D01*
X255560Y151063D01*
X255627Y151203D01*
X255680Y151367D01*
X255693Y151600D01*
X255680Y151833D01*
X255627Y151997D01*
X255560Y152137D01*
X255480Y152230D01*
X255373Y152300D01*
X255107D01*
G01X256507D02*
Y150900D01*
G01X257013D02*
X256507Y151763D01*
G01X257093Y152300D02*
X256733Y151367D01*
G01X257800Y152767D02*
X258600D01*
G01X259600Y152300D02*
Y150900D01*
X259440Y151180D01*
G01Y152300D02*
X259760D01*
G01X260747Y151133D02*
X260827Y150993D01*
X260920Y150923D01*
X261027Y150900D01*
X261160Y150947D01*
X261253Y151063D01*
X261280Y151203D01*
X261267Y151343D01*
X261213Y151460D01*
X260947Y151693D01*
X260827Y151857D01*
X260747Y152090D01*
X260720Y152300D01*
X261280D01*
G01X262400Y150900D02*
X262293Y150947D01*
X262213Y151063D01*
X262160Y151203D01*
X262120Y151390D01*
X262107Y151600D01*
X262120Y151810D01*
X262160Y151997D01*
X262213Y152137D01*
X262293Y152253D01*
X262400Y152300D01*
X262507Y152253D01*
X262587Y152137D01*
X262640Y151997D01*
X262680Y151810D01*
X262693Y151600D01*
X262680Y151390D01*
X262640Y151203D01*
X262587Y151063D01*
X262507Y150947D01*
X262400Y150900D01*
G01X263547Y151717D02*
X263640Y151553D01*
X263720Y151460D01*
X263827Y151413D01*
X263920Y151460D01*
X263987Y151553D01*
X264040Y151693D01*
X264053Y151857D01*
X264040Y151997D01*
X263987Y152137D01*
X263907Y152253D01*
X263813Y152300D01*
X263707Y152253D01*
X263613Y152113D01*
X263560Y151903D01*
X263547Y151670D01*
X263573Y151367D01*
X263613Y151203D01*
X263680Y151040D01*
X263773Y150923D01*
X263867Y150900D01*
X263960Y150947D01*
X264027Y151063D01*
G01X264800Y152767D02*
X265600D01*
G01X266600Y152300D02*
Y150900D01*
X266440Y151180D01*
G01Y152300D02*
X266760D01*
G01X268000Y150900D02*
X267893Y150947D01*
X267813Y151063D01*
X267760Y151203D01*
X267720Y151390D01*
X267707Y151600D01*
X267720Y151810D01*
X267760Y151997D01*
X267813Y152137D01*
X267893Y152253D01*
X268000Y152300D01*
X268107Y152253D01*
X268187Y152137D01*
X268240Y151997D01*
X268280Y151810D01*
X268293Y151600D01*
X268280Y151390D01*
X268240Y151203D01*
X268187Y151063D01*
X268107Y150947D01*
X268000Y150900D01*
G01X269107D02*
Y151903D01*
X269160Y152113D01*
X269267Y152253D01*
X269400Y152300D01*
X269533Y152253D01*
X269640Y152113D01*
X269693Y151903D01*
Y150900D01*
G01X270547Y152300D02*
Y150900D01*
X271053D01*
G01X270867Y151577D02*
X270547D01*
G01X256507Y152090D02*
X256587Y152207D01*
X256680Y152277D01*
X256800Y152300D01*
X256920Y152253D01*
X257013Y152160D01*
X257080Y151997D01*
X257093Y151810D01*
X257067Y151623D01*
X257000Y151507D01*
X256907Y151413D01*
X256813Y151390D01*
X256720Y151413D01*
X256600Y151507D01*
X256640Y150900D01*
X257000D01*
G01X257867D02*
X258200Y152300D01*
X258533Y150900D01*
G01X259200Y152767D02*
X260000D01*
G01X261293Y151017D02*
X261213Y150947D01*
X261120Y150900D01*
X261013D01*
X260893Y150970D01*
X260800Y151087D01*
X260733Y151227D01*
X260680Y151460D01*
X260667Y151670D01*
X260693Y151880D01*
X260733Y152020D01*
X260813Y152160D01*
X260907Y152253D01*
X261000Y152300D01*
X261093D01*
X261187Y152253D01*
X261267Y152183D01*
X261333Y152090D01*
G01X262173Y152137D02*
X262267Y152253D01*
X262373Y152300D01*
X262480Y152253D01*
X262573Y152113D01*
X262640Y151903D01*
X262667Y151693D01*
Y151437D01*
X262640Y151227D01*
X262573Y151040D01*
X262493Y150947D01*
X262400Y150900D01*
X262293Y150947D01*
X262213Y151040D01*
X262160Y151180D01*
X262133Y151367D01*
X262160Y151530D01*
X262227Y151693D01*
X262307Y151787D01*
X262400Y151810D01*
X262507Y151763D01*
X262587Y151647D01*
X262667Y151437D01*
M02*
