G04 ================== begin FILE IDENTIFICATION RECORD ==================*
G04 Layout Name:  C:/Users/dmigh/OneDrive/Documents/GitHub/OnyxPSU/allegro/ONYXPSU.brd*
G04 Film Name:    BOTTOM_SILKSCREEN*
G04 File Format:  Gerber RS274X*
G04 File Origin:  Cadence Allegro 16.6-P004*
G04 Origin Date:  Mon Feb 13 13:33:03 2017*
G04 *
G04 Layer:  REF DES/SILKSCREEN_BOTTOM*
G04 Layer:  PACKAGE GEOMETRY/SILKSCREEN_BOTTOM*
G04 Layer:  BOARD GEOMETRY/OUTLINE*
G04 Layer:  BOARD GEOMETRY/SILKSCREEN_BOTTOM*
G04 *
G04 Offset:    (0.00 0.00)*
G04 Mirror:    No*
G04 Mode:      Positive*
G04 Rotation:  0*
G04 FullContactRelief:  No*
G04 UndefLineWidth:     10.00*
G04 ================== end FILE IDENTIFICATION RECORD ====================*
%FSLAX25Y25*MOIN*%
%IR0*IPPOS*OFA0.00000B0.00000*MIA0B0*SFA1.00000B1.00000*%
%ADD10C,.02*%
%ADD11C,.004*%
%ADD12C,.01*%
%ADD13C,.006*%
G75*
%LPD*%
G75*
G54D10*
G01X11800Y118300D02*
G03I-1500J0D01*
G01X11050Y203840D02*
G03I-1500J0D01*
G01X71319Y7900D02*
G03I-1500J0D01*
G01X78300Y190600D02*
G03I-1500J0D01*
G01X326200Y87100D02*
G03I-1500J0D01*
G01Y129650D02*
G03I-1500J0D01*
G01Y172200D02*
G03I-1500J0D01*
G01X332900Y208100D02*
G03I-1500J0D01*
G54D11*
G01X55733Y119033D02*
X55400Y120433D01*
X55067Y119033D01*
G01X55187Y119523D02*
X55613D01*
G01X53707Y120316D02*
X53787Y120386D01*
X53880Y120433D01*
X53987D01*
X54107Y120363D01*
X54200Y120246D01*
X54267Y120106D01*
X54320Y119873D01*
X54333Y119663D01*
X54307Y119453D01*
X54267Y119313D01*
X54187Y119173D01*
X54093Y119080D01*
X54000Y119033D01*
X53907D01*
X53813Y119080D01*
X53733Y119150D01*
X53667Y119243D01*
G01X52880Y119220D02*
X52773Y119103D01*
X52653Y119033D01*
X52547D01*
X52440Y119103D01*
X52360Y119220D01*
X52320Y119383D01*
X52347Y119546D01*
X52413Y119686D01*
X52533Y119780D01*
X52693Y119826D01*
X52787Y119920D01*
X52827Y120083D01*
X52800Y120246D01*
X52733Y120363D01*
X52640Y120433D01*
X52547D01*
X52453Y120386D01*
X52373Y120270D01*
G01X50933Y119033D02*
X51467D01*
Y120433D01*
X50933D01*
G01X51147Y119756D02*
X51467D01*
G01X49800Y120433D02*
Y119033D01*
G01X50107Y120433D02*
X49493D01*
G01X48800Y118566D02*
X48000D01*
G01X47267Y119033D02*
Y120433D01*
X46933D01*
X46827Y120363D01*
X46760Y120270D01*
X46733Y120083D01*
X46760Y119896D01*
X46840Y119780D01*
X46933Y119710D01*
X47267D01*
G01X46933D02*
X46733Y119033D01*
G01X45853Y120200D02*
X45773Y120340D01*
X45680Y120410D01*
X45573Y120433D01*
X45440Y120386D01*
X45347Y120270D01*
X45320Y120130D01*
X45333Y119990D01*
X45387Y119873D01*
X45653Y119640D01*
X45773Y119476D01*
X45853Y119243D01*
X45880Y119033D01*
X45320D01*
G01X56060Y133933D02*
X55740D01*
G01X55900D02*
Y132533D01*
G01X56060D02*
X55740D01*
G01X54780Y132720D02*
X54673Y132603D01*
X54553Y132533D01*
X54447D01*
X54340Y132603D01*
X54260Y132720D01*
X54220Y132883D01*
X54247Y133046D01*
X54313Y133186D01*
X54433Y133280D01*
X54593Y133326D01*
X54687Y133420D01*
X54727Y133583D01*
X54700Y133746D01*
X54633Y133863D01*
X54540Y133933D01*
X54447D01*
X54353Y133886D01*
X54273Y133770D01*
G01X52833Y132533D02*
X53367D01*
Y133933D01*
X52833D01*
G01X53047Y133256D02*
X53367D01*
G01X51700Y133933D02*
Y132533D01*
G01X52007Y133933D02*
X51393D01*
G01X50300Y132533D02*
Y133933D01*
X50460Y133653D01*
G01Y132533D02*
X50140D01*
G01X49300Y132066D02*
X48500D01*
G01X47767Y132533D02*
Y133933D01*
X47433D01*
X47327Y133863D01*
X47260Y133770D01*
X47233Y133583D01*
X47260Y133396D01*
X47340Y133280D01*
X47433Y133210D01*
X47767D01*
G01X47433D02*
X47233Y132533D01*
G01X46353Y133700D02*
X46273Y133840D01*
X46180Y133910D01*
X46073Y133933D01*
X45940Y133886D01*
X45847Y133770D01*
X45820Y133630D01*
X45833Y133490D01*
X45887Y133373D01*
X46153Y133140D01*
X46273Y132976D01*
X46353Y132743D01*
X46380Y132533D01*
X45820D01*
G01X56060Y127433D02*
X55740D01*
G01X55900D02*
Y126033D01*
G01X56060D02*
X55740D01*
G01X54780Y126220D02*
X54673Y126103D01*
X54553Y126033D01*
X54447D01*
X54340Y126103D01*
X54260Y126220D01*
X54220Y126383D01*
X54247Y126546D01*
X54313Y126686D01*
X54433Y126780D01*
X54593Y126826D01*
X54687Y126920D01*
X54727Y127083D01*
X54700Y127246D01*
X54633Y127363D01*
X54540Y127433D01*
X54447D01*
X54353Y127386D01*
X54273Y127270D01*
G01X52833Y126033D02*
X53367D01*
Y127433D01*
X52833D01*
G01X53047Y126756D02*
X53367D01*
G01X51700Y127433D02*
Y126033D01*
G01X52007Y127433D02*
X51393D01*
G01X50553Y127200D02*
X50473Y127340D01*
X50380Y127410D01*
X50273Y127433D01*
X50140Y127386D01*
X50047Y127270D01*
X50020Y127130D01*
X50033Y126990D01*
X50087Y126873D01*
X50353Y126640D01*
X50473Y126476D01*
X50553Y126243D01*
X50580Y126033D01*
X50020D01*
G01X49300Y125566D02*
X48500D01*
G01X47767Y126033D02*
Y127433D01*
X47433D01*
X47327Y127363D01*
X47260Y127270D01*
X47233Y127083D01*
X47260Y126896D01*
X47340Y126780D01*
X47433Y126710D01*
X47767D01*
G01X47433D02*
X47233Y126033D01*
G01X46353Y127200D02*
X46273Y127340D01*
X46180Y127410D01*
X46073Y127433D01*
X45940Y127386D01*
X45847Y127270D01*
X45820Y127130D01*
X45833Y126990D01*
X45887Y126873D01*
X46153Y126640D01*
X46273Y126476D01*
X46353Y126243D01*
X46380Y126033D01*
X45820D01*
G01X48167Y142567D02*
X48500Y143967D01*
X48833Y142567D01*
G01X49647Y143967D02*
Y142567D01*
X50153D01*
G01X49967Y143244D02*
X49647D01*
G01X51407Y143220D02*
X51460Y143150D01*
X51500Y143034D01*
X51527Y142870D01*
X51500Y142730D01*
X51447Y142637D01*
X51353Y142567D01*
X50993D01*
Y143967D01*
X51433D01*
X51527Y143874D01*
X51580Y143734D01*
X51607Y143570D01*
X51580Y143407D01*
X51500Y143267D01*
X51407Y143220D01*
X50993D01*
G01X52300Y144434D02*
X53100D01*
G01X54393Y142684D02*
X54313Y142614D01*
X54220Y142567D01*
X54113D01*
X53993Y142637D01*
X53900Y142754D01*
X53833Y142894D01*
X53780Y143127D01*
X53767Y143337D01*
X53793Y143547D01*
X53833Y143687D01*
X53913Y143827D01*
X54007Y143920D01*
X54100Y143967D01*
X54193D01*
X54287Y143920D01*
X54367Y143850D01*
X54433Y143757D01*
G01X55500Y143967D02*
Y142567D01*
X55340Y142847D01*
G01Y143967D02*
X55660D01*
G01X54667Y151567D02*
X55000Y152967D01*
X55333Y151567D01*
G01X56147Y152967D02*
Y151567D01*
X56653D01*
G01X56467Y152244D02*
X56147D01*
G01X57907Y152220D02*
X57960Y152150D01*
X58000Y152034D01*
X58027Y151870D01*
X58000Y151730D01*
X57947Y151637D01*
X57853Y151567D01*
X57493D01*
Y152967D01*
X57933D01*
X58027Y152874D01*
X58080Y152734D01*
X58107Y152570D01*
X58080Y152407D01*
X58000Y152267D01*
X57907Y152220D01*
X57493D01*
G01X58800Y153434D02*
X59600D01*
G01X60333Y152967D02*
Y151567D01*
X60667D01*
X60773Y151637D01*
X60840Y151730D01*
X60867Y151917D01*
X60840Y152104D01*
X60760Y152220D01*
X60667Y152290D01*
X60333D01*
G01X60667D02*
X60867Y152967D01*
G01X62000D02*
Y151567D01*
X61840Y151847D01*
G01Y152967D02*
X62160D01*
G01X58167Y157567D02*
X58500Y158967D01*
X58833Y157567D01*
G01X59647Y158967D02*
Y157567D01*
X60153D01*
G01X59967Y158244D02*
X59647D01*
G01X61407Y158220D02*
X61460Y158150D01*
X61500Y158034D01*
X61527Y157870D01*
X61500Y157730D01*
X61447Y157637D01*
X61353Y157567D01*
X60993D01*
Y158967D01*
X61433D01*
X61527Y158874D01*
X61580Y158734D01*
X61607Y158570D01*
X61580Y158407D01*
X61500Y158267D01*
X61407Y158220D01*
X60993D01*
G01X62300Y159434D02*
X63100D01*
G01X63833Y158967D02*
Y157567D01*
X64167D01*
X64273Y157637D01*
X64340Y157730D01*
X64367Y157917D01*
X64340Y158104D01*
X64260Y158220D01*
X64167Y158290D01*
X63833D01*
G01X64167D02*
X64367Y158967D01*
G01X65247Y157800D02*
X65327Y157660D01*
X65420Y157590D01*
X65527Y157567D01*
X65660Y157614D01*
X65753Y157730D01*
X65780Y157870D01*
X65767Y158010D01*
X65713Y158127D01*
X65447Y158360D01*
X65327Y158524D01*
X65247Y158757D01*
X65220Y158967D01*
X65780D01*
G01X101233Y119033D02*
X100900Y120433D01*
X100567Y119033D01*
G01X100687Y119523D02*
X101113D01*
G01X99207Y120316D02*
X99287Y120386D01*
X99380Y120433D01*
X99487D01*
X99607Y120363D01*
X99700Y120246D01*
X99767Y120106D01*
X99820Y119873D01*
X99833Y119663D01*
X99807Y119453D01*
X99767Y119313D01*
X99687Y119173D01*
X99593Y119080D01*
X99500Y119033D01*
X99407D01*
X99313Y119080D01*
X99233Y119150D01*
X99167Y119243D01*
G01X98380Y119220D02*
X98273Y119103D01*
X98153Y119033D01*
X98047D01*
X97940Y119103D01*
X97860Y119220D01*
X97820Y119383D01*
X97847Y119546D01*
X97913Y119686D01*
X98033Y119780D01*
X98193Y119826D01*
X98287Y119920D01*
X98327Y120083D01*
X98300Y120246D01*
X98233Y120363D01*
X98140Y120433D01*
X98047D01*
X97953Y120386D01*
X97873Y120270D01*
G01X96433Y119033D02*
X96967D01*
Y120433D01*
X96433D01*
G01X96647Y119756D02*
X96967D01*
G01X95300Y120433D02*
Y119033D01*
G01X95607Y120433D02*
X94993D01*
G01X94300Y118566D02*
X93500D01*
G01X92767Y119033D02*
Y120433D01*
X92433D01*
X92327Y120363D01*
X92260Y120270D01*
X92233Y120083D01*
X92260Y119896D01*
X92340Y119780D01*
X92433Y119710D01*
X92767D01*
G01X92433D02*
X92233Y119033D01*
G01X91100D02*
Y120433D01*
X91260Y120153D01*
G01Y119033D02*
X90940D01*
G01X94060Y133933D02*
X93740D01*
G01X93900D02*
Y132533D01*
G01X94060D02*
X93740D01*
G01X92780Y132720D02*
X92673Y132603D01*
X92553Y132533D01*
X92447D01*
X92340Y132603D01*
X92260Y132720D01*
X92220Y132883D01*
X92247Y133046D01*
X92313Y133186D01*
X92433Y133280D01*
X92593Y133326D01*
X92687Y133420D01*
X92727Y133583D01*
X92700Y133746D01*
X92633Y133863D01*
X92540Y133933D01*
X92447D01*
X92353Y133886D01*
X92273Y133770D01*
G01X90833Y132533D02*
X91367D01*
Y133933D01*
X90833D01*
G01X91047Y133256D02*
X91367D01*
G01X89700Y133933D02*
Y132533D01*
G01X90007Y133933D02*
X89393D01*
G01X88300Y132533D02*
Y133933D01*
X88460Y133653D01*
G01Y132533D02*
X88140D01*
G01X87300Y132066D02*
X86500D01*
G01X85767Y132533D02*
Y133933D01*
X85433D01*
X85327Y133863D01*
X85260Y133770D01*
X85233Y133583D01*
X85260Y133396D01*
X85340Y133280D01*
X85433Y133210D01*
X85767D01*
G01X85433D02*
X85233Y132533D01*
G01X84100D02*
Y133933D01*
X84260Y133653D01*
G01Y132533D02*
X83940D01*
G01X101060Y126933D02*
X100740D01*
G01X100900D02*
Y125533D01*
G01X101060D02*
X100740D01*
G01X99780Y125720D02*
X99673Y125603D01*
X99553Y125533D01*
X99447D01*
X99340Y125603D01*
X99260Y125720D01*
X99220Y125883D01*
X99247Y126046D01*
X99313Y126186D01*
X99433Y126280D01*
X99593Y126326D01*
X99687Y126420D01*
X99727Y126583D01*
X99700Y126746D01*
X99633Y126863D01*
X99540Y126933D01*
X99447D01*
X99353Y126886D01*
X99273Y126770D01*
G01X97833Y125533D02*
X98367D01*
Y126933D01*
X97833D01*
G01X98047Y126256D02*
X98367D01*
G01X96700Y126933D02*
Y125533D01*
G01X97007Y126933D02*
X96393D01*
G01X95553Y126700D02*
X95473Y126840D01*
X95380Y126910D01*
X95273Y126933D01*
X95140Y126886D01*
X95047Y126770D01*
X95020Y126630D01*
X95033Y126490D01*
X95087Y126373D01*
X95353Y126140D01*
X95473Y125976D01*
X95553Y125743D01*
X95580Y125533D01*
X95020D01*
G01X94300Y125066D02*
X93500D01*
G01X92767Y125533D02*
Y126933D01*
X92433D01*
X92327Y126863D01*
X92260Y126770D01*
X92233Y126583D01*
X92260Y126396D01*
X92340Y126280D01*
X92433Y126210D01*
X92767D01*
G01X92433D02*
X92233Y125533D01*
G01X91100D02*
Y126933D01*
X91260Y126653D01*
G01Y125533D02*
X90940D01*
G01X154493Y44710D02*
X154413Y44593D01*
X154320Y44523D01*
X154200Y44500D01*
X154080Y44547D01*
X153987Y44640D01*
X153920Y44803D01*
X153907Y44990D01*
X153933Y45177D01*
X154000Y45293D01*
X154093Y45387D01*
X154187Y45410D01*
X154280Y45387D01*
X154400Y45293D01*
X154360Y45900D01*
X154000D01*
G01X153133D02*
X152800Y44500D01*
X152467Y45900D01*
G01X151800Y44033D02*
X151000D01*
G01X149707Y45783D02*
X149787Y45853D01*
X149880Y45900D01*
X149987D01*
X150107Y45830D01*
X150200Y45713D01*
X150267Y45573D01*
X150320Y45340D01*
X150333Y45130D01*
X150307Y44920D01*
X150267Y44780D01*
X150187Y44640D01*
X150093Y44547D01*
X150000Y44500D01*
X149907D01*
X149813Y44547D01*
X149733Y44617D01*
X149667Y44710D01*
G01X148600Y44500D02*
Y45900D01*
X148760Y45620D01*
G01Y44500D02*
X148440D01*
G01X154493Y54110D02*
X154413Y53993D01*
X154320Y53923D01*
X154200Y53900D01*
X154080Y53947D01*
X153987Y54040D01*
X153920Y54203D01*
X153907Y54390D01*
X153933Y54577D01*
X154000Y54693D01*
X154093Y54787D01*
X154187Y54810D01*
X154280Y54787D01*
X154400Y54693D01*
X154360Y55300D01*
X154000D01*
G01X153133D02*
X152800Y53900D01*
X152467Y55300D01*
G01X151800Y53433D02*
X151000D01*
G01X149707Y55183D02*
X149787Y55253D01*
X149880Y55300D01*
X149987D01*
X150107Y55230D01*
X150200Y55113D01*
X150267Y54973D01*
X150320Y54740D01*
X150333Y54530D01*
X150307Y54320D01*
X150267Y54180D01*
X150187Y54040D01*
X150093Y53947D01*
X150000Y53900D01*
X149907D01*
X149813Y53947D01*
X149733Y54017D01*
X149667Y54110D01*
G01X148853Y55067D02*
X148773Y55207D01*
X148680Y55277D01*
X148573Y55300D01*
X148440Y55253D01*
X148347Y55137D01*
X148320Y54997D01*
X148333Y54857D01*
X148387Y54740D01*
X148653Y54507D01*
X148773Y54343D01*
X148853Y54110D01*
X148880Y53900D01*
X148320D01*
G01X154493Y63510D02*
X154413Y63393D01*
X154320Y63323D01*
X154200Y63300D01*
X154080Y63347D01*
X153987Y63440D01*
X153920Y63603D01*
X153907Y63790D01*
X153933Y63977D01*
X154000Y64093D01*
X154093Y64187D01*
X154187Y64210D01*
X154280Y64187D01*
X154400Y64093D01*
X154360Y64700D01*
X154000D01*
G01X153133D02*
X152800Y63300D01*
X152467Y64700D01*
G01X151800Y62833D02*
X151000D01*
G01X149707Y64583D02*
X149787Y64653D01*
X149880Y64700D01*
X149987D01*
X150107Y64630D01*
X150200Y64513D01*
X150267Y64373D01*
X150320Y64140D01*
X150333Y63930D01*
X150307Y63720D01*
X150267Y63580D01*
X150187Y63440D01*
X150093Y63347D01*
X150000Y63300D01*
X149907D01*
X149813Y63347D01*
X149733Y63417D01*
X149667Y63510D01*
G01X148893Y63580D02*
X148813Y63417D01*
X148707Y63323D01*
X148587Y63300D01*
X148480Y63323D01*
X148373Y63440D01*
X148307Y63580D01*
X148293Y63720D01*
X148320Y63883D01*
X148413Y64000D01*
X148507Y64047D01*
X148627D01*
G01X148507D02*
X148427Y64117D01*
X148360Y64233D01*
X148333Y64373D01*
X148360Y64513D01*
X148427Y64630D01*
X148547Y64700D01*
X148667Y64677D01*
X148787Y64583D01*
G01X177593Y37243D02*
X177513Y37126D01*
X177420Y37056D01*
X177300Y37033D01*
X177180Y37080D01*
X177087Y37173D01*
X177020Y37336D01*
X177007Y37523D01*
X177033Y37710D01*
X177100Y37826D01*
X177193Y37920D01*
X177287Y37943D01*
X177380Y37920D01*
X177500Y37826D01*
X177460Y38433D01*
X177100D01*
G01X176233D02*
X175900Y37033D01*
X175567Y38433D01*
G01X174900Y36566D02*
X174100D01*
G01X172807Y38316D02*
X172887Y38386D01*
X172980Y38433D01*
X173087D01*
X173207Y38363D01*
X173300Y38246D01*
X173367Y38106D01*
X173420Y37873D01*
X173433Y37663D01*
X173407Y37453D01*
X173367Y37313D01*
X173287Y37173D01*
X173193Y37080D01*
X173100Y37033D01*
X173007D01*
X172913Y37080D01*
X172833Y37150D01*
X172767Y37243D01*
G01X171727Y37033D02*
X171700Y37336D01*
X171660Y37593D01*
X171607Y37826D01*
X171540Y38083D01*
X171433Y38433D01*
X171967D01*
G01X197593Y44743D02*
X197513Y44626D01*
X197420Y44556D01*
X197300Y44533D01*
X197180Y44580D01*
X197087Y44673D01*
X197020Y44836D01*
X197007Y45023D01*
X197033Y45210D01*
X197100Y45326D01*
X197193Y45420D01*
X197287Y45443D01*
X197380Y45420D01*
X197500Y45326D01*
X197460Y45933D01*
X197100D01*
G01X196233D02*
X195900Y44533D01*
X195567Y45933D01*
G01X194900Y44066D02*
X194100D01*
G01X192807Y45816D02*
X192887Y45886D01*
X192980Y45933D01*
X193087D01*
X193207Y45863D01*
X193300Y45746D01*
X193367Y45606D01*
X193420Y45373D01*
X193433Y45163D01*
X193407Y44953D01*
X193367Y44813D01*
X193287Y44673D01*
X193193Y44580D01*
X193100Y44533D01*
X193007D01*
X192913Y44580D01*
X192833Y44650D01*
X192767Y44743D01*
G01X191540Y44533D02*
Y45933D01*
X192033Y44930D01*
X191367D01*
G01X197093Y51243D02*
X197013Y51126D01*
X196920Y51056D01*
X196800Y51033D01*
X196680Y51080D01*
X196587Y51173D01*
X196520Y51336D01*
X196507Y51523D01*
X196533Y51710D01*
X196600Y51826D01*
X196693Y51920D01*
X196787Y51943D01*
X196880Y51920D01*
X197000Y51826D01*
X196960Y52433D01*
X196600D01*
G01X195733D02*
X195400Y51033D01*
X195067Y52433D01*
G01X194400Y50566D02*
X193600D01*
G01X192307Y52316D02*
X192387Y52386D01*
X192480Y52433D01*
X192587D01*
X192707Y52363D01*
X192800Y52246D01*
X192867Y52106D01*
X192920Y51873D01*
X192933Y51663D01*
X192907Y51453D01*
X192867Y51313D01*
X192787Y51173D01*
X192693Y51080D01*
X192600Y51033D01*
X192507D01*
X192413Y51080D01*
X192333Y51150D01*
X192267Y51243D01*
G01X191493D02*
X191413Y51126D01*
X191320Y51056D01*
X191200Y51033D01*
X191080Y51080D01*
X190987Y51173D01*
X190920Y51336D01*
X190907Y51523D01*
X190933Y51710D01*
X191000Y51826D01*
X191093Y51920D01*
X191187Y51943D01*
X191280Y51920D01*
X191400Y51826D01*
X191360Y52433D01*
X191000D01*
G01X196593Y56743D02*
X196513Y56626D01*
X196420Y56556D01*
X196300Y56533D01*
X196180Y56580D01*
X196087Y56673D01*
X196020Y56836D01*
X196007Y57023D01*
X196033Y57210D01*
X196100Y57326D01*
X196193Y57420D01*
X196287Y57443D01*
X196380Y57420D01*
X196500Y57326D01*
X196460Y57933D01*
X196100D01*
G01X195233D02*
X194900Y56533D01*
X194567Y57933D01*
G01X193900Y56066D02*
X193100D01*
G01X191807Y57816D02*
X191887Y57886D01*
X191980Y57933D01*
X192087D01*
X192207Y57863D01*
X192300Y57746D01*
X192367Y57606D01*
X192420Y57373D01*
X192433Y57163D01*
X192407Y56953D01*
X192367Y56813D01*
X192287Y56673D01*
X192193Y56580D01*
X192100Y56533D01*
X192007D01*
X191913Y56580D01*
X191833Y56650D01*
X191767Y56743D01*
G01X190953Y57116D02*
X190860Y57280D01*
X190780Y57373D01*
X190673Y57420D01*
X190580Y57373D01*
X190513Y57280D01*
X190460Y57140D01*
X190447Y56976D01*
X190460Y56836D01*
X190513Y56696D01*
X190593Y56580D01*
X190687Y56533D01*
X190793Y56580D01*
X190887Y56720D01*
X190940Y56930D01*
X190953Y57163D01*
X190927Y57466D01*
X190887Y57630D01*
X190820Y57793D01*
X190727Y57910D01*
X190633Y57933D01*
X190540Y57886D01*
X190473Y57770D01*
G01X218807Y28400D02*
Y29403D01*
X218860Y29613D01*
X218967Y29753D01*
X219100Y29800D01*
X219233Y29753D01*
X219340Y29613D01*
X219393Y29403D01*
Y28400D01*
G01X220167Y29800D02*
X220500Y28400D01*
X220833Y29800D01*
G01X220713Y29310D02*
X220287D01*
G01X221633Y29800D02*
Y28400D01*
X221967D01*
X222073Y28470D01*
X222140Y28563D01*
X222167Y28750D01*
X222140Y28937D01*
X222060Y29053D01*
X221967Y29123D01*
X221633D01*
G01X221967D02*
X222167Y29800D01*
G01X223300Y28400D02*
Y29800D01*
G01X222993Y28400D02*
X223607D01*
G01X224300Y30267D02*
X225100D01*
G01X225833Y29800D02*
Y28400D01*
X226167D01*
X226273Y28470D01*
X226340Y28563D01*
X226367Y28750D01*
X226340Y28937D01*
X226260Y29053D01*
X226167Y29123D01*
X225833D01*
G01X226167D02*
X226367Y29800D01*
G01X227500D02*
Y28400D01*
X227340Y28680D01*
G01Y29800D02*
X227660D01*
G01X218707Y35300D02*
Y36303D01*
X218760Y36513D01*
X218867Y36653D01*
X219000Y36700D01*
X219133Y36653D01*
X219240Y36513D01*
X219293Y36303D01*
Y35300D01*
G01X220067Y36700D02*
X220400Y35300D01*
X220733Y36700D01*
G01X220613Y36210D02*
X220187D01*
G01X221533Y36700D02*
Y35300D01*
X221867D01*
X221973Y35370D01*
X222040Y35463D01*
X222067Y35650D01*
X222040Y35837D01*
X221960Y35953D01*
X221867Y36023D01*
X221533D01*
G01X221867D02*
X222067Y36700D01*
G01X223200Y35300D02*
Y36700D01*
G01X222893Y35300D02*
X223507D01*
G01X224200Y37167D02*
X225000D01*
G01X225733Y36700D02*
Y35300D01*
X226067D01*
X226173Y35370D01*
X226240Y35463D01*
X226267Y35650D01*
X226240Y35837D01*
X226160Y35953D01*
X226067Y36023D01*
X225733D01*
G01X226067D02*
X226267Y36700D01*
G01X227147Y35533D02*
X227227Y35393D01*
X227320Y35323D01*
X227427Y35300D01*
X227560Y35347D01*
X227653Y35463D01*
X227680Y35603D01*
X227667Y35743D01*
X227613Y35860D01*
X227347Y36093D01*
X227227Y36257D01*
X227147Y36490D01*
X227120Y36700D01*
X227680D01*
G01X236293Y140243D02*
X236213Y140126D01*
X236120Y140056D01*
X236000Y140033D01*
X235880Y140080D01*
X235787Y140173D01*
X235720Y140336D01*
X235707Y140523D01*
X235733Y140710D01*
X235800Y140826D01*
X235893Y140920D01*
X235987Y140943D01*
X236080Y140920D01*
X236200Y140826D01*
X236160Y141433D01*
X235800D01*
G01X234933D02*
X234600Y140033D01*
X234267Y141433D01*
G01X233600Y139566D02*
X232800D01*
G01X231507Y141316D02*
X231587Y141386D01*
X231680Y141433D01*
X231787D01*
X231907Y141363D01*
X232000Y141246D01*
X232067Y141106D01*
X232120Y140873D01*
X232133Y140663D01*
X232107Y140453D01*
X232067Y140313D01*
X231987Y140173D01*
X231893Y140080D01*
X231800Y140033D01*
X231707D01*
X231613Y140080D01*
X231533Y140150D01*
X231467Y140243D01*
G01X230400Y140033D02*
Y141433D01*
X230560Y141153D01*
G01Y140033D02*
X230240D01*
G01X228840D02*
Y141433D01*
X229333Y140430D01*
X228667D01*
G01X236293Y157743D02*
X236213Y157626D01*
X236120Y157556D01*
X236000Y157533D01*
X235880Y157580D01*
X235787Y157673D01*
X235720Y157836D01*
X235707Y158023D01*
X235733Y158210D01*
X235800Y158326D01*
X235893Y158420D01*
X235987Y158443D01*
X236080Y158420D01*
X236200Y158326D01*
X236160Y158933D01*
X235800D01*
G01X234933D02*
X234600Y157533D01*
X234267Y158933D01*
G01X233600Y157066D02*
X232800D01*
G01X231507Y158816D02*
X231587Y158886D01*
X231680Y158933D01*
X231787D01*
X231907Y158863D01*
X232000Y158746D01*
X232067Y158606D01*
X232120Y158373D01*
X232133Y158163D01*
X232107Y157953D01*
X232067Y157813D01*
X231987Y157673D01*
X231893Y157580D01*
X231800Y157533D01*
X231707D01*
X231613Y157580D01*
X231533Y157650D01*
X231467Y157743D01*
G01X230400Y157533D02*
Y158933D01*
X230560Y158653D01*
G01Y157533D02*
X230240D01*
G01X229000D02*
Y158933D01*
X229160Y158653D01*
G01Y157533D02*
X228840D01*
G01X236293Y151743D02*
X236213Y151626D01*
X236120Y151556D01*
X236000Y151533D01*
X235880Y151580D01*
X235787Y151673D01*
X235720Y151836D01*
X235707Y152023D01*
X235733Y152210D01*
X235800Y152326D01*
X235893Y152420D01*
X235987Y152443D01*
X236080Y152420D01*
X236200Y152326D01*
X236160Y152933D01*
X235800D01*
G01X234933D02*
X234600Y151533D01*
X234267Y152933D01*
G01X233600Y151066D02*
X232800D01*
G01X231507Y152816D02*
X231587Y152886D01*
X231680Y152933D01*
X231787D01*
X231907Y152863D01*
X232000Y152746D01*
X232067Y152606D01*
X232120Y152373D01*
X232133Y152163D01*
X232107Y151953D01*
X232067Y151813D01*
X231987Y151673D01*
X231893Y151580D01*
X231800Y151533D01*
X231707D01*
X231613Y151580D01*
X231533Y151650D01*
X231467Y151743D01*
G01X230400Y151533D02*
Y152933D01*
X230560Y152653D01*
G01Y151533D02*
X230240D01*
G01X229253Y152700D02*
X229173Y152840D01*
X229080Y152910D01*
X228973Y152933D01*
X228840Y152886D01*
X228747Y152770D01*
X228720Y152630D01*
X228733Y152490D01*
X228787Y152373D01*
X229053Y152140D01*
X229173Y151976D01*
X229253Y151743D01*
X229280Y151533D01*
X228720D01*
G01X236293Y146243D02*
X236213Y146126D01*
X236120Y146056D01*
X236000Y146033D01*
X235880Y146080D01*
X235787Y146173D01*
X235720Y146336D01*
X235707Y146523D01*
X235733Y146710D01*
X235800Y146826D01*
X235893Y146920D01*
X235987Y146943D01*
X236080Y146920D01*
X236200Y146826D01*
X236160Y147433D01*
X235800D01*
G01X234933D02*
X234600Y146033D01*
X234267Y147433D01*
G01X233600Y145566D02*
X232800D01*
G01X231507Y147316D02*
X231587Y147386D01*
X231680Y147433D01*
X231787D01*
X231907Y147363D01*
X232000Y147246D01*
X232067Y147106D01*
X232120Y146873D01*
X232133Y146663D01*
X232107Y146453D01*
X232067Y146313D01*
X231987Y146173D01*
X231893Y146080D01*
X231800Y146033D01*
X231707D01*
X231613Y146080D01*
X231533Y146150D01*
X231467Y146243D01*
G01X230400Y146033D02*
Y147433D01*
X230560Y147153D01*
G01Y146033D02*
X230240D01*
G01X229293Y146313D02*
X229213Y146150D01*
X229107Y146056D01*
X228987Y146033D01*
X228880Y146056D01*
X228773Y146173D01*
X228707Y146313D01*
X228693Y146453D01*
X228720Y146616D01*
X228813Y146733D01*
X228907Y146780D01*
X229027D01*
G01X228907D02*
X228827Y146850D01*
X228760Y146966D01*
X228733Y147106D01*
X228760Y147246D01*
X228827Y147363D01*
X228947Y147433D01*
X229067Y147410D01*
X229187Y147316D01*
G01X255807Y142590D02*
X255887Y142707D01*
X255980Y142777D01*
X256100Y142800D01*
X256220Y142753D01*
X256313Y142660D01*
X256380Y142497D01*
X256393Y142310D01*
X256367Y142123D01*
X256300Y142007D01*
X256207Y141913D01*
X256113Y141890D01*
X256020Y141913D01*
X255900Y142007D01*
X255940Y141400D01*
X256300D01*
G01X257167D02*
X257500Y142800D01*
X257833Y141400D01*
G01X258500Y143267D02*
X259300D01*
G01X260593Y141517D02*
X260513Y141447D01*
X260420Y141400D01*
X260313D01*
X260193Y141470D01*
X260100Y141587D01*
X260033Y141727D01*
X259980Y141960D01*
X259967Y142170D01*
X259993Y142380D01*
X260033Y142520D01*
X260113Y142660D01*
X260207Y142753D01*
X260300Y142800D01*
X260393D01*
X260487Y142753D01*
X260567Y142683D01*
X260633Y142590D01*
G01X261700Y142800D02*
Y141400D01*
X261540Y141680D01*
G01Y142800D02*
X261860D01*
G01X263100Y141400D02*
X262993Y141447D01*
X262913Y141563D01*
X262860Y141703D01*
X262820Y141890D01*
X262807Y142100D01*
X262820Y142310D01*
X262860Y142497D01*
X262913Y142637D01*
X262993Y142753D01*
X263100Y142800D01*
X263207Y142753D01*
X263287Y142637D01*
X263340Y142497D01*
X263380Y142310D01*
X263393Y142100D01*
X263380Y141890D01*
X263340Y141703D01*
X263287Y141563D01*
X263207Y141447D01*
X263100Y141400D01*
G01X256507Y161590D02*
X256587Y161707D01*
X256680Y161777D01*
X256800Y161800D01*
X256920Y161753D01*
X257013Y161660D01*
X257080Y161497D01*
X257093Y161310D01*
X257067Y161123D01*
X257000Y161007D01*
X256907Y160913D01*
X256813Y160890D01*
X256720Y160913D01*
X256600Y161007D01*
X256640Y160400D01*
X257000D01*
G01X257867D02*
X258200Y161800D01*
X258533Y160400D01*
G01X259200Y162267D02*
X260000D01*
G01X261293Y160517D02*
X261213Y160447D01*
X261120Y160400D01*
X261013D01*
X260893Y160470D01*
X260800Y160587D01*
X260733Y160727D01*
X260680Y160960D01*
X260667Y161170D01*
X260693Y161380D01*
X260733Y161520D01*
X260813Y161660D01*
X260907Y161753D01*
X261000Y161800D01*
X261093D01*
X261187Y161753D01*
X261267Y161683D01*
X261333Y161590D01*
G01X262400Y161800D02*
X262493Y161777D01*
X262600Y161707D01*
X262667Y161590D01*
X262693Y161427D01*
X262667Y161263D01*
X262587Y161123D01*
X262467Y161053D01*
X262333D01*
X262253Y161007D01*
X262187Y160890D01*
X262160Y160727D01*
X262200Y160563D01*
X262293Y160447D01*
X262400Y160400D01*
X262507Y160447D01*
X262600Y160563D01*
X262640Y160727D01*
X262613Y160890D01*
X262547Y161007D01*
X262467Y161053D01*
X262333D01*
X262213Y161123D01*
X262133Y161263D01*
X262107Y161427D01*
X262133Y161590D01*
X262200Y161707D01*
X262307Y161777D01*
X262400Y161800D01*
G01X256507Y152090D02*
X256587Y152207D01*
X256680Y152277D01*
X256800Y152300D01*
X256920Y152253D01*
X257013Y152160D01*
X257080Y151997D01*
X257093Y151810D01*
X257067Y151623D01*
X257000Y151507D01*
X256907Y151413D01*
X256813Y151390D01*
X256720Y151413D01*
X256600Y151507D01*
X256640Y150900D01*
X257000D01*
G01X257867D02*
X258200Y152300D01*
X258533Y150900D01*
G01X259200Y152767D02*
X260000D01*
G01X261293Y151017D02*
X261213Y150947D01*
X261120Y150900D01*
X261013D01*
X260893Y150970D01*
X260800Y151087D01*
X260733Y151227D01*
X260680Y151460D01*
X260667Y151670D01*
X260693Y151880D01*
X260733Y152020D01*
X260813Y152160D01*
X260907Y152253D01*
X261000Y152300D01*
X261093D01*
X261187Y152253D01*
X261267Y152183D01*
X261333Y152090D01*
G01X262173Y152137D02*
X262267Y152253D01*
X262373Y152300D01*
X262480Y152253D01*
X262573Y152113D01*
X262640Y151903D01*
X262667Y151693D01*
Y151437D01*
X262640Y151227D01*
X262573Y151040D01*
X262493Y150947D01*
X262400Y150900D01*
X262293Y150947D01*
X262213Y151040D01*
X262160Y151180D01*
X262133Y151367D01*
X262160Y151530D01*
X262227Y151693D01*
X262307Y151787D01*
X262400Y151810D01*
X262507Y151763D01*
X262587Y151647D01*
X262667Y151437D01*
G54D12*
G01X340000Y0D02*
Y215000D01*
X0D01*
Y0D01*
X340000D01*
G01X19467Y90607D02*
X19967Y90987D01*
X20217Y91430D01*
X20300Y91937D01*
X20133Y92570D01*
X19717Y93013D01*
X19217Y93140D01*
X18717Y93077D01*
X18300Y92823D01*
X17467Y91557D01*
X16883Y90987D01*
X16050Y90607D01*
X15300Y90480D01*
Y93140D01*
G01X19467Y90607D02*
X19967Y90987D01*
X20217Y91430D01*
X20300Y91937D01*
X20133Y92570D01*
X19717Y93013D01*
X19217Y93140D01*
X18717Y93077D01*
X18300Y92823D01*
X17467Y91557D01*
X16883Y90987D01*
X16050Y90607D01*
X15300Y90480D01*
Y93140D01*
G01Y125100D02*
X20300D01*
X19300Y124340D01*
G01X15300D02*
Y125860D01*
G01Y125100D02*
X20300D01*
X19300Y124340D01*
G01X15300D02*
Y125860D01*
G01X18717Y176147D02*
X19217Y176527D01*
X19467Y176970D01*
X19550Y177477D01*
X19383Y178110D01*
X18967Y178553D01*
X18467Y178680D01*
X17967Y178617D01*
X17550Y178363D01*
X16717Y177097D01*
X16133Y176527D01*
X15300Y176147D01*
X14550Y176020D01*
Y178680D01*
G01X18717Y176147D02*
X19217Y176527D01*
X19467Y176970D01*
X19550Y177477D01*
X19383Y178110D01*
X18967Y178553D01*
X18467Y178680D01*
X17967Y178617D01*
X17550Y178363D01*
X16717Y177097D01*
X16133Y176527D01*
X15300Y176147D01*
X14550Y176020D01*
Y178680D01*
G01Y210640D02*
X19550D01*
X18550Y209880D01*
G01X14550D02*
Y211400D01*
G01Y210640D02*
X19550D01*
X18550Y209880D01*
G01X14550D02*
Y211400D01*
G01X279400Y72500D02*
Y62500D01*
X295400D01*
Y72500D01*
X279400D01*
G54D13*
G01X42350Y146500D02*
G03I-300J0D01*
G01Y152500D02*
G03I-300J0D01*
G01X69900Y200833D02*
X70247Y200891D01*
X70550Y201125D01*
X70810Y201475D01*
X70983Y201883D01*
X71070Y202350D01*
Y202816D01*
X70983Y203283D01*
X70810Y203691D01*
X70550Y204041D01*
X70247Y204275D01*
X69900Y204333D01*
X69553Y204275D01*
X69250Y204041D01*
X68990Y203691D01*
X68817Y203283D01*
X68730Y202816D01*
Y202350D01*
X68817Y201883D01*
X68990Y201475D01*
X69250Y201125D01*
X69553Y200891D01*
X69900Y200833D01*
G01X67437D02*
Y203166D01*
G01Y202583D02*
X67263Y202875D01*
X67003Y203108D01*
X66657Y203166D01*
X66353Y203108D01*
X66093Y202875D01*
X65963Y202466D01*
Y200833D01*
G01X64410Y199783D02*
X64150Y199666D01*
X63803Y199783D01*
X63587Y200016D01*
X63413Y200308D01*
X63153Y201241D01*
X62590Y203166D01*
G01X63977D02*
X63153Y201241D01*
G01X60950Y203166D02*
X59650Y200833D01*
G01Y203166D02*
X60950Y200833D01*
G01X57967D02*
Y204333D01*
X56927D01*
X56580Y204158D01*
X56320Y203750D01*
X56233Y203283D01*
X56320Y202816D01*
X56537Y202466D01*
X56927Y202291D01*
X57967D01*
G01X54810Y201300D02*
X54463Y201008D01*
X54073Y200833D01*
X53727D01*
X53380Y201008D01*
X53120Y201300D01*
X52990Y201708D01*
X53077Y202116D01*
X53293Y202466D01*
X53683Y202700D01*
X54203Y202816D01*
X54507Y203050D01*
X54637Y203458D01*
X54550Y203866D01*
X54333Y204158D01*
X54030Y204333D01*
X53727D01*
X53423Y204216D01*
X53163Y203925D01*
G01X51653Y204333D02*
Y201825D01*
X51480Y201300D01*
X51133Y200950D01*
X50700Y200833D01*
X50267Y200950D01*
X49920Y201300D01*
X49747Y201825D01*
Y204333D01*
G01X45167Y200833D02*
Y204333D01*
X44083D01*
X43737Y204158D01*
X43520Y203925D01*
X43433Y203458D01*
X43520Y202991D01*
X43780Y202700D01*
X44083Y202525D01*
X45167D01*
G01X44083D02*
X43433Y200833D01*
G01X41750Y202408D02*
X40363D01*
X40493Y202816D01*
X40710Y203050D01*
X41013Y203166D01*
X41317Y203108D01*
X41577Y202933D01*
X41750Y202525D01*
X41837Y202175D01*
Y201825D01*
X41750Y201475D01*
X41533Y201125D01*
X41273Y200891D01*
X40970Y200833D01*
X40667Y200950D01*
X40363Y201300D01*
G01X38680Y203166D02*
X37900Y200833D01*
X37120Y203166D01*
G01X31500Y200833D02*
Y204333D01*
X32020Y203633D01*
G01Y200833D02*
X30980D01*
G01X28300Y200716D02*
X28387Y200775D01*
Y200891D01*
X28300Y200950D01*
X28213Y200891D01*
Y200775D01*
X28300Y200716D01*
G01X25100Y204333D02*
X25447Y204216D01*
X25707Y203925D01*
X25880Y203575D01*
X26010Y203108D01*
X26053Y202583D01*
X26010Y202058D01*
X25880Y201591D01*
X25707Y201241D01*
X25447Y200950D01*
X25100Y200833D01*
X24753Y200950D01*
X24493Y201241D01*
X24320Y201591D01*
X24190Y202058D01*
X24147Y202583D01*
X24190Y203108D01*
X24320Y203575D01*
X24493Y203925D01*
X24753Y204216D01*
X25100Y204333D01*
G01X70623Y197250D02*
X70363Y197600D01*
X70060Y197775D01*
X69713Y197833D01*
X69280Y197716D01*
X68977Y197425D01*
X68890Y197075D01*
X68933Y196725D01*
X69107Y196433D01*
X69973Y195850D01*
X70363Y195441D01*
X70623Y194858D01*
X70710Y194333D01*
X68890D01*
G01X67380Y194216D02*
X65820Y197833D01*
G01X63400Y194333D02*
Y197833D01*
X63920Y197133D01*
G01Y194333D02*
X62880D01*
G01X61153Y195033D02*
X60893Y194625D01*
X60547Y194391D01*
X60157Y194333D01*
X59810Y194391D01*
X59463Y194683D01*
X59247Y195033D01*
X59203Y195383D01*
X59290Y195791D01*
X59593Y196083D01*
X59897Y196200D01*
X60287D01*
G01X59897D02*
X59637Y196375D01*
X59420Y196666D01*
X59333Y197016D01*
X59420Y197366D01*
X59637Y197658D01*
X60027Y197833D01*
X60417Y197775D01*
X60807Y197541D01*
G01X57780Y194216D02*
X56220Y197833D01*
G01X54623Y197250D02*
X54363Y197600D01*
X54060Y197775D01*
X53713Y197833D01*
X53280Y197716D01*
X52977Y197425D01*
X52890Y197075D01*
X52933Y196725D01*
X53107Y196433D01*
X53973Y195850D01*
X54363Y195441D01*
X54623Y194858D01*
X54710Y194333D01*
X52890D01*
G01X50600Y197833D02*
X50947Y197716D01*
X51207Y197425D01*
X51380Y197075D01*
X51510Y196608D01*
X51553Y196083D01*
X51510Y195558D01*
X51380Y195091D01*
X51207Y194741D01*
X50947Y194450D01*
X50600Y194333D01*
X50253Y194450D01*
X49993Y194741D01*
X49820Y195091D01*
X49690Y195558D01*
X49647Y196083D01*
X49690Y196608D01*
X49820Y197075D01*
X49993Y197425D01*
X50253Y197716D01*
X50600Y197833D01*
G01X47400Y194333D02*
Y197833D01*
X47920Y197133D01*
G01Y194333D02*
X46880D01*
G01X44287D02*
X44200Y195091D01*
X44070Y195733D01*
X43897Y196316D01*
X43680Y196958D01*
X43333Y197833D01*
X45067D01*
G01X69800Y206833D02*
X70147Y206891D01*
X70450Y207125D01*
X70710Y207475D01*
X70883Y207883D01*
X70970Y208350D01*
Y208816D01*
X70883Y209283D01*
X70710Y209691D01*
X70450Y210041D01*
X70147Y210275D01*
X69800Y210333D01*
X69453Y210275D01*
X69150Y210041D01*
X68890Y209691D01*
X68717Y209283D01*
X68630Y208816D01*
Y208350D01*
X68717Y207883D01*
X68890Y207475D01*
X69150Y207125D01*
X69453Y206891D01*
X69800Y206833D01*
G01X69453Y207766D02*
X68933Y206833D01*
G01X67553Y210333D02*
Y207825D01*
X67380Y207300D01*
X67033Y206950D01*
X66600Y206833D01*
X66167Y206950D01*
X65820Y207300D01*
X65647Y207825D01*
Y210333D01*
G01X63920D02*
X62880D01*
G01X63400D02*
Y206833D01*
G01X63920D02*
X62880D01*
G01X61197D02*
Y210333D01*
X59203Y206833D01*
Y210333D01*
G01X57997Y206833D02*
Y210333D01*
X56003Y206833D01*
Y210333D01*
G01X51727Y206833D02*
Y210333D01*
X50600Y207416D01*
X49473Y210333D01*
Y206833D01*
G01X47920Y210333D02*
X46880D01*
G01X47400D02*
Y206833D01*
G01X47920D02*
X46880D01*
G01X45153D02*
Y210333D01*
G01X43507D02*
X45153Y208175D01*
G01X43247Y206833D02*
X44417Y209166D01*
G01X40133Y206833D02*
X41867D01*
Y210333D01*
X40133D01*
G01X40827Y208641D02*
X41867D01*
G01X38667Y210333D02*
Y206833D01*
X36933D01*
G01X35510Y207300D02*
X35163Y207008D01*
X34773Y206833D01*
X34427D01*
X34080Y207008D01*
X33820Y207300D01*
X33690Y207708D01*
X33777Y208116D01*
X33993Y208466D01*
X34383Y208700D01*
X34903Y208816D01*
X35207Y209050D01*
X35337Y209458D01*
X35250Y209866D01*
X35033Y210158D01*
X34730Y210333D01*
X34427D01*
X34123Y210216D01*
X33863Y209925D01*
G01X31400Y206833D02*
X31747Y206891D01*
X32050Y207125D01*
X32310Y207475D01*
X32483Y207883D01*
X32570Y208350D01*
Y208816D01*
X32483Y209283D01*
X32310Y209691D01*
X32050Y210041D01*
X31747Y210275D01*
X31400Y210333D01*
X31053Y210275D01*
X30750Y210041D01*
X30490Y209691D01*
X30317Y209283D01*
X30230Y208816D01*
Y208350D01*
X30317Y207883D01*
X30490Y207475D01*
X30750Y207125D01*
X31053Y206891D01*
X31400Y206833D01*
G01X29197D02*
Y210333D01*
X27203Y206833D01*
Y210333D01*
G01X57250Y158500D02*
G03I-300J0D01*
G01X69750Y120000D02*
G03I-300J0D01*
G01X82750Y133000D02*
G03I-300J0D01*
G01X69750D02*
G03I-300J0D01*
G01Y126500D02*
G03I-300J0D01*
G01X90250Y120000D02*
G03I-300J0D01*
G01X89750Y126500D02*
G03I-300J0D01*
G01X155690Y42950D02*
X147110D01*
G01Y51050D02*
X155690D01*
G01X147110Y60450D02*
X155690D01*
G01Y52350D02*
X147110D01*
G01X155690Y61750D02*
X147110D01*
G01Y69850D02*
X155690D01*
G01X182350Y41700D02*
G03I-300J0D01*
G01X193050Y45000D02*
G03I-300J0D01*
G01Y50950D02*
G03I-300J0D01*
G01Y56900D02*
G03I-300J0D01*
G01X216150Y27300D02*
G03I-300J0D01*
G01X216050Y34200D02*
G03I-300J0D01*
G01X250050Y140700D02*
G03I-300J0D01*
G01X263890Y136250D02*
X255310D01*
G01X250050Y158100D02*
G03I-300J0D01*
G01Y152300D02*
G03I-300J0D01*
G01Y146500D02*
G03I-300J0D01*
G01X263890Y155250D02*
X255310D01*
G01X263890Y145750D02*
X255310D01*
G01Y153850D02*
X263890D01*
G01X255310Y144350D02*
X263890D01*
G01X255310Y163350D02*
X263890D01*
M02*
