G04 ================== begin FILE IDENTIFICATION RECORD ==================*
G04 Layout Name:  C:/Users/dmigh/OneDrive/Documents/GitHub/OnyxPSU/allegro/ONYXPSU.brd*
G04 Film Name:    BOTTOM*
G04 File Format:  Gerber RS274X*
G04 File Origin:  Cadence Allegro 16.6-P004*
G04 Origin Date:  Mon Feb 13 13:33:03 2017*
G04 *
G04 Layer:  VIA CLASS/BOTTOM*
G04 Layer:  PIN/BOTTOM*
G04 Layer:  ETCH/BOTTOM*
G04 *
G04 Offset:    (0.00 0.00)*
G04 Mirror:    No*
G04 Mode:      Positive*
G04 Rotation:  0*
G04 FullContactRelief:  No*
G04 UndefLineWidth:     10.00*
G04 ================== end FILE IDENTIFICATION RECORD ====================*
%FSLAX25Y25*MOIN*%
%IR0*IPPOS*OFA0.00000B0.00000*MIA0B0*SFA1.00000B1.00000*%
%ADD13C,.055*%
%ADD11C,.028*%
%ADD10C,.068*%
%ADD16O,.10299X.0515*%
%ADD14R,.055X.055*%
%ADD15R,.02X.071*%
%ADD12R,.032X.035*%
%ADD17C,.01*%
%ADD18C,.02*%
%ADD19C,.03*%
%ADD20C,.012*%
%ADD21C,.013*%
%ADD22C,.015*%
%ADD23C,.035*%
%ADD24C,.045*%
%ADD25C,.0071*%
%ADD26C,.008*%
%ADD27C,.009*%
%ADD28C,.06504*%
%ADD29C,.07804*%
G75*
%LPD*%
G75*
G36*
G01X1400Y2300D02*
Y88923D01*
X48437D01*
G02X48720Y88240I0J-400D01*
G01X47191Y86712D01*
X42291D01*
X39877Y84298D01*
X39836Y84282D01*
G03X42282Y81836I664J-1782D01*
G01X42298Y81877D01*
X43709Y83288D01*
X48609D01*
X54243Y88923D01*
X83789D01*
X83805Y88740D01*
G03X86788Y87340I1895J160D01*
G02X87413Y87062I228J-329D01*
G03X90678Y85988I1887J238D01*
G01X138800D01*
Y56619D01*
G02X138192Y56277I-400J0D01*
G03Y50723I-1692J-2777D01*
G02X138800Y50381I208J-342D01*
G01Y46619D01*
G02X138192Y46277I-400J0D01*
G03Y40723I-1692J-2777D01*
G02X138800Y40381I208J-342D01*
G01Y36619D01*
G02X138192Y36277I-400J0D01*
G03Y30723I-1692J-2777D01*
G02X138800Y30381I208J-342D01*
G01Y29664D01*
X104635D01*
X103833Y28862D01*
X100700D01*
G03Y22938I0J-2962D01*
G01X106287D01*
X107089Y23740D01*
X138800D01*
Y21281D01*
G02X138249Y20911I-400J0D01*
G03X135284Y15150I-1230J-3010D01*
G02X135070Y14412I-214J-338D01*
G01X128968D01*
G02X128754Y15150I0J400D01*
G03X125284I-1735J2750D01*
G02X125070Y14412I-214J-338D01*
G01X118968D01*
G02X118754Y15150I0J400D01*
G03X115284I-1735J2750D01*
G02X115070Y14412I-214J-338D01*
G01X108968D01*
G02X108754Y15150I0J400D01*
G03X105284I-1735J2750D01*
G02X105070Y14412I-214J-338D01*
G01X98968D01*
G02X98754Y15150I0J400D01*
G03X95284I-1735J2750D01*
G02X95070Y14412I-214J-338D01*
G01X88968D01*
G02X88754Y15150I0J400D01*
G03X85284I-1735J2750D01*
G02X85070Y14412I-214J-338D01*
G01X83643D01*
X83112Y14943D01*
Y45243D01*
X78903Y49452D01*
X78902Y49532D01*
G03X75104Y49346I-1902J-32D01*
G01X75112Y49254D01*
X64519Y38662D01*
X63006D01*
G03Y36338I-1506J-1162D01*
G01X65481D01*
X76754Y47612D01*
X76846Y47604D01*
G03X76968Y47598I154J1896D01*
G01X77048Y47597D01*
X80488Y44157D01*
Y19879D01*
G02X79752Y19662I-400J0D01*
G03Y16138I-2733J-1762D01*
G02X80488Y15921I336J-217D01*
G01Y13857D01*
X81680Y12665D01*
G02X81450Y11986I-283J-283D01*
G03X79847Y10529I250J-1886D01*
G02X79190Y10321I-390J90D01*
G03X79663Y6007I-2171J-2421D01*
G02X80388Y5774I325J-233D01*
G01Y3657D01*
X81062Y2983D01*
G02X80780Y2300I-282J-283D01*
G01X1400D01*
G37*
G36*
G01X157445Y201124D02*
G03Y194676I-426J-3224D01*
G02X157897Y194280I52J-397D01*
G01Y179962D01*
X105895D01*
X103538Y177605D01*
Y173605D01*
X90956Y161022D01*
Y160522D01*
X90329Y159895D01*
X90261Y159887D01*
G03X92387Y157761I239J-1887D01*
G01X92395Y157829D01*
X93878Y159312D01*
Y159812D01*
X106462Y172395D01*
Y176395D01*
X107105Y177038D01*
X157897D01*
Y123200D01*
X230400D01*
Y117212D01*
X119757D01*
X115688Y113143D01*
Y111943D01*
X102148Y98403D01*
X102068Y98402D01*
G03X100649Y95270I32J-1902D01*
G02X100344Y94612I-305J-258D01*
G01X55091D01*
X54654Y94174D01*
X2576D01*
Y213297D01*
X157897D01*
Y211520D01*
G02X157445Y211124I-400J1D01*
G03Y204676I-426J-3224D01*
G02X157897Y204280I52J-397D01*
G01Y201520D01*
G02X157445Y201124I-400J1D01*
G37*
G36*
G01X84243Y3512D02*
X83012Y4743D01*
Y8722D01*
G03X83276Y11165I-1312J1378D01*
G02X83608Y11788I332J223D01*
G01X138800D01*
Y11281D01*
G02X138249Y10911I-400J0D01*
G03Y4889I-1230J-3011D01*
G02X138800Y4519I151J-370D01*
G01Y3512D01*
X84243D01*
G37*
G36*
G01X205429Y34516D02*
X205412Y34500D01*
G03X205348Y34437I2045J-2142D01*
G01X200573Y29664D01*
X200100D01*
Y52259D01*
X200233Y52307D01*
G03X201330Y54891I-633J1794D01*
G01X201312Y54931D01*
Y59509D01*
X200100Y60720D01*
Y94200D01*
X188476D01*
G03X185422Y94612I-1676J-900D01*
G01X181953D01*
X180753Y95812D01*
X178878D01*
G03X175600Y94583I-1378J-1312D01*
G02X175200Y94200I-400J17D01*
G01X173720D01*
X173309Y94612D01*
X109536D01*
G02X109217Y95253I0J400D01*
G03X109602Y96368I-1517J1148D01*
G01X109603Y96448D01*
X124043Y110888D01*
X230400D01*
Y106688D01*
X209956Y86244D01*
G03X209409Y85490I2094J-2094D01*
G01X205638Y81720D01*
Y58578D01*
X209736Y54480D01*
Y37766D01*
X207331Y35361D01*
X207263Y35355D01*
X206984Y35305D01*
G03X205925Y34893I524J-2915D01*
G01X205876Y34862D01*
G03X205429Y34516I1581J-2504D01*
G37*
G36*
G01X122957Y113512D02*
X107748Y98303D01*
X107668Y98302D01*
G03X106183Y95253I32J-1902D01*
G02X105864Y94612I-319J-241D01*
G01X103856D01*
G02X103551Y95270I0J400D01*
G03X104002Y96468I-1451J1230D01*
G01X104003Y96548D01*
X118312Y110857D01*
Y112057D01*
X120843Y114588D01*
X230400D01*
Y113512D01*
X122957D01*
G37*
G36*
G01X183080Y80000D02*
X193100Y69980D01*
Y58612D01*
X189952D01*
Y59152D01*
X189162D01*
Y60593D01*
X188103Y61652D01*
X188102Y61732D01*
G03X186168Y59798I-1902J-32D01*
G01X186248Y59797D01*
X186538Y59507D01*
Y59152D01*
X185748D01*
Y58452D01*
X184852D01*
Y59152D01*
X180648D01*
Y54648D01*
X184852D01*
Y55348D01*
X185748D01*
Y54648D01*
X186538D01*
Y53202D01*
X185748D01*
Y52502D01*
X184852D01*
Y53202D01*
X180648D01*
Y48698D01*
X184852D01*
Y49398D01*
X185748D01*
Y48698D01*
X186538D01*
Y47252D01*
X185748D01*
Y46552D01*
X184852D01*
Y47252D01*
X180648D01*
Y42748D01*
X184852D01*
Y43448D01*
X185748D01*
Y42748D01*
X189952D01*
Y47252D01*
X189162D01*
Y48698D01*
X189952D01*
Y53202D01*
X189162D01*
Y54648D01*
X189952D01*
Y55188D01*
X192591D01*
X193100Y54680D01*
Y35100D01*
X141200D01*
Y80000D01*
X163545D01*
X169857Y73688D01*
X179123D01*
G03Y76312I1377J1312D01*
G01X170943D01*
X170049Y77206D01*
G02X170332Y77888I283J282D01*
G01X178422D01*
G03X181673Y79531I1378J1311D01*
G02X182067Y80000I394J69D01*
G01X183080D01*
G37*
G36*
G01X200100Y1195D02*
Y6858D01*
X200110Y6889D01*
G03Y8911I-3091J1011D01*
G01X200100Y8942D01*
Y11999D01*
G02X200783Y12281I400J0D01*
G01X200976Y12088D01*
X211543D01*
X213512Y14057D01*
Y15982D01*
G02X214252Y16192I400J0D01*
G03Y19608I2767J1708D01*
G02X213512Y19818I-340J210D01*
G01Y23457D01*
X216043Y25988D01*
X218648D01*
Y25048D01*
X222852D01*
Y25748D01*
X223748D01*
Y25048D01*
X227952D01*
Y27543D01*
X229193Y28784D01*
X229525D01*
X229583Y28728D01*
G03X229519Y31408I1317J1372D01*
G01X228107D01*
X226251Y29552D01*
X223748D01*
Y28852D01*
X222852D01*
Y29552D01*
X218648D01*
Y28612D01*
X214957D01*
X210888Y24543D01*
Y15143D01*
X210457Y14712D01*
X209377D01*
G02X209119Y15417I0J400D01*
G03X204919I-2100J2483D01*
G02X204661Y14712I-258J-305D01*
G01X202062D01*
X200100Y16674D01*
Y16858D01*
X200110Y16889D01*
G03Y18911I-3091J1011D01*
G01X200100Y18942D01*
Y21588D01*
X206743D01*
X218043Y32888D01*
X218548D01*
Y31948D01*
X222752D01*
Y32648D01*
X223648D01*
Y31948D01*
X227852D01*
Y36452D01*
X227062D01*
Y67493D01*
X219703Y74852D01*
X219702Y74932D01*
G03X216287Y73748I-1902J-32D01*
G02X216131Y73139I-318J-243D01*
G03X216868Y69498I769J-1739D01*
G01X216948Y69497D01*
X220157Y66288D01*
X221357D01*
X221788Y65857D01*
Y46843D01*
X221423Y46478D01*
X221283Y46589D01*
G03X221478Y43788I-1183J-1490D01*
G01X222443D01*
X223756Y45101D01*
G02X224438Y44818I282J-283D01*
G01Y36452D01*
X223648D01*
Y35752D01*
X222752D01*
Y36452D01*
X218548D01*
Y35512D01*
X216957D01*
X205657Y24212D01*
X204462D01*
G02X204180Y24894I1J400D01*
G01X208827Y29541D01*
X209983Y29635D01*
X215660Y35312D01*
Y55000D01*
G03X213331Y57893I-2961J0D01*
G01X213273Y57906D01*
X210562Y60618D01*
Y79680D01*
X212068Y81187D01*
X212147Y81190D01*
G03X214144Y82056I-97J2960D01*
G01X231483Y99395D01*
X297438D01*
Y89728D01*
G03X297689Y86856I1362J-1328D01*
G02X297793Y86318I-234J-324D01*
G03X298038Y83972I1607J-1018D01*
G01Y82328D01*
G03X300341Y79347I1362J-1328D01*
G02X300938Y79000I197J-348D01*
G01Y68200D01*
G02X300341Y67853I-400J1D01*
G03X298038Y64872I-941J-1653D01*
G01Y60628D01*
G03Y57972I1362J-1328D01*
G01Y52928D01*
G03X300341Y49947I1362J-1328D01*
G02X300938Y49600I197J-348D01*
G01Y47528D01*
G03X303562I1312J-1378D01*
G01Y88522D01*
G03Y91510I-1178J1494D01*
G01Y131498D01*
G03Y134534I-1146J1518D01*
G01Y173272D01*
G03X300938I-1312J1378D01*
G01Y149700D01*
X296712D01*
Y151224D01*
X297522Y152034D01*
Y155366D01*
X296712Y156176D01*
Y174657D01*
X298952Y176897D01*
X299032Y176898D01*
G03X297098Y178832I-32J1902D01*
G01X297097Y178752D01*
X294088Y175743D01*
Y155090D01*
X294898Y154280D01*
Y153120D01*
X294088Y152310D01*
Y149700D01*
X274000D01*
Y182800D01*
X257600D01*
Y194696D01*
X257755Y194732D01*
G03Y201068I-736J3168D01*
G01X257600Y201104D01*
Y204696D01*
X257755Y204732D01*
G03Y211068I-736J3168D01*
G01X257600Y211104D01*
Y213831D01*
X338063D01*
Y36143D01*
G02X337319Y35939I-400J0D01*
G03X334674Y37446I-2646J-1569D01*
G01X329523D01*
G03Y31294I0J-3076D01*
G01X334674D01*
G03X337319Y32801I-1J3076D01*
G02X338063Y32597I344J-204D01*
G01Y7403D01*
G02X337319Y7199I-400J0D01*
G03X334674Y8706I-2646J-1569D01*
G01X329523D01*
G03Y2554I0J-3076D01*
G01X334674D01*
G03X337319Y4061I-1J3076D01*
G02X338063Y3857I344J-204D01*
G01Y1195D01*
X200100D01*
G37*
G36*
G01X192417Y75503D02*
X188603Y79317D01*
G02X188886Y80000I283J283D01*
G01X193100D01*
Y75786D01*
G02X192417Y75503I-400J0D01*
G37*
G36*
G01X300162Y91422D02*
Y99395D01*
X300938D01*
Y91252D01*
G03X300878Y91178I1447J-1235D01*
G02X300162Y91422I-316J244D01*
G37*
%LPC*%
G75*
G36*
G01X27462Y60772D02*
X26729Y61505D01*
X26661Y61513D01*
G02X28787Y63639I239J1887D01*
G01X28795Y63571D01*
X30384Y61982D01*
Y60682D01*
X42605Y48462D01*
X61783D01*
G02Y45538I1217J-1462D01*
G01X41395D01*
X27462Y59472D01*
Y60772D01*
G37*
G36*
G01X39419Y41514D02*
X26329Y54605D01*
X26261Y54613D01*
G02X28387Y56739I239J1887D01*
G01X28395Y56671D01*
X40629Y44438D01*
X60269D01*
X60745Y43962D01*
X61783D01*
G02Y41038I1217J-1462D01*
G01X59535D01*
X59059Y41514D01*
X39419D01*
G37*
G36*
G01X123248Y30248D02*
Y34685D01*
X111038Y46895D01*
Y63395D01*
X110871Y63562D01*
X110195D01*
X110141Y63521D01*
G02X110193Y66486I-1165J1503D01*
G01X112081D01*
X113962Y64605D01*
Y48105D01*
X125315Y36752D01*
X129752D01*
Y30248D01*
X123248D01*
G37*
G36*
G01X39895Y27038D02*
X26829Y40105D01*
X26761Y40113D01*
G02X28887Y42239I239J1887D01*
G01X28895Y42171D01*
X41105Y29962D01*
X55850D01*
X56744Y30856D01*
G03X56461Y31538I-283J282D01*
G01X43395D01*
X26829Y48105D01*
X26761Y48113D01*
G02X28887Y50239I239J1887D01*
G01X28895Y50171D01*
X44605Y34462D01*
X61783D01*
G02X64899Y32886I1217J-1462D01*
G03X65298Y32462I399J-24D01*
G01X67283D01*
G02Y29538I1217J-1462D01*
G01X65650D01*
X64510Y28398D01*
X58420D01*
X57060Y27038D01*
X39895D01*
G37*
G36*
G01X76572Y23538D02*
X68828D01*
G02Y26162I-1378J1312D01*
G01X76572D01*
G02Y23538I1378J-1312D01*
G37*
G36*
G01X90762Y32628D02*
G02X88138I-1312J-1378D01*
G01Y46007D01*
X83048Y51097D01*
X82968Y51098D01*
G02X81494Y51838I32J1902D01*
G01X63981D01*
X63388Y51246D01*
X63396Y51154D01*
G02X61654Y52896I-1896J-154D01*
G01X61746Y52888D01*
X63019Y54162D01*
X81494D01*
G02X83055Y54901I1506J-1162D01*
G03X83349Y55584I11J400D01*
G01X81872Y57062D01*
X76628D01*
X75895Y56329D01*
X75887Y56261D01*
G02X73761Y58387I-1887J239D01*
G01X73829Y58395D01*
X74562Y59128D01*
Y60128D01*
X75562Y61128D01*
Y61628D01*
X80039Y66105D01*
Y74006D01*
G03X79356Y74289I-400J0D01*
G01X63128Y58062D01*
X62128D01*
X61395Y57329D01*
X61387Y57261D01*
G02X59261Y59387I-1887J239D01*
G01X59329Y59395D01*
X60918Y60984D01*
X61918D01*
X80467Y79533D01*
G02X82962Y78500I1034J-1033D01*
G01Y64895D01*
X78484Y60418D01*
Y59984D01*
X83082D01*
X103221Y39845D01*
X103289Y39837D01*
G02X101163Y37711I-239J-1887D01*
G01X101155Y37779D01*
X85584Y53349D01*
G03X84901Y53055I-283J-283D01*
G02X84902Y53032I-1899J-94D01*
G01X84903Y52952D01*
X90762Y47093D01*
Y32628D01*
G37*
G36*
G01X81094Y158781D02*
X81156Y158848D01*
Y158943D01*
X76001Y164098D01*
X75968D01*
G02X77902Y166032I32J1902D01*
G01Y165999D01*
X83844Y160057D01*
Y158846D01*
G02X81094Y158781I-1344J-1346D01*
G37*
G36*
G01X38654Y174896D02*
X38746Y174888D01*
X53519Y189662D01*
X56459D01*
X56959Y190162D01*
X58494D01*
G02Y187838I1506J-1162D01*
G01X57921D01*
X57421Y187338D01*
X54481D01*
X40388Y173246D01*
X40396Y173154D01*
G02X38654Y174896I-1896J-154D01*
G37*
G36*
G01X88338Y174006D02*
Y181421D01*
X89338Y182421D01*
Y182994D01*
G02X91662I1162J1506D01*
G01Y181459D01*
X90662Y180459D01*
Y174006D01*
G02X88338I-1162J-1506D01*
G37*
G36*
G01X93640Y149688D02*
X92603D01*
X92103Y149188D01*
X90378D01*
G02Y151812I-1378J1312D01*
G01X91017D01*
X91517Y152312D01*
X105957D01*
X108957Y155312D01*
X113457D01*
X118188Y160043D01*
Y168122D01*
G02X120812I1312J1378D01*
G01Y158957D01*
X114543Y152688D01*
X110043D01*
X108420Y151066D01*
G03X108755Y150386I283J-283D01*
G02X107494Y147338I245J-1886D01*
G01X95541D01*
X94447Y146244D01*
G03X94655Y145569I283J-282D01*
G02X95806Y144862I-355J-1869D01*
G01X96379D01*
X96579Y145062D01*
X96779D01*
X97457Y145740D01*
X102403D01*
X103754Y144388D01*
X103846Y144396D01*
G02X102104Y142654I154J-1896D01*
G01X102112Y142746D01*
X101441Y143416D01*
X98419D01*
X97741Y142738D01*
X97541D01*
X97341Y142538D01*
X95806D01*
G02X92697Y144723I-1505J1162D01*
G03X92360Y145338I-337J215D01*
G01X92009D01*
X91949Y145268D01*
G02X92006Y147662I-1449J1232D01*
G01X92579D01*
X93923Y149006D01*
G03X93640Y149688I-283J282D01*
G37*
G36*
G01X27846Y153296D02*
X27838Y153204D01*
X30381Y150662D01*
X30948D01*
X32499Y152213D01*
G03X32751Y152894I-31J399D01*
G01X31188Y154457D01*
Y156122D01*
G02X33868Y156178I1312J1378D01*
G01X33812Y156120D01*
Y155543D01*
X36452Y152903D01*
X36532Y152902D01*
G02X37186Y152774I-33J-1902D01*
G01X37307Y152727D01*
X37541Y152961D01*
X37163Y153338D01*
X36919D01*
X35338Y154919D01*
Y164494D01*
G02X37662I1162J1506D01*
G01Y163397D01*
G03X38311Y163085I400J0D01*
G02X39468Y163502I1189J-1485D01*
G01X39548Y163503D01*
X40701Y164656D01*
X41301D01*
X41957Y165312D01*
X66457D01*
X68597Y167452D01*
X68598Y167532D01*
G02X70532Y165598I1902J-32D01*
G01X70452Y165597D01*
X67543Y162688D01*
X43043D01*
X42387Y162032D01*
X41787D01*
X41403Y161648D01*
X41402Y161568D01*
G02X38311Y160115I-1902J32D01*
G03X37662Y159803I-249J-312D01*
G01Y155881D01*
X37881Y155662D01*
X38372D01*
Y155903D01*
X38356Y155941D01*
G02X41990Y156488I1744J759D01*
G01X41979Y156392D01*
X42986Y155385D01*
Y155085D01*
X43612Y154460D01*
Y147040D01*
X40379Y143808D01*
X40390Y143712D01*
G02X38712Y145390I-1890J-212D01*
G01X38808Y145379D01*
X41388Y147960D01*
Y153540D01*
X40764Y154165D01*
Y154465D01*
X40408Y154821D01*
X40312Y154810D01*
G02X39975Y154802I-213J1890D01*
G03X39666Y154120I-26J-399D01*
G01X40646Y153141D01*
Y148274D01*
X39065Y146694D01*
X34549D01*
X33029Y145174D01*
X33037Y145082D01*
G02X29260Y144645I-1896J-154D01*
G03X28582Y144868I-395J-60D01*
G01X28212Y144498D01*
Y142460D01*
X31960Y138712D01*
X40670D01*
X40960Y139002D01*
Y139290D01*
X42378Y140708D01*
X44174D01*
G03X44526Y141297I0J400D01*
G02X45295Y143873I1674J903D01*
G01X45399Y143929D01*
Y144248D01*
X44848D01*
Y148752D01*
X45738D01*
Y150248D01*
X44848D01*
Y154752D01*
X49052D01*
Y154052D01*
X49948D01*
Y154752D01*
X50838D01*
Y156248D01*
X49948D01*
Y156948D01*
X49052D01*
Y156248D01*
X44848D01*
Y160752D01*
X49052D01*
Y160052D01*
X49948D01*
Y160752D01*
X54152D01*
Y156248D01*
X53262D01*
Y154752D01*
X54152D01*
Y150248D01*
X53262D01*
Y148752D01*
X54152D01*
Y147712D01*
X62002D01*
X63712Y146002D01*
Y143840D01*
X64116Y143436D01*
X64758D01*
G02Y141012I1466J-1212D01*
G01X63112D01*
X61288Y142836D01*
Y144998D01*
X60998Y145288D01*
X54152D01*
Y144248D01*
X49948D01*
Y144948D01*
X49052D01*
Y144248D01*
X48162D01*
Y142448D01*
X48095Y142382D01*
X48100Y142293D01*
G02X47874Y141297I-1900J-93D01*
G03X48226Y140708I352J-189D01*
G01X52002D01*
X54000Y138710D01*
X54002D01*
X55710Y137002D01*
Y136504D01*
X55712Y136502D01*
Y118002D01*
X57160Y116554D01*
X83838D01*
Y117748D01*
X82948D01*
Y118448D01*
X82052D01*
Y117748D01*
X77848D01*
Y118788D01*
X76966D01*
X75166Y120589D01*
X75077Y120584D01*
G02X74891I-93J1900D01*
G01X74802Y120589D01*
X73002Y118788D01*
X66652D01*
Y117748D01*
X62448D01*
Y118448D01*
X61552D01*
Y117748D01*
X57348D01*
Y122252D01*
X61552D01*
Y121552D01*
X62448D01*
Y122252D01*
X66652D01*
Y121212D01*
X71998D01*
X73089Y122302D01*
X73084Y122391D01*
G02X76884I1900J93D01*
G01X76879Y122302D01*
X77166Y122016D01*
G03X77846Y122252I283J283D01*
G01X82052D01*
Y121552D01*
X82948D01*
Y122252D01*
X83838D01*
Y122538D01*
X83338Y123038D01*
Y124248D01*
X82448D01*
Y124948D01*
X81552D01*
Y124248D01*
X77348D01*
Y125288D01*
X72966D01*
G02X70034I-1466J1212D01*
G01X66652D01*
Y124248D01*
X62448D01*
Y124948D01*
X61552D01*
Y124248D01*
X57348D01*
Y128752D01*
X61552D01*
Y128052D01*
X62448D01*
Y128752D01*
X66652D01*
Y127712D01*
X70034D01*
G02X72966I1466J-1212D01*
G01X77348D01*
Y128752D01*
X81552D01*
Y128052D01*
X82448D01*
Y128752D01*
X82580D01*
G03X82862Y129434I-1J400D01*
G01X80508Y131788D01*
X79652D01*
Y130748D01*
X75448D01*
Y131448D01*
X74552D01*
Y130748D01*
X70348D01*
Y131788D01*
X66652D01*
Y130748D01*
X62448D01*
Y131448D01*
X61552D01*
Y130748D01*
X57348D01*
Y135252D01*
X61552D01*
Y134552D01*
X62448D01*
Y135252D01*
X63538D01*
Y136784D01*
G02X65962I1212J1466D01*
G01Y135252D01*
X66652D01*
Y134212D01*
X70348D01*
Y135252D01*
X74552D01*
Y134552D01*
X75448D01*
Y135252D01*
X79652D01*
Y134212D01*
X81512D01*
X85762Y129962D01*
Y128752D01*
X86652D01*
Y124248D01*
X86520D01*
G03X86238Y123566I1J-400D01*
G01X86262Y123542D01*
Y122252D01*
X87152D01*
Y117748D01*
X86262D01*
Y115548D01*
X84844Y114130D01*
X56156D01*
X53288Y116998D01*
Y135498D01*
X53286Y135500D01*
Y135998D01*
X52998Y136286D01*
X52996D01*
X50998Y138284D01*
X43384D01*
Y137998D01*
X41674Y136288D01*
X30956D01*
X25788Y141456D01*
Y145502D01*
X29022Y148735D01*
X26196Y151562D01*
X26104Y151554D01*
G02X27846Y153296I-154J1896D01*
G37*
G36*
G01X175526Y44560D02*
G02X178774I1624J990D01*
G03X179115Y43952I341J-208D01*
G01X179252D01*
Y39448D01*
X175048D01*
Y40148D01*
X174152D01*
Y39448D01*
X169948D01*
Y43952D01*
X174152D01*
Y43252D01*
X175048D01*
Y43952D01*
X175185D01*
G03X175526Y44560I0J400D01*
G37*
G36*
G01X150862Y73228D02*
X157210D01*
X159228Y71210D01*
Y69852D01*
X159402D01*
Y61748D01*
X159212D01*
Y60452D01*
X159402D01*
Y52348D01*
X159212D01*
Y51052D01*
X159402D01*
Y42948D01*
X156398D01*
Y43648D01*
X146402D01*
Y42948D01*
X143398D01*
Y51052D01*
X146402D01*
Y50352D01*
X156398D01*
Y51052D01*
X156588D01*
Y52348D01*
X156398D01*
Y53048D01*
X146402D01*
Y52348D01*
X143398D01*
Y60452D01*
X146402D01*
Y59752D01*
X156398D01*
Y60452D01*
X156588D01*
Y61748D01*
X156398D01*
Y62448D01*
X146402D01*
Y61748D01*
X143398D01*
Y69852D01*
X146402D01*
Y69152D01*
X156398D01*
Y69852D01*
X156505D01*
X156572Y70012D01*
Y70110D01*
X156110Y70572D01*
X150862D01*
G02Y73228I-1362J1328D01*
G37*
G36*
G01X325595Y54529D02*
X325587Y54461D01*
G02X323011Y56473I-1887J239D01*
G01X323138Y56522D01*
Y57595D01*
G02X321478Y61409I1462J2905D01*
G01X321511Y61522D01*
X317038Y65995D01*
Y97555D01*
X321511Y102028D01*
X321478Y102141D01*
G02Y103959I3122J909D01*
G01X321511Y104072D01*
X318038Y107545D01*
Y141105D01*
X321511Y144578D01*
X321478Y144691D01*
G02Y146509I3122J909D01*
G01X321511Y146622D01*
X317038Y151095D01*
Y182655D01*
X321511Y187128D01*
X321478Y187241D01*
G02X323691Y185028I3122J909D01*
G01X323578Y185061D01*
X319962Y181445D01*
Y152305D01*
X323578Y148689D01*
X323691Y148722D01*
G02Y142478I909J-3122D01*
G01X323578Y142511D01*
X320962Y139895D01*
Y114738D01*
G03X321716Y114553I400J0D01*
G02Y111547I2884J-1503D01*
G03X320962Y111362I-354J-185D01*
G01Y108755D01*
X323578Y106139D01*
X323691Y106172D01*
G02Y99928I909J-3122D01*
G01X323578Y99961D01*
X319962Y96345D01*
Y67205D01*
X323578Y63589D01*
X323691Y63622D01*
G02X326062Y57595I909J-3122D01*
G01Y54995D01*
X325595Y54529D01*
G37*
G36*
G01X284138Y31217D02*
Y47095D01*
X256695Y74538D01*
X250605D01*
X246895Y70829D01*
X246887Y70761D01*
G02X244761Y72887I-1887J239D01*
G01X244829Y72895D01*
X249395Y77462D01*
X257905D01*
X287062Y48305D01*
Y31217D01*
G02X287487Y30239I-1462J-1217D01*
G01X287495Y30171D01*
X291205Y26462D01*
X299605D01*
X303662Y22405D01*
Y14217D01*
G02X300738I-1462J-1217D01*
G01Y21195D01*
X298395Y23538D01*
X289995D01*
X285429Y28105D01*
X285361Y28113D01*
G02X284138Y31217I239J1887D01*
G37*
G36*
G01X314002Y43398D02*
X310941D01*
G02X310859I-41J1902D01*
G01X308298D01*
Y186198D01*
X281498D01*
Y203202D01*
X319802D01*
Y186198D01*
X314002D01*
Y43398D01*
G37*
G36*
G01X308658Y2554D02*
G02Y8706I-1J3076D01*
G01X313806D01*
G02Y2554I1J-3076D01*
G01X308658D01*
G37*
G36*
G01Y31294D02*
G02Y37446I-1J3076D01*
G01X313806D01*
G02Y31294I1J-3076D01*
G01X308658D01*
G37*
G36*
G01X263818Y28795D02*
X263907Y28800D01*
G02X262100Y26993I93J-1900D01*
G01X262105Y27082D01*
X250788Y38398D01*
Y69534D01*
G02X253211I1211J1466D01*
G01Y67614D01*
G03X253894Y67332I400J1D01*
G01X255454Y68892D01*
Y69534D01*
G02X257878I1212J1466D01*
G01Y67888D01*
X255312Y65322D01*
Y44579D01*
G03X255883Y44218I400J0D01*
G02X258456Y43230I817J-1718D01*
G03X259169Y43178I370J153D01*
G02X262385Y43251I1631J-978D01*
G03X263063Y43268I334J221D01*
G02X263115Y41249I1637J-968D01*
G03X262437Y41232I-334J-221D01*
G02X259044Y41470I-1637J968D01*
G03X258331Y41522I-370J-153D01*
G02X255625Y40931I-1631J978D01*
G03X255312Y40766I-113J-165D01*
G01Y40501D01*
X259255Y36558D01*
X262656D01*
X263818Y35395D01*
X263907Y35400D01*
G02X262100Y33593I93J-1900D01*
G01X262105Y33682D01*
X261652Y34134D01*
X259444D01*
G03X259162Y33452I1J-400D01*
G01X263818Y28795D01*
G37*
G36*
G01X278652Y43203D02*
X278732Y43202D01*
G02X276798Y41268I-32J-1902D01*
G01X276797Y41348D01*
X276240Y41906D01*
X271309D01*
X271284Y41734D01*
G02X268206Y43480I-1883J266D01*
G03X268238Y44074I-251J311D01*
G01X259688Y52624D01*
Y54622D01*
G02X262312I1312J1378D01*
G01Y53710D01*
X262544Y53477D01*
G03X263205Y53628I283J283D01*
G02X266887Y53239I1795J-628D01*
G01X266895Y53171D01*
X270850Y49217D01*
G03X271527Y49569I283J282D01*
G02X274736Y48546I1873J331D01*
G03X275017Y47862I281J-284D01*
G01X279283D01*
G02Y44938I1217J-1462D01*
G01X272633D01*
G03X272492Y44597I0J-200D01*
G01X272560Y44528D01*
X277326D01*
X278652Y43203D01*
G37*
G54D28*
X126500Y43500D03*
Y53500D03*
X97019Y207900D03*
Y197900D03*
X87019Y207900D03*
Y197900D03*
X77019Y207900D03*
Y197900D03*
X127019Y207900D03*
Y197900D03*
X117019Y207900D03*
Y197900D03*
X107019Y207900D03*
Y197900D03*
X147019Y207900D03*
Y197900D03*
X137019Y207900D03*
Y197900D03*
X97019Y7900D03*
X87019D03*
X127019D03*
X117019D03*
X107019D03*
X324600Y198150D03*
Y155600D03*
Y70500D03*
X287019Y207900D03*
X297019D03*
X287019Y17900D03*
X297019D03*
X287019Y7900D03*
X297019D03*
X267019Y197900D03*
Y207900D03*
X277019Y197900D03*
Y207900D03*
X257019Y17900D03*
X267019D03*
X277019D03*
X257019Y7900D03*
X267019D03*
X277019D03*
X227019Y17900D03*
X237019D03*
X247019D03*
X227019Y7900D03*
X237019D03*
X247019D03*
X207019D03*
X217019D03*
G54D29*
X17800Y98615D03*
X17050Y184155D03*
%LPD*%
G75*
G36*
G01X313500Y43900D02*
X308800D01*
Y186700D01*
X282000D01*
Y202700D01*
X319300D01*
Y186700D01*
X313500D01*
Y43900D01*
G37*
%LPC*%
G75*
G54D28*
X297019Y197900D03*
X287019D03*
%LPD*%
G75*
G54D10*
X17800Y98615D03*
Y118300D03*
X17050Y184155D03*
Y203840D03*
G54D20*
G01X39500Y161600D02*
X41244Y163344D01*
X41844D01*
X42500Y164000D01*
X67000D01*
X70500Y167500D01*
G01X32500Y157500D02*
Y155000D01*
X36500Y151000D01*
G01X81700Y10100D02*
Y4200D01*
X83700Y2200D01*
X161319D01*
X167019Y7900D01*
G01X77000Y49500D02*
X81800Y44700D01*
Y14400D01*
X83100Y13100D01*
X162219D01*
X167019Y17900D01*
G01X67450Y24850D02*
X77950D01*
G01X89450Y31250D02*
Y46550D01*
X83000Y53000D01*
G01X76000Y166000D02*
X82500Y159500D01*
Y157500D01*
G01X299000Y178800D02*
X295400Y175200D01*
Y155633D01*
X296210Y154823D01*
Y152577D01*
X295400Y151767D01*
Y138000D01*
X277600Y120200D01*
Y117100D01*
X276400Y115900D01*
X120300D01*
X117000Y112600D01*
Y111400D01*
X102100Y96500D01*
G01X85700Y88900D02*
X86900Y90100D01*
X159300D01*
X170200Y79200D01*
X179800D01*
G01X180500Y75000D02*
X170400D01*
X158100Y87300D01*
X89300D01*
G01X89000Y150500D02*
X91560D01*
X92060Y151000D01*
X106500D01*
X109500Y154000D01*
X114000D01*
X119500Y159500D01*
Y169500D01*
G01X116117Y51700D02*
X118034Y53617D01*
Y57034D01*
X120500Y59500D01*
X136500D01*
G01X298500Y136300D02*
X282500Y120300D01*
Y118000D01*
X276700Y112200D01*
X123500D01*
X107700Y96400D01*
G01X144900Y40800D02*
X145900Y39800D01*
X160200D01*
X162700Y42300D01*
Y45000D01*
G01X144900Y47000D02*
Y40800D01*
G01X157900Y56400D02*
Y47000D01*
G01Y65800D02*
Y56400D01*
G01X149500Y71900D02*
X156660D01*
X157900Y70660D01*
Y65800D01*
G01X177150Y41700D02*
Y45550D01*
G01X182750Y41940D02*
X182900Y41790D01*
Y38700D01*
X181700Y37500D01*
X173190D01*
X172050Y38640D01*
G01D02*
Y41700D01*
G01D02*
Y43950D01*
X170500Y45500D01*
G01X182750Y45000D02*
Y41940D01*
G01Y45000D02*
Y50950D01*
G01D02*
Y56900D01*
G01X177500Y94500D02*
X180210D01*
X181410Y93300D01*
X186800D01*
G01X197019Y17900D02*
X201519Y13400D01*
X211000D01*
X212200Y14600D01*
Y24000D01*
X215500Y27300D01*
X220750D01*
G01X187019Y17900D02*
X192019Y22900D01*
X206200D01*
X217500Y34200D01*
X220650D01*
G01X187850Y50950D02*
Y56900D01*
G01Y45000D02*
Y50950D01*
G01Y56900D02*
Y60050D01*
X186200Y61700D01*
G01X220100Y45100D02*
X221900D01*
X223100Y46300D01*
Y66400D01*
X221900Y67600D01*
X220700D01*
X216900Y71400D01*
G01X225750Y34200D02*
Y66950D01*
X217800Y74900D01*
G01X230900Y30100D02*
X230896Y30096D01*
X228650D01*
X225854Y27300D01*
X225850D01*
G01X239750Y140700D02*
Y146500D01*
G01D02*
Y152300D01*
G01Y158100D02*
Y152300D01*
G01X233700Y155600D02*
Y158310D01*
X233540Y158470D01*
Y160623D01*
X235127Y162210D01*
X239510D01*
X240400Y163100D01*
X242910D01*
X244850Y161160D01*
Y158100D01*
G01X241700Y166300D02*
X247700D01*
X249449Y164551D01*
Y141549D01*
X248600Y140700D01*
X244850D01*
G01X278700Y41300D02*
X276783Y43217D01*
X272017D01*
X270524Y44710D01*
X269457D01*
X261000Y53167D01*
Y56000D01*
G01X253100Y149800D02*
Y140300D01*
G01Y159300D02*
Y149800D01*
G01X253940Y165000D02*
X253100Y164160D01*
Y159300D01*
G01X244850Y146500D02*
Y152300D01*
G01Y158100D02*
Y152300D01*
G01X258900Y170100D02*
Y166690D01*
X256960Y164750D01*
X254190D01*
X253940Y165000D01*
G01X255948Y170263D02*
X253619Y167934D01*
Y165321D01*
X253940Y165000D01*
G01X266100Y140300D02*
Y149800D01*
G01D02*
Y159300D01*
G01X302250Y46150D02*
Y89700D01*
G01D02*
Y133100D01*
G01X302384Y90016D02*
Y89834D01*
X302250Y89700D01*
G01Y133100D02*
Y174650D01*
G01X302416Y133016D02*
X302334D01*
X302250Y133100D01*
G54D11*
X20892Y112403D03*
X16450Y169900D03*
X27000Y42000D03*
X26900Y63400D03*
X26500Y56500D03*
X27000Y50000D03*
X40500Y82500D03*
X32892Y112403D03*
X28892D03*
X24892D03*
X38500Y143500D03*
X36500Y151000D03*
X25950Y153450D03*
X32500Y157500D03*
X39500Y161600D03*
X43300Y159600D03*
X40100Y156700D03*
X31141Y144928D03*
X38500Y173000D03*
X36500Y166000D03*
X63000Y42500D03*
Y33000D03*
X61500Y37500D03*
X59500Y57500D03*
X63000Y47000D03*
X61500Y51000D03*
X56700Y64300D03*
X55300Y140950D03*
X46200Y142200D03*
X60000Y189000D03*
X81700Y10100D03*
X77950Y24850D03*
X67450D03*
X68500Y31000D03*
X74000Y56500D03*
X77000Y49500D03*
X83000Y53000D03*
X74984Y122484D03*
X71500Y126500D03*
X64750Y138250D03*
X80581Y136112D03*
X66224Y142224D03*
X82500Y157500D03*
X70500Y167500D03*
X76000Y166000D03*
X103050Y37950D03*
X100700Y25900D03*
X89450Y31250D03*
X102100Y96500D03*
X85700Y88900D03*
X89300Y87300D03*
X104000Y142500D03*
X94300Y143700D03*
X104072Y130211D03*
Y134211D03*
X90500Y146500D03*
X89000Y150500D03*
X90500Y158000D03*
X89500Y172500D03*
X90500Y184500D03*
X116117Y51700D03*
X108976Y65024D03*
X107700Y96400D03*
X108072Y130211D03*
X112072D03*
X116072D03*
X108072Y134211D03*
X112072D03*
X116072D03*
X109000Y148500D03*
X105000Y159460D03*
X119500Y169500D03*
X109600Y189000D03*
X136500Y59500D03*
X162700Y45000D03*
X149500Y71900D03*
X177150Y45550D03*
X170500Y45500D03*
X179800Y79200D03*
X180500Y75000D03*
X177500Y94500D03*
X199600Y54100D03*
X196000Y54200D03*
X186200Y61700D03*
X186800Y93300D03*
X206000Y52000D03*
X220100Y45100D03*
X217800Y74900D03*
X216900Y71400D03*
X206500Y93000D03*
X220000Y158490D03*
X230900Y30100D03*
X236000Y82000D03*
X231724Y68724D03*
X235700Y107800D03*
X236250Y159500D03*
X233700Y155600D03*
X241700Y166300D03*
X260800Y42200D03*
X256700Y42500D03*
X261000Y56000D03*
X245000Y71000D03*
X256666D03*
X252000D03*
X255948Y170263D03*
X258900Y170100D03*
X264700Y42300D03*
X269401Y42000D03*
X278700Y41300D03*
X264000Y33500D03*
Y26900D03*
X273400Y49900D03*
X280500Y46400D03*
X265000Y53000D03*
X283600Y153700D03*
X280300D03*
X277000D03*
X302200Y13000D03*
X301300Y28800D03*
X285600Y30000D03*
X299400Y59300D03*
Y51600D03*
X295400Y48300D03*
X302250Y46150D03*
X299400Y66200D03*
Y81000D03*
X283950Y77550D03*
X299400Y85300D03*
X298800Y88400D03*
X302384Y90016D03*
X298800Y108200D03*
X298500Y136300D03*
X302416Y133016D03*
X293500Y153700D03*
X290200D03*
X286900D03*
X299000Y178800D03*
X302250Y174650D03*
X303759Y199605D03*
Y195605D03*
Y191605D03*
X300845Y188636D03*
X296845D03*
X292845D03*
X288845D03*
X284845D03*
X316700Y24800D03*
X306866Y42466D03*
X311200Y48100D03*
Y51000D03*
X310900Y45300D03*
X323700Y54700D03*
X311000Y93700D03*
Y91000D03*
Y88300D03*
X306866Y85666D03*
X311100Y136400D03*
X311000Y134000D03*
Y131600D03*
X306866Y128166D03*
X311000Y178800D03*
Y176000D03*
Y173100D03*
X306866Y170266D03*
X307759Y199605D03*
Y195605D03*
Y191605D03*
X304845Y188636D03*
G54D21*
G01X299400Y51600D02*
Y59300D01*
G01Y66200D02*
Y59300D01*
G01Y81000D02*
Y85300D01*
G01X298800Y88400D02*
Y108200D01*
G01X299400Y85300D02*
Y87800D01*
X298800Y88400D01*
G54D12*
X59450Y120000D03*
Y133000D03*
Y126500D03*
X52050Y146500D03*
X46950D03*
X52050Y152500D03*
X46950D03*
Y158500D03*
X52050D03*
X79950Y120000D03*
X64550D03*
X72450Y133000D03*
X77550D03*
X64550D03*
X79450Y126500D03*
X64550D03*
X85050Y120000D03*
X84550Y126500D03*
X172050Y41700D03*
X177150D03*
X182750Y45000D03*
Y50950D03*
Y56900D03*
X187850Y45000D03*
Y50950D03*
Y56900D03*
X220750Y27300D03*
X220650Y34200D03*
X225850Y27300D03*
X225750Y34200D03*
X239750Y140700D03*
Y158100D03*
Y152300D03*
Y146500D03*
X244850Y140700D03*
Y158100D03*
Y152300D03*
Y146500D03*
G54D22*
G01X63000Y42500D02*
X60140D01*
X59664Y42976D01*
X40024D01*
X26500Y56500D01*
G01X63000Y33000D02*
X44000D01*
X27000Y50000D01*
G01X68500Y31000D02*
X65045D01*
X63905Y29860D01*
X57815D01*
X56455Y28500D01*
X40500D01*
X27000Y42000D01*
G01X26900Y63400D02*
X28923Y61377D01*
Y60077D01*
X42000Y47000D01*
X63000D01*
G01X76023Y58523D02*
Y59523D01*
X77023Y60523D01*
Y61023D01*
X81500Y65500D01*
Y78500D01*
X62523Y59523D01*
X61523D01*
X59500Y57500D01*
G01X103050Y37950D02*
X82477Y58523D01*
X76023D01*
G01X74000Y56500D02*
X76023Y58523D01*
G01X90500Y158000D02*
X92417Y159917D01*
Y160417D01*
X105000Y173000D01*
Y177000D01*
X106500Y178500D01*
X195500D01*
X215510Y158490D01*
X220000D01*
G01X126500Y33500D02*
X112500Y47500D01*
Y64000D01*
X111476Y65024D01*
X108976D01*
G01X239750Y140700D02*
Y136750D01*
X242100Y134400D01*
X265000D01*
X266100Y135500D01*
Y140300D01*
G01X285600Y30000D02*
Y47700D01*
X257300Y76000D01*
X250000D01*
X245000Y71000D01*
G01X265000Y53000D02*
X271230Y46770D01*
X271378D01*
X271748Y46400D01*
X280500D01*
G01X285600Y30000D02*
X290600Y25000D01*
X299000D01*
X302200Y21800D01*
Y13000D01*
G01X324600Y103050D02*
X318500Y96950D01*
Y66600D01*
X324600Y60500D01*
G01Y145600D02*
X319500Y140500D01*
Y108150D01*
X324600Y103050D01*
G01Y188150D02*
X318500Y182050D01*
Y151700D01*
X324600Y145600D01*
G01X323700Y54700D02*
X324600Y55600D01*
Y60500D01*
G54D13*
X77019Y17900D03*
Y7900D03*
Y197900D03*
Y207900D03*
X97019Y17900D03*
Y7900D03*
X87019Y17900D03*
Y7900D03*
X97019Y197900D03*
X87019D03*
X97019Y207900D03*
X87019D03*
X117019Y17900D03*
Y7900D03*
X107019Y17900D03*
Y7900D03*
X117019Y197900D03*
X107019D03*
X117019Y207900D03*
X107019D03*
X137019Y17900D03*
Y7900D03*
X127019Y17900D03*
Y7900D03*
X136500Y43500D03*
X126500D03*
X136500Y33500D03*
Y53500D03*
X126500D03*
X137019Y197900D03*
X127019D03*
X137019Y207900D03*
X127019D03*
X157019Y17900D03*
Y7900D03*
X147019Y17900D03*
Y7900D03*
X157019Y197900D03*
X147019D03*
X157019Y207900D03*
X147019D03*
X177019Y17900D03*
Y7900D03*
X167019Y17900D03*
Y7900D03*
X177019Y197900D03*
X167019D03*
X177019Y207900D03*
X167019D03*
X197019Y17900D03*
Y7900D03*
X187019Y17900D03*
Y7900D03*
X197019Y197900D03*
X187019D03*
X197019Y207900D03*
X187019D03*
X217019Y17900D03*
Y7900D03*
X207019Y17900D03*
Y7900D03*
X217019Y197900D03*
X207019D03*
X217019Y207900D03*
X207019D03*
X237019Y17900D03*
Y7900D03*
X227019Y17900D03*
Y7900D03*
X237019Y197900D03*
X227019D03*
X237019Y207900D03*
X227019D03*
X257019Y17900D03*
Y7900D03*
X247019Y17900D03*
Y7900D03*
X257019Y197900D03*
X247019D03*
X257019Y207900D03*
X247019D03*
X277019Y17900D03*
Y7900D03*
X267019Y17900D03*
Y7900D03*
X277019Y197900D03*
X267019D03*
X277019Y207900D03*
X267019D03*
X297019Y17900D03*
Y7900D03*
X287019Y17900D03*
Y7900D03*
X297019Y197900D03*
X287019D03*
X297019Y207900D03*
X287019D03*
X324600Y60500D03*
Y70500D03*
Y80500D03*
Y103050D03*
Y113050D03*
Y123050D03*
Y155600D03*
Y145600D03*
Y165600D03*
Y198150D03*
Y188150D03*
Y208150D03*
G54D23*
G01X212698Y55000D02*
X208100Y59598D01*
Y80700D01*
X211550Y84150D01*
X212050D01*
G54D14*
X126500Y33500D03*
G54D24*
G01X100700Y25900D02*
X105060D01*
X105862Y26702D01*
X201799D01*
X207442Y32343D01*
X207459Y32359D01*
X207508Y32390D01*
X207647Y32415D01*
X208657Y32498D01*
X212698Y36539D01*
Y55000D01*
G01X212050Y84150D02*
X235700Y107800D01*
G54D15*
X144900Y47000D03*
X157900D03*
X144900Y56400D03*
X157900D03*
X144900Y65800D03*
X157900D03*
X253100Y140300D03*
Y159300D03*
Y149800D03*
X266100Y140300D03*
Y159300D03*
Y149800D03*
G54D25*
G01X46950Y158500D02*
X46306Y157856D01*
X45044D01*
X43300Y159600D01*
G01X77019Y14448D02*
Y17900D01*
G01D02*
Y21352D01*
G01X73567Y17900D02*
X77019D01*
G01Y4448D02*
Y7900D01*
G01D02*
Y11352D01*
G01X73567Y7900D02*
X77019D01*
G01X136500Y50048D02*
Y53500D01*
G01X133048D02*
X136500D01*
G01X180448Y56900D02*
X182750D01*
G01D02*
Y59352D01*
G54D16*
X311232Y5630D03*
Y34370D03*
X332098Y5630D03*
Y34370D03*
G54D26*
G01X40100Y156700D02*
X41875Y154925D01*
Y154625D01*
X42500Y154000D01*
Y147500D01*
X38500Y143500D01*
G54D17*
G01X31500Y149500D02*
X27000Y145000D01*
Y141958D01*
X31458Y137500D01*
X41172D01*
X42172Y138500D01*
Y138788D01*
X42880Y139496D01*
X51500D01*
X53498Y137498D01*
X53500D01*
X54498Y136500D01*
Y136002D01*
X54500Y136000D01*
Y117500D01*
X56658Y115342D01*
X84342D01*
X85050Y116050D01*
Y120000D01*
G01X36500Y151000D02*
X33000D01*
X31500Y149500D01*
G01X46950Y146500D02*
Y142950D01*
X46200Y142200D01*
G01X52050Y152500D02*
Y146500D01*
G01Y158500D02*
Y152500D01*
G01Y146500D02*
X61500D01*
X62500Y145500D01*
Y143338D01*
X63614Y142224D01*
X66224D01*
G01X46950Y146500D02*
Y152500D01*
G01X74984Y122484D02*
X72500Y120000D01*
X64550D01*
G01X79950D02*
X77468D01*
X74984Y122484D01*
G01X71500Y126500D02*
X79450D01*
G01X64550D02*
X71500D01*
G01X64750Y138250D02*
Y133200D01*
X64550Y133000D01*
G01X72450D02*
X64550D01*
G01X84550Y126500D02*
Y129460D01*
X81010Y133000D01*
X77550D01*
G01X85050Y120000D02*
Y123040D01*
X84550Y123540D01*
Y126500D01*
G01X239750Y158100D02*
X238200D01*
X236800Y159500D01*
X236250D01*
G01X256666Y71000D02*
Y68390D01*
X254100Y65824D01*
Y43592D01*
X254090Y43582D01*
Y41418D01*
X254100Y41408D01*
Y39999D01*
X258753Y35346D01*
X262154D01*
X264000Y33500D01*
G01X252000Y71000D02*
Y38900D01*
X264000Y26900D01*
G54D27*
G01X31500Y149500D02*
X29900D01*
X25950Y153450D01*
G01X36500Y166000D02*
Y155400D01*
X37400Y154500D01*
X37644D01*
X39484Y152660D01*
Y148755D01*
X38584Y147855D01*
X34068D01*
X31141Y144928D01*
G01X60000Y189000D02*
X57440D01*
X56940Y188500D01*
X54000D01*
X38500Y173000D01*
G01X61500Y37500D02*
X65000D01*
X77000Y49500D01*
G01X83000Y53000D02*
X63500D01*
X61500Y51000D01*
G01X59450Y120000D02*
Y126500D01*
G01D02*
Y133000D01*
G01X55300Y140950D02*
X59450Y136800D01*
G01D02*
Y133000D01*
G01X90500Y146500D02*
X93060D01*
X95060Y148500D01*
X109000D01*
G01X94300Y143700D02*
X96860D01*
X97060Y143900D01*
X97260D01*
X97938Y144578D01*
X101922D01*
X104000Y142500D01*
G01X90500Y184500D02*
Y181940D01*
X89500Y180940D01*
Y172500D01*
G01X311000Y48100D02*
X311200Y48300D01*
Y51000D01*
G54D18*
G01X56700Y64300D02*
X51300D01*
X30200Y85400D01*
G01X40500Y82500D02*
X43000Y85000D01*
X47900D01*
X55800Y92900D01*
X172600D01*
X196000Y69500D01*
Y62400D01*
G01X30200Y85400D02*
Y109711D01*
G01D02*
X32892Y112403D01*
G01X136500Y53500D02*
Y59500D01*
G01X142190Y65800D02*
X144900D01*
G01D02*
Y81600D01*
X142900Y83600D01*
X138033D01*
G01D02*
X137922Y83489D01*
X136800D01*
G01X144900Y56400D02*
Y65800D01*
G01Y47000D02*
Y56400D01*
G01X196000Y62400D02*
Y54200D01*
G01X199600Y54100D02*
Y58800D01*
X196000Y62400D01*
G01X187850Y56900D02*
X193300D01*
X196000Y54200D01*
G01X255948Y170263D02*
X256187D01*
X256300Y170150D01*
G54D19*
G01X200500Y37600D02*
X199600Y36700D01*
X191300D01*
M02*
