G04 ================== begin FILE IDENTIFICATION RECORD ==================*
G04 Layout Name:  C:/Users/dmigh/OneDrive/Documents/GitHub/OnyxPSU/allegro/ONYXPSU.brd*
G04 Film Name:    TOP*
G04 File Format:  Gerber RS274X*
G04 File Origin:  Cadence Allegro 16.6-P004*
G04 Origin Date:  Mon Feb 13 13:33:03 2017*
G04 *
G04 Layer:  VIA CLASS/TOP*
G04 Layer:  PIN/TOP*
G04 Layer:  ETCH/TOP*
G04 *
G04 Offset:    (0.00 0.00)*
G04 Mirror:    No*
G04 Mode:      Positive*
G04 Rotation:  0*
G04 FullContactRelief:  No*
G04 UndefLineWidth:     10.00*
G04 ================== end FILE IDENTIFICATION RECORD ====================*
%FSLAX25Y25*MOIN*%
%IR0*IPPOS*OFA0.00000B0.00000*MIA0B0*SFA1.00000B1.00000*%
%ADD49R,.07874X.01969*%
%ADD31R,.044X.102*%
%ADD44R,.044X.105*%
%AMMACRO47*
4,1,6,-.0375,.05,
-.0375,-.05,
.0125,-.05,
.0375,-.025,
.0375,.025,
.0125,.05,
-.0375,.05,
0.0*
%
%ADD47MACRO47*%
%ADD36R,.059X.142*%
%ADD22C,.055*%
%ADD13C,.028*%
%ADD12C,.068*%
%ADD48O,.10299X.0515*%
%ADD32R,.055X.055*%
%AMMACRO51*
4,1,44,.01634,.00182,
.01634,-.00182,
.016278,-.00253,
.016094,-.003218,
.015793,-.003864,
.015385,-.004448,
.014881,-.004952,
.014297,-.005361,
.013652,-.005663,
.012963,-.005848,
.012253,-.00591,
.01225,-.00591,
-.01225,-.00591,
-.01296,-.005848,
-.013648,-.005664,
-.014294,-.005363,
-.014878,-.004955,
-.015382,-.004451,
-.015791,-.003867,
-.016093,-.003222,
-.016278,-.002533,
-.01634,-.001823,
-.01634,-.00182,
-.01634,.00182,
-.016278,.00253,
-.016094,.003218,
-.015793,.003864,
-.015385,.004448,
-.014881,.004952,
-.014297,.005361,
-.013652,.005663,
-.012963,.005848,
-.012253,.00591,
-.01225,.00591,
.01225,.00591,
.01296,.005848,
.013648,.005664,
.014294,.005363,
.014878,.004955,
.015382,.004451,
.015791,.003867,
.016093,.003222,
.016278,.002533,
.01634,.001823,
.01634,.00182,
0.0*
%
%ADD51MACRO51*%
%AMMACRO33*
4,1,20,-.046,-.014,
-.044,-.014,
-.044,.044,
.044,.044,
.044,-.014,
.046,-.014,
.046,-.044,
.03,-.044,
.03,-.024,
.02,-.024,
.02,-.044,
.004,-.044,
.004,-.024,
-.004,-.024,
-.004,-.044,
-.02,-.044,
-.02,-.024,
-.03,-.024,
-.03,-.044,
-.046,-.044,
-.046,-.014,
0.0*
%
%ADD33MACRO33*%
%AMMACRO28*
4,1,20,-.014,.046,
-.014,.044,
.044,.044,
.044,-.044,
-.014,-.044,
-.014,-.046,
-.044,-.046,
-.044,-.03,
-.024,-.03,
-.024,-.02,
-.044,-.02,
-.044,-.004,
-.024,-.004,
-.024,.004,
-.044,.004,
-.044,.02,
-.024,.02,
-.024,.03,
-.044,.03,
-.044,.046,
-.014,.046,
0.0*
%
%ADD28MACRO28*%
%ADD26R,.09646X.09646*%
%ADD45R,.04X.013*%
%ADD17R,.071X.02*%
%ADD46R,.024X.022*%
%ADD30R,.052X.022*%
%ADD18R,.04X.016*%
%ADD34R,.016X.04*%
%ADD20R,.052X.022*%
%ADD16R,.018X.02*%
%ADD35R,.115X.128*%
%ADD14R,.035X.032*%
%ADD19R,.055X.04*%
%ADD11R,.032X.035*%
%ADD42R,.04X.055*%
%AMMACRO43*
4,1,6,.0375,-.05,
.0375,.05,
-.0125,.05,
-.0375,.025,
-.0375,-.025,
-.0125,-.05,
.0375,-.05,
0.0*
%
%ADD43MACRO43*%
%ADD27R,.03346X.01102*%
%ADD15R,.078X.022*%
%ADD38R,.03346X.01102*%
%ADD25R,.01102X.03346*%
%ADD10R,.083X.063*%
%ADD29R,.05971X.022*%
%ADD40R,.05512X.08661*%
%AMMACRO52*
4,1,44,-.01634,-.00182,
-.01634,.00182,
-.016278,.00253,
-.016094,.003218,
-.015793,.003864,
-.015385,.004448,
-.014881,.004952,
-.014297,.005361,
-.013652,.005663,
-.012963,.005848,
-.012253,.00591,
-.01225,.00591,
.01225,.00591,
.01296,.005848,
.013648,.005664,
.014294,.005363,
.014878,.004955,
.015382,.004451,
.015791,.003867,
.016093,.003222,
.016278,.002533,
.01634,.001823,
.01634,.00182,
.01634,-.00182,
.016278,-.00253,
.016094,-.003218,
.015793,-.003864,
.015385,-.004448,
.014881,-.004952,
.014297,-.005361,
.013652,-.005663,
.012963,-.005848,
.012253,-.00591,
.01225,-.00591,
-.01225,-.00591,
-.01296,-.005848,
-.013648,-.005664,
-.014294,-.005363,
-.014878,-.004955,
-.015382,-.004451,
-.015791,-.003867,
-.016093,-.003222,
-.016278,-.002533,
-.01634,-.001823,
-.01634,-.00182,
0.0*
%
%ADD52MACRO52*%
%ADD39R,.05512X.09449*%
%ADD24R,.05753X.01972*%
%ADD23R,.01972X.05753*%
%ADD50R,.03543X.06299*%
%AMMACRO41*
4,1,20,.046,.014,
.044,.014,
.044,-.044,
-.044,-.044,
-.044,.014,
-.046,.014,
-.046,.044,
-.03,.044,
-.03,.024,
-.02,.024,
-.02,.044,
-.004,.044,
-.004,.024,
.004,.024,
.004,.044,
.02,.044,
.02,.024,
.03,.024,
.03,.044,
.046,.044,
.046,.014,
0.0*
%
%ADD41MACRO41*%
%AMMACRO21*
4,1,20,.014,-.046,
.014,-.044,
-.044,-.044,
-.044,.044,
.014,.044,
.014,.046,
.044,.046,
.044,.03,
.024,.03,
.024,.02,
.044,.02,
.044,.004,
.024,.004,
.024,-.004,
.044,-.004,
.044,-.02,
.024,-.02,
.024,-.03,
.044,-.03,
.044,-.046,
.014,-.046,
0.0*
%
%ADD21MACRO21*%
%ADD37R,.06693X.08465*%
%ADD53C,.01*%
%ADD54C,.02*%
%ADD55C,.03*%
%ADD56C,.012*%
%ADD57C,.013*%
%ADD58C,.014*%
%ADD59C,.015*%
%ADD60C,.025*%
%ADD61C,.045*%
%ADD62C,.0071*%
%ADD63C,.008*%
%ADD64C,.009*%
%ADD68R,.06514X.10452*%
%ADD66C,.06504*%
%ADD65R,.08804X.03204*%
%ADD67R,.06504X.06504*%
%ADD69R,.06516X.09664*%
G75*
%LPD*%
G75*
G36*
G01X1169Y1228D02*
Y87000D01*
X62570D01*
G02X62852Y86317I0J-400D01*
G01X61138Y84603D01*
Y83252D01*
X60348D01*
Y78748D01*
X61038D01*
Y77702D01*
X57802D01*
Y77842D01*
X51598D01*
Y74638D01*
X57802D01*
Y74778D01*
X60248D01*
Y72948D01*
X60948D01*
Y72052D01*
X60248D01*
Y71412D01*
X59895D01*
X57345Y73962D01*
X48402D01*
Y74102D01*
X42198D01*
Y73212D01*
X41057D01*
X39897Y72052D01*
X39052D01*
Y72948D01*
X39752D01*
Y74778D01*
X42198D01*
Y74638D01*
X48402D01*
Y77842D01*
X42212D01*
Y81669D01*
X42230Y81709D01*
G03X38770I-1730J791D01*
G01X38788Y81669D01*
Y78759D01*
X37480Y77450D01*
G03X37241Y77152I1207J-1213D01*
G01X35248D01*
Y72948D01*
X35948D01*
Y72052D01*
X35248D01*
Y67848D01*
X36038D01*
Y67495D01*
X34188Y65645D01*
Y63462D01*
X33805D01*
X32962Y64305D01*
Y66405D01*
X30505Y68862D01*
X5385D01*
X3588Y67065D01*
Y65652D01*
X2948D01*
Y61148D01*
X3588D01*
Y58952D01*
X2948D01*
Y54448D01*
X3588D01*
Y52252D01*
X2948D01*
Y47748D01*
X3588D01*
Y45552D01*
X2948D01*
Y41048D01*
X3738D01*
Y39697D01*
X6738Y36697D01*
Y32552D01*
X3398D01*
Y25248D01*
X6738D01*
Y16452D01*
X3398D01*
Y9148D01*
X12702D01*
Y16452D01*
X9362D01*
Y25248D01*
X12702D01*
Y32552D01*
X9362D01*
Y37783D01*
X6779Y40366D01*
G02X7062Y41048I283J282D01*
G01X7152D01*
Y41748D01*
X8048D01*
Y41048D01*
X12252D01*
Y41838D01*
X14548D01*
Y41048D01*
X18752D01*
Y41748D01*
X19648D01*
Y41048D01*
X21935D01*
X22445Y40538D01*
X25783D01*
G03Y43462I1217J1462D01*
G01X23852D01*
Y45552D01*
X19648D01*
Y44852D01*
X18752D01*
Y45552D01*
X14548D01*
Y44762D01*
X12252D01*
Y45552D01*
X8048D01*
Y44852D01*
X7152D01*
Y45552D01*
X6512D01*
Y47748D01*
X7152D01*
Y48448D01*
X8048D01*
Y47748D01*
X12252D01*
Y48538D01*
X14548D01*
Y47748D01*
X18752D01*
Y48448D01*
X19648D01*
Y47748D01*
X23852D01*
Y48538D01*
X25783D01*
G03Y51462I1217J1462D01*
G01X23852D01*
Y52252D01*
X19648D01*
Y51552D01*
X18752D01*
Y52252D01*
X14548D01*
Y51462D01*
X12252D01*
Y52252D01*
X8048D01*
Y51552D01*
X7152D01*
Y52252D01*
X6512D01*
Y54448D01*
X7152D01*
Y55148D01*
X8048D01*
Y54448D01*
X12252D01*
Y55238D01*
X14548D01*
Y54448D01*
X18752D01*
Y55148D01*
X19648D01*
Y54448D01*
X23852D01*
Y55038D01*
X25283D01*
G03Y57962I1217J1462D01*
G01X23852D01*
Y58952D01*
X19648D01*
Y58252D01*
X18752D01*
Y58952D01*
X14548D01*
Y58162D01*
X12252D01*
Y58952D01*
X8048D01*
Y58252D01*
X7152D01*
Y58952D01*
X6512D01*
Y61148D01*
X7152D01*
Y61848D01*
X8048D01*
Y61148D01*
X12252D01*
Y61938D01*
X14548D01*
Y61148D01*
X18752D01*
Y61848D01*
X19648D01*
Y61148D01*
X23852D01*
Y61938D01*
X25683D01*
G03Y64862I1217J1462D01*
G01X23852D01*
Y65938D01*
X29295D01*
X30038Y65195D01*
Y63095D01*
X32595Y60538D01*
X34248D01*
Y60498D01*
X34438D01*
Y59288D01*
X35942Y57784D01*
G02X35660Y57102I-283J-282D01*
G01X29898D01*
Y53898D01*
X38702D01*
Y57288D01*
X39996D01*
Y42210D01*
X39498Y41712D01*
X38702D01*
Y42102D01*
X29898D01*
Y38898D01*
X38702D01*
Y39288D01*
X40502D01*
X42420Y41206D01*
Y58294D01*
X41002Y59712D01*
X37442D01*
X36902Y60252D01*
X37004Y60498D01*
X37052D01*
Y61198D01*
X37948D01*
Y60498D01*
X40752D01*
Y60538D01*
X48905D01*
X51659Y57784D01*
G02X51376Y57101I-283J-283D01*
G01X49298D01*
Y53898D01*
X58102D01*
Y54035D01*
X59671Y55605D01*
X59739Y55613D01*
G03X57613Y57739I-239J1887D01*
G01X57605Y57671D01*
X57035Y57102D01*
X55162D01*
Y58415D01*
X50115Y63462D01*
X40752D01*
Y63502D01*
X37948D01*
Y62802D01*
X37112D01*
Y64435D01*
X38962Y66285D01*
Y67848D01*
X39752D01*
Y68638D01*
X40193D01*
X41516Y69961D01*
G02X42198Y69678I282J-283D01*
G01Y67158D01*
X48402D01*
Y70362D01*
X45499D01*
G02X45358Y70703I0J200D01*
G01X45553Y70898D01*
X48402D01*
Y71038D01*
X56135D01*
X56470Y70703D01*
G02X56329Y70362I-141J-141D01*
G01X51598D01*
Y67159D01*
X56172D01*
G02X56455Y66476I0J-400D01*
G01X56077Y66098D01*
X56036Y66082D01*
G03X58482Y63636I664J-1782D01*
G01X58498Y63677D01*
X60356Y65535D01*
G02X61038Y65252I282J-283D01*
G01Y63200D01*
X63826Y60412D01*
X65390D01*
Y48520D01*
G02X65048Y48379I-200J0D01*
G01X64965Y48462D01*
X64217D01*
G03X61507Y48179I-1217J-1462D01*
G01X61447Y48103D01*
X61150D01*
Y48584D01*
X61671Y49105D01*
X61739Y49113D01*
G03X59613Y51239I-239J1887D01*
G01X59605Y51171D01*
X58784Y50351D01*
G02X58101Y50634I-283J283D01*
G01Y52102D01*
X49298D01*
Y48898D01*
X58228D01*
Y47102D01*
X49298D01*
Y43898D01*
X58102D01*
Y44038D01*
X59605D01*
X61150Y45584D01*
Y45897D01*
X61447D01*
X61507Y45821D01*
G03X63944Y45349I1493J1179D01*
G01X64173Y45120D01*
G02X63890Y44438I-283J-282D01*
G01X62871D01*
X62829Y44395D01*
X62761Y44387D01*
G03X64627Y41514I239J-1887D01*
G01X65390D01*
Y41488D01*
X72146D01*
Y54715D01*
G02X72799Y55025I400J0D01*
G03X74941Y54847I1201J1475D01*
G02X75538Y54499I197J-348D01*
G01Y50717D01*
G03X78462I1462J-1217D01*
G01Y62827D01*
G02X79144Y63110I400J0D01*
G01X83538Y58716D01*
Y55605D01*
X82829Y54895D01*
X82761Y54887D01*
G03X84887Y52761I239J-1887D01*
G01X84895Y52829D01*
X86462Y54395D01*
Y59926D01*
X79717Y66671D01*
G02X80000Y67354I283J283D01*
G01X98012D01*
Y69420D01*
X111525D01*
X119557Y61388D01*
X134744D01*
G02X135049Y60730I0J-400D01*
G03X134770Y58709I1451J-1230D01*
G01X134788Y58669D01*
Y56265D01*
G03X138212I1712J-2765D01*
G01Y58669D01*
X138230Y58709D01*
G03X137951Y60730I-1730J791D01*
G02X138256Y61388I305J258D01*
G01X141857D01*
X142105Y61140D01*
Y42000D01*
X142288D01*
Y28357D01*
X145457Y25188D01*
X226657D01*
X230757Y21088D01*
X234661D01*
G02X234919Y20383I0J-400D01*
G03X239119I2100J-2483D01*
G02X239377Y21088I258J305D01*
G01X244661D01*
G02X244919Y20383I0J-400D01*
G03X249119I2100J-2483D01*
G02X249377Y21088I258J305D01*
G01X254661D01*
G02X254919Y20383I0J-400D01*
G03X258494Y20798I2100J-2483D01*
G02X258392Y21438I181J357D01*
G01X260812Y23857D01*
Y27657D01*
X261712Y28557D01*
Y32184D01*
G02X262440Y32412I400J0D01*
G03X265466Y32288I1560J1088D01*
G01X267348D01*
Y31248D01*
X271552D01*
Y31948D01*
X272448D01*
Y31248D01*
X276652D01*
Y32188D01*
X284151D01*
G02X284403Y31478I0J-400D01*
G03X284083Y28853I1197J-1478D01*
G02X283764Y28212I-319J-241D01*
G01X276752D01*
Y29152D01*
X272548D01*
Y28452D01*
X271652D01*
Y29152D01*
X267448D01*
Y28112D01*
X265466D01*
G03Y25688I-1466J-1212D01*
G01X267448D01*
Y24648D01*
X271652D01*
Y25348D01*
X272548D01*
Y24648D01*
X276752D01*
Y25588D01*
X287351D01*
X288483Y26720D01*
X291250D01*
G03X291836Y26859I-2J1312D01*
G01X291879Y26880D01*
X293752D01*
Y33120D01*
X291879D01*
X291836Y33141D01*
G03X291250Y33280I-588J-1173D01*
G01X288483D01*
X286951Y34812D01*
X276652D01*
Y35752D01*
X272448D01*
Y35052D01*
X271552D01*
Y35752D01*
X267348D01*
Y34712D01*
X265466D01*
G03X262440Y34588I-1466J-1212D01*
G02X261712Y34816I-328J228D01*
G01Y35657D01*
X263743Y37688D01*
X275757D01*
X277857Y35588D01*
X297043D01*
X298512Y37057D01*
Y42000D01*
X305016D01*
X305062Y41863D01*
G03X308670I1804J603D01*
G01X308716Y42000D01*
X339171D01*
Y1228D01*
X1169D01*
G37*
G36*
G01X10000Y92210D02*
Y108493D01*
X38748D01*
Y100298D01*
X45452D01*
Y108493D01*
X48848D01*
Y100298D01*
X55552D01*
Y108493D01*
X58948D01*
Y100298D01*
X65652D01*
Y108493D01*
X69048D01*
Y100298D01*
X75752D01*
Y108493D01*
X88517D01*
Y120677D01*
X208000D01*
Y139000D01*
X213500D01*
Y149667D01*
X208052D01*
Y156402D01*
X206606D01*
Y168000D01*
X217108D01*
Y167519D01*
X216698Y167109D01*
Y165200D01*
G03X217108Y164089I1712J1D01*
G01Y162698D01*
X219712D01*
Y164089D01*
G03X220122Y165200I-1302J1112D01*
G01Y165691D01*
X220669Y166238D01*
X222248D01*
Y165848D01*
X222788D01*
Y164152D01*
X222248D01*
Y159948D01*
X222948D01*
Y159052D01*
X222248D01*
Y159011D01*
X222002Y158909D01*
X221798Y159113D01*
X221782Y159154D01*
G03X219336Y156708I-1782J-664D01*
G01X219377Y156692D01*
X220831Y155238D01*
X222248D01*
Y154848D01*
X226752D01*
Y159052D01*
X226052D01*
Y159948D01*
X226752D01*
Y164152D01*
X226212D01*
Y165848D01*
X226752D01*
Y166238D01*
X228550D01*
Y160870D01*
X228548Y160869D01*
Y107908D01*
X183988D01*
X183987Y107907D01*
X179000D01*
Y97338D01*
X109355D01*
G03X106045I-1655J-938D01*
G01X103807D01*
G03X100393I-1707J-838D01*
G01X82000D01*
Y92210D01*
X10000D01*
G37*
G36*
G01Y110500D02*
Y124000D01*
X26500D01*
Y115000D01*
X77179D01*
Y110500D01*
X75752D01*
Y110902D01*
X69048D01*
Y110500D01*
X65652D01*
Y110902D01*
X58948D01*
Y110500D01*
X55552D01*
Y110902D01*
X48848D01*
Y110500D01*
X45452D01*
Y110902D01*
X38748D01*
Y110500D01*
X10000D01*
G37*
G36*
G01X11000Y175000D02*
Y190000D01*
X44500D01*
Y177392D01*
X39698D01*
Y175000D01*
X11000D01*
G37*
G36*
G01X60448Y173000D02*
X46500D01*
Y187000D01*
X77000D01*
Y173000D01*
X65552D01*
Y174352D01*
X60448D01*
Y173000D01*
G37*
G36*
G01X72866Y81201D02*
X71605Y82462D01*
X69652D01*
Y83252D01*
X65448D01*
Y82552D01*
X64552D01*
Y83252D01*
X64462D01*
G02X64179Y83934I0J400D01*
G01X66883Y86638D01*
X73548D01*
Y85848D01*
X74248D01*
Y84952D01*
X73548D01*
Y81484D01*
G02X72866Y81201I-400J0D01*
G37*
G36*
G01X82088Y83433D02*
X85652Y86997D01*
X85732Y86998D01*
G03X85783Y87000I-49J1901D01*
G01X86180D01*
G02X86462Y86317I0J-400D01*
G01X86024Y85878D01*
G03X85939Y85786I920J-935D01*
G01X85818Y85638D01*
X85745Y85521D01*
X85483Y85129D01*
X85467Y85113D01*
X85250Y84787D01*
X83988Y83408D01*
Y82943D01*
X82614Y81568D01*
Y74110D01*
X82088D01*
Y83433D01*
G37*
G36*
G01X78938Y74110D02*
Y78657D01*
X77529Y80066D01*
G02X77812Y80748I283J282D01*
G01X78052D01*
Y84952D01*
X77352D01*
Y85848D01*
X78052D01*
Y87000D01*
X80980D01*
G02X81262Y86317I0J-400D01*
G01X79464Y84519D01*
Y74110D01*
X78938D01*
G37*
G36*
G01X72146Y66486D02*
Y66512D01*
X70230D01*
Y72597D01*
X66315Y76512D01*
X64752D01*
Y77152D01*
X63962D01*
Y78748D01*
X64552D01*
Y79448D01*
X65448D01*
Y78748D01*
X69652D01*
Y79538D01*
X70395D01*
X73014Y76919D01*
Y74110D01*
X72988D01*
Y67354D01*
X73014D01*
Y66486D01*
X72146D01*
G37*
G36*
G01X65036Y63336D02*
X63962Y64410D01*
Y67848D01*
X64752D01*
Y72052D01*
X64052D01*
Y72948D01*
X64752D01*
Y73588D01*
X65105D01*
X67306Y71387D01*
Y66512D01*
X65390D01*
Y63336D01*
X65036D01*
G37*
G36*
G01X90938Y182649D02*
X97500D01*
Y174000D01*
X90669D01*
G03X88331I-1169J-1500D01*
G01X79000D01*
Y182608D01*
X80189D01*
G03X82411I1111J1302D01*
G01X83802D01*
Y182649D01*
X90062D01*
X90084Y182644D01*
G03X90916I416J1856D01*
G01X90938Y182649D01*
G37*
G36*
G01X91686Y77718D02*
Y79519D01*
X92405Y80238D01*
X93605D01*
X100367Y87000D01*
X142105D01*
Y83962D01*
X98895D01*
X92368Y77435D01*
G02X91686Y77718I-282J283D01*
G37*
G36*
G01X120643Y64012D02*
X112611Y72044D01*
X98012D01*
Y74110D01*
X94836D01*
Y75769D01*
X100105Y81038D01*
X142105D01*
Y64012D01*
X120643D01*
G37*
G36*
G01X100000Y128000D02*
Y136000D01*
X141000D01*
Y128000D01*
X140252D01*
Y130052D01*
X139552D01*
Y131252D01*
X136448D01*
Y130052D01*
X135748D01*
Y128000D01*
X100000D01*
G37*
G36*
G01X111111Y138549D02*
Y141338D01*
X121149D01*
X121949Y140538D01*
X123088D01*
Y139198D01*
X125692D01*
Y144202D01*
X123088D01*
Y143650D01*
G02X122406Y143367I-400J0D01*
G01X122111Y143662D01*
X111111D01*
Y162948D01*
X111252D01*
Y166052D01*
X111111D01*
Y167424D01*
X135062D01*
Y159900D01*
X154200D01*
Y144100D01*
X135062D01*
Y138549D01*
X111111D01*
G37*
G36*
G01X239138Y168250D02*
Y173474D01*
X125192D01*
Y178202D01*
X122588D01*
Y176862D01*
X120519D01*
X118834Y175177D01*
Y173474D01*
X111988D01*
Y174098D01*
X112052D01*
Y183902D01*
X111988D01*
Y192000D01*
X282500D01*
Y212700D01*
X303498D01*
Y202898D01*
X309748D01*
Y202348D01*
X310100D01*
Y194652D01*
X309748D01*
Y190448D01*
X310100D01*
Y189552D01*
X309748D01*
Y186602D01*
X303498D01*
Y185200D01*
X300500D01*
Y180822D01*
G02X299909Y180471I-400J0D01*
G03Y177129I-909J-1671D01*
G02X300500Y176778I191J-351D01*
G01Y175396D01*
X300486Y175360D01*
G03Y173940I1764J-710D01*
G01X300500Y173904D01*
Y173474D01*
X293552D01*
Y174902D01*
X286848D01*
Y173474D01*
X284052D01*
Y174902D01*
X277348D01*
Y173474D01*
X259955D01*
Y168250D01*
X239138D01*
G37*
G36*
G01X231843Y23712D02*
X227743Y27812D01*
X146543D01*
X144912Y29443D01*
Y42000D01*
X193500D01*
Y50500D01*
X203300D01*
Y57900D01*
X193500D01*
Y72180D01*
G02X194183Y72462I400J0D01*
G01X198557Y68088D01*
X215443D01*
X216852Y69497D01*
X216932Y69498D01*
G03X218151Y69968I-33J1902D01*
G02X218814Y69666I263J-301D01*
G01Y62457D01*
X221106Y60165D01*
Y57120D01*
X217298Y53312D01*
X215752D01*
Y53502D01*
X212948D01*
Y52802D01*
X212052D01*
Y53502D01*
X209248D01*
Y53212D01*
X207466D01*
G03Y50788I-1466J-1212D01*
G01X209248D01*
Y50498D01*
X212052D01*
Y51198D01*
X212948D01*
Y50498D01*
X215752D01*
Y50688D01*
X218384D01*
X222962Y55266D01*
X227622D01*
Y64930D01*
X221438D01*
Y70131D01*
X221869Y70562D01*
X229927D01*
G02X230239Y69913I0J-400D01*
G03X230512Y67258I1485J-1189D01*
G01Y34498D01*
X232222Y32788D01*
X234348D01*
Y31748D01*
X235238D01*
Y29252D01*
X234348D01*
Y24748D01*
X238552D01*
Y25448D01*
X239448D01*
Y24748D01*
X243652D01*
Y25788D01*
X246348D01*
Y24748D01*
X250552D01*
Y25448D01*
X251448D01*
Y24748D01*
X255652D01*
Y27538D01*
X258212Y30098D01*
Y38502D01*
X256771Y39943D01*
G02X256992Y40621I283J283D01*
G03X258331Y41522I-292J1879D01*
G02X259044Y41470I343J-205D01*
G03X262437Y41232I1756J730D01*
G02X263115Y41249I344J-204D01*
G03X263323Y40987I1588J1047D01*
G02X263034Y40312I-290J-275D01*
G01X262657D01*
X259088Y36743D01*
Y29643D01*
X258188Y28743D01*
Y24943D01*
X256957Y23712D01*
X231843D01*
G37*
G36*
G01X177982Y52200D02*
Y52384D01*
X176589D01*
G03X175807Y52644I-784J-1051D01*
G01X173848D01*
Y56100D01*
X175058D01*
G03X176556I749J1137D01*
G01X202131D01*
Y52200D01*
X177982D01*
G37*
G36*
G01X172955Y147700D02*
Y161079D01*
X194239D01*
Y156402D01*
X193948D01*
Y147700D01*
X172955D01*
G37*
G36*
G01X197043Y76212D02*
X193500Y79755D01*
Y98145D01*
X194855Y99500D01*
X225780D01*
G02X226062Y98817I0J-400D01*
G01X225407Y98162D01*
X211285D01*
X209188Y96065D01*
Y94212D01*
X207966D01*
G03Y91788I-1466J-1212D01*
G01X209248D01*
Y91498D01*
X212052D01*
Y92198D01*
X212948D01*
Y91498D01*
X215752D01*
Y91688D01*
X216957D01*
X217688Y90957D01*
Y89733D01*
X211068D01*
Y80069D01*
X215727D01*
X218324Y77472D01*
G02X217999Y76792I-283J-282D01*
G03X216422Y76212I-199J-1892D01*
G01X197043D01*
G37*
G36*
G01X199643Y70712D02*
X197449Y72906D01*
G02X197732Y73588I283J282D01*
G01X215451D01*
G02X215703Y72878I0J-400D01*
G03X214998Y71432I1197J-1478D01*
G01X214997Y71352D01*
X214357Y70712D01*
X199643D01*
G37*
G36*
G01X218720Y71954D02*
G03X218413Y72552I-1819J-556D01*
G02X218569Y73161I318J243D01*
G03X219692Y75099I-769J1740D01*
G02X220372Y75424I398J42D01*
G01X222084Y73712D01*
X234890D01*
Y73186D01*
X220783D01*
X219385Y71788D01*
G02X218720Y71954I-283J283D01*
G37*
G36*
G01X230538Y85395D02*
X234105Y81829D01*
X234113Y81761D01*
G03X237212Y83466I1887J239D01*
G01Y85498D01*
X238502Y86788D01*
X239348D01*
Y85748D01*
X243552D01*
Y86448D01*
X244448D01*
Y85748D01*
X245914D01*
Y84110D01*
X242488D01*
Y77354D01*
X242514D01*
Y74279D01*
X243538Y73255D01*
Y72217D01*
G03Y69783I1462J-1217D01*
G01Y68575D01*
X242000Y67036D01*
X241646D01*
Y76512D01*
X234890D01*
Y76336D01*
X223170D01*
X217582Y81923D01*
Y83728D01*
X220312Y86457D01*
Y92043D01*
X218043Y94312D01*
X215752D01*
Y94502D01*
X212948D01*
Y93802D01*
X212112D01*
Y94855D01*
X212495Y95238D01*
X225195D01*
X230538Y89895D01*
Y85395D01*
G37*
G36*
G01X243652Y28212D02*
Y29252D01*
X239448D01*
Y28552D01*
X238552D01*
Y29252D01*
X237662D01*
Y31748D01*
X238552D01*
Y32448D01*
X239448D01*
Y31748D01*
X243652D01*
Y32788D01*
X246348D01*
Y31748D01*
X250552D01*
Y32448D01*
X251448D01*
Y31748D01*
X255788D01*
Y31102D01*
X253938Y29252D01*
X251448D01*
Y28552D01*
X250552D01*
Y29252D01*
X246348D01*
Y28212D01*
X243652D01*
G37*
G36*
G01X233226Y35212D02*
X232936Y35502D01*
Y67258D01*
G03X233102Y67412I-1208J1469D01*
G01X234890D01*
Y51488D01*
X241646D01*
Y51792D01*
X244543Y54688D01*
X244872D01*
G02X245013Y54347I0J-200D01*
G01X242664Y51998D01*
Y50646D01*
X242488D01*
Y43890D01*
X249064D01*
Y41222D01*
X252788Y37498D01*
Y36252D01*
X251448D01*
Y35552D01*
X250552D01*
Y36252D01*
X246348D01*
Y35212D01*
X243652D01*
Y36252D01*
X239448D01*
Y35552D01*
X238552D01*
Y36252D01*
X234348D01*
Y35212D01*
X233226D01*
G37*
G36*
G01X271309Y40312D02*
G02X270977Y40935I0J400D01*
G03X269433Y43902I-1576J1065D01*
G01X269353Y43903D01*
X267512Y45744D01*
Y50646D01*
X245988D01*
G02X245705Y51329I0J400D01*
G01X246064Y51688D01*
X263622D01*
G03Y54312I1378J1312D01*
G01X262908D01*
G02X262576Y54935I0J400D01*
G03X259622Y57312I-1576J1065D01*
G01X243457D01*
X242329Y56184D01*
G02X241646Y56467I-283J283D01*
G01Y64114D01*
X243210D01*
X246462Y67365D01*
Y69783D01*
G03Y72217I-1462J1217D01*
G01Y74465D01*
X245438Y75489D01*
Y77354D01*
X249064D01*
Y75222D01*
X250788Y73498D01*
Y72466D01*
G03X253212I1212J-1466D01*
G01Y74502D01*
X251488Y76226D01*
Y77354D01*
X252214D01*
Y77073D01*
X255454Y73832D01*
Y72466D01*
G03X257878I1212J-1466D01*
G01Y74836D01*
X256043Y76671D01*
G02X256325Y77354I283J283D01*
G01X267512D01*
Y84110D01*
X261212D01*
G02X261070Y84452I-1J200D01*
G01X261407Y84788D01*
X269348D01*
Y80248D01*
X274752D01*
Y80948D01*
X281248D01*
Y80248D01*
X282238D01*
Y78381D01*
X282220Y78341D01*
G03X285680I1730J-791D01*
G01X285662Y78381D01*
Y80248D01*
X286652D01*
Y91752D01*
X281248D01*
Y91052D01*
X274752D01*
Y91752D01*
X269348D01*
Y87212D01*
X260403D01*
X260334Y87143D01*
G02X259652Y87425I-282J283D01*
G01Y90252D01*
X258862D01*
Y98893D01*
X258596Y99159D01*
G02X258738Y99500I142J141D01*
G01X297000D01*
Y89015D01*
X296990Y88985D01*
G03Y87815I1810J-585D01*
G01X297000Y87785D01*
Y58609D01*
X292730D01*
G02X292447Y59292I0J400D01*
G01X293012Y59857D01*
Y61998D01*
X293158D01*
X295952Y64792D01*
Y70208D01*
X293158Y73002D01*
X281742D01*
X278948Y70208D01*
Y64792D01*
X281742Y61998D01*
X281888D01*
Y59040D01*
X277290Y54442D01*
Y54144D01*
X277288Y54142D01*
Y48876D01*
X275472Y47059D01*
Y42674D01*
X276797Y41348D01*
X276798Y41268D01*
G03X276861Y40814I1902J33D01*
G02X276475Y40312I-386J-102D01*
G01X271309D01*
G37*
G36*
G01X243552Y89552D02*
Y90252D01*
X241162D01*
Y91748D01*
X242452D01*
Y92448D01*
X243548D01*
Y91748D01*
X244838D01*
Y90252D01*
X244448D01*
Y89552D01*
X243552D01*
G37*
G36*
G01X237498Y89212D02*
X234788Y86502D01*
Y86244D01*
G02X234106Y85961I-400J0D01*
G01X233462Y86605D01*
Y91105D01*
X227761Y96806D01*
X230455Y99500D01*
X254545D01*
X256238Y97807D01*
Y90252D01*
X255448D01*
Y89552D01*
X254552D01*
Y90252D01*
X250348D01*
Y89212D01*
X248652D01*
Y90252D01*
X247262D01*
Y91748D01*
X248552D01*
Y98252D01*
X243548D01*
Y97552D01*
X242452D01*
Y98252D01*
X237448D01*
Y91748D01*
X238738D01*
Y89212D01*
X237498D01*
G37*
G36*
G01X248338Y84110D02*
Y85748D01*
X248652D01*
Y86788D01*
X250348D01*
Y85748D01*
X254552D01*
Y86448D01*
X255364D01*
Y84110D01*
X248338D01*
G37*
G36*
G01X278943Y38212D02*
X278439Y38715D01*
G02X278718Y39398I283J283D01*
G03X280078Y39988I-17J1902D01*
G01X283148D01*
Y39048D01*
X287352D01*
Y39748D01*
X288248D01*
Y39048D01*
X292452D01*
Y43552D01*
X288248D01*
Y42852D01*
X287352D01*
Y43552D01*
X283148D01*
Y42612D01*
X280078D01*
G03X278732Y43202I-1377J-1312D01*
G01X278652Y43203D01*
X278094Y43760D01*
Y45973D01*
X278431Y46310D01*
X278617Y46124D01*
X278628Y46062D01*
G03X282381Y46118I1872J338D01*
G01X282407Y46288D01*
X283148D01*
Y45348D01*
X287352D01*
Y46048D01*
X288248D01*
Y45348D01*
X292452D01*
Y49852D01*
X291662D01*
Y50247D01*
X291762Y50347D01*
Y51698D01*
X292152D01*
Y54901D01*
X291979D01*
G02X291838Y55243I0J200D01*
G01X292579Y55984D01*
X293141D01*
X293143Y55986D01*
X296225D01*
X297000Y55215D01*
Y50264D01*
G02X296392Y49923I-400J1D01*
G03X295999Y50105I-991J-1624D01*
G01X295862Y50151D01*
Y51698D01*
X296252D01*
Y54902D01*
X292848D01*
Y51698D01*
X293238D01*
Y48607D01*
X293497Y48348D01*
X293498Y48268D01*
G03X295645Y46414I1902J32D01*
G02X295980Y45734I52J-397D01*
G01X295888Y45643D01*
Y38212D01*
X278943D01*
G37*
G36*
G01X279914Y53356D02*
X284512Y57954D01*
Y61998D01*
X290388D01*
Y60943D01*
X283938Y54493D01*
Y49852D01*
X283148D01*
Y48912D01*
X281157D01*
X280548Y48303D01*
X280468Y48302D01*
G03X280344Y48296I30J-1902D01*
G02X279912Y48694I-32J398D01*
G01Y53056D01*
X279914Y53058D01*
Y53356D01*
G37*
G36*
G01X267100Y151800D02*
Y168100D01*
X277348D01*
Y164298D01*
X284052D01*
Y168100D01*
X286848D01*
Y164298D01*
X293552D01*
Y168100D01*
X295400D01*
Y151800D01*
X267100D01*
G37*
G36*
G01X286562Y53407D02*
X288797Y55642D01*
G02X289138Y55501I141J-141D01*
G01Y54902D01*
X288748D01*
Y51698D01*
X288921D01*
G02X289062Y51357I0J-200D01*
G01X289038Y51333D01*
Y49852D01*
X288248D01*
Y49152D01*
X287352D01*
Y49852D01*
X286562D01*
Y53407D01*
G37*
G36*
G01X330897Y47862D02*
X329394Y46358D01*
X317667D01*
G02X317268Y46781I0J400D01*
G03X317270Y46834I-908J61D01*
G01Y47198D01*
G03X316359Y48108I-910J0D01*
G01X313909D01*
G03X313745Y48094I-5J-910D01*
G02X313273Y48487I-72J393D01*
G01Y51651D01*
X312992D01*
X312939Y51770D01*
G03X309461I-1739J-770D01*
G01X309408Y51651D01*
X308841D01*
G03X308091Y52046I-750J-515D01*
G01X307681D01*
X307630Y52080D01*
G03X306866Y52314I-763J-1127D01*
G01X304411D01*
X304000Y52725D01*
Y53350D01*
X322323Y53386D01*
X322381Y53330D01*
G03X322376Y56065I1319J1370D01*
G01X322318Y56009D01*
X304000Y55973D01*
Y85125D01*
X305037D01*
X305086Y84996D01*
G03X308646I1780J670D01*
G01X308695Y85125D01*
X339172D01*
Y42875D01*
X308729D01*
X308686Y43017D01*
G03X308445Y43526I-1820J-550D01*
G02X308568Y44089I332J222D01*
G03X308841Y44349I-478J775D01*
G01X309253D01*
G03X312547I1647J951D01*
G01X313159D01*
G03X313909Y43954I750J515D01*
G01X314406D01*
X314454Y43926D01*
G03X315134Y43736I680J1122D01*
G01X330480D01*
X331566Y44821D01*
G02X332248Y44538I282J-283D01*
G01Y44048D01*
X338752D01*
Y49052D01*
X338052D01*
Y50452D01*
X332948D01*
Y49052D01*
X332248D01*
Y47862D01*
X330897D01*
G37*
G36*
G01X312074Y86730D02*
G03X312647Y87349I-1075J1569D01*
G01X313159D01*
G03X313909Y86954I750J515D01*
G01X314406D01*
X314454Y86926D01*
G03X315134Y86736I680J1122D01*
G01X330880D01*
X331566Y87421D01*
G02X332248Y87138I282J-283D01*
G01Y86648D01*
X338752D01*
Y91652D01*
X338052D01*
Y93052D01*
X332948D01*
Y91652D01*
X332248D01*
Y90462D01*
X330897D01*
X329794Y89358D01*
X317667D01*
G02X317268Y89781I0J400D01*
G03X317270Y89834I-908J61D01*
G01Y90198D01*
G03X316359Y91108I-910J0D01*
G01X313909D01*
G03X313745Y91094I-5J-910D01*
G02X313273Y91487I-72J393D01*
G01Y94651D01*
X312647D01*
G03X309353I-1647J-951D01*
G01X308841D01*
G03X308091Y95046I-750J-515D01*
G01X307699D01*
X305883Y96862D01*
X304000D01*
Y128250D01*
X304956D01*
X304967Y128061D01*
G03X308765I1899J105D01*
G01X308776Y128250D01*
X339172D01*
Y86000D01*
X312300D01*
G02X312074Y86730I0J400D01*
G37*
G36*
G01X338752Y129000D02*
Y134252D01*
X338052D01*
Y135652D01*
X332948D01*
Y134252D01*
X332248D01*
Y133062D01*
X330897D01*
X330194Y132358D01*
X317667D01*
G02X317268Y132781I0J400D01*
G03X317270Y132834I-909J61D01*
G01Y133198D01*
G03X316359Y134108I-910J0D01*
G01X313909D01*
G03X313745Y134094I-5J-910D01*
G02X313273Y134487I-72J393D01*
G01Y137651D01*
X312533D01*
G03X309667I-1433J-1251D01*
G01X308841D01*
G03X308091Y138046I-750J-515D01*
G01X307681D01*
X307630Y138080D01*
G03X306866Y138314I-763J-1127D01*
G01X306387D01*
X304240Y140462D01*
X304000D01*
Y170250D01*
X304956D01*
X304974Y170071D01*
G03X308758I1892J195D01*
G01X308776Y170250D01*
X339218D01*
Y129000D01*
X338752D01*
G37*
G36*
G01X308575D02*
G03X308234Y129488I-1710J-832D01*
G01X308178Y129546D01*
Y129946D01*
X308326Y129985D01*
G03X308841Y130349I-235J879D01*
G01X309567D01*
G03X312433I1433J1251D01*
G01X313159D01*
G03X313909Y129954I750J515D01*
G01X314406D01*
X314454Y129926D01*
G03X315134Y129736I680J1122D01*
G01X331280D01*
X331566Y130021D01*
G02X332249Y129738I283J-283D01*
G01Y129000D01*
X308575D01*
G37*
G36*
G01X312282Y171695D02*
G03X312747Y172349I-1283J1404D01*
G01X313159D01*
G03X313909Y171954I750J515D01*
G01X314406D01*
X314454Y171926D01*
G03X315134Y171736I680J1122D01*
G01X330780D01*
X331566Y172521D01*
G02X332248Y172238I282J-283D01*
G01Y171748D01*
X338752D01*
Y176752D01*
X338052D01*
Y178152D01*
X332948D01*
Y176752D01*
X332248D01*
Y175562D01*
X330897D01*
X329694Y174358D01*
X317667D01*
G02X317268Y174781I0J400D01*
G03X317270Y174834I-909J61D01*
G01Y175198D01*
G03X316359Y176108I-910J0D01*
G01X313909D01*
G03X313745Y176094I-5J-910D01*
G02X313273Y176487I-72J393D01*
G01Y179651D01*
X312701D01*
G03X309299I-1701J-851D01*
G01X308841D01*
G03X308091Y180046I-750J-515D01*
G01X307681D01*
X307630Y180080D01*
G03X306866Y180314I-763J-1127D01*
G01X306387D01*
X304340Y182362D01*
X304000D01*
Y186100D01*
X311000D01*
Y189248D01*
X313552D01*
Y190448D01*
X314252D01*
Y194652D01*
X313712D01*
Y202348D01*
X314252D01*
Y206552D01*
X313552D01*
Y207448D01*
X314252D01*
Y207588D01*
X318178D01*
X319578Y206188D01*
X322006D01*
G03Y210112I2594J1962D01*
G01X321202D01*
X319802Y211512D01*
X314252D01*
Y211652D01*
X309748D01*
Y207448D01*
X310448D01*
Y206552D01*
X309748D01*
Y203400D01*
X304000D01*
Y213000D01*
X339172D01*
Y171000D01*
X312552D01*
G02X312282Y171695I0J400D01*
G37*
%LPC*%
G75*
G36*
G01X329524Y31294D02*
G02Y37446I-1J3076D01*
G01X334672D01*
G02Y31294I1J-3076D01*
G01X329524D01*
G37*
G36*
G01Y2554D02*
G02Y8706I-1J3076D01*
G01X334672D01*
G02Y2554I1J-3076D01*
G01X329524D01*
G37*
G36*
G01X308658Y31294D02*
G02Y37446I-1J3076D01*
G01X313806D01*
G02Y31294I1J-3076D01*
G01X308658D01*
G37*
G36*
G01Y2554D02*
G02Y8706I-1J3076D01*
G01X313806D01*
G02Y2554I1J-3076D01*
G01X308658D01*
G37*
G36*
G01X61739Y35613D02*
X61671Y35605D01*
X61605Y35538D01*
X54335D01*
X52238Y37635D01*
Y38898D01*
X49298D01*
Y42102D01*
X58102D01*
Y38898D01*
X55591D01*
G03X55450Y38557I0J-200D01*
G01X55545Y38462D01*
X59859D01*
G02X61739Y35613I1641J-962D01*
G37*
G36*
G01X303968Y15163D02*
G03X304251Y15845I0J400D01*
G01X300688Y19408D01*
Y23589D01*
X297557Y26720D01*
X296750D01*
G02X296164Y26859I2J1312D01*
G01X296121Y26880D01*
X294248D01*
Y33120D01*
X296121D01*
X296164Y33141D01*
G02X296750Y33280I588J-1173D01*
G01X302575D01*
X305712Y30143D01*
Y27786D01*
X314687D01*
Y27610D01*
X316044D01*
X316971Y26684D01*
X317033Y26673D01*
G02X317494Y23072I-333J-1873D01*
G01X317461Y23057D01*
X316243Y21838D01*
X314687D01*
Y12214D01*
X305809D01*
Y12240D01*
X303943D01*
G02X301961Y14887I-1743J760D01*
G01X302029Y14895D01*
X302296Y15163D01*
X303968D01*
G37*
G36*
G01X108980Y15306D02*
Y10494D01*
G02X105058I-1961J-2594D01*
G01Y15306D01*
G02X108980I1961J2594D01*
G37*
G36*
G01X98606Y27994D02*
G02X102794Y23806I2094J-2094D01*
G01X99980Y20992D01*
Y19244D01*
X99997Y19206D01*
G02X98980Y15306I-2978J-1306D01*
G01Y10494D01*
G02X95058I-1961J-2594D01*
G01Y15306D01*
G02X94058Y19244I1961J2594D01*
G01Y23446D01*
X98606Y27994D01*
G37*
G36*
G01X88980Y15306D02*
Y10494D01*
G02X85058I-1961J-2594D01*
G01Y15306D01*
G02X88980I1961J2594D01*
G37*
G36*
G01X80269Y8027D02*
G02X75058Y10494I-3250J-127D01*
G01Y15306D01*
G02X79663Y19793I1961J2594D01*
G03X80388Y20026I325J233D01*
G01Y24043D01*
X87547Y31202D01*
X87548Y31282D01*
G02X89482Y29348I1902J-32D01*
G01X89402Y29347D01*
X83012Y22957D01*
Y11478D01*
G02X80847Y8400I-1311J-1378D01*
G03X80269Y8027I-178J-358D01*
G37*
G36*
G01X44452Y3048D02*
X40248D01*
Y5547D01*
X40188Y5607D01*
Y9148D01*
X39898D01*
Y16452D01*
X49202D01*
Y9148D01*
X42812D01*
Y7552D01*
X44452D01*
Y6852D01*
X45348D01*
Y7552D01*
X49552D01*
Y6612D01*
X52452D01*
X68142Y22302D01*
G03X67788Y22978I-283J283D01*
G02X67482Y22948I-338J1872D01*
G01X67402Y22947D01*
X64443Y19988D01*
X49652D01*
Y19048D01*
X45448D01*
Y19748D01*
X44552D01*
Y19048D01*
X40348D01*
Y23552D01*
X41138D01*
Y25248D01*
X39898D01*
Y32552D01*
X49202D01*
Y25248D01*
X43762D01*
Y23552D01*
X44552D01*
Y22852D01*
X45448D01*
Y23552D01*
X49652D01*
Y22612D01*
X63357D01*
X65547Y24802D01*
X65548Y24882D01*
G02X69322Y24512I1902J-32D01*
G03X69998Y24158I393J-71D01*
G01X75696Y29856D01*
G03X75413Y30538I-283J282D01*
G01X72965D01*
X71965Y29538D01*
X69717D01*
G02Y32462I-1217J1462D01*
G01X70755D01*
X71755Y33462D01*
X75394D01*
X75480Y33548D01*
G03X75339Y33889I-141J141D01*
G01X72988D01*
Y35806D01*
X72635D01*
X71367Y34538D01*
X66605D01*
X64895Y32829D01*
X64887Y32761D01*
G02X62761Y34887I-1887J239D01*
G01X62829Y34895D01*
X65395Y37462D01*
X70157D01*
X71425Y38730D01*
X72988D01*
Y40646D01*
X98012D01*
Y35602D01*
X99903Y33712D01*
X100348D01*
Y34752D01*
X104552D01*
Y34052D01*
X105448D01*
Y34752D01*
X108088D01*
X108788Y35452D01*
Y35848D01*
X107748D01*
Y36488D01*
X104267D01*
G02Y39412I-1217J1462D01*
G01X107748D01*
Y40052D01*
X108448D01*
Y40948D01*
X107748D01*
Y41764D01*
X105610D01*
Y41488D01*
X98854D01*
Y66512D01*
X105610D01*
Y66486D01*
X107759D01*
G02X109306Y63151I1217J-1462D01*
G03X109093Y62474I70J-394D01*
G01X113628Y57938D01*
X124128D01*
X125478Y56589D01*
X125591Y56622D01*
G02X125440Y50426I909J-3122D01*
G01X125321Y50467D01*
X120488Y45634D01*
Y45034D01*
X118752Y43297D01*
Y40948D01*
X118052D01*
Y40052D01*
X118752D01*
Y35848D01*
X114248D01*
Y36638D01*
X112252D01*
Y35848D01*
X111212D01*
Y34448D01*
X109652Y32888D01*
Y30248D01*
X109012D01*
Y29895D01*
X110445Y28462D01*
X129395D01*
X133411Y32478D01*
X133378Y32591D01*
G02X135591Y30378I3122J909D01*
G01X135478Y30411D01*
X130605Y25538D01*
X109235D01*
X106088Y28685D01*
Y30248D01*
X105448D01*
Y30948D01*
X104552D01*
Y30248D01*
X100348D01*
Y31288D01*
X98899D01*
X96298Y33890D01*
X85236D01*
Y30282D01*
X79853Y24898D01*
X79852Y24818D01*
G02X77918Y26752I-1902J32D01*
G01X77998Y26753D01*
X82614Y31368D01*
Y33890D01*
X82088D01*
Y32538D01*
X53538Y3988D01*
X49552D01*
Y3048D01*
X45348D01*
Y3748D01*
X44452D01*
Y3048D01*
G37*
G36*
G01X221412Y43722D02*
Y41443D01*
X230852Y32003D01*
X230932Y32002D01*
G02X228998Y30068I-32J-1902D01*
G01X228997Y30148D01*
X218788Y40357D01*
Y43722D01*
G02X221412I1312J1378D01*
G37*
G36*
G01X271498Y49868D02*
X271497Y49948D01*
X270420Y51025D01*
Y51488D01*
X268354D01*
Y76512D01*
X275110D01*
Y51488D01*
X274979D01*
G03X274828Y51156I-1J-200D01*
G02X271498Y49868I-1428J-1256D01*
G37*
G36*
G01X313552Y62448D02*
Y61248D01*
X310448D01*
Y62448D01*
X309748D01*
Y66652D01*
X310288D01*
Y75348D01*
X309748D01*
Y79552D01*
X310448D01*
Y80448D01*
X309748D01*
Y84652D01*
X314252D01*
Y84512D01*
X319152D01*
X321202Y82462D01*
X322006D01*
G02Y78538I2594J-1962D01*
G01X319578D01*
X317528Y80588D01*
X314252D01*
Y80448D01*
X313552D01*
Y79552D01*
X314252D01*
Y75348D01*
X313712D01*
Y66652D01*
X314252D01*
Y62448D01*
X313552D01*
G37*
G36*
G01Y104448D02*
Y103248D01*
X310448D01*
Y104448D01*
X309748D01*
Y108652D01*
X310288D01*
Y117348D01*
X309748D01*
Y121552D01*
X310448D01*
Y122448D01*
X309748D01*
Y126652D01*
X314252D01*
Y126512D01*
X319702D01*
X321202Y125012D01*
X322006D01*
G02Y121088I2594J-1962D01*
G01X319578D01*
X318078Y122588D01*
X314252D01*
Y122448D01*
X313552D01*
Y121552D01*
X314252D01*
Y117348D01*
X313712D01*
Y108652D01*
X314252D01*
Y104448D01*
X313552D01*
G37*
G36*
G01Y147448D02*
Y146248D01*
X310448D01*
Y147448D01*
X309748D01*
Y151652D01*
X310288D01*
Y160348D01*
X309748D01*
Y164552D01*
X310448D01*
Y165448D01*
X309748D01*
Y169652D01*
X314252D01*
Y169512D01*
X319252D01*
X321202Y167562D01*
X322006D01*
G02Y163638I2594J-1962D01*
G01X319578D01*
X317628Y165588D01*
X314252D01*
Y165448D01*
X313552D01*
Y164552D01*
X314252D01*
Y160348D01*
X313712D01*
Y151652D01*
X314252D01*
Y147448D01*
X313552D01*
G37*
G54D68*
X214325Y60492D03*
G54D66*
X117019Y17900D03*
Y7900D03*
X126500Y43500D03*
X137019Y17900D03*
Y7900D03*
X127019Y17900D03*
Y7900D03*
X136500Y43500D03*
X157019Y17900D03*
Y7900D03*
X147019Y17900D03*
Y7900D03*
X177019Y17900D03*
Y7900D03*
X167019Y17900D03*
Y7900D03*
X197019Y17900D03*
Y7900D03*
X187019Y17900D03*
Y7900D03*
X217019Y17900D03*
Y7900D03*
X207019Y17900D03*
Y7900D03*
X237019D03*
X227019Y17900D03*
Y7900D03*
X257019D03*
X247019D03*
X277019Y17900D03*
Y7900D03*
X267019Y17900D03*
Y7900D03*
X297019Y17900D03*
Y7900D03*
X287019Y17900D03*
Y7900D03*
X297019Y207900D03*
Y197900D03*
X287019Y207900D03*
Y197900D03*
X324600Y60500D03*
Y103050D03*
Y145600D03*
Y188150D03*
G54D65*
X34300Y45500D03*
Y50500D03*
G54D67*
X126500Y33500D03*
G54D69*
X224364Y84901D03*
%LPD*%
G75*
G36*
G01X79190Y10321D02*
G03X78980Y10494I-2171J-2421D01*
G01Y15306D01*
G03X79663Y16007I-1961J2594D01*
G02X80388Y15774I325J-233D01*
G01Y11478D01*
G03X79847Y10529I1312J-1377D01*
G02X79190Y10321I-390J90D01*
G37*
G36*
G01X112252Y39262D02*
Y40052D01*
X111552D01*
Y40948D01*
X112252D01*
Y43297D01*
X113566Y44611D01*
G02X114248Y44328I282J-283D01*
G01Y40948D01*
X114948D01*
Y40052D01*
X114248D01*
Y39262D01*
X112252D01*
G37*
G36*
G01X105610Y44188D02*
Y60412D01*
X107021D01*
X112418Y55016D01*
X122918D01*
X123411Y54522D01*
X123378Y54409D01*
G03X123426Y52440I3122J-909D01*
G01X123467Y52321D01*
X117866Y46720D01*
Y46120D01*
X116897Y45152D01*
X113988D01*
Y47717D01*
X116069Y49797D01*
X116149Y49798D01*
G03X114215Y51732I-32J1902D01*
G01X114214Y51652D01*
X111366Y48803D01*
Y46120D01*
X110397Y45152D01*
X107748D01*
Y44262D01*
X106538D01*
X106464Y44188D01*
X105610D01*
G37*
G54D10*
X8050Y12800D03*
Y28900D03*
X44550Y12800D03*
Y28900D03*
G54D11*
X5050Y43300D03*
X10150D03*
X16650D03*
X21750D03*
X5050Y63400D03*
X10150D03*
X5050Y56700D03*
X10150D03*
X5050Y50000D03*
X10150D03*
X16650Y63400D03*
X21750D03*
X16650Y56700D03*
X21750D03*
X16650Y50000D03*
X21750D03*
X21950Y132700D03*
X16850D03*
X21950Y138700D03*
X16850D03*
X10450D03*
X5350D03*
X10450Y132700D03*
X5350D03*
X21950Y144700D03*
X16850D03*
X10450D03*
X5350D03*
X21550Y165000D03*
X16450D03*
X42350Y5300D03*
X42450Y21300D03*
X42950Y169500D03*
X47450Y5300D03*
X47550Y21300D03*
X62450Y81000D03*
X55450Y159000D03*
X60550D03*
X48050Y169500D03*
X63950Y190000D03*
X67550Y81000D03*
X69050Y190000D03*
X102450Y32500D03*
X101050Y160500D03*
X95950D03*
X101550Y169500D03*
X96450D03*
X93550Y189000D03*
X88450D03*
X99950D03*
X107550Y32500D03*
X113050Y164500D03*
X107950D03*
X105050Y189000D03*
X196550Y135500D03*
X191450D03*
X236450Y27000D03*
X241550D03*
X236450Y34000D03*
X241550D03*
X241450Y88000D03*
X248450Y27000D03*
X253550D03*
X248450Y34000D03*
X253550D03*
X257550Y88000D03*
X252450D03*
X246550D03*
X269450Y33500D03*
X274550D03*
X269550Y26900D03*
X274650D03*
X290350Y41300D03*
X285250D03*
X290350Y47600D03*
X285250D03*
G54D20*
X54700Y76240D03*
Y68760D03*
X45300D03*
Y72500D03*
Y76240D03*
G54D21*
X51100Y180000D03*
G54D30*
X103221Y153750D03*
Y146250D03*
G54D12*
X17800Y98615D03*
Y118300D03*
X17050Y184155D03*
Y203840D03*
G54D40*
X224364Y60098D03*
Y84901D03*
X214325D03*
G54D13*
X20892Y112403D03*
X16450Y169900D03*
X27000Y42000D03*
X26900Y63400D03*
X26500Y56500D03*
X27000Y50000D03*
X40500Y82500D03*
X32892Y112403D03*
X28892D03*
X24892D03*
X38500Y143500D03*
X36500Y151000D03*
X25950Y153450D03*
X32500Y157500D03*
X39500Y161600D03*
X43300Y159600D03*
X40100Y156700D03*
X31141Y144928D03*
X38500Y173000D03*
X36500Y166000D03*
X63000Y42500D03*
Y33000D03*
X61500Y37500D03*
X59500Y57500D03*
X63000Y47000D03*
X61500Y51000D03*
X56700Y64300D03*
X55300Y140950D03*
X46200Y142200D03*
X60000Y189000D03*
X81700Y10100D03*
X77950Y24850D03*
X67450D03*
X68500Y31000D03*
X74000Y56500D03*
X77000Y49500D03*
X83000Y53000D03*
X74984Y122484D03*
X71500Y126500D03*
X64750Y138250D03*
X80581Y136112D03*
X66224Y142224D03*
X82500Y157500D03*
X70500Y167500D03*
X76000Y166000D03*
X103050Y37950D03*
X100700Y25900D03*
X89450Y31250D03*
X102100Y96500D03*
X85700Y88900D03*
X89300Y87300D03*
X104000Y142500D03*
X94300Y143700D03*
X104072Y130211D03*
Y134211D03*
X90500Y146500D03*
X89000Y150500D03*
X90500Y158000D03*
X89500Y172500D03*
X90500Y184500D03*
X116117Y51700D03*
X108976Y65024D03*
X107700Y96400D03*
X108072Y130211D03*
X112072D03*
X116072D03*
X108072Y134211D03*
X112072D03*
X116072D03*
X109000Y148500D03*
X105000Y159460D03*
X119500Y169500D03*
X109600Y189000D03*
X136500Y59500D03*
X162700Y45000D03*
X149500Y71900D03*
X177150Y45550D03*
X170500Y45500D03*
X179800Y79200D03*
X180500Y75000D03*
X177500Y94500D03*
X199600Y54100D03*
X196000Y54200D03*
X186200Y61700D03*
X186800Y93300D03*
X206000Y52000D03*
X220100Y45100D03*
X217800Y74900D03*
X216900Y71400D03*
X206500Y93000D03*
X220000Y158490D03*
X230900Y30100D03*
X236000Y82000D03*
X231724Y68724D03*
X235700Y107800D03*
X236250Y159500D03*
X233700Y155600D03*
X241700Y166300D03*
X260800Y42200D03*
X256700Y42500D03*
X261000Y56000D03*
X245000Y71000D03*
X256666D03*
X252000D03*
X255948Y170263D03*
X258900Y170100D03*
X264700Y42300D03*
X269401Y42000D03*
X278700Y41300D03*
X264000Y33500D03*
Y26900D03*
X273400Y49900D03*
X280500Y46400D03*
X265000Y53000D03*
X283600Y153700D03*
X280300D03*
X277000D03*
X302200Y13000D03*
X301300Y28800D03*
X285600Y30000D03*
X299400Y59300D03*
Y51600D03*
X295400Y48300D03*
X302250Y46150D03*
X299400Y66200D03*
Y81000D03*
X283950Y77550D03*
X299400Y85300D03*
X298800Y88400D03*
X302384Y90016D03*
X298800Y108200D03*
X298500Y136300D03*
X302416Y133016D03*
X293500Y153700D03*
X290200D03*
X286900D03*
X299000Y178800D03*
X302250Y174650D03*
X303759Y199605D03*
Y195605D03*
Y191605D03*
X300845Y188636D03*
X296845D03*
X292845D03*
X288845D03*
X284845D03*
X316700Y24800D03*
X306866Y42466D03*
X311200Y48100D03*
Y51000D03*
X310900Y45300D03*
X323700Y54700D03*
X311000Y93700D03*
Y91000D03*
Y88300D03*
X306866Y85666D03*
X311100Y136400D03*
X311000Y134000D03*
Y131600D03*
X306866Y128166D03*
X311000Y178800D03*
Y176000D03*
Y173100D03*
X306866Y170266D03*
X307759Y199605D03*
Y195605D03*
Y191605D03*
X304845Y188636D03*
G54D22*
X77019Y17900D03*
Y7900D03*
Y197900D03*
Y207900D03*
X97019Y17900D03*
Y7900D03*
X87019Y17900D03*
Y7900D03*
X97019Y197900D03*
X87019D03*
X97019Y207900D03*
X87019D03*
X117019Y17900D03*
Y7900D03*
X107019Y17900D03*
Y7900D03*
X117019Y197900D03*
X107019D03*
X117019Y207900D03*
X107019D03*
X137019Y17900D03*
Y7900D03*
X127019Y17900D03*
Y7900D03*
X136500Y43500D03*
X126500D03*
X136500Y33500D03*
Y53500D03*
X126500D03*
X137019Y197900D03*
X127019D03*
X137019Y207900D03*
X127019D03*
X157019Y17900D03*
Y7900D03*
X147019Y17900D03*
Y7900D03*
X157019Y197900D03*
X147019D03*
X157019Y207900D03*
X147019D03*
X177019Y17900D03*
Y7900D03*
X167019Y17900D03*
Y7900D03*
X177019Y197900D03*
X167019D03*
X177019Y207900D03*
X167019D03*
X197019Y17900D03*
Y7900D03*
X187019Y17900D03*
Y7900D03*
X197019Y197900D03*
X187019D03*
X197019Y207900D03*
X187019D03*
X217019Y17900D03*
Y7900D03*
X207019Y17900D03*
Y7900D03*
X217019Y197900D03*
X207019D03*
X217019Y207900D03*
X207019D03*
X237019Y17900D03*
Y7900D03*
X227019Y17900D03*
Y7900D03*
X237019Y197900D03*
X227019D03*
X237019Y207900D03*
X227019D03*
X257019Y17900D03*
Y7900D03*
X247019Y17900D03*
Y7900D03*
X257019Y197900D03*
X247019D03*
X257019Y207900D03*
X247019D03*
X277019Y17900D03*
Y7900D03*
X267019Y17900D03*
Y7900D03*
X277019Y197900D03*
X267019D03*
X277019Y207900D03*
X267019D03*
X297019Y17900D03*
Y7900D03*
X287019Y17900D03*
Y7900D03*
X297019Y197900D03*
X287019D03*
X297019Y207900D03*
X287019D03*
X324600Y60500D03*
Y70500D03*
Y80500D03*
Y103050D03*
Y113050D03*
Y123050D03*
Y155600D03*
Y145600D03*
Y165600D03*
Y198150D03*
Y188150D03*
Y208150D03*
G54D31*
X95550Y179000D03*
X114450D03*
X191550Y151500D03*
X210450D03*
G54D41*
X214500Y174100D03*
G54D50*
X311000Y48000D03*
Y91000D03*
Y134000D03*
Y176000D03*
G54D23*
X80776Y37268D03*
X77626D03*
X74476D03*
Y70732D03*
X77626D03*
X80776D03*
X96524Y37268D03*
X93374D03*
X90224D03*
X87075D03*
X83925D03*
Y70732D03*
X87075D03*
X90224D03*
X93374D03*
X96524D03*
X262874Y47268D03*
X259724D03*
X256575D03*
X253425D03*
X250276D03*
X247126D03*
X243976D03*
Y80732D03*
X247126D03*
X250276D03*
X253425D03*
X256575D03*
X259724D03*
X262874D03*
X266024Y47268D03*
Y80732D03*
G54D14*
X9500Y158550D03*
Y153450D03*
X15900Y153350D03*
Y158450D03*
X22500Y153450D03*
Y158550D03*
X37500Y69950D03*
Y75050D03*
X38000Y198550D03*
Y193450D03*
X62500Y69950D03*
Y75050D03*
X53500Y144450D03*
Y149550D03*
X75800Y82850D03*
Y87950D03*
X97000Y134450D03*
Y139550D03*
X110000Y43050D03*
Y37950D03*
X116500Y43050D03*
Y37950D03*
X138000Y133050D03*
Y127950D03*
X224500Y162050D03*
Y156950D03*
X231000Y167950D03*
Y173050D03*
X224500Y167950D03*
Y173050D03*
X312000Y59450D03*
Y64550D03*
Y82550D03*
Y77450D03*
Y101450D03*
Y106550D03*
Y119450D03*
Y124550D03*
Y149550D03*
Y144450D03*
Y162450D03*
Y167550D03*
Y192550D03*
Y187450D03*
Y209550D03*
Y204450D03*
G54D32*
X126500Y33500D03*
G54D60*
G01X77019Y7900D02*
Y17900D01*
G01X87019D02*
Y7900D01*
G01X97019Y17900D02*
Y7900D01*
G01X107019Y17900D02*
Y7900D01*
G01X312000Y82550D02*
X318340D01*
X320390Y80500D01*
X324600D01*
G01X312000Y124550D02*
X318890D01*
X320390Y123050D01*
X324600D01*
G01X312000Y167550D02*
X318440D01*
X320390Y165600D01*
X324600D01*
G01X312000Y209550D02*
X318990D01*
X320390Y208150D01*
X324600D01*
G54D24*
X68768Y42976D03*
Y46126D03*
Y49276D03*
Y52425D03*
Y55575D03*
Y58724D03*
Y61874D03*
Y65024D03*
X102232Y42976D03*
Y61874D03*
Y58724D03*
Y55575D03*
Y52425D03*
Y49276D03*
Y46126D03*
Y65024D03*
X238268Y52976D03*
Y56126D03*
Y59276D03*
Y62425D03*
Y65575D03*
Y68724D03*
Y71874D03*
Y75024D03*
X271732Y62425D03*
Y59276D03*
Y56126D03*
Y52976D03*
Y75024D03*
Y71874D03*
Y68724D03*
Y65575D03*
G54D15*
X34300Y40500D03*
Y45500D03*
Y50500D03*
Y55500D03*
X53700Y40500D03*
Y55500D03*
Y50500D03*
Y45500D03*
G54D42*
X239950Y95000D03*
X246050D03*
G54D33*
X128300Y132800D03*
X127800Y166800D03*
G54D51*
X315134Y50953D03*
Y48984D03*
Y47016D03*
Y45047D03*
Y93953D03*
Y91984D03*
Y90016D03*
Y88047D03*
Y136953D03*
Y134984D03*
Y133016D03*
Y131047D03*
Y178953D03*
Y176984D03*
Y175016D03*
Y173047D03*
G54D61*
G01X97019Y17900D02*
Y22219D01*
X100700Y25900D01*
G01X235700Y107800D02*
Y122100D01*
G54D52*
X306866Y45047D03*
Y47016D03*
Y48984D03*
Y50953D03*
Y88047D03*
Y90016D03*
Y91984D03*
Y93953D03*
Y131047D03*
Y133016D03*
Y134984D03*
Y136953D03*
Y173047D03*
Y175016D03*
Y176984D03*
Y178953D03*
G54D25*
X78921Y141724D03*
X76953D03*
X74984D03*
X73016D03*
X71047D03*
X69079D03*
Y157276D03*
X71047D03*
X73016D03*
X74984D03*
X76953D03*
X78921D03*
G54D43*
X283200Y67500D03*
G54D16*
X35650Y62000D03*
X39350D03*
X210650Y52000D03*
X214350D03*
X210650Y93000D03*
X214350D03*
G54D34*
X124390Y141700D03*
X126990D03*
X129590D03*
X132190D03*
X123890Y175700D03*
X126490D03*
X129090D03*
X131690D03*
X218410Y165200D03*
X215810D03*
X213210D03*
X210610D03*
G54D62*
G01X138500Y126500D02*
X138000Y127000D01*
Y127950D01*
G01X311000Y176000D02*
Y178800D01*
G01Y176000D02*
Y173100D01*
G54D53*
G01X34300Y40500D02*
X40000D01*
X41208Y41708D01*
Y57792D01*
X40500Y58500D01*
X36940D01*
X35650Y59790D01*
Y62000D01*
G01X64750Y138250D02*
X61500Y141500D01*
Y144705D01*
X63341Y146546D01*
X66224D01*
G01X74984Y141724D02*
Y122484D01*
G01X71500Y126500D02*
Y129110D01*
X73016Y130626D01*
Y141724D01*
G01X66224Y144578D02*
Y142224D01*
G01X102232Y42976D02*
X106966D01*
X107040Y43050D01*
X110000D01*
G01X96524Y37268D02*
Y35377D01*
X99401Y32500D01*
X102450D01*
G01X110000Y37950D02*
Y34950D01*
X107550Y32500D01*
G01X135000Y129500D02*
X121000D01*
G01X191550Y138000D02*
Y151500D01*
G01X210450D02*
Y145190D01*
X208760Y143500D01*
X197000D01*
X196000Y142500D01*
Y138000D01*
G01X210650Y52000D02*
X206000D01*
G01X210650Y93000D02*
X206500D01*
G01X236450Y27000D02*
Y34000D01*
G01X231724Y68724D02*
Y35000D01*
X232724Y34000D01*
X236450D01*
G01X248450Y27000D02*
X241550D01*
G01X248450Y34000D02*
X241550D01*
G01X236000Y82000D02*
Y86000D01*
X238000Y88000D01*
X241450D01*
G01X239950Y95000D02*
Y89500D01*
X241450Y88000D01*
G01X241793Y160068D02*
X236868D01*
X236300Y159500D01*
X236250D01*
G01X253550Y27000D02*
Y27150D01*
X257000Y30600D01*
Y38000D01*
X253425Y41575D01*
Y47268D01*
G01X253550Y34000D02*
X254000Y34450D01*
Y38000D01*
X250276Y41724D01*
Y47268D01*
G01X272050Y86000D02*
X260905D01*
X259724Y84819D01*
Y80732D01*
G01X256575D02*
Y87025D01*
X257550Y88000D01*
G01X247126Y80732D02*
Y87424D01*
X246550Y88000D01*
G01X253425Y80732D02*
Y77575D01*
X256666Y74334D01*
Y71000D01*
G01X250276Y80732D02*
Y75724D01*
X252000Y74000D01*
Y71000D01*
G01X246050Y95000D02*
Y88500D01*
X246550Y88000D01*
G01X252450D02*
X246550D01*
G01X269450Y33500D02*
X264000D01*
G01X269550Y26900D02*
X264000D01*
G01X296750Y30000D02*
X300100D01*
X301300Y28800D01*
G54D35*
X147650Y151500D03*
X181350D03*
G54D17*
X42100Y99100D03*
Y112100D03*
X62300Y99100D03*
X52200D03*
X62300Y112100D03*
X52200D03*
X72400Y99100D03*
Y112100D03*
X280700Y163100D03*
Y176100D03*
X290200Y163100D03*
Y176100D03*
G54D26*
X74000Y149500D03*
G54D44*
X283950Y86000D03*
X272050D03*
G54D63*
G01X66224Y150485D02*
X58515D01*
X55490Y153510D01*
X35460D01*
X35450Y153500D01*
X31800D01*
X31000Y152700D01*
Y149500D01*
X35000Y145500D01*
Y143000D01*
X30700Y138700D01*
X21950D01*
G01X40100Y156700D02*
X42800D01*
X44275Y155225D01*
X56774D01*
X59545Y152454D01*
X66224D01*
G01X38000Y193450D02*
Y186890D01*
G01D02*
X41000Y183890D01*
X42200D01*
G01X55300Y140950D02*
Y142650D01*
X53500Y144450D01*
G01X80581Y136112D02*
X78806Y137887D01*
X77613D01*
X76953Y138547D01*
Y141724D01*
G01X103221Y153750D02*
X102971Y154000D01*
X88500D01*
X84985Y150485D01*
X81776D01*
G01X97000Y139550D02*
X96000D01*
X95500Y140050D01*
X97021D01*
X97471Y140500D01*
G01X102000Y134500D02*
X101950Y134450D01*
G01D02*
X97000D01*
G01X191550Y138000D02*
X191450Y137900D01*
Y135500D01*
G01X196000Y138000D02*
X196550Y137450D01*
Y135500D01*
G01X213210Y165200D02*
X215810D01*
G01X210610D02*
X213210D01*
G54D54*
G01X11100Y107300D02*
X8000D01*
X5000Y110300D01*
Y124900D01*
X8000Y127900D01*
X41600D01*
X46200Y132500D01*
Y142200D01*
G01X5350Y144700D02*
Y172455D01*
X17050Y184155D01*
G01X38500Y211050D02*
X24260D01*
X17050Y203840D01*
G01X40500Y82500D02*
Y78050D01*
X38690Y76240D01*
G01X62350Y69950D02*
X56700Y64300D01*
G01X62500Y69950D02*
X62350D01*
G01X63950Y182890D02*
X66840Y180000D01*
G01X60000Y189000D02*
Y192500D01*
X62000Y194500D01*
X67460D01*
X69050Y192910D01*
Y190000D01*
G01X63950D02*
Y182890D01*
G01X66840Y180000D02*
X72400D01*
G01X88450Y189000D02*
X84430D01*
X81300Y185870D01*
G01D02*
Y183910D01*
G01Y185870D02*
X77170Y190000D01*
X69050D01*
G01X95550Y179000D02*
Y184600D01*
X97273Y186323D01*
X97423D01*
X99950Y188850D01*
Y189000D01*
G01X90500Y184500D02*
X91000D01*
X93550Y187050D01*
Y189000D01*
G01X105050D02*
X109600D01*
G01X136500Y53500D02*
Y59500D01*
G01X240100Y170000D02*
X230260Y160160D01*
Y107198D01*
X229259Y106197D01*
X184697D01*
X180900Y102400D01*
Y84700D01*
X178900Y82700D01*
X155100D01*
X149500Y77100D01*
Y71900D01*
G01X224500Y156950D02*
X221540D01*
X220000Y158490D01*
G01X214500Y174100D02*
X220310D01*
G01D02*
X221360Y173050D01*
X224500D01*
G01Y167950D02*
X221160D01*
X221125Y167985D01*
X219995D01*
X218410Y166400D01*
Y165200D01*
G01X224500Y162050D02*
Y167950D01*
G01X231000Y173050D02*
X224500D01*
G01Y167950D02*
X231000D01*
G01X283950Y86000D02*
Y77550D01*
G01X312000Y77450D02*
Y64550D01*
G01Y119450D02*
Y106550D01*
G01Y162450D02*
Y149550D01*
G01Y192550D02*
Y204450D01*
G54D27*
X81776Y154422D03*
Y152454D03*
Y150485D03*
Y148515D03*
Y146546D03*
Y144578D03*
X66224D03*
Y146546D03*
Y148515D03*
Y150485D03*
Y152454D03*
Y154422D03*
G54D18*
X42200Y176090D03*
Y178690D03*
Y181290D03*
Y183890D03*
X81300Y181310D03*
Y178710D03*
Y176110D03*
Y183910D03*
G54D45*
X291250Y28032D03*
Y30000D03*
Y31968D03*
X296750D03*
Y30000D03*
Y28032D03*
G54D36*
X162800Y70100D03*
X174800D03*
X240900Y141400D03*
X252900D03*
G54D64*
G01X5350Y132700D02*
Y138700D01*
G01D02*
Y144700D01*
G01X22500Y153450D02*
X25950D01*
G01X69079Y157276D02*
Y162100D01*
X66979Y164200D01*
X38321D01*
X37561Y163440D01*
X35439D01*
X34679Y164200D01*
X31100D01*
X29000Y162100D01*
Y151621D01*
X27940Y150561D01*
Y150439D01*
X26501Y149000D01*
X17490D01*
X15900Y150590D01*
Y153350D01*
G01X57555Y148445D02*
X58500Y147500D01*
Y140101D01*
X56699Y138300D01*
X53801D01*
X50590Y141511D01*
Y143310D01*
X46900Y147000D01*
X40500D01*
X36500Y151000D01*
G01X42200Y176090D02*
Y173160D01*
X42950Y172410D01*
Y169500D01*
G01X38500Y173000D02*
Y170440D01*
X39440Y169500D01*
X42950D01*
G01X36500Y166000D02*
X67999D01*
X71047Y162952D01*
Y157276D01*
G01X48050Y169500D02*
Y176950D01*
G01D02*
X51100Y180000D01*
G01X78921Y141724D02*
X80632D01*
X81856Y140500D01*
X97471D01*
G01X76953Y141724D02*
Y146547D01*
X74000Y149500D01*
G01X81776Y146546D02*
X87894D01*
X87940Y146500D01*
X90500D01*
G01X94300Y143700D02*
X91740D01*
X91040Y143000D01*
X86187D01*
X84609Y144578D01*
X81776D01*
G01X89000Y150500D02*
X87005Y148505D01*
X86515Y148506D01*
X86506Y148515D01*
X81776D01*
G01X97471Y140500D02*
X99800Y142829D01*
Y144329D01*
X101721Y146250D01*
X103221D01*
G01X95550Y179000D02*
X91000D01*
G01X104000Y142500D02*
X121630D01*
X122430Y141700D01*
X124390D01*
G01X119500Y169500D02*
Y172497D01*
X119996Y172993D01*
Y174696D01*
X121000Y175700D01*
X123890D01*
G01X311000Y48000D02*
X311100Y48100D01*
X311200D01*
G01X311000Y48000D02*
Y45400D01*
X310900Y45300D01*
G01X311200Y48100D02*
X311000Y48300D01*
Y49200D01*
X310900Y49300D01*
Y50700D01*
X311200Y51000D01*
G01X311000Y91000D02*
Y88300D01*
G01Y91000D02*
Y93700D01*
G01Y131600D02*
Y134000D01*
G54D55*
G01X235700Y122100D02*
X234000Y123800D01*
Y151690D01*
X233700Y151990D01*
Y155600D01*
G54D37*
X170000Y53300D03*
X247600Y158100D03*
G54D19*
X38500Y211050D03*
Y204950D03*
X63000Y170450D03*
Y176550D03*
X335500Y52650D03*
Y46550D03*
Y95250D03*
Y89150D03*
Y137850D03*
Y131750D03*
Y180350D03*
Y174250D03*
G54D46*
X290450Y53300D03*
X294550D03*
G54D28*
X72400Y180000D03*
G54D56*
G01X8050Y12800D02*
Y28900D01*
G01D02*
Y37240D01*
X5050Y40240D01*
Y43300D01*
G01X42350Y5300D02*
X41500Y6150D01*
Y10800D01*
X43500Y12800D01*
X44550D01*
G01X42450Y21300D02*
Y26800D01*
X44550Y28900D01*
G01X45300Y72500D02*
X44700Y71900D01*
X41600D01*
X39650Y69950D01*
X37500D01*
G01X39500Y161600D02*
X35400Y157500D01*
X32500D01*
G01X67450Y24850D02*
X63900Y21300D01*
X47550D01*
G01X47450Y5300D02*
X52995D01*
X80776Y33081D01*
Y37268D01*
G01X75800Y87950D02*
X66340D01*
X62450Y84060D01*
Y81000D01*
G01X66224Y148515D02*
X66154Y148445D01*
X57555D01*
G01X53500Y149550D02*
X56450D01*
X57555Y148445D01*
G01X60550Y159000D02*
X63507D01*
X66224Y156283D01*
Y154422D01*
G01X63000Y170450D02*
X71550D01*
X76000Y166000D01*
G01X89450Y31250D02*
X81700Y23500D01*
Y10100D01*
G01X77950Y24850D02*
X83925Y30825D01*
Y37268D01*
G01X77626Y70732D02*
Y78114D01*
X75800Y79940D01*
Y82850D01*
G01X85700Y88900D02*
X80776Y83976D01*
Y70732D01*
G01X71047Y141724D02*
Y137547D01*
X68500Y135000D01*
Y121958D01*
X71535Y118923D01*
X76423D01*
X84000Y126500D01*
X138500D01*
G01X69079Y141724D02*
Y138579D01*
X66097Y135597D01*
Y120403D01*
X69792Y116708D01*
X78708D01*
X86000Y124000D01*
X193500D01*
X196000Y126500D01*
Y138000D01*
G01X80581Y136112D02*
X83291D01*
X83679Y136500D01*
X91890D01*
X93940Y134450D01*
X97000D01*
G01X70500Y167500D02*
X71500D01*
X73016Y165984D01*
Y157276D01*
G01X95950Y160500D02*
X93040D01*
X92040Y161500D01*
X86500D01*
X82500Y157500D01*
G01D02*
Y155146D01*
X81776Y154422D01*
G01X78921Y157276D02*
Y158398D01*
X85023Y164500D01*
X99460D01*
X101550Y166590D01*
Y169500D01*
G01X90500Y158000D02*
X88583Y156083D01*
X88084D01*
X84455Y152454D01*
X81776D01*
G01X96450Y169500D02*
X86344D01*
X76953Y160109D01*
Y157276D01*
G01X89500Y172500D02*
X86500D01*
X74984Y160984D01*
Y157276D01*
G01X306866Y48984D02*
X301084D01*
X297200Y45100D01*
Y37600D01*
X296500Y36900D01*
X278400D01*
X276300Y39000D01*
X263200D01*
X260400Y36200D01*
Y29100D01*
X259500Y28200D01*
Y24400D01*
X257500Y22400D01*
X231300D01*
X227200Y26500D01*
X146000D01*
X143600Y28900D01*
Y61500D01*
X142400Y62700D01*
X120100D01*
X112068Y70732D01*
X96524D01*
G01X89300Y87300D02*
X86951Y84951D01*
X86885Y84871D01*
X86847Y84810D01*
X86502Y84293D01*
X86486Y84277D01*
X86285Y83976D01*
X85300Y82899D01*
Y82400D01*
X83925Y81025D01*
Y70732D01*
G01X101050Y160500D02*
X103960D01*
X105000Y159460D01*
G01X101550Y169500D02*
X111116D01*
X114450Y172834D01*
Y179000D01*
G01X95550D02*
Y170400D01*
X96450Y169500D01*
G01X110000Y43050D02*
X110150D01*
X112677Y45577D01*
Y48260D01*
X116117Y51700D01*
G01X116500Y43050D02*
X116650D01*
X119177Y45577D01*
Y46177D01*
X126500Y53500D01*
G01X110000Y37950D02*
X116500D01*
G01X107950Y164500D02*
Y156979D01*
X104721Y153750D01*
X103221D01*
G01X109000Y148500D02*
X113050Y152550D01*
G01D02*
Y164500D01*
G01X162700Y45000D02*
Y47870D01*
X164193Y49363D01*
G01X177150Y45550D02*
Y48020D01*
X175807Y49363D01*
G01X164193Y53300D02*
Y55268D01*
G01X175807Y51332D02*
X171968D01*
X170500Y52800D01*
G01X164193Y51332D02*
Y49363D01*
G01D02*
X166063D01*
X170000Y53300D01*
G01X170500Y45500D02*
Y52800D01*
G01D02*
X170000Y53300D01*
G01X175807D02*
Y55268D01*
G01X186200Y61700D02*
X180300D01*
X179200Y60600D01*
Y55800D01*
G01D02*
X178000Y54600D01*
X176475D01*
X175807Y55268D01*
G01X179800Y79200D02*
X184200Y83600D01*
X187800D01*
X196500Y74900D01*
X217800D01*
G01X216900Y71400D02*
X214900Y69400D01*
X199100D01*
X187800Y80700D01*
X186200D01*
X180500Y75000D01*
G01X306866Y91984D02*
X304249D01*
X303507Y92726D01*
X300273D01*
X298600Y94400D01*
Y102300D01*
X297400Y103500D01*
X195800D01*
X194600Y102300D01*
Y101100D01*
X186800Y93300D01*
G01X220100Y45100D02*
Y40900D01*
X230900Y30100D01*
G01X224364Y60098D02*
Y58523D01*
X217841Y52000D01*
X214350D01*
G01X224364Y60098D02*
X223028D01*
X220126Y63000D01*
Y70674D01*
X221326Y71874D01*
X238268D01*
G01Y75024D02*
X222627D01*
X214325Y83326D01*
Y84901D01*
G01X214350Y93000D02*
X217500D01*
X219000Y91500D01*
Y87000D01*
X216901Y84901D01*
X214325D01*
G01X261000Y56000D02*
X244000D01*
X240976Y52976D01*
X238268D01*
G01Y68724D02*
X231724D01*
G01X225800Y96700D02*
X230400Y101300D01*
X254600D01*
X257550Y98350D01*
Y88000D01*
G01X241793Y154163D02*
Y150703D01*
X240900Y149810D01*
Y141400D01*
G01X241793Y162037D02*
X241700Y162130D01*
Y166300D01*
G01X241793Y160068D02*
X245632D01*
X247600Y158100D01*
G01X241793D02*
X238810D01*
X237410Y156700D01*
Y156600D01*
X236410Y155600D01*
X233700D01*
G01X241793Y156132D02*
Y158100D01*
G01X259724Y47268D02*
Y43276D01*
X260800Y42200D01*
G01X256700Y42500D02*
Y43100D01*
X256575Y43225D01*
Y47268D01*
G01X262874D02*
Y44126D01*
X264700Y42300D01*
G01X265000Y53000D02*
X245521D01*
X243976Y51455D01*
Y47268D01*
G01Y80732D02*
X247126D01*
G01X253407Y154163D02*
Y150317D01*
X252900Y149810D01*
Y141400D01*
G01X258900Y170100D02*
Y167390D01*
X259200Y167090D01*
Y166990D01*
X259900Y166290D01*
Y159642D01*
X259901Y158901D01*
X257190Y156190D01*
X256448D01*
X256390Y156132D01*
X253407D01*
G01Y158100D02*
X256398D01*
X257695Y159397D01*
Y165806D01*
X255948Y167553D01*
Y170263D01*
G01X253407Y160068D02*
X249568D01*
G01D02*
X247600Y158100D01*
G01X253407Y162037D02*
X251537D01*
X249568Y160068D01*
G01X266024Y47268D02*
Y45377D01*
X269401Y42000D01*
G01X278700Y41300D02*
X285250D01*
G01X278700D02*
X276783Y43217D01*
Y46516D01*
X278600Y48333D01*
Y53599D01*
X278602Y53601D01*
Y53899D01*
X283200Y58497D01*
Y67500D01*
G01X274650Y26900D02*
X286808D01*
X287940Y28032D01*
X291250D01*
G01X274550Y33500D02*
X286408D01*
X287940Y31968D01*
X291250D01*
G01X271732Y52976D02*
Y51568D01*
X273400Y49900D01*
G01X280500Y46400D02*
X281700Y47600D01*
X285250D01*
G01X310248Y16850D02*
X305101D01*
X302000Y19951D01*
Y24132D01*
X298100Y28032D01*
X296750D01*
G01X285600Y30000D02*
X291250D01*
G01X310248Y20000D02*
X305400D01*
X304400Y21000D01*
Y29600D01*
X302032Y31968D01*
X296750D01*
G01X291700Y67500D02*
Y60400D01*
X285250Y53950D01*
Y47600D01*
G01X323700Y54700D02*
X299422Y54653D01*
X296767Y57298D01*
X292600D01*
X292598Y57296D01*
X292036D01*
X290450Y55710D01*
Y53300D01*
G01X290350Y47600D02*
Y50790D01*
X290450Y50890D01*
Y53300D01*
G01X294550D02*
Y49150D01*
X295400Y48300D01*
G01X302250Y46150D02*
X303116Y47016D01*
X306866D01*
G01Y90016D02*
X302384D01*
G01X298500Y136300D02*
X301210D01*
X301784Y135726D01*
X303539D01*
X304282Y134984D01*
X306866D01*
G01Y133016D02*
X302416D01*
G01X299000Y178800D02*
X302106D01*
X303922Y176984D01*
X306866D01*
G01X302250Y174650D02*
X302552Y174952D01*
X304507D01*
X304831Y175016D01*
X306866D01*
G01X310248Y23150D02*
Y26299D01*
G01X316700Y24800D02*
Y24150D01*
X315700Y23150D01*
X310248D01*
G01Y26299D02*
X315501D01*
X316700Y25100D01*
Y24800D01*
G01X306866Y45047D02*
Y42466D01*
G01X315134Y45047D02*
X329937D01*
X331440Y46550D01*
X335500D01*
G01X306866Y88047D02*
Y85666D01*
G01X315134Y88047D02*
X330337D01*
X331440Y89150D01*
X335500D01*
G01X306866Y131047D02*
Y128166D01*
G01X315134Y131047D02*
X330737D01*
X331440Y131750D01*
X335500D01*
G01X306866Y173047D02*
Y170266D01*
G01X315134Y173047D02*
X330237D01*
X331440Y174250D01*
X335500D01*
G54D29*
X96164Y150000D03*
G54D38*
X175807Y57237D03*
Y55268D03*
Y53300D03*
Y51332D03*
Y49363D03*
X164193D03*
Y51332D03*
Y53300D03*
Y55268D03*
Y57237D03*
X241793Y154163D03*
Y156132D03*
Y158100D03*
Y160068D03*
Y162037D03*
X253407D03*
Y160068D03*
Y158100D03*
Y156132D03*
Y154163D03*
G54D47*
X291700Y67500D03*
G54D57*
G01X164193Y57237D02*
Y60297D01*
X162800Y61690D01*
Y70100D01*
G01X149500Y71900D02*
X158000Y63400D01*
Y58478D01*
X161210Y55268D01*
X164193D01*
G01X175807Y57237D02*
Y60683D01*
X174800Y61690D01*
Y70100D01*
G01X306866Y50953D02*
X303847D01*
X302400Y52400D01*
X300200D01*
X299400Y51600D01*
G01Y59300D02*
Y66200D01*
G01Y81000D02*
Y85300D01*
G01Y66200D02*
Y81000D01*
G01X306866Y93953D02*
X305319Y95500D01*
X302500D01*
X301200Y96800D01*
Y103040D01*
X298800Y105440D01*
Y108200D01*
G01X299400Y85300D02*
Y87800D01*
X298800Y88400D01*
G01X299220Y140420D02*
X296020D01*
X295100Y139500D01*
Y134200D01*
X298800Y130500D01*
Y108200D01*
G01X299220Y140420D02*
X299780D01*
X301100Y139100D01*
X303676D01*
X305823Y136953D01*
X306866D01*
G01X295900Y176500D02*
X300700Y171700D01*
Y141900D01*
X299220Y140420D01*
G01X306866Y178953D02*
X305823D01*
X303776Y181000D01*
X303300D01*
X300500Y183800D01*
G01D02*
X297800D01*
X295900Y181900D01*
Y176500D01*
G54D39*
X214325Y60492D03*
G54D48*
X311232Y5630D03*
Y34370D03*
X332098Y5630D03*
Y34370D03*
G54D58*
G01X138500Y126500D02*
X190550D01*
X191550Y127500D01*
Y138000D01*
G54D49*
X310248Y23150D03*
Y20000D03*
Y16850D03*
Y13701D03*
Y26299D03*
G54D59*
G01X5050Y43300D02*
Y50000D01*
G01X10150Y43300D02*
X16650D01*
G01X27000Y42000D02*
X23050D01*
X21750Y43300D01*
G01X16650Y50000D02*
X10150D01*
G01Y56700D02*
X16650D01*
G01X5050Y63400D02*
Y56700D01*
G01D02*
Y50000D01*
G01X26500Y56500D02*
X21950D01*
X21750Y56700D01*
G01Y50000D02*
X27000D01*
G01X10150Y63400D02*
X16650D01*
G01X5050D02*
Y66460D01*
X5990Y67400D01*
X29900D01*
X31500Y65800D01*
Y63700D01*
X33200Y62000D01*
X35650D01*
G01X21750Y63400D02*
X26900D01*
G01X10450Y138700D02*
X16850D01*
G01Y132700D02*
X10450D01*
G01X38500Y143500D02*
X27700Y132700D01*
X21950D01*
G01X9500Y153450D02*
X12890D01*
X12990Y153350D01*
X15900D01*
G01X22500Y158550D02*
X18910D01*
X18810Y158450D01*
X15900D01*
G01X21550Y165000D02*
Y159500D01*
X22500Y158550D01*
G01X16450Y165000D02*
Y164850D01*
X14029Y162429D01*
X13529D01*
X9650Y158550D01*
X9500D01*
G01X10450Y144700D02*
X16850D01*
G01X21950D02*
X28353D01*
X28581Y144928D01*
X31141D01*
G01X16450Y165000D02*
Y169900D01*
G01X35650Y62000D02*
Y65040D01*
X37500Y66890D01*
Y69950D01*
G01X39350Y62000D02*
X49510D01*
X53700Y57810D01*
Y55500D01*
G01X45300Y76240D02*
X38690D01*
G01D02*
X37500Y75050D01*
G01X55450Y159000D02*
X43900D01*
X43300Y159600D01*
G01X42200Y181290D02*
Y183890D01*
G01Y178690D02*
Y181290D01*
G01X38000Y198550D02*
Y204450D01*
X38500Y204950D01*
G01X68768Y42976D02*
X63476D01*
X63000Y42500D01*
G01Y33000D02*
X66000Y36000D01*
X70762D01*
X72030Y37268D01*
X74476D01*
G01X61500Y37500D02*
X61000Y37000D01*
X54940D01*
X53700Y38240D01*
Y40500D01*
G01Y55500D02*
X57500D01*
X59500Y57500D01*
G01X63000Y47000D02*
X64360D01*
X65234Y46126D01*
X68768D01*
G01X53700Y45500D02*
X59000D01*
X59689Y46189D01*
Y49189D01*
X61500Y51000D01*
G01X62500Y69950D02*
Y63805D01*
X64431Y61874D01*
X68768D01*
G01X45300Y72500D02*
X56740D01*
X59290Y69950D01*
X62350D01*
G01X62500Y75050D02*
Y80950D01*
X62450Y81000D01*
G01X54700Y76240D02*
X61310D01*
X62500Y75050D01*
G01X68768Y65024D02*
Y71992D01*
X65710Y75050D01*
X62500D01*
G01X55850Y158800D02*
X55650Y159000D01*
X55450D01*
G01X68500Y31000D02*
X71360D01*
X72360Y32000D01*
X75999D01*
X77626Y33627D01*
Y37268D01*
G01X74000Y56500D02*
Y63524D01*
X72500Y65024D01*
X68768D01*
G01X74476Y70732D02*
Y66695D01*
X74574Y66597D01*
Y66425D01*
X77000Y64000D01*
Y49500D01*
G01X77626Y70732D02*
Y66695D01*
X85000Y59321D01*
Y55000D01*
X83000Y53000D01*
G01X67550Y81000D02*
X71000D01*
X74476Y77524D01*
Y70732D01*
G01X110000Y37950D02*
X103050D01*
G01X126500Y53500D02*
X123523Y56477D01*
X113023D01*
X107626Y61874D01*
X102232D01*
G01Y65024D02*
X108976D01*
G01X102100Y96500D02*
X100077Y94477D01*
Y93677D01*
X87758Y81358D01*
Y75752D01*
X87075Y75069D01*
Y70732D01*
G01X177500Y94500D02*
Y91790D01*
X173210Y87500D01*
X151800D01*
X146800Y82500D01*
X99500D01*
X93374Y76374D01*
Y70732D01*
G01X107700Y96400D02*
X93000Y81700D01*
X91800D01*
X90224Y80124D01*
Y70732D01*
G01X136500Y33500D02*
X130000Y27000D01*
X109840D01*
X107550Y29290D01*
Y32500D01*
G01X225800Y96700D02*
X211890D01*
X210650Y95460D01*
Y93000D01*
G01X236000Y82000D02*
X232000Y86000D01*
Y90500D01*
X225800Y96700D01*
G01X245000Y71000D02*
Y67970D01*
X242605Y65575D01*
X238268D01*
G01X243976Y80732D02*
Y74884D01*
X245000Y73860D01*
Y71000D01*
G01X310248Y13701D02*
X302901D01*
X302200Y13000D01*
M02*
