G04 ================== begin FILE IDENTIFICATION RECORD ==================*
G04 Layout Name:  C:/Users/dmigh/OneDrive/Documents/GitHub/OnyxPSU/allegro/ONYXPSU.brd*
G04 Film Name:    TOP_SILKSCREEN*
G04 File Format:  Gerber RS274X*
G04 File Origin:  Cadence Allegro 16.6-P004*
G04 Origin Date:  Mon Feb 13 13:33:03 2017*
G04 *
G04 Layer:  REF DES/SILKSCREEN_TOP*
G04 Layer:  PACKAGE GEOMETRY/SILKSCREEN_TOP*
G04 Layer:  BOARD GEOMETRY/OUTLINE*
G04 Layer:  BOARD GEOMETRY/SILKSCREEN_TOP*
G04 *
G04 Offset:    (0.00 0.00)*
G04 Mirror:    No*
G04 Mode:      Positive*
G04 Rotation:  0*
G04 FullContactRelief:  No*
G04 UndefLineWidth:     10.00*
G04 ================== end FILE IDENTIFICATION RECORD ====================*
%FSLAX25Y25*MOIN*%
%IR0*IPPOS*OFA0.00000B0.00000*MIA0B0*SFA1.00000B1.00000*%
%ADD10C,.02*%
%ADD11C,.004*%
%ADD12C,.01*%
%ADD13C,.006*%
G75*
%LPD*%
G75*
G36*
G01X63550Y149270D02*
X62550D01*
Y147770D01*
X63550D01*
Y149270D01*
G37*
G36*
G01X45800Y183900D02*
G03I-500J0D01*
G37*
G36*
G01X63890Y54820D02*
Y56320D01*
X64890D01*
Y54820D01*
X63890D01*
G37*
G36*
G01X78700Y176100D02*
G03I-500J0D01*
G37*
G36*
G01X90970Y33390D02*
Y32390D01*
X89470D01*
Y33390D01*
X90970D01*
G37*
G36*
G01X94120Y74610D02*
Y75610D01*
X92620D01*
Y74610D01*
X94120D01*
G37*
G36*
G01X84450Y147300D02*
X85450D01*
Y145800D01*
X84450D01*
Y147300D01*
G37*
G36*
G01X132700Y138600D02*
G03I-500J0D01*
G37*
G36*
G01X132200Y172600D02*
G03I-500J0D01*
G37*
G36*
G01X180200Y57990D02*
Y56490D01*
X179200D01*
Y57990D01*
X180200D01*
G37*
G36*
G01X211100Y168300D02*
G03I-500J0D01*
G37*
G36*
G01X237400Y153410D02*
Y154910D01*
X238400D01*
Y153410D01*
X237400D01*
G37*
G36*
G01X246380Y43390D02*
Y42390D01*
X247880D01*
Y43390D01*
X246380D01*
G37*
G36*
G01X249530Y84610D02*
Y85610D01*
X251030D01*
Y84610D01*
X249530D01*
G37*
G36*
G01X276610Y63180D02*
Y61680D01*
X275610D01*
Y63180D01*
X276610D01*
G37*
G36*
G01X320878Y14882D02*
Y25118D01*
X317335D01*
Y14882D01*
X320878D01*
G37*
G36*
G01X317335Y12717D02*
Y27283D01*
X314283D01*
Y12717D01*
X317335D01*
G37*
G36*
G01X326882Y4843D02*
Y35157D01*
X320878D01*
Y4843D01*
X326882D01*
G37*
G36*
G01X320878Y12717D02*
Y27283D01*
X314283D01*
Y12717D01*
X320878D01*
G37*
G36*
G01X327669Y4843D02*
Y35157D01*
X320878D01*
Y4843D01*
X327669D01*
G37*
G36*
G01X337315Y8287D02*
Y31713D01*
X326882D01*
Y8287D01*
X337315D01*
G37*
G36*
G01X344303Y4843D02*
Y35157D01*
X337315D01*
Y4843D01*
X344303D01*
G37*
G36*
G01D02*
Y35157D01*
X336527D01*
Y4843D01*
X344303D01*
G37*
G36*
G01X336527Y8484D02*
Y31516D01*
X327669D01*
Y8484D01*
X336527D01*
G37*
G54D10*
G01X11800Y118300D02*
G03I-1500J0D01*
G01X11050Y203840D02*
G03I-1500J0D01*
G01X71319Y7900D02*
G03I-1500J0D01*
G01Y197900D02*
G03I-1500J0D01*
G01X119300Y33500D02*
G03I-1000J0D01*
G01X326200Y87100D02*
G03I-1500J0D01*
G01Y129650D02*
G03I-1500J0D01*
G01Y172200D02*
G03I-1500J0D01*
G01Y214750D02*
G03I-1500J0D01*
G54D11*
G01X3020Y39533D02*
X3580Y40933D01*
G01X3020D02*
X3580Y39533D01*
G01X4433Y40933D02*
Y39533D01*
X4967D01*
G01X5700Y39066D02*
X6500D01*
G01X7233Y40933D02*
Y39533D01*
X7767D01*
G01X9167D02*
X8633D01*
Y40933D01*
X9167D01*
G01X8953Y40256D02*
X8633D01*
G01X10007Y39533D02*
Y40933D01*
X10273D01*
X10380Y40863D01*
X10460Y40770D01*
X10527Y40630D01*
X10580Y40466D01*
X10593Y40233D01*
X10580Y40000D01*
X10527Y39836D01*
X10460Y39696D01*
X10380Y39603D01*
X10273Y39533D01*
X10007D01*
G01X11860D02*
Y40933D01*
X11367Y39930D01*
X12033D01*
G01X16420Y39033D02*
X16980Y40433D01*
G01X16420D02*
X16980Y39033D01*
G01X17833Y40433D02*
Y39033D01*
X18367D01*
G01X19100Y38566D02*
X19900D01*
G01X20633Y39033D02*
Y40433D01*
X20967D01*
X21073Y40363D01*
X21140Y40270D01*
X21167Y40083D01*
X21140Y39896D01*
X21060Y39780D01*
X20967Y39710D01*
X20633D01*
G01X20967D02*
X21167Y39033D01*
G01X22460D02*
Y40433D01*
X21967Y39430D01*
X22633D01*
G01X3020Y59533D02*
X3580Y60933D01*
G01X3020D02*
X3580Y59533D01*
G01X4433Y60933D02*
Y59533D01*
X4967D01*
G01X5700Y59066D02*
X6500D01*
G01X7233Y60933D02*
Y59533D01*
X7767D01*
G01X9167D02*
X8633D01*
Y60933D01*
X9167D01*
G01X8953Y60256D02*
X8633D01*
G01X10007Y59533D02*
Y60933D01*
X10273D01*
X10380Y60863D01*
X10460Y60770D01*
X10527Y60630D01*
X10580Y60466D01*
X10593Y60233D01*
X10580Y60000D01*
X10527Y59836D01*
X10460Y59696D01*
X10380Y59603D01*
X10273Y59533D01*
X10007D01*
G01X11700D02*
Y60933D01*
X11540Y60653D01*
G01Y59533D02*
X11860D01*
G01X3020Y53033D02*
X3580Y54433D01*
G01X3020D02*
X3580Y53033D01*
G01X4433Y54433D02*
Y53033D01*
X4967D01*
G01X5700Y52566D02*
X6500D01*
G01X7233Y54433D02*
Y53033D01*
X7767D01*
G01X9167D02*
X8633D01*
Y54433D01*
X9167D01*
G01X8953Y53756D02*
X8633D01*
G01X10007Y53033D02*
Y54433D01*
X10273D01*
X10380Y54363D01*
X10460Y54270D01*
X10527Y54130D01*
X10580Y53966D01*
X10593Y53733D01*
X10580Y53500D01*
X10527Y53336D01*
X10460Y53196D01*
X10380Y53103D01*
X10273Y53033D01*
X10007D01*
G01X11447Y54200D02*
X11527Y54340D01*
X11620Y54410D01*
X11727Y54433D01*
X11860Y54386D01*
X11953Y54270D01*
X11980Y54130D01*
X11967Y53990D01*
X11913Y53873D01*
X11647Y53640D01*
X11527Y53476D01*
X11447Y53243D01*
X11420Y53033D01*
X11980D01*
G01X3020Y46033D02*
X3580Y47433D01*
G01X3020D02*
X3580Y46033D01*
G01X4433Y47433D02*
Y46033D01*
X4967D01*
G01X5700Y45566D02*
X6500D01*
G01X7233Y47433D02*
Y46033D01*
X7767D01*
G01X9167D02*
X8633D01*
Y47433D01*
X9167D01*
G01X8953Y46756D02*
X8633D01*
G01X10007Y46033D02*
Y47433D01*
X10273D01*
X10380Y47363D01*
X10460Y47270D01*
X10527Y47130D01*
X10580Y46966D01*
X10593Y46733D01*
X10580Y46500D01*
X10527Y46336D01*
X10460Y46196D01*
X10380Y46103D01*
X10273Y46033D01*
X10007D01*
G01X11407Y46313D02*
X11487Y46150D01*
X11593Y46056D01*
X11713Y46033D01*
X11820Y46056D01*
X11927Y46173D01*
X11993Y46313D01*
X12007Y46453D01*
X11980Y46616D01*
X11887Y46733D01*
X11793Y46780D01*
X11673D01*
G01X11793D02*
X11873Y46850D01*
X11940Y46966D01*
X11967Y47106D01*
X11940Y47246D01*
X11873Y47363D01*
X11753Y47433D01*
X11633Y47410D01*
X11513Y47316D01*
G01X16420Y59533D02*
X16980Y60933D01*
G01X16420D02*
X16980Y59533D01*
G01X17833Y60933D02*
Y59533D01*
X18367D01*
G01X19100Y59066D02*
X19900D01*
G01X20633Y59533D02*
Y60933D01*
X20967D01*
X21073Y60863D01*
X21140Y60770D01*
X21167Y60583D01*
X21140Y60396D01*
X21060Y60280D01*
X20967Y60210D01*
X20633D01*
G01X20967D02*
X21167Y59533D01*
G01X22300D02*
Y60933D01*
X22140Y60653D01*
G01Y59533D02*
X22460D01*
G01X16420Y52533D02*
X16980Y53933D01*
G01X16420D02*
X16980Y52533D01*
G01X17833Y53933D02*
Y52533D01*
X18367D01*
G01X19100Y52066D02*
X19900D01*
G01X20633Y52533D02*
Y53933D01*
X20967D01*
X21073Y53863D01*
X21140Y53770D01*
X21167Y53583D01*
X21140Y53396D01*
X21060Y53280D01*
X20967Y53210D01*
X20633D01*
G01X20967D02*
X21167Y52533D01*
G01X22047Y53700D02*
X22127Y53840D01*
X22220Y53910D01*
X22327Y53933D01*
X22460Y53886D01*
X22553Y53770D01*
X22580Y53630D01*
X22567Y53490D01*
X22513Y53373D01*
X22247Y53140D01*
X22127Y52976D01*
X22047Y52743D01*
X22020Y52533D01*
X22580D01*
G01X16420Y46033D02*
X16980Y47433D01*
G01X16420D02*
X16980Y46033D01*
G01X17833Y47433D02*
Y46033D01*
X18367D01*
G01X19100Y45566D02*
X19900D01*
G01X20633Y46033D02*
Y47433D01*
X20967D01*
X21073Y47363D01*
X21140Y47270D01*
X21167Y47083D01*
X21140Y46896D01*
X21060Y46780D01*
X20967Y46710D01*
X20633D01*
G01X20967D02*
X21167Y46033D01*
G01X22007Y46313D02*
X22087Y46150D01*
X22193Y46056D01*
X22313Y46033D01*
X22420Y46056D01*
X22527Y46173D01*
X22593Y46313D01*
X22607Y46453D01*
X22580Y46616D01*
X22487Y46733D01*
X22393Y46780D01*
X22273D01*
G01X22393D02*
X22473Y46850D01*
X22540Y46966D01*
X22567Y47106D01*
X22540Y47246D01*
X22473Y47363D01*
X22353Y47433D01*
X22233Y47410D01*
X22113Y47316D01*
G01X18433Y128233D02*
Y129633D01*
X18753D01*
X18860Y129563D01*
X18940Y129400D01*
X18967Y129213D01*
X18940Y129026D01*
X18873Y128886D01*
X18753Y128816D01*
X18433D01*
G01X20180Y128933D02*
X20447D01*
Y128513D01*
X20367Y128373D01*
X20273Y128280D01*
X20140Y128233D01*
X20007Y128280D01*
X19913Y128373D01*
X19833Y128513D01*
X19780Y128676D01*
X19753Y128863D01*
Y129026D01*
X19780Y129166D01*
X19833Y129330D01*
X19913Y129470D01*
X19993Y129563D01*
X20100Y129633D01*
X20193D01*
X20300Y129586D01*
X20380Y129493D01*
G01X15820Y140920D02*
X15927Y140803D01*
X16047Y140733D01*
X16153D01*
X16260Y140803D01*
X16340Y140920D01*
X16380Y141083D01*
X16353Y141246D01*
X16287Y141386D01*
X16167Y141480D01*
X16007Y141526D01*
X15913Y141620D01*
X15873Y141783D01*
X15900Y141946D01*
X15967Y142063D01*
X16060Y142133D01*
X16153D01*
X16247Y142086D01*
X16327Y141970D01*
G01X17500Y142133D02*
Y140733D01*
G01X17193Y142133D02*
X17807D01*
G01X18567Y140733D02*
X18900Y142133D01*
X19233Y140733D01*
G01X19113Y141223D02*
X18687D01*
G01X20300Y142133D02*
Y140733D01*
G01X19993Y142133D02*
X20607D01*
G01X21700Y140733D02*
Y142133D01*
X21540Y141853D01*
G01Y140733D02*
X21860D01*
G01X15820Y134920D02*
X15927Y134803D01*
X16047Y134733D01*
X16153D01*
X16260Y134803D01*
X16340Y134920D01*
X16380Y135083D01*
X16353Y135246D01*
X16287Y135386D01*
X16167Y135480D01*
X16007Y135526D01*
X15913Y135620D01*
X15873Y135783D01*
X15900Y135946D01*
X15967Y136063D01*
X16060Y136133D01*
X16153D01*
X16247Y136086D01*
X16327Y135970D01*
G01X17500Y136133D02*
Y134733D01*
G01X17193Y136133D02*
X17807D01*
G01X18567Y134733D02*
X18900Y136133D01*
X19233Y134733D01*
G01X19113Y135223D02*
X18687D01*
G01X20300Y136133D02*
Y134733D01*
G01X19993Y136133D02*
X20607D01*
G01X21447Y135900D02*
X21527Y136040D01*
X21620Y136110D01*
X21727Y136133D01*
X21860Y136086D01*
X21953Y135970D01*
X21980Y135830D01*
X21967Y135690D01*
X21913Y135573D01*
X21647Y135340D01*
X21527Y135176D01*
X21447Y134943D01*
X21420Y134733D01*
X21980D01*
G01X3520Y141220D02*
X3627Y141103D01*
X3747Y141033D01*
X3853D01*
X3960Y141103D01*
X4040Y141220D01*
X4080Y141383D01*
X4053Y141546D01*
X3987Y141686D01*
X3867Y141780D01*
X3707Y141826D01*
X3613Y141920D01*
X3573Y142083D01*
X3600Y142246D01*
X3667Y142363D01*
X3760Y142433D01*
X3853D01*
X3947Y142386D01*
X4027Y142270D01*
G01X5200Y142433D02*
Y141033D01*
G01X4893Y142433D02*
X5507D01*
G01X6267Y141033D02*
X6600Y142433D01*
X6933Y141033D01*
G01X6813Y141523D02*
X6387D01*
G01X8000Y142433D02*
Y141033D01*
G01X7693Y142433D02*
X8307D01*
G01X9400Y141033D02*
Y142433D01*
X9240Y142153D01*
G01Y141033D02*
X9560D01*
G01X10400Y140566D02*
X11200D01*
G01X11933Y141033D02*
Y142433D01*
X12267D01*
X12373Y142363D01*
X12440Y142270D01*
X12467Y142083D01*
X12440Y141896D01*
X12360Y141780D01*
X12267Y141710D01*
X11933D01*
G01X12267D02*
X12467Y141033D01*
G01X3520Y135220D02*
X3627Y135103D01*
X3747Y135033D01*
X3853D01*
X3960Y135103D01*
X4040Y135220D01*
X4080Y135383D01*
X4053Y135546D01*
X3987Y135686D01*
X3867Y135780D01*
X3707Y135826D01*
X3613Y135920D01*
X3573Y136083D01*
X3600Y136246D01*
X3667Y136363D01*
X3760Y136433D01*
X3853D01*
X3947Y136386D01*
X4027Y136270D01*
G01X5200Y136433D02*
Y135033D01*
G01X4893Y136433D02*
X5507D01*
G01X6267Y135033D02*
X6600Y136433D01*
X6933Y135033D01*
G01X6813Y135523D02*
X6387D01*
G01X8000Y136433D02*
Y135033D01*
G01X7693Y136433D02*
X8307D01*
G01X9147Y136200D02*
X9227Y136340D01*
X9320Y136410D01*
X9427Y136433D01*
X9560Y136386D01*
X9653Y136270D01*
X9680Y136130D01*
X9667Y135990D01*
X9613Y135873D01*
X9347Y135640D01*
X9227Y135476D01*
X9147Y135243D01*
X9120Y135033D01*
X9680D01*
G01X10400Y134566D02*
X11200D01*
G01X11933Y135033D02*
Y136433D01*
X12267D01*
X12373Y136363D01*
X12440Y136270D01*
X12467Y136083D01*
X12440Y135896D01*
X12360Y135780D01*
X12267Y135710D01*
X11933D01*
G01X12267D02*
X12467Y135033D01*
G01X5633Y128633D02*
Y130033D01*
X5953D01*
X6060Y129963D01*
X6140Y129800D01*
X6167Y129613D01*
X6140Y129426D01*
X6073Y129286D01*
X5953Y129216D01*
X5633D01*
G01X7380Y129333D02*
X7647D01*
Y128913D01*
X7567Y128773D01*
X7473Y128680D01*
X7340Y128633D01*
X7207Y128680D01*
X7113Y128773D01*
X7033Y128913D01*
X6980Y129076D01*
X6953Y129263D01*
Y129426D01*
X6980Y129566D01*
X7033Y129730D01*
X7113Y129870D01*
X7193Y129963D01*
X7300Y130033D01*
X7393D01*
X7500Y129986D01*
X7580Y129893D01*
G01X8300Y128166D02*
X9100D01*
G01X9833Y128633D02*
Y130033D01*
X10167D01*
X10273Y129963D01*
X10340Y129870D01*
X10367Y129683D01*
X10340Y129496D01*
X10260Y129380D01*
X10167Y129310D01*
X9833D01*
G01X10167D02*
X10367Y128633D01*
G01X5720Y152107D02*
X5650Y152160D01*
X5534Y152200D01*
X5370Y152227D01*
X5230Y152200D01*
X5137Y152147D01*
X5067Y152053D01*
Y151693D01*
X6467D01*
Y152133D01*
X6374Y152227D01*
X6234Y152280D01*
X6070Y152307D01*
X5907Y152280D01*
X5767Y152200D01*
X5720Y152107D01*
Y151693D01*
G01X5184Y153693D02*
X5114Y153613D01*
X5067Y153520D01*
Y153413D01*
X5137Y153293D01*
X5254Y153200D01*
X5394Y153133D01*
X5627Y153080D01*
X5837Y153067D01*
X6047Y153093D01*
X6187Y153133D01*
X6327Y153213D01*
X6420Y153307D01*
X6467Y153400D01*
Y153493D01*
X6420Y153587D01*
X6350Y153667D01*
X6257Y153733D01*
G01X6934Y154400D02*
Y155200D01*
G01X5184Y156493D02*
X5114Y156413D01*
X5067Y156320D01*
Y156213D01*
X5137Y156093D01*
X5254Y156000D01*
X5394Y155933D01*
X5627Y155880D01*
X5837Y155867D01*
X6047Y155893D01*
X6187Y155933D01*
X6327Y156013D01*
X6420Y156107D01*
X6467Y156200D01*
Y156293D01*
X6420Y156387D01*
X6350Y156467D01*
X6257Y156533D01*
G01X6467Y157600D02*
X5067D01*
X5347Y157440D01*
G01X6467D02*
Y157760D01*
G01X5067Y159000D02*
X5114Y158893D01*
X5230Y158813D01*
X5370Y158760D01*
X5557Y158720D01*
X5767Y158707D01*
X5977Y158720D01*
X6164Y158760D01*
X6304Y158813D01*
X6420Y158893D01*
X6467Y159000D01*
X6420Y159107D01*
X6304Y159187D01*
X6164Y159240D01*
X5977Y159280D01*
X5767Y159293D01*
X5557Y159280D01*
X5370Y159240D01*
X5230Y159187D01*
X5114Y159107D01*
X5067Y159000D01*
G01X12067Y153200D02*
X13467D01*
G01X12067Y152893D02*
Y153507D01*
G01X13280Y154320D02*
X13397Y154427D01*
X13467Y154547D01*
Y154653D01*
X13397Y154760D01*
X13280Y154840D01*
X13117Y154880D01*
X12954Y154853D01*
X12814Y154787D01*
X12720Y154667D01*
X12674Y154507D01*
X12580Y154413D01*
X12417Y154373D01*
X12254Y154400D01*
X12137Y154467D01*
X12067Y154560D01*
Y154653D01*
X12114Y154747D01*
X12230Y154827D01*
G01X13934Y155600D02*
Y156400D01*
G01X13467Y157133D02*
X12067D01*
Y157467D01*
X12137Y157573D01*
X12230Y157640D01*
X12417Y157667D01*
X12604Y157640D01*
X12720Y157560D01*
X12790Y157467D01*
Y157133D01*
G01Y157467D02*
X13467Y157667D01*
G01Y158800D02*
X12067D01*
X12347Y158640D01*
G01X13467D02*
Y158960D01*
G01X18567Y153200D02*
X19967D01*
G01X18567Y152893D02*
Y153507D01*
G01X19780Y154320D02*
X19897Y154427D01*
X19967Y154547D01*
Y154653D01*
X19897Y154760D01*
X19780Y154840D01*
X19617Y154880D01*
X19454Y154853D01*
X19314Y154787D01*
X19220Y154667D01*
X19174Y154507D01*
X19080Y154413D01*
X18917Y154373D01*
X18754Y154400D01*
X18637Y154467D01*
X18567Y154560D01*
Y154653D01*
X18614Y154747D01*
X18730Y154827D01*
G01X20434Y155600D02*
Y156400D01*
G01X19967Y157133D02*
X18567D01*
Y157467D01*
X18637Y157573D01*
X18730Y157640D01*
X18917Y157667D01*
X19104Y157640D01*
X19220Y157560D01*
X19290Y157467D01*
Y157133D01*
G01Y157467D02*
X19967Y157667D01*
G01X18800Y158547D02*
X18660Y158627D01*
X18590Y158720D01*
X18567Y158827D01*
X18614Y158960D01*
X18730Y159053D01*
X18870Y159080D01*
X19010Y159067D01*
X19127Y159013D01*
X19360Y158747D01*
X19524Y158627D01*
X19757Y158547D01*
X19967Y158520D01*
Y159080D01*
G01X16700Y170433D02*
Y169033D01*
G01X16393Y170433D02*
X17007D01*
G01X17820Y169220D02*
X17927Y169103D01*
X18047Y169033D01*
X18153D01*
X18260Y169103D01*
X18340Y169220D01*
X18380Y169383D01*
X18353Y169546D01*
X18287Y169686D01*
X18167Y169780D01*
X18007Y169826D01*
X17913Y169920D01*
X17873Y170083D01*
X17900Y170246D01*
X17967Y170363D01*
X18060Y170433D01*
X18153D01*
X18247Y170386D01*
X18327Y170270D01*
G01X19100Y168566D02*
X19900D01*
G01X20633Y169033D02*
Y170433D01*
X20967D01*
X21073Y170363D01*
X21140Y170270D01*
X21167Y170083D01*
X21140Y169896D01*
X21060Y169780D01*
X20967Y169710D01*
X20633D01*
G01X20967D02*
X21167Y169033D01*
G01X22007Y169313D02*
X22087Y169150D01*
X22193Y169056D01*
X22313Y169033D01*
X22420Y169056D01*
X22527Y169173D01*
X22593Y169313D01*
X22607Y169453D01*
X22580Y169616D01*
X22487Y169733D01*
X22393Y169780D01*
X22273D01*
G01X22393D02*
X22473Y169850D01*
X22540Y169966D01*
X22567Y170106D01*
X22540Y170246D01*
X22473Y170363D01*
X22353Y170433D01*
X22233Y170410D01*
X22113Y170316D01*
G01X41220Y1033D02*
X41780Y2433D01*
G01X41220D02*
X41780Y1033D01*
G01X42500Y566D02*
X43300D01*
G01X44033Y1033D02*
Y2433D01*
X44367D01*
X44473Y2363D01*
X44540Y2270D01*
X44567Y2083D01*
X44540Y1896D01*
X44460Y1780D01*
X44367Y1710D01*
X44033D01*
G01X44367D02*
X44567Y1033D01*
G01X45420Y1220D02*
X45527Y1103D01*
X45647Y1033D01*
X45753D01*
X45860Y1103D01*
X45940Y1220D01*
X45980Y1383D01*
X45953Y1546D01*
X45887Y1686D01*
X45767Y1780D01*
X45607Y1826D01*
X45513Y1920D01*
X45473Y2083D01*
X45500Y2246D01*
X45567Y2363D01*
X45660Y2433D01*
X45753D01*
X45847Y2386D01*
X45927Y2270D01*
G01X46700Y2433D02*
X46887Y1033D01*
X47100Y2433D01*
X47313Y1033D01*
X47500Y2433D01*
G01X48500Y1033D02*
Y2433D01*
X48340Y2153D01*
G01Y1033D02*
X48660D01*
G01X23220Y10300D02*
X23780Y11700D01*
G01X23220D02*
X23780Y10300D01*
G01X24500Y9833D02*
X25300D01*
G01X26020Y10487D02*
X26127Y10370D01*
X26247Y10300D01*
X26353D01*
X26460Y10370D01*
X26540Y10487D01*
X26580Y10650D01*
X26553Y10813D01*
X26487Y10953D01*
X26367Y11047D01*
X26207Y11093D01*
X26113Y11187D01*
X26073Y11350D01*
X26100Y11513D01*
X26167Y11630D01*
X26260Y11700D01*
X26353D01*
X26447Y11653D01*
X26527Y11537D01*
G01X27300Y11700D02*
X27487Y10300D01*
X27700Y11700D01*
X27913Y10300D01*
X28100Y11700D01*
G01X29100Y10300D02*
Y11700D01*
X28940Y11420D01*
G01Y10300D02*
X29260D01*
G01X41220Y17033D02*
X41780Y18433D01*
G01X41220D02*
X41780Y17033D01*
G01X42500Y16566D02*
X43300D01*
G01X44033Y17033D02*
Y18433D01*
X44367D01*
X44473Y18363D01*
X44540Y18270D01*
X44567Y18083D01*
X44540Y17896D01*
X44460Y17780D01*
X44367Y17710D01*
X44033D01*
G01X44367D02*
X44567Y17033D01*
G01X45420Y17220D02*
X45527Y17103D01*
X45647Y17033D01*
X45753D01*
X45860Y17103D01*
X45940Y17220D01*
X45980Y17383D01*
X45953Y17546D01*
X45887Y17686D01*
X45767Y17780D01*
X45607Y17826D01*
X45513Y17920D01*
X45473Y18083D01*
X45500Y18246D01*
X45567Y18363D01*
X45660Y18433D01*
X45753D01*
X45847Y18386D01*
X45927Y18270D01*
G01X46700Y18433D02*
X46887Y17033D01*
X47100Y18433D01*
X47313Y17033D01*
X47500Y18433D01*
G01X48247Y18200D02*
X48327Y18340D01*
X48420Y18410D01*
X48527Y18433D01*
X48660Y18386D01*
X48753Y18270D01*
X48780Y18130D01*
X48767Y17990D01*
X48713Y17873D01*
X48447Y17640D01*
X48327Y17476D01*
X48247Y17243D01*
X48220Y17033D01*
X48780D01*
G01X23220Y26400D02*
X23780Y27800D01*
G01X23220D02*
X23780Y26400D01*
G01X24500Y25933D02*
X25300D01*
G01X26020Y26587D02*
X26127Y26470D01*
X26247Y26400D01*
X26353D01*
X26460Y26470D01*
X26540Y26587D01*
X26580Y26750D01*
X26553Y26913D01*
X26487Y27053D01*
X26367Y27147D01*
X26207Y27193D01*
X26113Y27287D01*
X26073Y27450D01*
X26100Y27613D01*
X26167Y27730D01*
X26260Y27800D01*
X26353D01*
X26447Y27753D01*
X26527Y27637D01*
G01X27300Y27800D02*
X27487Y26400D01*
X27700Y27800D01*
X27913Y26400D01*
X28100Y27800D01*
G01X28847Y27567D02*
X28927Y27707D01*
X29020Y27777D01*
X29127Y27800D01*
X29260Y27753D01*
X29353Y27637D01*
X29380Y27497D01*
X29367Y27357D01*
X29313Y27240D01*
X29047Y27007D01*
X28927Y26843D01*
X28847Y26610D01*
X28820Y26400D01*
X29380D01*
G01X33007Y57153D02*
X33593Y58180D01*
G01X33300Y58367D02*
Y56967D01*
G01X33593Y57153D02*
X33007Y58180D01*
G01X32900Y57667D02*
X33700D01*
G01X40767Y45500D02*
X40233D01*
Y46900D01*
X40767D01*
G01X40553Y46223D02*
X40233D01*
G01X42167Y45500D02*
X41633D01*
Y46900D01*
X42167D01*
G01X41953Y46223D02*
X41633D01*
G01X43033Y45500D02*
Y46900D01*
X43353D01*
X43460Y46830D01*
X43540Y46667D01*
X43567Y46480D01*
X43540Y46293D01*
X43473Y46153D01*
X43353Y46083D01*
X43033D01*
G01X44433Y45500D02*
Y46900D01*
X44767D01*
X44873Y46830D01*
X44940Y46737D01*
X44967Y46550D01*
X44940Y46363D01*
X44860Y46247D01*
X44767Y46177D01*
X44433D01*
G01X44767D02*
X44967Y45500D01*
G01X46100D02*
X45993Y45523D01*
X45900Y45617D01*
X45820Y45757D01*
X45767Y45920D01*
X45740Y46107D01*
Y46293D01*
X45767Y46480D01*
X45820Y46643D01*
X45900Y46783D01*
X45993Y46877D01*
X46100Y46900D01*
X46207Y46877D01*
X46300Y46783D01*
X46380Y46643D01*
X46433Y46480D01*
X46460Y46293D01*
Y46107D01*
X46433Y45920D01*
X46380Y45757D01*
X46300Y45617D01*
X46207Y45523D01*
X46100Y45500D01*
G01X47153D02*
Y46900D01*
X47500Y45733D01*
X47847Y46900D01*
Y45500D01*
G01X35000Y75580D02*
X36400Y75020D01*
G01Y75580D02*
X35000Y75020D01*
G01X35280Y74193D02*
X35117Y74113D01*
X35023Y74007D01*
X35000Y73887D01*
X35023Y73780D01*
X35140Y73673D01*
X35280Y73607D01*
X35420Y73593D01*
X35583Y73620D01*
X35700Y73713D01*
X35747Y73807D01*
Y73927D01*
G01Y73807D02*
X35817Y73727D01*
X35933Y73660D01*
X36073Y73633D01*
X36213Y73660D01*
X36330Y73727D01*
X36400Y73847D01*
X36377Y73967D01*
X36283Y74087D01*
G01X34533Y72900D02*
Y72100D01*
G01X36283Y70807D02*
X36353Y70887D01*
X36400Y70980D01*
Y71087D01*
X36330Y71207D01*
X36213Y71300D01*
X36073Y71367D01*
X35840Y71420D01*
X35630Y71433D01*
X35420Y71407D01*
X35280Y71367D01*
X35140Y71287D01*
X35047Y71193D01*
X35000Y71100D01*
Y71007D01*
X35047Y70913D01*
X35117Y70833D01*
X35210Y70767D01*
G01X35000Y69700D02*
X36400D01*
X36120Y69860D01*
G01X35000D02*
Y69540D01*
G01X40733Y64500D02*
X41267D01*
Y63100D01*
X40733D01*
G01X40947Y63777D02*
X41267D01*
G01X40000Y64967D02*
X39200D01*
G01X37907Y63217D02*
X37987Y63147D01*
X38080Y63100D01*
X38187D01*
X38307Y63170D01*
X38400Y63287D01*
X38467Y63427D01*
X38520Y63660D01*
X38533Y63870D01*
X38507Y64080D01*
X38467Y64220D01*
X38387Y64360D01*
X38293Y64453D01*
X38200Y64500D01*
X38107D01*
X38013Y64453D01*
X37933Y64383D01*
X37867Y64290D01*
G01X37133Y63100D02*
X36800Y64500D01*
X36467Y63100D01*
G01X35107Y63217D02*
X35187Y63147D01*
X35280Y63100D01*
X35387D01*
X35507Y63170D01*
X35600Y63287D01*
X35667Y63427D01*
X35720Y63660D01*
X35733Y63870D01*
X35707Y64080D01*
X35667Y64220D01*
X35587Y64360D01*
X35493Y64453D01*
X35400Y64500D01*
X35307D01*
X35213Y64453D01*
X35133Y64383D01*
X35067Y64290D01*
G01X33707Y63217D02*
X33787Y63147D01*
X33880Y63100D01*
X33987D01*
X34107Y63170D01*
X34200Y63287D01*
X34267Y63427D01*
X34320Y63660D01*
X34333Y63870D01*
X34307Y64080D01*
X34267Y64220D01*
X34187Y64360D01*
X34093Y64453D01*
X34000Y64500D01*
X33907D01*
X33813Y64453D01*
X33733Y64383D01*
X33667Y64290D01*
G01X42807Y172780D02*
X42860Y172850D01*
X42900Y172966D01*
X42927Y173130D01*
X42900Y173270D01*
X42847Y173363D01*
X42753Y173433D01*
X42393D01*
Y172033D01*
X42833D01*
X42927Y172126D01*
X42980Y172266D01*
X43007Y172430D01*
X42980Y172593D01*
X42900Y172733D01*
X42807Y172780D01*
X42393D01*
G01X44393Y173316D02*
X44313Y173386D01*
X44220Y173433D01*
X44113D01*
X43993Y173363D01*
X43900Y173246D01*
X43833Y173106D01*
X43780Y172873D01*
X43767Y172663D01*
X43793Y172453D01*
X43833Y172313D01*
X43913Y172173D01*
X44007Y172080D01*
X44100Y172033D01*
X44193D01*
X44287Y172080D01*
X44367Y172150D01*
X44433Y172243D01*
G01X45100Y171566D02*
X45900D01*
G01X47193Y173316D02*
X47113Y173386D01*
X47020Y173433D01*
X46913D01*
X46793Y173363D01*
X46700Y173246D01*
X46633Y173106D01*
X46580Y172873D01*
X46567Y172663D01*
X46593Y172453D01*
X46633Y172313D01*
X46713Y172173D01*
X46807Y172080D01*
X46900Y172033D01*
X46993D01*
X47087Y172080D01*
X47167Y172150D01*
X47233Y172243D01*
G01X48273Y172033D02*
X48300Y172336D01*
X48340Y172593D01*
X48393Y172826D01*
X48460Y173083D01*
X48567Y173433D01*
X48033D01*
G01X42467Y192867D02*
X41067Y193200D01*
X42467Y193533D01*
G01X41977Y193413D02*
Y192987D01*
G01X41184Y194893D02*
X41114Y194813D01*
X41067Y194720D01*
Y194613D01*
X41137Y194493D01*
X41254Y194400D01*
X41394Y194333D01*
X41627Y194280D01*
X41837Y194267D01*
X42047Y194293D01*
X42187Y194333D01*
X42327Y194413D01*
X42420Y194507D01*
X42467Y194600D01*
Y194693D01*
X42420Y194787D01*
X42350Y194867D01*
X42257Y194933D01*
G01X42934Y195600D02*
Y196400D01*
G01X42467Y197133D02*
X41067D01*
Y197467D01*
X41137Y197573D01*
X41230Y197640D01*
X41417Y197667D01*
X41604Y197640D01*
X41720Y197560D01*
X41790Y197467D01*
Y197133D01*
G01Y197467D02*
X42467Y197667D01*
G01Y198800D02*
X41067D01*
X41347Y198640D01*
G01X42467D02*
Y198960D01*
G01X43967Y204367D02*
X42567Y204700D01*
X43967Y205033D01*
G01X43477Y204913D02*
Y204487D01*
G01X42684Y206393D02*
X42614Y206313D01*
X42567Y206220D01*
Y206113D01*
X42637Y205993D01*
X42754Y205900D01*
X42894Y205833D01*
X43127Y205780D01*
X43337Y205767D01*
X43547Y205793D01*
X43687Y205833D01*
X43827Y205913D01*
X43920Y206007D01*
X43967Y206100D01*
Y206193D01*
X43920Y206287D01*
X43850Y206367D01*
X43757Y206433D01*
G01X44434Y207100D02*
Y207900D01*
G01X42684Y209193D02*
X42614Y209113D01*
X42567Y209020D01*
Y208913D01*
X42637Y208793D01*
X42754Y208700D01*
X42894Y208633D01*
X43127Y208580D01*
X43337Y208567D01*
X43547Y208593D01*
X43687Y208633D01*
X43827Y208713D01*
X43920Y208807D01*
X43967Y208900D01*
Y208993D01*
X43920Y209087D01*
X43850Y209167D01*
X43757Y209233D01*
G01X43967Y210300D02*
X42567D01*
X42847Y210140D01*
G01X43967D02*
Y210460D01*
G01X60000Y75580D02*
X61400Y75020D01*
G01Y75580D02*
X60000Y75020D01*
G01X60280Y74193D02*
X60117Y74113D01*
X60023Y74007D01*
X60000Y73887D01*
X60023Y73780D01*
X60140Y73673D01*
X60280Y73607D01*
X60420Y73593D01*
X60583Y73620D01*
X60700Y73713D01*
X60747Y73807D01*
Y73927D01*
G01Y73807D02*
X60817Y73727D01*
X60933Y73660D01*
X61073Y73633D01*
X61213Y73660D01*
X61330Y73727D01*
X61400Y73847D01*
X61377Y73967D01*
X61283Y74087D01*
G01X59533Y72900D02*
Y72100D01*
G01X61283Y70807D02*
X61353Y70887D01*
X61400Y70980D01*
Y71087D01*
X61330Y71207D01*
X61213Y71300D01*
X61073Y71367D01*
X60840Y71420D01*
X60630Y71433D01*
X60420Y71407D01*
X60280Y71367D01*
X60140Y71287D01*
X60047Y71193D01*
X60000Y71100D01*
Y71007D01*
X60047Y70913D01*
X60117Y70833D01*
X60210Y70767D01*
G01X61167Y69953D02*
X61307Y69873D01*
X61377Y69780D01*
X61400Y69673D01*
X61353Y69540D01*
X61237Y69447D01*
X61097Y69420D01*
X60957Y69433D01*
X60840Y69487D01*
X60607Y69753D01*
X60443Y69873D01*
X60210Y69953D01*
X60000Y69980D01*
Y69420D01*
G01X60520Y78500D02*
X61080Y79900D01*
G01X60520D02*
X61080Y78500D01*
G01X61853D02*
Y79900D01*
X62200Y78733D01*
X62547Y79900D01*
Y78500D01*
G01X63200Y78033D02*
X64000D01*
G01X64733Y78500D02*
Y79900D01*
X65067D01*
X65173Y79830D01*
X65240Y79737D01*
X65267Y79550D01*
X65240Y79363D01*
X65160Y79247D01*
X65067Y79177D01*
X64733D01*
G01X65067D02*
X65267Y78500D01*
G01X66120Y78687D02*
X66227Y78570D01*
X66347Y78500D01*
X66453D01*
X66560Y78570D01*
X66640Y78687D01*
X66680Y78850D01*
X66653Y79013D01*
X66587Y79153D01*
X66467Y79247D01*
X66307Y79293D01*
X66213Y79387D01*
X66173Y79550D01*
X66200Y79713D01*
X66267Y79830D01*
X66360Y79900D01*
X66453D01*
X66547Y79853D01*
X66627Y79737D01*
G01X67507Y78500D02*
Y79900D01*
X67773D01*
X67880Y79830D01*
X67960Y79737D01*
X68027Y79597D01*
X68080Y79433D01*
X68093Y79200D01*
X68080Y78967D01*
X68027Y78803D01*
X67960Y78663D01*
X67880Y78570D01*
X67773Y78500D01*
X67507D01*
G01X68867D02*
X69200Y79900D01*
X69533Y78500D01*
G01X69413Y78990D02*
X68987D01*
G01X44007Y76293D02*
X44593Y77320D01*
G01X44300Y77507D02*
Y76107D01*
G01X44593Y76293D02*
X44007Y77320D01*
G01X43900Y76807D02*
X44700D01*
G01X46220Y70000D02*
X46780Y71400D01*
G01X46220D02*
X46780Y70000D01*
G01X47607Y70280D02*
X47687Y70117D01*
X47793Y70023D01*
X47913Y70000D01*
X48020Y70023D01*
X48127Y70140D01*
X48193Y70280D01*
X48207Y70420D01*
X48180Y70583D01*
X48087Y70700D01*
X47993Y70747D01*
X47873D01*
G01X47993D02*
X48073Y70817D01*
X48140Y70933D01*
X48167Y71073D01*
X48140Y71213D01*
X48073Y71330D01*
X47953Y71400D01*
X47833Y71377D01*
X47713Y71283D01*
G01X48900Y69533D02*
X49700D01*
G01X50433Y71400D02*
Y70000D01*
X50967D01*
G01X51807D02*
Y71400D01*
X52073D01*
X52180Y71330D01*
X52260Y71237D01*
X52327Y71097D01*
X52380Y70933D01*
X52393Y70700D01*
X52380Y70467D01*
X52327Y70303D01*
X52260Y70163D01*
X52180Y70070D01*
X52073Y70000D01*
X51807D01*
G01X53500D02*
X53393Y70023D01*
X53300Y70117D01*
X53220Y70257D01*
X53167Y70420D01*
X53140Y70607D01*
Y70793D01*
X53167Y70980D01*
X53220Y71143D01*
X53300Y71283D01*
X53393Y71377D01*
X53500Y71400D01*
X53607Y71377D01*
X53700Y71283D01*
X53780Y71143D01*
X53833Y70980D01*
X53860Y70793D01*
Y70607D01*
X53833Y70420D01*
X53780Y70257D01*
X53700Y70117D01*
X53607Y70023D01*
X53500Y70000D01*
G01X43853Y102907D02*
X43783Y102960D01*
X43667Y103000D01*
X43503Y103027D01*
X43363Y103000D01*
X43270Y102947D01*
X43200Y102853D01*
Y102493D01*
X44600D01*
Y102933D01*
X44507Y103027D01*
X44367Y103080D01*
X44203Y103107D01*
X44040Y103080D01*
X43900Y103000D01*
X43853Y102907D01*
Y102493D01*
G01X43317Y104493D02*
X43247Y104413D01*
X43200Y104320D01*
Y104213D01*
X43270Y104093D01*
X43387Y104000D01*
X43527Y103933D01*
X43760Y103880D01*
X43970Y103867D01*
X44180Y103893D01*
X44320Y103933D01*
X44460Y104013D01*
X44553Y104107D01*
X44600Y104200D01*
Y104293D01*
X44553Y104387D01*
X44483Y104467D01*
X44390Y104533D01*
G01X44600Y105267D02*
X43200Y105600D01*
X44600Y105933D01*
G01X44110Y105813D02*
Y105387D01*
G01X44600Y106733D02*
X43200D01*
Y107053D01*
X43270Y107160D01*
X43433Y107240D01*
X43620Y107267D01*
X43807Y107240D01*
X43947Y107173D01*
X44017Y107053D01*
Y106733D01*
G01X44600Y108400D02*
X43200D01*
X43480Y108240D01*
G01X44600D02*
Y108560D01*
G01X53953Y102907D02*
X53883Y102960D01*
X53767Y103000D01*
X53603Y103027D01*
X53463Y103000D01*
X53370Y102947D01*
X53300Y102853D01*
Y102493D01*
X54700D01*
Y102933D01*
X54607Y103027D01*
X54467Y103080D01*
X54303Y103107D01*
X54140Y103080D01*
X54000Y103000D01*
X53953Y102907D01*
Y102493D01*
G01X53417Y104493D02*
X53347Y104413D01*
X53300Y104320D01*
Y104213D01*
X53370Y104093D01*
X53487Y104000D01*
X53627Y103933D01*
X53860Y103880D01*
X54070Y103867D01*
X54280Y103893D01*
X54420Y103933D01*
X54560Y104013D01*
X54653Y104107D01*
X54700Y104200D01*
Y104293D01*
X54653Y104387D01*
X54583Y104467D01*
X54490Y104533D01*
G01X54700Y105267D02*
X53300Y105600D01*
X54700Y105933D01*
G01X54210Y105813D02*
Y105387D01*
G01X54700Y106733D02*
X53300D01*
Y107053D01*
X53370Y107160D01*
X53533Y107240D01*
X53720Y107267D01*
X53907Y107240D01*
X54047Y107173D01*
X54117Y107053D01*
Y106733D01*
G01X54420Y108107D02*
X54583Y108187D01*
X54677Y108293D01*
X54700Y108413D01*
X54677Y108520D01*
X54560Y108627D01*
X54420Y108693D01*
X54280Y108707D01*
X54117Y108680D01*
X54000Y108587D01*
X53953Y108493D01*
Y108373D01*
G01Y108493D02*
X53883Y108573D01*
X53767Y108640D01*
X53627Y108667D01*
X53487Y108640D01*
X53370Y108573D01*
X53300Y108453D01*
X53323Y108333D01*
X53417Y108213D01*
G01X52400Y151533D02*
X51000Y151200D01*
X52400Y150867D01*
G01X51000Y150067D02*
X52400D01*
Y149733D01*
X52330Y149627D01*
X52237Y149560D01*
X52050Y149533D01*
X51863Y149560D01*
X51747Y149640D01*
X51677Y149733D01*
Y150067D01*
G01Y149733D02*
X51000Y149533D01*
G01Y148133D02*
Y148667D01*
X52400D01*
Y148133D01*
G01X51723Y148347D02*
Y148667D01*
G01X51000Y147253D02*
X52400D01*
Y146747D01*
G01X51723Y146933D02*
Y147253D01*
G01X50533Y146000D02*
Y145200D01*
G01X52283Y143907D02*
X52353Y143987D01*
X52400Y144080D01*
Y144187D01*
X52330Y144307D01*
X52213Y144400D01*
X52073Y144467D01*
X51840Y144520D01*
X51630Y144533D01*
X51420Y144507D01*
X51280Y144467D01*
X51140Y144387D01*
X51047Y144293D01*
X51000Y144200D01*
Y144107D01*
X51047Y144013D01*
X51117Y143933D01*
X51210Y143867D01*
G01X51000Y142800D02*
X52400D01*
X52120Y142960D01*
G01X51000D02*
Y142640D01*
G01X54000Y163433D02*
Y162033D01*
G01X53693Y163433D02*
X54307D01*
G01X55400D02*
Y162033D01*
G01X55093Y163433D02*
X55707D01*
G01X57093Y163316D02*
X57013Y163386D01*
X56920Y163433D01*
X56813D01*
X56693Y163363D01*
X56600Y163246D01*
X56533Y163106D01*
X56480Y162873D01*
X56467Y162663D01*
X56493Y162453D01*
X56533Y162313D01*
X56613Y162173D01*
X56707Y162080D01*
X56800Y162033D01*
X56893D01*
X56987Y162080D01*
X57067Y162150D01*
X57133Y162243D01*
G01X57800Y161566D02*
X58600D01*
G01X59893Y163316D02*
X59813Y163386D01*
X59720Y163433D01*
X59613D01*
X59493Y163363D01*
X59400Y163246D01*
X59333Y163106D01*
X59280Y162873D01*
X59267Y162663D01*
X59293Y162453D01*
X59333Y162313D01*
X59413Y162173D01*
X59507Y162080D01*
X59600Y162033D01*
X59693D01*
X59787Y162080D01*
X59867Y162150D01*
X59933Y162243D01*
G01X61000Y162033D02*
Y163433D01*
X60840Y163153D01*
G01Y162033D02*
X61160D01*
G01X58220Y168007D02*
X58150Y168060D01*
X58034Y168100D01*
X57870Y168127D01*
X57730Y168100D01*
X57637Y168047D01*
X57567Y167953D01*
Y167593D01*
X58967D01*
Y168033D01*
X58874Y168127D01*
X58734Y168180D01*
X58570Y168207D01*
X58407Y168180D01*
X58267Y168100D01*
X58220Y168007D01*
Y167593D01*
G01X57684Y169593D02*
X57614Y169513D01*
X57567Y169420D01*
Y169313D01*
X57637Y169193D01*
X57754Y169100D01*
X57894Y169033D01*
X58127Y168980D01*
X58337Y168967D01*
X58547Y168993D01*
X58687Y169033D01*
X58827Y169113D01*
X58920Y169207D01*
X58967Y169300D01*
Y169393D01*
X58920Y169487D01*
X58850Y169567D01*
X58757Y169633D01*
G01X59434Y170300D02*
Y171100D01*
G01X57567Y171767D02*
X58967Y172100D01*
X57567Y172433D01*
G01X57684Y173793D02*
X57614Y173713D01*
X57567Y173620D01*
Y173513D01*
X57637Y173393D01*
X57754Y173300D01*
X57894Y173233D01*
X58127Y173180D01*
X58337Y173167D01*
X58547Y173193D01*
X58687Y173233D01*
X58827Y173313D01*
X58920Y173407D01*
X58967Y173500D01*
Y173593D01*
X58920Y173687D01*
X58850Y173767D01*
X58757Y173833D01*
G01X57684Y175193D02*
X57614Y175113D01*
X57567Y175020D01*
Y174913D01*
X57637Y174793D01*
X57754Y174700D01*
X57894Y174633D01*
X58127Y174580D01*
X58337Y174567D01*
X58547Y174593D01*
X58687Y174633D01*
X58827Y174713D01*
X58920Y174807D01*
X58967Y174900D01*
Y174993D01*
X58920Y175087D01*
X58850Y175167D01*
X58757Y175233D01*
G01X59434Y175900D02*
Y176700D01*
G01X58967Y177433D02*
X57567D01*
Y177767D01*
X57637Y177873D01*
X57730Y177940D01*
X57917Y177967D01*
X58104Y177940D01*
X58220Y177860D01*
X58290Y177767D01*
Y177433D01*
G01Y177767D02*
X58967Y177967D01*
G01Y179100D02*
X57567D01*
X57847Y178940D01*
G01X58967D02*
Y179260D01*
G01X73300Y89880D02*
X74700Y89320D01*
G01Y89880D02*
X73300Y89320D01*
G01Y88547D02*
X74700D01*
X73533Y88200D01*
X74700Y87853D01*
X73300D01*
G01X72833Y87200D02*
Y86400D01*
G01X73300Y85667D02*
X74700D01*
Y85333D01*
X74630Y85227D01*
X74537Y85160D01*
X74350Y85133D01*
X74163Y85160D01*
X74047Y85240D01*
X73977Y85333D01*
Y85667D01*
G01Y85333D02*
X73300Y85133D01*
G01X73487Y84280D02*
X73370Y84173D01*
X73300Y84053D01*
Y83947D01*
X73370Y83840D01*
X73487Y83760D01*
X73650Y83720D01*
X73813Y83747D01*
X73953Y83813D01*
X74047Y83933D01*
X74093Y84093D01*
X74187Y84187D01*
X74350Y84227D01*
X74513Y84200D01*
X74630Y84133D01*
X74700Y84040D01*
Y83947D01*
X74653Y83853D01*
X74537Y83773D01*
G01X74583Y82307D02*
X74653Y82387D01*
X74700Y82480D01*
Y82587D01*
X74630Y82707D01*
X74513Y82800D01*
X74373Y82867D01*
X74140Y82920D01*
X73930Y82933D01*
X73720Y82907D01*
X73580Y82867D01*
X73440Y82787D01*
X73347Y82693D01*
X73300Y82600D01*
Y82507D01*
X73347Y82413D01*
X73417Y82333D01*
X73510Y82267D01*
G01X74700Y81467D02*
X73300D01*
Y80933D01*
G01X64053Y102907D02*
X63983Y102960D01*
X63867Y103000D01*
X63703Y103027D01*
X63563Y103000D01*
X63470Y102947D01*
X63400Y102853D01*
Y102493D01*
X64800D01*
Y102933D01*
X64707Y103027D01*
X64567Y103080D01*
X64403Y103107D01*
X64240Y103080D01*
X64100Y103000D01*
X64053Y102907D01*
Y102493D01*
G01X63517Y104493D02*
X63447Y104413D01*
X63400Y104320D01*
Y104213D01*
X63470Y104093D01*
X63587Y104000D01*
X63727Y103933D01*
X63960Y103880D01*
X64170Y103867D01*
X64380Y103893D01*
X64520Y103933D01*
X64660Y104013D01*
X64753Y104107D01*
X64800Y104200D01*
Y104293D01*
X64753Y104387D01*
X64683Y104467D01*
X64590Y104533D01*
G01X64800Y105267D02*
X63400Y105600D01*
X64800Y105933D01*
G01X64310Y105813D02*
Y105387D01*
G01X64800Y106733D02*
X63400D01*
Y107053D01*
X63470Y107160D01*
X63633Y107240D01*
X63820Y107267D01*
X64007Y107240D01*
X64147Y107173D01*
X64217Y107053D01*
Y106733D01*
G01X63633Y108147D02*
X63493Y108227D01*
X63423Y108320D01*
X63400Y108427D01*
X63447Y108560D01*
X63563Y108653D01*
X63703Y108680D01*
X63843Y108667D01*
X63960Y108613D01*
X64193Y108347D01*
X64357Y108227D01*
X64590Y108147D01*
X64800Y108120D01*
Y108680D01*
G01X74153Y102907D02*
X74083Y102960D01*
X73967Y103000D01*
X73803Y103027D01*
X73663Y103000D01*
X73570Y102947D01*
X73500Y102853D01*
Y102493D01*
X74900D01*
Y102933D01*
X74807Y103027D01*
X74667Y103080D01*
X74503Y103107D01*
X74340Y103080D01*
X74200Y103000D01*
X74153Y102907D01*
Y102493D01*
G01X73617Y104493D02*
X73547Y104413D01*
X73500Y104320D01*
Y104213D01*
X73570Y104093D01*
X73687Y104000D01*
X73827Y103933D01*
X74060Y103880D01*
X74270Y103867D01*
X74480Y103893D01*
X74620Y103933D01*
X74760Y104013D01*
X74853Y104107D01*
X74900Y104200D01*
Y104293D01*
X74853Y104387D01*
X74783Y104467D01*
X74690Y104533D01*
G01X74900Y105267D02*
X73500Y105600D01*
X74900Y105933D01*
G01X74410Y105813D02*
Y105387D01*
G01X74900Y106733D02*
X73500D01*
Y107053D01*
X73570Y107160D01*
X73733Y107240D01*
X73920Y107267D01*
X74107Y107240D01*
X74247Y107173D01*
X74317Y107053D01*
Y106733D01*
G01X74900Y108560D02*
X73500D01*
X74503Y108067D01*
Y108733D01*
G01X63307Y194780D02*
X63360Y194850D01*
X63400Y194966D01*
X63427Y195130D01*
X63400Y195270D01*
X63347Y195363D01*
X63253Y195433D01*
X62893D01*
Y194033D01*
X63333D01*
X63427Y194126D01*
X63480Y194266D01*
X63507Y194430D01*
X63480Y194593D01*
X63400Y194733D01*
X63307Y194780D01*
X62893D01*
G01X64893Y195316D02*
X64813Y195386D01*
X64720Y195433D01*
X64613D01*
X64493Y195363D01*
X64400Y195246D01*
X64333Y195106D01*
X64280Y194873D01*
X64267Y194663D01*
X64293Y194453D01*
X64333Y194313D01*
X64413Y194173D01*
X64507Y194080D01*
X64600Y194033D01*
X64693D01*
X64787Y194080D01*
X64867Y194150D01*
X64933Y194243D01*
G01X65600Y193566D02*
X66400D01*
G01X67133Y194033D02*
Y195433D01*
X67467D01*
X67573Y195363D01*
X67640Y195270D01*
X67667Y195083D01*
X67640Y194896D01*
X67560Y194780D01*
X67467Y194710D01*
X67133D01*
G01X67467D02*
X67667Y194033D01*
G01X68547Y195200D02*
X68627Y195340D01*
X68720Y195410D01*
X68827Y195433D01*
X68960Y195386D01*
X69053Y195270D01*
X69080Y195130D01*
X69067Y194990D01*
X69013Y194873D01*
X68747Y194640D01*
X68627Y194476D01*
X68547Y194243D01*
X68520Y194033D01*
X69080D01*
G01X107380Y35000D02*
X106820Y33600D01*
G01X107380D02*
X106820Y35000D01*
G01X106100Y35467D02*
X105300D01*
G01X104567Y33600D02*
Y35000D01*
X104033D01*
G01X102900D02*
Y33600D01*
X103060Y33880D01*
G01Y35000D02*
X102740D01*
G01X82920Y55533D02*
X83480Y56933D01*
G01X82920D02*
X83480Y55533D01*
G01X84253D02*
Y56933D01*
X84600Y55766D01*
X84947Y56933D01*
Y55533D01*
G01X86267D02*
X85733D01*
Y56933D01*
X86267D01*
G01X86053Y56256D02*
X85733D01*
G01X87480Y56233D02*
X87747D01*
Y55813D01*
X87667Y55673D01*
X87573Y55580D01*
X87440Y55533D01*
X87307Y55580D01*
X87213Y55673D01*
X87133Y55813D01*
X87080Y55976D01*
X87053Y56163D01*
Y56326D01*
X87080Y56466D01*
X87133Y56630D01*
X87213Y56770D01*
X87293Y56863D01*
X87400Y56933D01*
X87493D01*
X87600Y56886D01*
X87680Y56793D01*
G01X88467Y55533D02*
X88800Y56933D01*
X89133Y55533D01*
G01X89013Y56023D02*
X88587D01*
G01X95247Y139693D02*
X95317Y139640D01*
X95433Y139600D01*
X95597Y139573D01*
X95737Y139600D01*
X95830Y139653D01*
X95900Y139747D01*
Y140107D01*
X94500D01*
Y139667D01*
X94593Y139573D01*
X94733Y139520D01*
X94897Y139493D01*
X95060Y139520D01*
X95200Y139600D01*
X95247Y139693D01*
Y140107D01*
G01X95783Y138107D02*
X95853Y138187D01*
X95900Y138280D01*
Y138387D01*
X95830Y138507D01*
X95713Y138600D01*
X95573Y138667D01*
X95340Y138720D01*
X95130Y138733D01*
X94920Y138707D01*
X94780Y138667D01*
X94640Y138587D01*
X94547Y138493D01*
X94500Y138400D01*
Y138307D01*
X94547Y138213D01*
X94617Y138133D01*
X94710Y138067D01*
G01X94033Y137400D02*
Y136600D01*
G01X95783Y135307D02*
X95853Y135387D01*
X95900Y135480D01*
Y135587D01*
X95830Y135707D01*
X95713Y135800D01*
X95573Y135867D01*
X95340Y135920D01*
X95130Y135933D01*
X94920Y135907D01*
X94780Y135867D01*
X94640Y135787D01*
X94547Y135693D01*
X94500Y135600D01*
Y135507D01*
X94547Y135413D01*
X94617Y135333D01*
X94710Y135267D01*
G01X94500Y134200D02*
X95900D01*
X95620Y134360D01*
G01X94500D02*
Y134040D01*
G01X87307Y161780D02*
X87360Y161850D01*
X87400Y161966D01*
X87427Y162130D01*
X87400Y162270D01*
X87347Y162363D01*
X87253Y162433D01*
X86893D01*
Y161033D01*
X87333D01*
X87427Y161126D01*
X87480Y161266D01*
X87507Y161430D01*
X87480Y161593D01*
X87400Y161733D01*
X87307Y161780D01*
X86893D01*
G01X88893Y162316D02*
X88813Y162386D01*
X88720Y162433D01*
X88613D01*
X88493Y162363D01*
X88400Y162246D01*
X88333Y162106D01*
X88280Y161873D01*
X88267Y161663D01*
X88293Y161453D01*
X88333Y161313D01*
X88413Y161173D01*
X88507Y161080D01*
X88600Y161033D01*
X88693D01*
X88787Y161080D01*
X88867Y161150D01*
X88933Y161243D01*
G01X89600Y160566D02*
X90400D01*
G01X91693Y162316D02*
X91613Y162386D01*
X91520Y162433D01*
X91413D01*
X91293Y162363D01*
X91200Y162246D01*
X91133Y162106D01*
X91080Y161873D01*
X91067Y161663D01*
X91093Y161453D01*
X91133Y161313D01*
X91213Y161173D01*
X91307Y161080D01*
X91400Y161033D01*
X91493D01*
X91587Y161080D01*
X91667Y161150D01*
X91733Y161243D01*
G01X92507D02*
X92587Y161126D01*
X92680Y161056D01*
X92800Y161033D01*
X92920Y161080D01*
X93013Y161173D01*
X93080Y161336D01*
X93093Y161523D01*
X93067Y161710D01*
X93000Y161826D01*
X92907Y161920D01*
X92813Y161943D01*
X92720Y161920D01*
X92600Y161826D01*
X92640Y162433D01*
X93000D01*
G01X96807Y165780D02*
X96860Y165850D01*
X96900Y165966D01*
X96927Y166130D01*
X96900Y166270D01*
X96847Y166363D01*
X96753Y166433D01*
X96393D01*
Y165033D01*
X96833D01*
X96927Y165126D01*
X96980Y165266D01*
X97007Y165430D01*
X96980Y165593D01*
X96900Y165733D01*
X96807Y165780D01*
X96393D01*
G01X98393Y166316D02*
X98313Y166386D01*
X98220Y166433D01*
X98113D01*
X97993Y166363D01*
X97900Y166246D01*
X97833Y166106D01*
X97780Y165873D01*
X97767Y165663D01*
X97793Y165453D01*
X97833Y165313D01*
X97913Y165173D01*
X98007Y165080D01*
X98100Y165033D01*
X98193D01*
X98287Y165080D01*
X98367Y165150D01*
X98433Y165243D01*
G01X99100Y164566D02*
X99900D01*
G01X101193Y166316D02*
X101113Y166386D01*
X101020Y166433D01*
X100913D01*
X100793Y166363D01*
X100700Y166246D01*
X100633Y166106D01*
X100580Y165873D01*
X100567Y165663D01*
X100593Y165453D01*
X100633Y165313D01*
X100713Y165173D01*
X100807Y165080D01*
X100900Y165033D01*
X100993D01*
X101087Y165080D01*
X101167Y165150D01*
X101233Y165243D01*
G01X102073Y165196D02*
X102167Y165080D01*
X102273Y165033D01*
X102380Y165080D01*
X102473Y165220D01*
X102540Y165430D01*
X102567Y165640D01*
Y165896D01*
X102540Y166106D01*
X102473Y166293D01*
X102393Y166386D01*
X102300Y166433D01*
X102193Y166386D01*
X102113Y166293D01*
X102060Y166153D01*
X102033Y165966D01*
X102060Y165803D01*
X102127Y165640D01*
X102207Y165546D01*
X102300Y165523D01*
X102407Y165570D01*
X102487Y165686D01*
X102567Y165896D01*
G01X99767Y181033D02*
X100100Y182433D01*
X100433Y181033D01*
G01X100313Y181523D02*
X99887D01*
G01X101793Y182316D02*
X101713Y182386D01*
X101620Y182433D01*
X101513D01*
X101393Y182363D01*
X101300Y182246D01*
X101233Y182106D01*
X101180Y181873D01*
X101167Y181663D01*
X101193Y181453D01*
X101233Y181313D01*
X101313Y181173D01*
X101407Y181080D01*
X101500Y181033D01*
X101593D01*
X101687Y181080D01*
X101767Y181150D01*
X101833Y181243D01*
G01X102500Y180566D02*
X103300D01*
G01X104020Y181220D02*
X104127Y181103D01*
X104247Y181033D01*
X104353D01*
X104460Y181103D01*
X104540Y181220D01*
X104580Y181383D01*
X104553Y181546D01*
X104487Y181686D01*
X104367Y181780D01*
X104207Y181826D01*
X104113Y181920D01*
X104073Y182083D01*
X104100Y182246D01*
X104167Y182363D01*
X104260Y182433D01*
X104353D01*
X104447Y182386D01*
X104527Y182270D01*
G01X105967Y181033D02*
X105433D01*
Y182433D01*
X105967D01*
G01X105753Y181756D02*
X105433D01*
G01X106793Y181033D02*
Y182433D01*
X107407Y181033D01*
Y182433D01*
G01X108220Y181220D02*
X108327Y181103D01*
X108447Y181033D01*
X108553D01*
X108660Y181103D01*
X108740Y181220D01*
X108780Y181383D01*
X108753Y181546D01*
X108687Y181686D01*
X108567Y181780D01*
X108407Y181826D01*
X108313Y181920D01*
X108273Y182083D01*
X108300Y182246D01*
X108367Y182363D01*
X108460Y182433D01*
X108553D01*
X108647Y182386D01*
X108727Y182270D01*
G01X110167Y181033D02*
X109633D01*
Y182433D01*
X110167D01*
G01X109953Y181756D02*
X109633D01*
G01X85767Y185533D02*
X86100Y186933D01*
X86433Y185533D01*
G01X86313Y186023D02*
X85887D01*
G01X87793Y186816D02*
X87713Y186886D01*
X87620Y186933D01*
X87513D01*
X87393Y186863D01*
X87300Y186746D01*
X87233Y186606D01*
X87180Y186373D01*
X87167Y186163D01*
X87193Y185953D01*
X87233Y185813D01*
X87313Y185673D01*
X87407Y185580D01*
X87500Y185533D01*
X87593D01*
X87687Y185580D01*
X87767Y185650D01*
X87833Y185743D01*
G01X88607Y185533D02*
Y186933D01*
X88873D01*
X88980Y186863D01*
X89060Y186770D01*
X89127Y186630D01*
X89180Y186466D01*
X89193Y186233D01*
X89180Y186000D01*
X89127Y185836D01*
X89060Y185696D01*
X88980Y185603D01*
X88873Y185533D01*
X88607D01*
G01X90033D02*
Y186933D01*
X90367D01*
X90473Y186863D01*
X90540Y186770D01*
X90567Y186583D01*
X90540Y186396D01*
X90460Y186280D01*
X90367Y186210D01*
X90033D01*
G01X90367D02*
X90567Y185533D01*
G01X91367Y186933D02*
X91700Y185533D01*
X92033Y186933D01*
G01X92700Y185066D02*
X93500D01*
G01X94233Y185533D02*
Y186933D01*
X94567D01*
X94673Y186863D01*
X94740Y186770D01*
X94767Y186583D01*
X94740Y186396D01*
X94660Y186280D01*
X94567Y186210D01*
X94233D01*
G01X94567D02*
X94767Y185533D01*
G01X95900D02*
Y186933D01*
X95740Y186653D01*
G01Y185533D02*
X96060D01*
G01X99807Y186280D02*
X99860Y186350D01*
X99900Y186466D01*
X99927Y186630D01*
X99900Y186770D01*
X99847Y186863D01*
X99753Y186933D01*
X99393D01*
Y185533D01*
X99833D01*
X99927Y185626D01*
X99980Y185766D01*
X100007Y185930D01*
X99980Y186093D01*
X99900Y186233D01*
X99807Y186280D01*
X99393D01*
G01X101393Y186816D02*
X101313Y186886D01*
X101220Y186933D01*
X101113D01*
X100993Y186863D01*
X100900Y186746D01*
X100833Y186606D01*
X100780Y186373D01*
X100767Y186163D01*
X100793Y185953D01*
X100833Y185813D01*
X100913Y185673D01*
X101007Y185580D01*
X101100Y185533D01*
X101193D01*
X101287Y185580D01*
X101367Y185650D01*
X101433Y185743D01*
G01X102100Y185066D02*
X102900D01*
G01X104193Y186816D02*
X104113Y186886D01*
X104020Y186933D01*
X103913D01*
X103793Y186863D01*
X103700Y186746D01*
X103633Y186606D01*
X103580Y186373D01*
X103567Y186163D01*
X103593Y185953D01*
X103633Y185813D01*
X103713Y185673D01*
X103807Y185580D01*
X103900Y185533D01*
X103993D01*
X104087Y185580D01*
X104167Y185650D01*
X104233Y185743D01*
G01X105300Y185533D02*
X105393Y185556D01*
X105500Y185626D01*
X105567Y185743D01*
X105593Y185906D01*
X105567Y186070D01*
X105487Y186210D01*
X105367Y186280D01*
X105233D01*
X105153Y186326D01*
X105087Y186443D01*
X105060Y186606D01*
X105100Y186770D01*
X105193Y186886D01*
X105300Y186933D01*
X105407Y186886D01*
X105500Y186770D01*
X105540Y186606D01*
X105513Y186443D01*
X105447Y186326D01*
X105367Y186280D01*
X105233D01*
X105113Y186210D01*
X105033Y186070D01*
X105007Y185906D01*
X105033Y185743D01*
X105100Y185626D01*
X105207Y185556D01*
X105300Y185533D01*
G01X112500Y37420D02*
X111100Y37980D01*
G01Y37420D02*
X112500Y37980D01*
G01X112220Y38807D02*
X112383Y38887D01*
X112477Y38993D01*
X112500Y39113D01*
X112477Y39220D01*
X112360Y39327D01*
X112220Y39393D01*
X112080Y39407D01*
X111917Y39380D01*
X111800Y39287D01*
X111753Y39193D01*
Y39073D01*
G01Y39193D02*
X111683Y39273D01*
X111567Y39340D01*
X111427Y39367D01*
X111287Y39340D01*
X111170Y39273D01*
X111100Y39153D01*
X111123Y39033D01*
X111217Y38913D01*
G01X112967Y40100D02*
Y40900D01*
G01X111217Y42193D02*
X111147Y42113D01*
X111100Y42020D01*
Y41913D01*
X111170Y41793D01*
X111287Y41700D01*
X111427Y41633D01*
X111660Y41580D01*
X111870Y41567D01*
X112080Y41593D01*
X112220Y41633D01*
X112360Y41713D01*
X112453Y41807D01*
X112500Y41900D01*
Y41993D01*
X112453Y42087D01*
X112383Y42167D01*
X112290Y42233D01*
G01X112220Y43007D02*
X112383Y43087D01*
X112477Y43193D01*
X112500Y43313D01*
X112477Y43420D01*
X112360Y43527D01*
X112220Y43593D01*
X112080Y43607D01*
X111917Y43580D01*
X111800Y43487D01*
X111753Y43393D01*
Y43273D01*
G01Y43393D02*
X111683Y43473D01*
X111567Y43540D01*
X111427Y43567D01*
X111287Y43540D01*
X111170Y43473D01*
X111100Y43353D01*
X111123Y43233D01*
X111217Y43113D01*
G01X119000Y36020D02*
X117600Y36580D01*
G01Y36020D02*
X119000Y36580D01*
G01Y37353D02*
X117600D01*
X118767Y37700D01*
X117600Y38047D01*
X119000D01*
G01X119467Y38700D02*
Y39500D01*
G01X119000Y40233D02*
X117600D01*
Y40567D01*
X117670Y40673D01*
X117763Y40740D01*
X117950Y40767D01*
X118137Y40740D01*
X118253Y40660D01*
X118323Y40567D01*
Y40233D01*
G01Y40567D02*
X119000Y40767D01*
G01Y41633D02*
X117600D01*
Y41953D01*
X117670Y42060D01*
X117833Y42140D01*
X118020Y42167D01*
X118207Y42140D01*
X118347Y42073D01*
X118417Y41953D01*
Y41633D01*
G01X119000Y43007D02*
X117600D01*
Y43273D01*
X117670Y43380D01*
X117763Y43460D01*
X117903Y43527D01*
X118067Y43580D01*
X118300Y43593D01*
X118533Y43580D01*
X118697Y43527D01*
X118837Y43460D01*
X118930Y43380D01*
X119000Y43273D01*
Y43007D01*
G01X117600Y44540D02*
Y44860D01*
G01Y44700D02*
X119000D01*
G01Y44540D02*
Y44860D01*
G01X107903Y42447D02*
X107317Y41420D01*
G01X107610Y41233D02*
Y42633D01*
G01X107317Y42447D02*
X107903Y41420D01*
G01X108010Y41933D02*
X107210D01*
G01X107807Y160280D02*
X107860Y160350D01*
X107900Y160466D01*
X107927Y160630D01*
X107900Y160770D01*
X107847Y160863D01*
X107753Y160933D01*
X107393D01*
Y159533D01*
X107833D01*
X107927Y159626D01*
X107980Y159766D01*
X108007Y159930D01*
X107980Y160093D01*
X107900Y160233D01*
X107807Y160280D01*
X107393D01*
G01X109393Y160816D02*
X109313Y160886D01*
X109220Y160933D01*
X109113D01*
X108993Y160863D01*
X108900Y160746D01*
X108833Y160606D01*
X108780Y160373D01*
X108767Y160163D01*
X108793Y159953D01*
X108833Y159813D01*
X108913Y159673D01*
X109007Y159580D01*
X109100Y159533D01*
X109193D01*
X109287Y159580D01*
X109367Y159650D01*
X109433Y159743D01*
G01X110100Y159066D02*
X110900D01*
G01X112193Y160816D02*
X112113Y160886D01*
X112020Y160933D01*
X111913D01*
X111793Y160863D01*
X111700Y160746D01*
X111633Y160606D01*
X111580Y160373D01*
X111567Y160163D01*
X111593Y159953D01*
X111633Y159813D01*
X111713Y159673D01*
X111807Y159580D01*
X111900Y159533D01*
X111993D01*
X112087Y159580D01*
X112167Y159650D01*
X112233Y159743D01*
G01X113047Y160116D02*
X113140Y160280D01*
X113220Y160373D01*
X113327Y160420D01*
X113420Y160373D01*
X113487Y160280D01*
X113540Y160140D01*
X113553Y159976D01*
X113540Y159836D01*
X113487Y159696D01*
X113407Y159580D01*
X113313Y159533D01*
X113207Y159580D01*
X113113Y159720D01*
X113060Y159930D01*
X113047Y160163D01*
X113073Y160466D01*
X113113Y160630D01*
X113180Y160793D01*
X113273Y160910D01*
X113367Y160933D01*
X113460Y160886D01*
X113527Y160770D01*
G01X106720Y145907D02*
X106650Y145960D01*
X106534Y146000D01*
X106370Y146027D01*
X106230Y146000D01*
X106137Y145947D01*
X106067Y145853D01*
Y145493D01*
X107467D01*
Y145933D01*
X107374Y146027D01*
X107234Y146080D01*
X107070Y146107D01*
X106907Y146080D01*
X106767Y146000D01*
X106720Y145907D01*
Y145493D01*
G01X106067Y147200D02*
X107467D01*
G01X106067Y146893D02*
Y147507D01*
G01X107280Y148320D02*
X107397Y148427D01*
X107467Y148547D01*
Y148653D01*
X107397Y148760D01*
X107280Y148840D01*
X107117Y148880D01*
X106954Y148853D01*
X106814Y148787D01*
X106720Y148667D01*
X106674Y148507D01*
X106580Y148413D01*
X106417Y148373D01*
X106254Y148400D01*
X106137Y148467D01*
X106067Y148560D01*
Y148653D01*
X106114Y148747D01*
X106230Y148827D01*
G01X106067Y150000D02*
X107467D01*
G01X106067Y149693D02*
Y150307D01*
G01X107934Y151000D02*
Y151800D01*
G01X107467Y152507D02*
X106067D01*
Y152773D01*
X106137Y152880D01*
X106230Y152960D01*
X106370Y153027D01*
X106534Y153080D01*
X106767Y153093D01*
X107000Y153080D01*
X107164Y153027D01*
X107304Y152960D01*
X107397Y152880D01*
X107467Y152773D01*
Y152507D01*
G01Y154200D02*
X106067D01*
X106347Y154040D01*
G01X107467D02*
Y154360D01*
G01X131967Y40220D02*
X130567Y40780D01*
G01Y40220D02*
X131967Y40780D01*
G01Y41553D02*
X130567D01*
X131734Y41900D01*
X130567Y42247D01*
X131967D01*
G01X132434Y42900D02*
Y43700D01*
G01X131967Y44433D02*
X130567D01*
Y44753D01*
X130637Y44860D01*
X130800Y44940D01*
X130987Y44967D01*
X131174Y44940D01*
X131314Y44873D01*
X131384Y44753D01*
Y44433D01*
G01X131967Y45807D02*
X130567D01*
Y46073D01*
X130637Y46180D01*
X130730Y46260D01*
X130870Y46327D01*
X131034Y46380D01*
X131267Y46393D01*
X131500Y46380D01*
X131664Y46327D01*
X131804Y46260D01*
X131897Y46180D01*
X131967Y46073D01*
Y45807D01*
G01X130567Y47340D02*
Y47660D01*
G01Y47500D02*
X131967D01*
G01Y47340D02*
Y47660D01*
G01X135307Y124280D02*
X135360Y124350D01*
X135400Y124466D01*
X135427Y124630D01*
X135400Y124770D01*
X135347Y124863D01*
X135253Y124933D01*
X134893D01*
Y123533D01*
X135333D01*
X135427Y123626D01*
X135480Y123766D01*
X135507Y123930D01*
X135480Y124093D01*
X135400Y124233D01*
X135307Y124280D01*
X134893D01*
G01X136893Y124816D02*
X136813Y124886D01*
X136720Y124933D01*
X136613D01*
X136493Y124863D01*
X136400Y124746D01*
X136333Y124606D01*
X136280Y124373D01*
X136267Y124163D01*
X136293Y123953D01*
X136333Y123813D01*
X136413Y123673D01*
X136507Y123580D01*
X136600Y123533D01*
X136693D01*
X136787Y123580D01*
X136867Y123650D01*
X136933Y123743D01*
G01X137600Y123066D02*
X138400D01*
G01X139693Y124816D02*
X139613Y124886D01*
X139520Y124933D01*
X139413D01*
X139293Y124863D01*
X139200Y124746D01*
X139133Y124606D01*
X139080Y124373D01*
X139067Y124163D01*
X139093Y123953D01*
X139133Y123813D01*
X139213Y123673D01*
X139307Y123580D01*
X139400Y123533D01*
X139493D01*
X139587Y123580D01*
X139667Y123650D01*
X139733Y123743D01*
G01X140547Y124700D02*
X140627Y124840D01*
X140720Y124910D01*
X140827Y124933D01*
X140960Y124886D01*
X141053Y124770D01*
X141080Y124630D01*
X141067Y124490D01*
X141013Y124373D01*
X140747Y124140D01*
X140627Y123976D01*
X140547Y123743D01*
X140520Y123533D01*
X141080D01*
G01X162177Y57793D02*
X162763Y58820D01*
G01X162470Y59007D02*
Y57607D01*
G01X162763Y57793D02*
X162177Y58820D01*
G01X162070Y58307D02*
X162870D01*
G01X166207Y42243D02*
X166287Y42126D01*
X166380Y42056D01*
X166500Y42033D01*
X166620Y42080D01*
X166713Y42173D01*
X166780Y42336D01*
X166793Y42523D01*
X166767Y42710D01*
X166700Y42826D01*
X166607Y42920D01*
X166513Y42943D01*
X166420Y42920D01*
X166300Y42826D01*
X166340Y43433D01*
X166700D01*
G01X167567D02*
X167900Y42033D01*
X168233Y43433D01*
G01X168900Y41566D02*
X169700D01*
G01X170433Y42033D02*
Y43433D01*
X170767D01*
X170873Y43363D01*
X170940Y43270D01*
X170967Y43083D01*
X170940Y42896D01*
X170860Y42780D01*
X170767Y42710D01*
X170433D01*
G01X170767D02*
X170967Y42033D01*
G01X172367D02*
X171833D01*
Y43433D01*
X172367D01*
G01X172153Y42756D02*
X171833D01*
G01X173580Y42733D02*
X173847D01*
Y42313D01*
X173767Y42173D01*
X173673Y42080D01*
X173540Y42033D01*
X173407Y42080D01*
X173313Y42173D01*
X173233Y42313D01*
X173180Y42476D01*
X173153Y42663D01*
Y42826D01*
X173180Y42966D01*
X173233Y43130D01*
X173313Y43270D01*
X173393Y43363D01*
X173500Y43433D01*
X173593D01*
X173700Y43386D01*
X173780Y43293D01*
G01X165407Y80743D02*
X165487Y80626D01*
X165580Y80556D01*
X165700Y80533D01*
X165820Y80580D01*
X165913Y80673D01*
X165980Y80836D01*
X165993Y81023D01*
X165967Y81210D01*
X165900Y81326D01*
X165807Y81420D01*
X165713Y81443D01*
X165620Y81420D01*
X165500Y81326D01*
X165540Y81933D01*
X165900D01*
G01X166767D02*
X167100Y80533D01*
X167433Y81933D01*
G01X168100Y80066D02*
X168900D01*
G01X169633Y81933D02*
Y80533D01*
X170167D01*
G01X171300D02*
Y81933D01*
X171140Y81653D01*
G01Y80533D02*
X171460D01*
G01X184807Y12780D02*
X184860Y12850D01*
X184900Y12966D01*
X184927Y13130D01*
X184900Y13270D01*
X184847Y13363D01*
X184753Y13433D01*
X184393D01*
Y12033D01*
X184833D01*
X184927Y12126D01*
X184980Y12266D01*
X185007Y12430D01*
X184980Y12593D01*
X184900Y12733D01*
X184807Y12780D01*
X184393D01*
G01X186207D02*
X186260Y12850D01*
X186300Y12966D01*
X186327Y13130D01*
X186300Y13270D01*
X186247Y13363D01*
X186153Y13433D01*
X185793D01*
Y12033D01*
X186233D01*
X186327Y12126D01*
X186380Y12266D01*
X186407Y12430D01*
X186380Y12593D01*
X186300Y12733D01*
X186207Y12780D01*
X185793D01*
G01X187100Y11566D02*
X187900D01*
G01X188633Y12033D02*
Y13433D01*
X188953D01*
X189060Y13363D01*
X189140Y13200D01*
X189167Y13013D01*
X189140Y12826D01*
X189073Y12686D01*
X188953Y12616D01*
X188633D01*
G01X190300Y12033D02*
Y13433D01*
X190140Y13153D01*
G01Y12033D02*
X190460D01*
G01X191807Y131780D02*
X191860Y131850D01*
X191900Y131966D01*
X191927Y132130D01*
X191900Y132270D01*
X191847Y132363D01*
X191753Y132433D01*
X191393D01*
Y131033D01*
X191833D01*
X191927Y131126D01*
X191980Y131266D01*
X192007Y131430D01*
X191980Y131593D01*
X191900Y131733D01*
X191807Y131780D01*
X191393D01*
G01X193393Y132316D02*
X193313Y132386D01*
X193220Y132433D01*
X193113D01*
X192993Y132363D01*
X192900Y132246D01*
X192833Y132106D01*
X192780Y131873D01*
X192767Y131663D01*
X192793Y131453D01*
X192833Y131313D01*
X192913Y131173D01*
X193007Y131080D01*
X193100Y131033D01*
X193193D01*
X193287Y131080D01*
X193367Y131150D01*
X193433Y131243D01*
G01X194100Y130566D02*
X194900D01*
G01X196193Y132316D02*
X196113Y132386D01*
X196020Y132433D01*
X195913D01*
X195793Y132363D01*
X195700Y132246D01*
X195633Y132106D01*
X195580Y131873D01*
X195567Y131663D01*
X195593Y131453D01*
X195633Y131313D01*
X195713Y131173D01*
X195807Y131080D01*
X195900Y131033D01*
X195993D01*
X196087Y131080D01*
X196167Y131150D01*
X196233Y131243D01*
G01X197007Y131313D02*
X197087Y131150D01*
X197193Y131056D01*
X197313Y131033D01*
X197420Y131056D01*
X197527Y131173D01*
X197593Y131313D01*
X197607Y131453D01*
X197580Y131616D01*
X197487Y131733D01*
X197393Y131780D01*
X197273D01*
G01X197393D02*
X197473Y131850D01*
X197540Y131966D01*
X197567Y132106D01*
X197540Y132246D01*
X197473Y132363D01*
X197353Y132433D01*
X197233Y132410D01*
X197113Y132316D01*
G01X194807Y149747D02*
X194860Y149817D01*
X194900Y149933D01*
X194927Y150097D01*
X194900Y150237D01*
X194847Y150330D01*
X194753Y150400D01*
X194393D01*
Y149000D01*
X194833D01*
X194927Y149093D01*
X194980Y149233D01*
X195007Y149397D01*
X194980Y149560D01*
X194900Y149700D01*
X194807Y149747D01*
X194393D01*
G01X195767Y149000D02*
X196100Y150400D01*
X196433Y149000D01*
G01X196313Y149490D02*
X195887D01*
G01X197500Y150400D02*
Y149000D01*
G01X197193Y150400D02*
X197807D01*
G01X198900D02*
Y149000D01*
G01X198593Y150400D02*
X199207D01*
G01X199900Y148533D02*
X200700D01*
G01X201420Y149187D02*
X201527Y149070D01*
X201647Y149000D01*
X201753D01*
X201860Y149070D01*
X201940Y149187D01*
X201980Y149350D01*
X201953Y149513D01*
X201887Y149653D01*
X201767Y149747D01*
X201607Y149793D01*
X201513Y149887D01*
X201473Y150050D01*
X201500Y150213D01*
X201567Y150330D01*
X201660Y150400D01*
X201753D01*
X201847Y150353D01*
X201927Y150237D01*
G01X203367Y149000D02*
X202833D01*
Y150400D01*
X203367D01*
G01X203153Y149723D02*
X202833D01*
G01X204193Y149000D02*
Y150400D01*
X204807Y149000D01*
Y150400D01*
G01X205620Y149187D02*
X205727Y149070D01*
X205847Y149000D01*
X205953D01*
X206060Y149070D01*
X206140Y149187D01*
X206180Y149350D01*
X206153Y149513D01*
X206087Y149653D01*
X205967Y149747D01*
X205807Y149793D01*
X205713Y149887D01*
X205673Y150050D01*
X205700Y150213D01*
X205767Y150330D01*
X205860Y150400D01*
X205953D01*
X206047Y150353D01*
X206127Y150237D01*
G01X207567Y149000D02*
X207033D01*
Y150400D01*
X207567D01*
G01X207353Y149723D02*
X207033D01*
G01X184807Y203280D02*
X184860Y203350D01*
X184900Y203466D01*
X184927Y203630D01*
X184900Y203770D01*
X184847Y203863D01*
X184753Y203933D01*
X184393D01*
Y202533D01*
X184833D01*
X184927Y202626D01*
X184980Y202766D01*
X185007Y202930D01*
X184980Y203093D01*
X184900Y203233D01*
X184807Y203280D01*
X184393D01*
G01X186207D02*
X186260Y203350D01*
X186300Y203466D01*
X186327Y203630D01*
X186300Y203770D01*
X186247Y203863D01*
X186153Y203933D01*
X185793D01*
Y202533D01*
X186233D01*
X186327Y202626D01*
X186380Y202766D01*
X186407Y202930D01*
X186380Y203093D01*
X186300Y203233D01*
X186207Y203280D01*
X185793D01*
G01X187100Y202066D02*
X187900D01*
G01X188633Y202533D02*
Y203933D01*
X188953D01*
X189060Y203863D01*
X189140Y203700D01*
X189167Y203513D01*
X189140Y203326D01*
X189073Y203186D01*
X188953Y203116D01*
X188633D01*
G01X190047Y203700D02*
X190127Y203840D01*
X190220Y203910D01*
X190327Y203933D01*
X190460Y203886D01*
X190553Y203770D01*
X190580Y203630D01*
X190567Y203490D01*
X190513Y203373D01*
X190247Y203140D01*
X190127Y202976D01*
X190047Y202743D01*
X190020Y202533D01*
X190580D01*
G01X210900Y48033D02*
Y48663D01*
X210633Y49433D01*
G01X211167D02*
X210900Y48663D01*
G01X211900Y47566D02*
X212700D01*
G01X213993Y49316D02*
X213913Y49386D01*
X213820Y49433D01*
X213713D01*
X213593Y49363D01*
X213500Y49246D01*
X213433Y49106D01*
X213380Y48873D01*
X213367Y48663D01*
X213393Y48453D01*
X213433Y48313D01*
X213513Y48173D01*
X213607Y48080D01*
X213700Y48033D01*
X213793D01*
X213887Y48080D01*
X213967Y48150D01*
X214033Y48243D01*
G01X214847Y49200D02*
X214927Y49340D01*
X215020Y49410D01*
X215127Y49433D01*
X215260Y49386D01*
X215353Y49270D01*
X215380Y49130D01*
X215367Y48990D01*
X215313Y48873D01*
X215047Y48640D01*
X214927Y48476D01*
X214847Y48243D01*
X214820Y48033D01*
X215380D01*
G01X210900Y95533D02*
Y96163D01*
X210633Y96933D01*
G01X211167D02*
X210900Y96163D01*
G01X211900Y95066D02*
X212700D01*
G01X213993Y96816D02*
X213913Y96886D01*
X213820Y96933D01*
X213713D01*
X213593Y96863D01*
X213500Y96746D01*
X213433Y96606D01*
X213380Y96373D01*
X213367Y96163D01*
X213393Y95953D01*
X213433Y95813D01*
X213513Y95673D01*
X213607Y95580D01*
X213700Y95533D01*
X213793D01*
X213887Y95580D01*
X213967Y95650D01*
X214033Y95743D01*
G01X215100Y95533D02*
Y96933D01*
X214940Y96653D01*
G01Y95533D02*
X215260D01*
G01X212081Y87373D02*
X212711D01*
X213481Y87640D01*
G01Y87106D02*
X212711Y87373D01*
G01X212081Y85973D02*
X213481D01*
X213201Y86133D01*
G01X212081D02*
Y85813D01*
G01X235467Y29533D02*
X235800Y30933D01*
X236133Y29533D01*
G01X236013Y30023D02*
X235587D01*
G01X237200Y30933D02*
Y29533D01*
G01X236893Y30933D02*
X237507D01*
G01X238200Y29066D02*
X239000D01*
G01X239733Y30933D02*
Y29533D01*
X240267D01*
G01X241667D02*
X241133D01*
Y30933D01*
X241667D01*
G01X241453Y30256D02*
X241133D01*
G01X242507Y29533D02*
Y30933D01*
X242773D01*
X242880Y30863D01*
X242960Y30770D01*
X243027Y30630D01*
X243080Y30466D01*
X243093Y30233D01*
X243080Y30000D01*
X243027Y29836D01*
X242960Y29696D01*
X242880Y29603D01*
X242773Y29533D01*
X242507D01*
G01X244200D02*
Y30933D01*
X244040Y30653D01*
G01Y29533D02*
X244360D01*
G01X235467Y37033D02*
X235800Y38433D01*
X236133Y37033D01*
G01X236013Y37523D02*
X235587D01*
G01X237200Y38433D02*
Y37033D01*
G01X236893Y38433D02*
X237507D01*
G01X238200Y36566D02*
X239000D01*
G01X239733Y38433D02*
Y37033D01*
X240267D01*
G01X241667D02*
X241133D01*
Y38433D01*
X241667D01*
G01X241453Y37756D02*
X241133D01*
G01X242507Y37033D02*
Y38433D01*
X242773D01*
X242880Y38363D01*
X242960Y38270D01*
X243027Y38130D01*
X243080Y37966D01*
X243093Y37733D01*
X243080Y37500D01*
X243027Y37336D01*
X242960Y37196D01*
X242880Y37103D01*
X242773Y37033D01*
X242507D01*
G01X243947Y38200D02*
X244027Y38340D01*
X244120Y38410D01*
X244227Y38433D01*
X244360Y38386D01*
X244453Y38270D01*
X244480Y38130D01*
X244467Y37990D01*
X244413Y37873D01*
X244147Y37640D01*
X244027Y37476D01*
X243947Y37243D01*
X243920Y37033D01*
X244480D01*
G01X232597Y75553D02*
X233183Y76580D01*
G01X232890Y76767D02*
Y75367D01*
G01X233183Y75553D02*
X232597Y76580D01*
G01X232490Y76067D02*
X233290D01*
G01X232867Y87033D02*
X233200Y88433D01*
X233533Y87033D01*
G01X233413Y87523D02*
X232987D01*
G01X234600Y88433D02*
Y87033D01*
G01X234293Y88433D02*
X234907D01*
G01X235600Y86566D02*
X236400D01*
G01X237693Y88316D02*
X237613Y88386D01*
X237520Y88433D01*
X237413D01*
X237293Y88363D01*
X237200Y88246D01*
X237133Y88106D01*
X237080Y87873D01*
X237067Y87663D01*
X237093Y87453D01*
X237133Y87313D01*
X237213Y87173D01*
X237307Y87080D01*
X237400Y87033D01*
X237493D01*
X237587Y87080D01*
X237667Y87150D01*
X237733Y87243D01*
G01X238507Y87313D02*
X238587Y87150D01*
X238693Y87056D01*
X238813Y87033D01*
X238920Y87056D01*
X239027Y87173D01*
X239093Y87313D01*
X239107Y87453D01*
X239080Y87616D01*
X238987Y87733D01*
X238893Y87780D01*
X238773D01*
G01X238893D02*
X238973Y87850D01*
X239040Y87966D01*
X239067Y88106D01*
X239040Y88246D01*
X238973Y88363D01*
X238853Y88433D01*
X238733Y88410D01*
X238613Y88316D01*
G01X239867Y99533D02*
X240200Y100933D01*
X240533Y99533D01*
G01X240413Y100023D02*
X239987D01*
G01X241600Y100933D02*
Y99533D01*
G01X241293Y100933D02*
X241907D01*
G01X242600Y99066D02*
X243400D01*
G01X244693Y100816D02*
X244613Y100886D01*
X244520Y100933D01*
X244413D01*
X244293Y100863D01*
X244200Y100746D01*
X244133Y100606D01*
X244080Y100373D01*
X244067Y100163D01*
X244093Y99953D01*
X244133Y99813D01*
X244213Y99673D01*
X244307Y99580D01*
X244400Y99533D01*
X244493D01*
X244587Y99580D01*
X244667Y99650D01*
X244733Y99743D01*
G01X245800Y99533D02*
Y100933D01*
X245640Y100653D01*
G01Y99533D02*
X245960D01*
G01X228720Y153007D02*
X228650Y153060D01*
X228534Y153100D01*
X228370Y153127D01*
X228230Y153100D01*
X228137Y153047D01*
X228067Y152953D01*
Y152593D01*
X229467D01*
Y153033D01*
X229374Y153127D01*
X229234Y153180D01*
X229070Y153207D01*
X228907Y153180D01*
X228767Y153100D01*
X228720Y153007D01*
Y152593D01*
G01X229467Y153967D02*
X228067Y154300D01*
X229467Y154633D01*
G01X228977Y154513D02*
Y154087D01*
G01X228067Y155700D02*
X229467D01*
G01X228067Y155393D02*
Y156007D01*
G01X229467Y156807D02*
X228067D01*
Y157073D01*
X228137Y157180D01*
X228230Y157260D01*
X228370Y157327D01*
X228534Y157380D01*
X228767Y157393D01*
X229000Y157380D01*
X229164Y157327D01*
X229304Y157260D01*
X229397Y157180D01*
X229467Y157073D01*
Y156807D01*
G01Y158233D02*
X228067D01*
Y158567D01*
X228137Y158673D01*
X228230Y158740D01*
X228417Y158767D01*
X228604Y158740D01*
X228720Y158660D01*
X228790Y158567D01*
Y158233D01*
G01Y158567D02*
X229467Y158767D01*
G01X228067Y159567D02*
X229467Y159900D01*
X228067Y160233D01*
G01X229934Y160900D02*
Y161700D01*
G01X229467Y162433D02*
X228067D01*
Y162767D01*
X228137Y162873D01*
X228230Y162940D01*
X228417Y162967D01*
X228604Y162940D01*
X228720Y162860D01*
X228790Y162767D01*
Y162433D01*
G01Y162767D02*
X229467Y162967D01*
G01Y164100D02*
X228067D01*
X228347Y163940D01*
G01X229467D02*
Y164260D01*
G01X234780Y173193D02*
X234850Y173140D01*
X234966Y173100D01*
X235130Y173073D01*
X235270Y173100D01*
X235363Y173153D01*
X235433Y173247D01*
Y173607D01*
X234033D01*
Y173167D01*
X234126Y173073D01*
X234266Y173020D01*
X234430Y172993D01*
X234593Y173020D01*
X234733Y173100D01*
X234780Y173193D01*
Y173607D01*
G01X235316Y171607D02*
X235386Y171687D01*
X235433Y171780D01*
Y171887D01*
X235363Y172007D01*
X235246Y172100D01*
X235106Y172167D01*
X234873Y172220D01*
X234663Y172233D01*
X234453Y172207D01*
X234313Y172167D01*
X234173Y172087D01*
X234080Y171993D01*
X234033Y171900D01*
Y171807D01*
X234080Y171713D01*
X234150Y171633D01*
X234243Y171567D01*
G01X233566Y170900D02*
Y170100D01*
G01X235316Y168807D02*
X235386Y168887D01*
X235433Y168980D01*
Y169087D01*
X235363Y169207D01*
X235246Y169300D01*
X235106Y169367D01*
X234873Y169420D01*
X234663Y169433D01*
X234453Y169407D01*
X234313Y169367D01*
X234173Y169287D01*
X234080Y169193D01*
X234033Y169100D01*
Y169007D01*
X234080Y168913D01*
X234150Y168833D01*
X234243Y168767D01*
G01X234033Y167540D02*
X235433D01*
X234430Y168033D01*
Y167367D01*
G01X227780Y173193D02*
X227850Y173140D01*
X227966Y173100D01*
X228130Y173073D01*
X228270Y173100D01*
X228363Y173153D01*
X228433Y173247D01*
Y173607D01*
X227033D01*
Y173167D01*
X227126Y173073D01*
X227266Y173020D01*
X227430Y172993D01*
X227593Y173020D01*
X227733Y173100D01*
X227780Y173193D01*
Y173607D01*
G01X228316Y171607D02*
X228386Y171687D01*
X228433Y171780D01*
Y171887D01*
X228363Y172007D01*
X228246Y172100D01*
X228106Y172167D01*
X227873Y172220D01*
X227663Y172233D01*
X227453Y172207D01*
X227313Y172167D01*
X227173Y172087D01*
X227080Y171993D01*
X227033Y171900D01*
Y171807D01*
X227080Y171713D01*
X227150Y171633D01*
X227243Y171567D01*
G01X226566Y170900D02*
Y170100D01*
G01X227033Y169367D02*
X228433D01*
Y169033D01*
X228363Y168927D01*
X228270Y168860D01*
X228083Y168833D01*
X227896Y168860D01*
X227780Y168940D01*
X227710Y169033D01*
Y169367D01*
G01Y169033D02*
X227033Y168833D01*
G01Y167700D02*
X228433D01*
X228153Y167860D01*
G01X227033D02*
Y167540D01*
G01X253820Y39033D02*
Y40433D01*
G01X254380D02*
Y39033D01*
G01Y39733D02*
X253820D01*
G01X255100Y40433D02*
X255287Y39033D01*
X255500Y40433D01*
X255713Y39033D01*
X255900Y40433D01*
G01X257007Y39780D02*
X257060Y39850D01*
X257100Y39966D01*
X257127Y40130D01*
X257100Y40270D01*
X257047Y40363D01*
X256953Y40433D01*
X256593D01*
Y39033D01*
X257033D01*
X257127Y39126D01*
X257180Y39266D01*
X257207Y39430D01*
X257180Y39593D01*
X257100Y39733D01*
X257007Y39780D01*
X256593D01*
G01X259520Y39220D02*
X259627Y39103D01*
X259747Y39033D01*
X259853D01*
X259960Y39103D01*
X260040Y39220D01*
X260080Y39383D01*
X260053Y39546D01*
X259987Y39686D01*
X259867Y39780D01*
X259707Y39826D01*
X259613Y39920D01*
X259573Y40083D01*
X259600Y40246D01*
X259667Y40363D01*
X259760Y40433D01*
X259853D01*
X259947Y40386D01*
X260027Y40270D01*
G01X260920Y39220D02*
X261027Y39103D01*
X261147Y39033D01*
X261253D01*
X261360Y39103D01*
X261440Y39220D01*
X261480Y39383D01*
X261453Y39546D01*
X261387Y39686D01*
X261267Y39780D01*
X261107Y39826D01*
X261013Y39920D01*
X260973Y40083D01*
X261000Y40246D01*
X261067Y40363D01*
X261160Y40433D01*
X261253D01*
X261347Y40386D01*
X261427Y40270D01*
G01X247867Y29533D02*
X248200Y30933D01*
X248533Y29533D01*
G01X248413Y30023D02*
X247987D01*
G01X249600Y30933D02*
Y29533D01*
G01X249293Y30933D02*
X249907D01*
G01X250600Y29066D02*
X251400D01*
G01X252133Y29533D02*
Y30933D01*
X252467D01*
X252573Y30863D01*
X252640Y30770D01*
X252667Y30583D01*
X252640Y30396D01*
X252560Y30280D01*
X252467Y30210D01*
X252133D01*
G01X252467D02*
X252667Y29533D01*
G01X253800D02*
Y30933D01*
X253640Y30653D01*
G01Y29533D02*
X253960D01*
G01X247867Y36533D02*
X248200Y37933D01*
X248533Y36533D01*
G01X248413Y37023D02*
X247987D01*
G01X249600Y37933D02*
Y36533D01*
G01X249293Y37933D02*
X249907D01*
G01X250600Y36066D02*
X251400D01*
G01X252133Y36533D02*
Y37933D01*
X252467D01*
X252573Y37863D01*
X252640Y37770D01*
X252667Y37583D01*
X252640Y37396D01*
X252560Y37280D01*
X252467Y37210D01*
X252133D01*
G01X252467D02*
X252667Y36533D01*
G01X253547Y37700D02*
X253627Y37840D01*
X253720Y37910D01*
X253827Y37933D01*
X253960Y37886D01*
X254053Y37770D01*
X254080Y37630D01*
X254067Y37490D01*
X254013Y37373D01*
X253747Y37140D01*
X253627Y36976D01*
X253547Y36743D01*
X253520Y36533D01*
X254080D01*
G01X251167Y65033D02*
X251500Y66433D01*
X251833Y65033D01*
G01X251713Y65523D02*
X251287D01*
G01X252900Y66433D02*
Y65033D01*
G01X252593Y66433D02*
X253207D01*
G01X253953Y65033D02*
Y66433D01*
X254300Y65266D01*
X254647Y66433D01*
Y65033D01*
G01X255967D02*
X255433D01*
Y66433D01*
X255967D01*
G01X255753Y65756D02*
X255433D01*
G01X257180Y65733D02*
X257447D01*
Y65313D01*
X257367Y65173D01*
X257273Y65080D01*
X257140Y65033D01*
X257007Y65080D01*
X256913Y65173D01*
X256833Y65313D01*
X256780Y65476D01*
X256753Y65663D01*
Y65826D01*
X256780Y65966D01*
X256833Y66130D01*
X256913Y66270D01*
X256993Y66363D01*
X257100Y66433D01*
X257193D01*
X257300Y66386D01*
X257380Y66293D01*
G01X258167Y65033D02*
X258500Y66433D01*
X258833Y65033D01*
G01X258713Y65523D02*
X258287D01*
G01X252367Y92033D02*
X252700Y93433D01*
X253033Y92033D01*
G01X252913Y92523D02*
X252487D01*
G01X254100Y93433D02*
Y92033D01*
G01X253793Y93433D02*
X254407D01*
G01X255100Y91566D02*
X255900D01*
G01X257193Y93316D02*
X257113Y93386D01*
X257020Y93433D01*
X256913D01*
X256793Y93363D01*
X256700Y93246D01*
X256633Y93106D01*
X256580Y92873D01*
X256567Y92663D01*
X256593Y92453D01*
X256633Y92313D01*
X256713Y92173D01*
X256807Y92080D01*
X256900Y92033D01*
X256993D01*
X257087Y92080D01*
X257167Y92150D01*
X257233Y92243D01*
G01X258047Y93200D02*
X258127Y93340D01*
X258220Y93410D01*
X258327Y93433D01*
X258460Y93386D01*
X258553Y93270D01*
X258580Y93130D01*
X258567Y92990D01*
X258513Y92873D01*
X258247Y92640D01*
X258127Y92476D01*
X258047Y92243D01*
X258020Y92033D01*
X258580D01*
G01X243907Y130243D02*
X243987Y130126D01*
X244080Y130056D01*
X244200Y130033D01*
X244320Y130080D01*
X244413Y130173D01*
X244480Y130336D01*
X244493Y130523D01*
X244467Y130710D01*
X244400Y130826D01*
X244307Y130920D01*
X244213Y130943D01*
X244120Y130920D01*
X244000Y130826D01*
X244040Y131433D01*
X244400D01*
G01X245267D02*
X245600Y130033D01*
X245933Y131433D01*
G01X246600Y129566D02*
X247400D01*
G01X248133Y131433D02*
Y130033D01*
X248667D01*
G01X249547Y131200D02*
X249627Y131340D01*
X249720Y131410D01*
X249827Y131433D01*
X249960Y131386D01*
X250053Y131270D01*
X250080Y131130D01*
X250067Y130990D01*
X250013Y130873D01*
X249747Y130640D01*
X249627Y130476D01*
X249547Y130243D01*
X249520Y130033D01*
X250080D01*
G01X255423Y153607D02*
X254837Y152580D01*
G01X255130Y152393D02*
Y153793D01*
G01X254837Y153607D02*
X255423Y152580D01*
G01X255530Y153093D02*
X254730D01*
G01X243507Y166743D02*
X243587Y166626D01*
X243680Y166556D01*
X243800Y166533D01*
X243920Y166580D01*
X244013Y166673D01*
X244080Y166836D01*
X244093Y167023D01*
X244067Y167210D01*
X244000Y167326D01*
X243907Y167420D01*
X243813Y167443D01*
X243720Y167420D01*
X243600Y167326D01*
X243640Y167933D01*
X244000D01*
G01X244867D02*
X245200Y166533D01*
X245533Y167933D01*
G01X246200Y166066D02*
X247000D01*
G01X247733Y166533D02*
Y167933D01*
X248067D01*
X248173Y167863D01*
X248240Y167770D01*
X248267Y167583D01*
X248240Y167396D01*
X248160Y167280D01*
X248067Y167210D01*
X247733D01*
G01X248067D02*
X248267Y166533D01*
G01X249667D02*
X249133D01*
Y167933D01*
X249667D01*
G01X249453Y167256D02*
X249133D01*
G01X250880Y167233D02*
X251147D01*
Y166813D01*
X251067Y166673D01*
X250973Y166580D01*
X250840Y166533D01*
X250707Y166580D01*
X250613Y166673D01*
X250533Y166813D01*
X250480Y166976D01*
X250453Y167163D01*
Y167326D01*
X250480Y167466D01*
X250533Y167630D01*
X250613Y167770D01*
X250693Y167863D01*
X250800Y167933D01*
X250893D01*
X251000Y167886D01*
X251080Y167793D01*
G01X252200Y166533D02*
Y167933D01*
X252040Y167653D01*
G01Y166533D02*
X252360D01*
G01X263320Y39220D02*
X263427Y39103D01*
X263547Y39033D01*
X263653D01*
X263760Y39103D01*
X263840Y39220D01*
X263880Y39383D01*
X263853Y39546D01*
X263787Y39686D01*
X263667Y39780D01*
X263507Y39826D01*
X263413Y39920D01*
X263373Y40083D01*
X263400Y40246D01*
X263467Y40363D01*
X263560Y40433D01*
X263653D01*
X263747Y40386D01*
X263827Y40270D01*
G01X265293Y40316D02*
X265213Y40386D01*
X265120Y40433D01*
X265013D01*
X264893Y40363D01*
X264800Y40246D01*
X264733Y40106D01*
X264680Y39873D01*
X264667Y39663D01*
X264693Y39453D01*
X264733Y39313D01*
X264813Y39173D01*
X264907Y39080D01*
X265000Y39033D01*
X265093D01*
X265187Y39080D01*
X265267Y39150D01*
X265333Y39243D01*
G01X266107Y39033D02*
Y40433D01*
G01X266613D02*
X266107Y39570D01*
G01X266693Y39033D02*
X266333Y39966D01*
G01X271053Y41533D02*
Y42933D01*
X271400Y41766D01*
X271747Y42933D01*
Y41533D01*
G01X272800D02*
X272693Y41556D01*
X272600Y41650D01*
X272520Y41790D01*
X272467Y41953D01*
X272440Y42140D01*
Y42326D01*
X272467Y42513D01*
X272520Y42676D01*
X272600Y42816D01*
X272693Y42910D01*
X272800Y42933D01*
X272907Y42910D01*
X273000Y42816D01*
X273080Y42676D01*
X273133Y42513D01*
X273160Y42326D01*
Y42140D01*
X273133Y41953D01*
X273080Y41790D01*
X273000Y41650D01*
X272907Y41556D01*
X272800Y41533D01*
G01X273920Y41720D02*
X274027Y41603D01*
X274147Y41533D01*
X274253D01*
X274360Y41603D01*
X274440Y41720D01*
X274480Y41883D01*
X274453Y42046D01*
X274387Y42186D01*
X274267Y42280D01*
X274107Y42326D01*
X274013Y42420D01*
X273973Y42583D01*
X274000Y42746D01*
X274067Y42863D01*
X274160Y42933D01*
X274253D01*
X274347Y42886D01*
X274427Y42770D01*
G01X275440Y42933D02*
X275760D01*
G01X275600D02*
Y41533D01*
G01X275440D02*
X275760D01*
G01X268007Y38433D02*
Y37430D01*
X268060Y37220D01*
X268167Y37080D01*
X268300Y37033D01*
X268433Y37080D01*
X268540Y37220D01*
X268593Y37430D01*
Y38433D01*
G01X269420Y37220D02*
X269527Y37103D01*
X269647Y37033D01*
X269753D01*
X269860Y37103D01*
X269940Y37220D01*
X269980Y37383D01*
X269953Y37546D01*
X269887Y37686D01*
X269767Y37780D01*
X269607Y37826D01*
X269513Y37920D01*
X269473Y38083D01*
X269500Y38246D01*
X269567Y38363D01*
X269660Y38433D01*
X269753D01*
X269847Y38386D01*
X269927Y38270D01*
G01X271207Y37780D02*
X271260Y37850D01*
X271300Y37966D01*
X271327Y38130D01*
X271300Y38270D01*
X271247Y38363D01*
X271153Y38433D01*
X270793D01*
Y37033D01*
X271233D01*
X271327Y37126D01*
X271380Y37266D01*
X271407Y37430D01*
X271380Y37593D01*
X271300Y37733D01*
X271207Y37780D01*
X270793D01*
G01X272100Y36566D02*
X272900D01*
G01X273633Y37033D02*
Y38433D01*
X273967D01*
X274073Y38363D01*
X274140Y38270D01*
X274167Y38083D01*
X274140Y37896D01*
X274060Y37780D01*
X273967Y37710D01*
X273633D01*
G01X273967D02*
X274167Y37033D01*
G01X275007D02*
Y38433D01*
X275273D01*
X275380Y38363D01*
X275460Y38270D01*
X275527Y38130D01*
X275580Y37966D01*
X275593Y37733D01*
X275580Y37500D01*
X275527Y37336D01*
X275460Y37196D01*
X275380Y37103D01*
X275273Y37033D01*
X275007D01*
G01X276553Y37500D02*
X276873D01*
G01X276700Y37803D02*
Y37196D01*
G01X268007Y30933D02*
Y29930D01*
X268060Y29720D01*
X268167Y29580D01*
X268300Y29533D01*
X268433Y29580D01*
X268540Y29720D01*
X268593Y29930D01*
Y30933D01*
G01X269420Y29720D02*
X269527Y29603D01*
X269647Y29533D01*
X269753D01*
X269860Y29603D01*
X269940Y29720D01*
X269980Y29883D01*
X269953Y30046D01*
X269887Y30186D01*
X269767Y30280D01*
X269607Y30326D01*
X269513Y30420D01*
X269473Y30583D01*
X269500Y30746D01*
X269567Y30863D01*
X269660Y30933D01*
X269753D01*
X269847Y30886D01*
X269927Y30770D01*
G01X271207Y30280D02*
X271260Y30350D01*
X271300Y30466D01*
X271327Y30630D01*
X271300Y30770D01*
X271247Y30863D01*
X271153Y30933D01*
X270793D01*
Y29533D01*
X271233D01*
X271327Y29626D01*
X271380Y29766D01*
X271407Y29930D01*
X271380Y30093D01*
X271300Y30233D01*
X271207Y30280D01*
X270793D01*
G01X272100Y29066D02*
X272900D01*
G01X273633Y29533D02*
Y30933D01*
X273967D01*
X274073Y30863D01*
X274140Y30770D01*
X274167Y30583D01*
X274140Y30396D01*
X274060Y30280D01*
X273967Y30210D01*
X273633D01*
G01X273967D02*
X274167Y29533D01*
G01X275007D02*
Y30933D01*
X275273D01*
X275380Y30863D01*
X275460Y30770D01*
X275527Y30630D01*
X275580Y30466D01*
X275593Y30233D01*
X275580Y30000D01*
X275527Y29836D01*
X275460Y29696D01*
X275380Y29603D01*
X275273Y29533D01*
X275007D01*
G01X276527Y30000D02*
X276873D01*
G01X270553Y46533D02*
Y47933D01*
X270900Y46766D01*
X271247Y47933D01*
Y46533D01*
G01X272140Y47933D02*
X272460D01*
G01X272300D02*
Y46533D01*
G01X272140D02*
X272460D01*
G01X273420Y46720D02*
X273527Y46603D01*
X273647Y46533D01*
X273753D01*
X273860Y46603D01*
X273940Y46720D01*
X273980Y46883D01*
X273953Y47046D01*
X273887Y47186D01*
X273767Y47280D01*
X273607Y47326D01*
X273513Y47420D01*
X273473Y47583D01*
X273500Y47746D01*
X273567Y47863D01*
X273660Y47933D01*
X273753D01*
X273847Y47886D01*
X273927Y47770D01*
G01X275100Y46533D02*
X274993Y46556D01*
X274900Y46650D01*
X274820Y46790D01*
X274767Y46953D01*
X274740Y47140D01*
Y47326D01*
X274767Y47513D01*
X274820Y47676D01*
X274900Y47816D01*
X274993Y47910D01*
X275100Y47933D01*
X275207Y47910D01*
X275300Y47816D01*
X275380Y47676D01*
X275433Y47513D01*
X275460Y47326D01*
Y47140D01*
X275433Y46953D01*
X275380Y46790D01*
X275300Y46650D01*
X275207Y46556D01*
X275100Y46533D01*
G01X273467Y93533D02*
X273800Y94933D01*
X274133Y93533D01*
G01X274013Y94023D02*
X273587D01*
G01X275200Y94933D02*
Y93533D01*
G01X274893Y94933D02*
X275507D01*
G01X276200Y93066D02*
X277000D01*
G01X277707Y94933D02*
Y93930D01*
X277760Y93720D01*
X277867Y93580D01*
X278000Y93533D01*
X278133Y93580D01*
X278240Y93720D01*
X278293Y93930D01*
Y94933D01*
G01X279693Y94816D02*
X279613Y94886D01*
X279520Y94933D01*
X279413D01*
X279293Y94863D01*
X279200Y94746D01*
X279133Y94606D01*
X279080Y94373D01*
X279067Y94163D01*
X279093Y93953D01*
X279133Y93813D01*
X279213Y93673D01*
X279307Y93580D01*
X279400Y93533D01*
X279493D01*
X279587Y93580D01*
X279667Y93650D01*
X279733Y93743D01*
G01X280467Y93533D02*
X280800Y94933D01*
X281133Y93533D01*
G01X281013Y94023D02*
X280587D01*
G01X281933Y93533D02*
Y94933D01*
X282253D01*
X282360Y94863D01*
X282440Y94700D01*
X282467Y94513D01*
X282440Y94326D01*
X282373Y94186D01*
X282253Y94116D01*
X281933D01*
G01X274033Y175367D02*
X275433D01*
Y175047D01*
X275363Y174940D01*
X275200Y174860D01*
X275013Y174833D01*
X274826Y174860D01*
X274686Y174927D01*
X274616Y175047D01*
Y175367D01*
G01X275433Y174100D02*
X274033Y173913D01*
X275433Y173700D01*
X274033Y173487D01*
X275433Y173300D01*
G01X274033Y172567D02*
X275433D01*
Y172233D01*
X275363Y172127D01*
X275270Y172060D01*
X275083Y172033D01*
X274896Y172060D01*
X274780Y172140D01*
X274710Y172233D01*
Y172567D01*
G01Y172233D02*
X274033Y172033D01*
G01Y171167D02*
X275433D01*
Y170847D01*
X275363Y170740D01*
X275200Y170660D01*
X275013Y170633D01*
X274826Y170660D01*
X274686Y170727D01*
X274616Y170847D01*
Y171167D01*
G01X275433Y169500D02*
X274033D01*
G01X275433Y169807D02*
Y169193D01*
G01X274033Y168380D02*
X275433D01*
G01Y167820D02*
X274033D01*
G01X274733D02*
Y168380D01*
G01X273566Y167100D02*
Y166300D01*
G01X275316Y165007D02*
X275386Y165087D01*
X275433Y165180D01*
Y165287D01*
X275363Y165407D01*
X275246Y165500D01*
X275106Y165567D01*
X274873Y165620D01*
X274663Y165633D01*
X274453Y165607D01*
X274313Y165567D01*
X274173Y165487D01*
X274080Y165393D01*
X274033Y165300D01*
Y165207D01*
X274080Y165113D01*
X274150Y165033D01*
X274243Y164967D01*
G01X274033Y163900D02*
X275433D01*
X275153Y164060D01*
G01X274033D02*
Y163740D01*
G01X284867Y36533D02*
X285200Y37933D01*
X285533Y36533D01*
G01X285413Y37023D02*
X284987D01*
G01X286320Y36533D02*
X286880Y37933D01*
G01X286320D02*
X286880Y36533D01*
G01X287600Y36066D02*
X288400D01*
G01X289133Y36533D02*
Y37933D01*
X289467D01*
X289573Y37863D01*
X289640Y37770D01*
X289667Y37583D01*
X289640Y37396D01*
X289560Y37280D01*
X289467Y37210D01*
X289133D01*
G01X289467D02*
X289667Y36533D01*
G01X290547Y37700D02*
X290627Y37840D01*
X290720Y37910D01*
X290827Y37933D01*
X290960Y37886D01*
X291053Y37770D01*
X291080Y37630D01*
X291067Y37490D01*
X291013Y37373D01*
X290747Y37140D01*
X290627Y36976D01*
X290547Y36743D01*
X290520Y36533D01*
X291080D01*
G01X298043Y27277D02*
X297457Y26250D01*
G01X297750Y26063D02*
Y27463D01*
G01X297457Y27277D02*
X298043Y26250D01*
G01X298150Y26763D02*
X297350D01*
G01X292400Y25433D02*
Y24033D01*
G01X292093Y25433D02*
X292707D01*
G01X293467D02*
X293800Y24033D01*
X294133Y25433D01*
G01X294920Y24220D02*
X295027Y24103D01*
X295147Y24033D01*
X295253D01*
X295360Y24103D01*
X295440Y24220D01*
X295480Y24383D01*
X295453Y24546D01*
X295387Y24686D01*
X295267Y24780D01*
X295107Y24826D01*
X295013Y24920D01*
X294973Y25083D01*
X295000Y25246D01*
X295067Y25363D01*
X295160Y25433D01*
X295253D01*
X295347Y25386D01*
X295427Y25270D01*
G01X296600Y24033D02*
Y25433D01*
X296440Y25153D01*
G01Y24033D02*
X296760D01*
G01X284867Y44033D02*
X285200Y45433D01*
X285533Y44033D01*
G01X285413Y44523D02*
X284987D01*
G01X286320Y44033D02*
X286880Y45433D01*
G01X286320D02*
X286880Y44033D01*
G01X287600Y43566D02*
X288400D01*
G01X289133Y44033D02*
Y45433D01*
X289467D01*
X289573Y45363D01*
X289640Y45270D01*
X289667Y45083D01*
X289640Y44896D01*
X289560Y44780D01*
X289467Y44710D01*
X289133D01*
G01X289467D02*
X289667Y44033D01*
G01X290800D02*
Y45433D01*
X290640Y45153D01*
G01Y44033D02*
X290960D01*
G01X296333Y55800D02*
X296000Y54400D01*
X295667Y55800D01*
G01X295787Y55310D02*
X296213D01*
G01X294880Y55800D02*
X294320Y54400D01*
G01X294880D02*
X294320Y55800D01*
G01X293600Y56267D02*
X292800D01*
G01X291533Y55800D02*
X292067D01*
Y54400D01*
X291533D01*
G01X291747Y55077D02*
X292067D01*
G01X290680Y55613D02*
X290573Y55730D01*
X290453Y55800D01*
X290347D01*
X290240Y55730D01*
X290160Y55613D01*
X290120Y55450D01*
X290147Y55287D01*
X290213Y55147D01*
X290333Y55053D01*
X290493Y55007D01*
X290587Y54913D01*
X290627Y54750D01*
X290600Y54587D01*
X290533Y54470D01*
X290440Y54400D01*
X290347D01*
X290253Y54447D01*
X290173Y54563D01*
G01X289293Y55800D02*
Y54400D01*
X289027D01*
X288920Y54470D01*
X288840Y54563D01*
X288773Y54703D01*
X288720Y54867D01*
X288707Y55100D01*
X288720Y55333D01*
X288773Y55497D01*
X288840Y55637D01*
X288920Y55730D01*
X289027Y55800D01*
X289293D01*
G01X295533Y176367D02*
X296933D01*
Y176047D01*
X296863Y175940D01*
X296700Y175860D01*
X296513Y175833D01*
X296326Y175860D01*
X296186Y175927D01*
X296116Y176047D01*
Y176367D01*
G01X296933Y175100D02*
X295533Y174913D01*
X296933Y174700D01*
X295533Y174487D01*
X296933Y174300D01*
G01X295533Y173567D02*
X296933D01*
Y173233D01*
X296863Y173127D01*
X296770Y173060D01*
X296583Y173033D01*
X296396Y173060D01*
X296280Y173140D01*
X296210Y173233D01*
Y173567D01*
G01Y173233D02*
X295533Y173033D01*
G01Y172167D02*
X296933D01*
Y171847D01*
X296863Y171740D01*
X296700Y171660D01*
X296513Y171633D01*
X296326Y171660D01*
X296186Y171727D01*
X296116Y171847D01*
Y172167D01*
G01X296933Y170500D02*
X295533D01*
G01X296933Y170807D02*
Y170193D01*
G01X295533Y169380D02*
X296933D01*
G01Y168820D02*
X295533D01*
G01X296233D02*
Y169380D01*
G01X295066Y168100D02*
Y167300D01*
G01X296816Y166007D02*
X296886Y166087D01*
X296933Y166180D01*
Y166287D01*
X296863Y166407D01*
X296746Y166500D01*
X296606Y166567D01*
X296373Y166620D01*
X296163Y166633D01*
X295953Y166607D01*
X295813Y166567D01*
X295673Y166487D01*
X295580Y166393D01*
X295533Y166300D01*
Y166207D01*
X295580Y166113D01*
X295650Y166033D01*
X295743Y165967D01*
G01X296700Y165153D02*
X296840Y165073D01*
X296910Y164980D01*
X296933Y164873D01*
X296886Y164740D01*
X296770Y164647D01*
X296630Y164620D01*
X296490Y164633D01*
X296373Y164687D01*
X296140Y164953D01*
X295976Y165073D01*
X295743Y165153D01*
X295533Y165180D01*
Y164620D01*
G01X313791Y12028D02*
G02X312709Y11437I-1112J749D01*
G01X309067Y9961D02*
Y8976D01*
G01X326193Y5138D02*
X317138D01*
G01X323081Y24279D02*
G03X321646Y22844I1J-1436D01*
G01Y17048D01*
G03X322971Y15724I1325J1D01*
G01X323799Y14896D01*
X338811D01*
G01X309063Y9983D02*
G02X310498Y11419I1435J1D01*
G01X312595D01*
G01X312905Y28563D02*
G02X313791Y27972I-80J-1079D01*
G01X309067Y30039D02*
Y31024D01*
G01X326291Y34961D02*
X317039D01*
G01X310442Y28583D02*
G02X309063Y29963I1J1380D01*
G01X312761Y28583D02*
X310442D01*
G01X308467Y57667D02*
X307067Y58000D01*
X308467Y58333D01*
G01X307977Y58213D02*
Y57787D01*
G01X308187Y59107D02*
X308350Y59187D01*
X308444Y59293D01*
X308467Y59413D01*
X308444Y59520D01*
X308327Y59627D01*
X308187Y59693D01*
X308047Y59707D01*
X307884Y59680D01*
X307767Y59587D01*
X307720Y59493D01*
Y59373D01*
G01Y59493D02*
X307650Y59573D01*
X307534Y59640D01*
X307394Y59667D01*
X307254Y59640D01*
X307137Y59573D01*
X307067Y59453D01*
X307090Y59333D01*
X307184Y59213D01*
G01X308934Y60400D02*
Y61200D01*
G01X307067Y61933D02*
X308467D01*
Y62467D01*
G01Y63867D02*
Y63333D01*
X307067D01*
Y63867D01*
G01X307744Y63653D02*
Y63333D01*
G01X308467Y64707D02*
X307067D01*
Y64973D01*
X307137Y65080D01*
X307230Y65160D01*
X307370Y65227D01*
X307534Y65280D01*
X307767Y65293D01*
X308000Y65280D01*
X308164Y65227D01*
X308304Y65160D01*
X308397Y65080D01*
X308467Y64973D01*
Y64707D01*
G01X314500Y77567D02*
X313100Y77900D01*
X314500Y78233D01*
G01X314010Y78113D02*
Y77687D01*
G01X314967Y78900D02*
Y79700D01*
G01X314500Y80433D02*
X313100D01*
Y80767D01*
X313170Y80873D01*
X313263Y80940D01*
X313450Y80967D01*
X313637Y80940D01*
X313753Y80860D01*
X313823Y80767D01*
Y80433D01*
G01Y80767D02*
X314500Y80967D01*
G01Y82260D02*
X313100D01*
X314103Y81767D01*
Y82433D01*
G01X308967Y100167D02*
X307567Y100500D01*
X308967Y100833D01*
G01X308477Y100713D02*
Y100287D01*
G01X307800Y101647D02*
X307660Y101727D01*
X307590Y101820D01*
X307567Y101927D01*
X307614Y102060D01*
X307730Y102153D01*
X307870Y102180D01*
X308010Y102167D01*
X308127Y102113D01*
X308360Y101847D01*
X308524Y101727D01*
X308757Y101647D01*
X308967Y101620D01*
Y102180D01*
G01X309434Y102900D02*
Y103700D01*
G01X307567Y104433D02*
X308967D01*
Y104967D01*
G01Y106367D02*
Y105833D01*
X307567D01*
Y106367D01*
G01X308244Y106153D02*
Y105833D01*
G01X308967Y107207D02*
X307567D01*
Y107473D01*
X307637Y107580D01*
X307730Y107660D01*
X307870Y107727D01*
X308034Y107780D01*
X308267Y107793D01*
X308500Y107780D01*
X308664Y107727D01*
X308804Y107660D01*
X308897Y107580D01*
X308967Y107473D01*
Y107207D01*
G01X309467Y119067D02*
X308067Y119400D01*
X309467Y119733D01*
G01X308977Y119613D02*
Y119187D01*
G01X309934Y120400D02*
Y121200D01*
G01X309467Y121933D02*
X308067D01*
Y122267D01*
X308137Y122373D01*
X308230Y122440D01*
X308417Y122467D01*
X308604Y122440D01*
X308720Y122360D01*
X308790Y122267D01*
Y121933D01*
G01Y122267D02*
X309467Y122467D01*
G01X309187Y123307D02*
X309350Y123387D01*
X309444Y123493D01*
X309467Y123613D01*
X309444Y123720D01*
X309327Y123827D01*
X309187Y123893D01*
X309047Y123907D01*
X308884Y123880D01*
X308767Y123787D01*
X308720Y123693D01*
Y123573D01*
G01Y123693D02*
X308650Y123773D01*
X308534Y123840D01*
X308394Y123867D01*
X308254Y123840D01*
X308137Y123773D01*
X308067Y123653D01*
X308090Y123533D01*
X308184Y123413D01*
G01X309467Y143167D02*
X308067Y143500D01*
X309467Y143833D01*
G01X308977Y143713D02*
Y143287D01*
G01X309467Y144900D02*
X308067D01*
X308347Y144740D01*
G01X309467D02*
Y145060D01*
G01X309934Y145900D02*
Y146700D01*
G01X308067Y147433D02*
X309467D01*
Y147967D01*
G01Y149367D02*
Y148833D01*
X308067D01*
Y149367D01*
G01X308744Y149153D02*
Y148833D01*
G01X309467Y150207D02*
X308067D01*
Y150473D01*
X308137Y150580D01*
X308230Y150660D01*
X308370Y150727D01*
X308534Y150780D01*
X308767Y150793D01*
X309000Y150780D01*
X309164Y150727D01*
X309304Y150660D01*
X309397Y150580D01*
X309467Y150473D01*
Y150207D01*
G01X309967Y162567D02*
X308567Y162900D01*
X309967Y163233D01*
G01X309477Y163113D02*
Y162687D01*
G01X310434Y163900D02*
Y164700D01*
G01X309967Y165433D02*
X308567D01*
Y165767D01*
X308637Y165873D01*
X308730Y165940D01*
X308917Y165967D01*
X309104Y165940D01*
X309220Y165860D01*
X309290Y165767D01*
Y165433D01*
G01Y165767D02*
X309967Y165967D01*
G01X308800Y166847D02*
X308660Y166927D01*
X308590Y167020D01*
X308567Y167127D01*
X308614Y167260D01*
X308730Y167353D01*
X308870Y167380D01*
X309010Y167367D01*
X309127Y167313D01*
X309360Y167047D01*
X309524Y166927D01*
X309757Y166847D01*
X309967Y166820D01*
Y167380D01*
G01X309467Y186167D02*
X308067Y186500D01*
X309467Y186833D01*
G01X308977Y186713D02*
Y186287D01*
G01X308067Y187900D02*
X308114Y187793D01*
X308230Y187713D01*
X308370Y187660D01*
X308557Y187620D01*
X308767Y187607D01*
X308977Y187620D01*
X309164Y187660D01*
X309304Y187713D01*
X309420Y187793D01*
X309467Y187900D01*
X309420Y188007D01*
X309304Y188087D01*
X309164Y188140D01*
X308977Y188180D01*
X308767Y188193D01*
X308557Y188180D01*
X308370Y188140D01*
X308230Y188087D01*
X308114Y188007D01*
X308067Y187900D01*
G01X309934Y188900D02*
Y189700D01*
G01X308067Y190433D02*
X309467D01*
Y190967D01*
G01Y192367D02*
Y191833D01*
X308067D01*
Y192367D01*
G01X308744Y192153D02*
Y191833D01*
G01X309467Y193207D02*
X308067D01*
Y193473D01*
X308137Y193580D01*
X308230Y193660D01*
X308370Y193727D01*
X308534Y193780D01*
X308767Y193793D01*
X309000Y193780D01*
X309164Y193727D01*
X309304Y193660D01*
X309397Y193580D01*
X309467Y193473D01*
Y193207D01*
G01X309967Y204567D02*
X308567Y204900D01*
X309967Y205233D01*
G01X309477Y205113D02*
Y204687D01*
G01X310434Y205900D02*
Y206700D01*
G01X309967Y207433D02*
X308567D01*
Y207767D01*
X308637Y207873D01*
X308730Y207940D01*
X308917Y207967D01*
X309104Y207940D01*
X309220Y207860D01*
X309290Y207767D01*
Y207433D01*
G01Y207767D02*
X309967Y207967D01*
G01Y209100D02*
X308567D01*
X308847Y208940D01*
G01X309967D02*
Y209260D01*
G01X333277Y21493D02*
X332274D01*
X332064Y21440D01*
X331924Y21333D01*
X331877Y21200D01*
X331924Y21067D01*
X332064Y20960D01*
X332274Y20907D01*
X333277D01*
G01X332064Y20080D02*
X331947Y19973D01*
X331877Y19853D01*
Y19747D01*
X331947Y19640D01*
X332064Y19560D01*
X332227Y19520D01*
X332390Y19547D01*
X332530Y19613D01*
X332624Y19733D01*
X332670Y19893D01*
X332764Y19987D01*
X332927Y20027D01*
X333090Y20000D01*
X333207Y19933D01*
X333277Y19840D01*
Y19747D01*
X333230Y19653D01*
X333114Y19573D01*
G01X332624Y18293D02*
X332694Y18240D01*
X332810Y18200D01*
X332974Y18173D01*
X333114Y18200D01*
X333207Y18253D01*
X333277Y18347D01*
Y18707D01*
X331877D01*
Y18267D01*
X331970Y18173D01*
X332110Y18120D01*
X332274Y18093D01*
X332437Y18120D01*
X332577Y18200D01*
X332624Y18293D01*
Y18707D01*
G01X331877Y17000D02*
X333277D01*
X332997Y17160D01*
G01X331877D02*
Y16840D01*
G01X344106Y5039D02*
X337905D01*
G01X324903Y21795D02*
G02X326559Y23451I1656J0D01*
G01X338259D01*
X338811Y24003D01*
G01X326614Y16607D02*
G02X324903Y18318I0J1711D01*
G01Y21795D01*
G01X338811Y14896D02*
G02X338866Y15944I28J524D01*
G01X327276D01*
X326614Y16607D01*
G01X323247Y8493D02*
G03X322805Y7997I31J-472D01*
G01Y5237D01*
G01X336714Y11308D02*
G03X336659Y9376I-63J-965D01*
G01X324130D01*
X323247Y8493D01*
G01X323413Y13350D02*
G03X323357Y12191I-26J-580D01*
G01X324240Y11308D01*
X336714D01*
G01X339418D02*
G02X338038Y12688I-1379J1D01*
G01X324075D01*
X323413Y13350D01*
G01X339418Y5237D02*
Y11308D01*
G01X344106Y34961D02*
X337905D01*
G01X323247Y31509D02*
G02X322805Y32006I31J472D01*
G01Y34765D01*
G01X336714Y28694D02*
G02X336659Y30626I-64J965D01*
G01X324130D01*
X323247Y31509D01*
G01X323412Y26652D02*
G02X323357Y27811I-26J580D01*
G01X324240Y28694D01*
X336714D01*
G01X339418D02*
G02X338038Y27314I-1381J1D01*
G01X324074D01*
X323412Y26652D01*
G01X339418Y34765D02*
Y28694D01*
G01X338811Y24003D02*
G02Y25106I-25J551D01*
G01X323909D01*
X323081Y24279D01*
G01X331967Y43567D02*
X330567Y43900D01*
X331967Y44233D01*
G01X331477Y44113D02*
Y43687D01*
G01X331687Y45007D02*
X331850Y45087D01*
X331944Y45193D01*
X331967Y45313D01*
X331944Y45420D01*
X331827Y45527D01*
X331687Y45593D01*
X331547Y45607D01*
X331384Y45580D01*
X331267Y45487D01*
X331220Y45393D01*
Y45273D01*
G01Y45393D02*
X331150Y45473D01*
X331034Y45540D01*
X330894Y45567D01*
X330754Y45540D01*
X330637Y45473D01*
X330567Y45353D01*
X330590Y45233D01*
X330684Y45113D01*
G01X332434Y46300D02*
Y47100D01*
G01X331967Y47833D02*
X330567D01*
Y48167D01*
X330637Y48273D01*
X330730Y48340D01*
X330917Y48367D01*
X331104Y48340D01*
X331220Y48260D01*
X331290Y48167D01*
Y47833D01*
G01Y48167D02*
X331967Y48367D01*
G01X331220Y49607D02*
X331150Y49660D01*
X331034Y49700D01*
X330870Y49727D01*
X330730Y49700D01*
X330637Y49647D01*
X330567Y49553D01*
Y49193D01*
X331967D01*
Y49633D01*
X331874Y49727D01*
X331734Y49780D01*
X331570Y49807D01*
X331407Y49780D01*
X331267Y49700D01*
X331220Y49607D01*
Y49193D01*
G01X330567Y50633D02*
X331967D01*
Y51167D01*
G01Y52567D02*
Y52033D01*
X330567D01*
Y52567D01*
G01X331244Y52353D02*
Y52033D01*
G01X331967Y53967D02*
Y53433D01*
X330567D01*
Y53967D01*
G01X331244Y53753D02*
Y53433D01*
G01X331967Y54807D02*
X330567D01*
Y55073D01*
X330637Y55180D01*
X330730Y55260D01*
X330870Y55327D01*
X331034Y55380D01*
X331267Y55393D01*
X331500Y55380D01*
X331664Y55327D01*
X331804Y55260D01*
X331897Y55180D01*
X331967Y55073D01*
Y54807D01*
G01X334100Y78633D02*
X335500Y78300D01*
X334100Y77967D01*
G01X334590Y78087D02*
Y78513D01*
G01X334380Y77193D02*
X334217Y77113D01*
X334123Y77007D01*
X334100Y76887D01*
X334123Y76780D01*
X334240Y76673D01*
X334380Y76607D01*
X334520Y76593D01*
X334683Y76620D01*
X334800Y76713D01*
X334847Y76807D01*
Y76927D01*
G01Y76807D02*
X334917Y76727D01*
X335033Y76660D01*
X335173Y76633D01*
X335313Y76660D01*
X335430Y76727D01*
X335500Y76847D01*
X335477Y76967D01*
X335383Y77087D01*
G01X331467Y86067D02*
X330067Y86400D01*
X331467Y86733D01*
G01X330977Y86613D02*
Y86187D01*
G01X330300Y87547D02*
X330160Y87627D01*
X330090Y87720D01*
X330067Y87827D01*
X330114Y87960D01*
X330230Y88053D01*
X330370Y88080D01*
X330510Y88067D01*
X330627Y88013D01*
X330860Y87747D01*
X331024Y87627D01*
X331257Y87547D01*
X331467Y87520D01*
Y88080D01*
G01X331934Y88800D02*
Y89600D01*
G01X331467Y90333D02*
X330067D01*
Y90667D01*
X330137Y90773D01*
X330230Y90840D01*
X330417Y90867D01*
X330604Y90840D01*
X330720Y90760D01*
X330790Y90667D01*
Y90333D01*
G01Y90667D02*
X331467Y90867D01*
G01X330720Y92107D02*
X330650Y92160D01*
X330534Y92200D01*
X330370Y92227D01*
X330230Y92200D01*
X330137Y92147D01*
X330067Y92053D01*
Y91693D01*
X331467D01*
Y92133D01*
X331374Y92227D01*
X331234Y92280D01*
X331070Y92307D01*
X330907Y92280D01*
X330767Y92200D01*
X330720Y92107D01*
Y91693D01*
G01X330067Y93133D02*
X331467D01*
Y93667D01*
G01Y95067D02*
Y94533D01*
X330067D01*
Y95067D01*
G01X330744Y94853D02*
Y94533D01*
G01X331467Y96467D02*
Y95933D01*
X330067D01*
Y96467D01*
G01X330744Y96253D02*
Y95933D01*
G01X331467Y97307D02*
X330067D01*
Y97573D01*
X330137Y97680D01*
X330230Y97760D01*
X330370Y97827D01*
X330534Y97880D01*
X330767Y97893D01*
X331000Y97880D01*
X331164Y97827D01*
X331304Y97760D01*
X331397Y97680D01*
X331467Y97573D01*
Y97307D01*
G01X334100Y121183D02*
X335500Y120850D01*
X334100Y120517D01*
G01X334590Y120637D02*
Y121063D01*
G01X335267Y119703D02*
X335407Y119623D01*
X335477Y119530D01*
X335500Y119423D01*
X335453Y119290D01*
X335337Y119197D01*
X335197Y119170D01*
X335057Y119183D01*
X334940Y119237D01*
X334707Y119503D01*
X334543Y119623D01*
X334310Y119703D01*
X334100Y119730D01*
Y119170D01*
G01X330967Y129067D02*
X329567Y129400D01*
X330967Y129733D01*
G01X330477Y129613D02*
Y129187D01*
G01X330967Y130800D02*
X329567D01*
X329847Y130640D01*
G01X330967D02*
Y130960D01*
G01X331434Y131800D02*
Y132600D01*
G01X330967Y133333D02*
X329567D01*
Y133667D01*
X329637Y133773D01*
X329730Y133840D01*
X329917Y133867D01*
X330104Y133840D01*
X330220Y133760D01*
X330290Y133667D01*
Y133333D01*
G01Y133667D02*
X330967Y133867D01*
G01X330220Y135107D02*
X330150Y135160D01*
X330034Y135200D01*
X329870Y135227D01*
X329730Y135200D01*
X329637Y135147D01*
X329567Y135053D01*
Y134693D01*
X330967D01*
Y135133D01*
X330874Y135227D01*
X330734Y135280D01*
X330570Y135307D01*
X330407Y135280D01*
X330267Y135200D01*
X330220Y135107D01*
Y134693D01*
G01X329567Y136133D02*
X330967D01*
Y136667D01*
G01Y138067D02*
Y137533D01*
X329567D01*
Y138067D01*
G01X330244Y137853D02*
Y137533D01*
G01X330967Y139467D02*
Y138933D01*
X329567D01*
Y139467D01*
G01X330244Y139253D02*
Y138933D01*
G01X330967Y140307D02*
X329567D01*
Y140573D01*
X329637Y140680D01*
X329730Y140760D01*
X329870Y140827D01*
X330034Y140880D01*
X330267Y140893D01*
X330500Y140880D01*
X330664Y140827D01*
X330804Y140760D01*
X330897Y140680D01*
X330967Y140573D01*
Y140307D01*
G01X334100Y163733D02*
X335500Y163400D01*
X334100Y163067D01*
G01X334590Y163187D02*
Y163613D01*
G01X334100Y162000D02*
X335500D01*
X335220Y162160D01*
G01X334100D02*
Y161840D01*
G01X330967Y171567D02*
X329567Y171900D01*
X330967Y172233D01*
G01X330477Y172113D02*
Y171687D01*
G01X329567Y173300D02*
X329614Y173193D01*
X329730Y173113D01*
X329870Y173060D01*
X330057Y173020D01*
X330267Y173007D01*
X330477Y173020D01*
X330664Y173060D01*
X330804Y173113D01*
X330920Y173193D01*
X330967Y173300D01*
X330920Y173407D01*
X330804Y173487D01*
X330664Y173540D01*
X330477Y173580D01*
X330267Y173593D01*
X330057Y173580D01*
X329870Y173540D01*
X329730Y173487D01*
X329614Y173407D01*
X329567Y173300D01*
G01X331434Y174300D02*
Y175100D01*
G01X330967Y175833D02*
X329567D01*
Y176167D01*
X329637Y176273D01*
X329730Y176340D01*
X329917Y176367D01*
X330104Y176340D01*
X330220Y176260D01*
X330290Y176167D01*
Y175833D01*
G01Y176167D02*
X330967Y176367D01*
G01X330220Y177607D02*
X330150Y177660D01*
X330034Y177700D01*
X329870Y177727D01*
X329730Y177700D01*
X329637Y177647D01*
X329567Y177553D01*
Y177193D01*
X330967D01*
Y177633D01*
X330874Y177727D01*
X330734Y177780D01*
X330570Y177807D01*
X330407Y177780D01*
X330267Y177700D01*
X330220Y177607D01*
Y177193D01*
G01X329567Y178633D02*
X330967D01*
Y179167D01*
G01Y180567D02*
Y180033D01*
X329567D01*
Y180567D01*
G01X330244Y180353D02*
Y180033D01*
G01X330967Y181967D02*
Y181433D01*
X329567D01*
Y181967D01*
G01X330244Y181753D02*
Y181433D01*
G01X330967Y182807D02*
X329567D01*
Y183073D01*
X329637Y183180D01*
X329730Y183260D01*
X329870Y183327D01*
X330034Y183380D01*
X330267Y183393D01*
X330500Y183380D01*
X330664Y183327D01*
X330804Y183260D01*
X330897Y183180D01*
X330967Y183073D01*
Y182807D01*
G01X334100Y206283D02*
X335500Y205950D01*
X334100Y205617D01*
G01X334590Y205737D02*
Y206163D01*
G01X335500Y204550D02*
X335453Y204657D01*
X335337Y204737D01*
X335197Y204790D01*
X335010Y204830D01*
X334800Y204843D01*
X334590Y204830D01*
X334403Y204790D01*
X334263Y204737D01*
X334147Y204657D01*
X334100Y204550D01*
X334147Y204443D01*
X334263Y204363D01*
X334403Y204310D01*
X334590Y204270D01*
X334800Y204257D01*
X335010Y204270D01*
X335197Y204310D01*
X335337Y204363D01*
X335453Y204443D01*
X335500Y204550D01*
G01X344110Y34986D02*
Y5016D01*
G54D12*
G01X340000Y0D02*
Y215000D01*
X0D01*
Y0D01*
X340000D01*
G01X19467Y93013D02*
X19967Y92633D01*
X20217Y92190D01*
X20300Y91683D01*
X20133Y91050D01*
X19717Y90607D01*
X19217Y90480D01*
X18717Y90543D01*
X18300Y90797D01*
X17467Y92063D01*
X16883Y92633D01*
X16050Y93013D01*
X15300Y93140D01*
Y90480D01*
G01X19467Y93013D02*
X19967Y92633D01*
X20217Y92190D01*
X20300Y91683D01*
X20133Y91050D01*
X19717Y90607D01*
X19217Y90480D01*
X18717Y90543D01*
X18300Y90797D01*
X17467Y92063D01*
X16883Y92633D01*
X16050Y93013D01*
X15300Y93140D01*
Y90480D01*
G01Y125100D02*
X20300D01*
X19300Y125860D01*
G01X15300D02*
Y124340D01*
G01Y125100D02*
X20300D01*
X19300Y125860D01*
G01X15300D02*
Y124340D01*
G01X18717Y178553D02*
X19217Y178173D01*
X19467Y177730D01*
X19550Y177223D01*
X19383Y176590D01*
X18967Y176147D01*
X18467Y176020D01*
X17967Y176083D01*
X17550Y176337D01*
X16717Y177603D01*
X16133Y178173D01*
X15300Y178553D01*
X14550Y178680D01*
Y176020D01*
G01X18717Y178553D02*
X19217Y178173D01*
X19467Y177730D01*
X19550Y177223D01*
X19383Y176590D01*
X18967Y176147D01*
X18467Y176020D01*
X17967Y176083D01*
X17550Y176337D01*
X16717Y177603D01*
X16133Y178173D01*
X15300Y178553D01*
X14550Y178680D01*
Y176020D01*
G01Y210640D02*
X19550D01*
X18550Y211400D01*
G01X14550D02*
Y209880D01*
G01Y210640D02*
X19550D01*
X18550Y211400D01*
G01X14550D02*
Y209880D01*
G01X41613Y170800D02*
Y173300D01*
X42147D01*
X42360Y173175D01*
X42520Y173008D01*
X42653Y172758D01*
X42760Y172467D01*
X42787Y172050D01*
X42760Y171633D01*
X42653Y171342D01*
X42520Y171092D01*
X42360Y170925D01*
X42147Y170800D01*
X41613D01*
G01X44987Y173092D02*
X44827Y173217D01*
X44640Y173300D01*
X44427D01*
X44187Y173175D01*
X44000Y172967D01*
X43867Y172717D01*
X43760Y172300D01*
X43733Y171925D01*
X43787Y171550D01*
X43867Y171300D01*
X44027Y171050D01*
X44213Y170883D01*
X44400Y170800D01*
X44587D01*
X44773Y170883D01*
X44933Y171008D01*
X45067Y171175D01*
G01X45800Y169967D02*
X47400D01*
G01X48800Y170800D02*
X48587Y170842D01*
X48400Y171008D01*
X48240Y171258D01*
X48133Y171550D01*
X48080Y171883D01*
Y172217D01*
X48133Y172550D01*
X48240Y172842D01*
X48400Y173092D01*
X48587Y173258D01*
X48800Y173300D01*
X49013Y173258D01*
X49200Y173092D01*
X49360Y172842D01*
X49467Y172550D01*
X49520Y172217D01*
Y171883D01*
X49467Y171550D01*
X49360Y171258D01*
X49200Y171008D01*
X49013Y170842D01*
X48800Y170800D01*
G01X49013Y171467D02*
X49333Y170800D01*
G01X51000D02*
Y173300D01*
X50680Y172800D01*
G01Y170800D02*
X51320D01*
G01X78743Y162843D02*
X82410Y160057D01*
G01X83077Y161450D02*
X78077D01*
G01X78743Y160057D02*
X82410Y162843D01*
G01X80577Y163350D02*
Y159550D01*
G01X81887Y189200D02*
Y186700D01*
X81353D01*
X81140Y186825D01*
X80980Y186992D01*
X80847Y187242D01*
X80740Y187533D01*
X80713Y187950D01*
X80740Y188367D01*
X80847Y188658D01*
X80980Y188908D01*
X81140Y189075D01*
X81353Y189200D01*
X81887D01*
G01X78513Y186908D02*
X78673Y186783D01*
X78860Y186700D01*
X79073D01*
X79313Y186825D01*
X79500Y187033D01*
X79633Y187283D01*
X79740Y187700D01*
X79767Y188075D01*
X79713Y188450D01*
X79633Y188700D01*
X79473Y188950D01*
X79287Y189117D01*
X79100Y189200D01*
X78913D01*
X78727Y189117D01*
X78567Y188992D01*
X78433Y188825D01*
G01X77700Y190033D02*
X76100D01*
G01X74700Y189200D02*
X74913Y189158D01*
X75100Y188992D01*
X75260Y188742D01*
X75367Y188450D01*
X75420Y188117D01*
Y187783D01*
X75367Y187450D01*
X75260Y187158D01*
X75100Y186908D01*
X74913Y186742D01*
X74700Y186700D01*
X74487Y186742D01*
X74300Y186908D01*
X74140Y187158D01*
X74033Y187450D01*
X73980Y187783D01*
Y188117D01*
X74033Y188450D01*
X74140Y188742D01*
X74300Y188992D01*
X74487Y189158D01*
X74700Y189200D01*
G01X74487Y188533D02*
X74167Y189200D01*
G01X73007Y187117D02*
X72847Y186867D01*
X72660Y186742D01*
X72447Y186700D01*
X72180Y186783D01*
X71993Y186992D01*
X71940Y187242D01*
X71967Y187492D01*
X72073Y187700D01*
X72607Y188117D01*
X72847Y188408D01*
X73007Y188825D01*
X73060Y189200D01*
X71940D01*
G01X121600Y142233D02*
X119100D01*
Y141167D01*
G01Y139500D02*
X119142Y139713D01*
X119308Y139900D01*
X119558Y140060D01*
X119850Y140167D01*
X120183Y140220D01*
X120517D01*
X120850Y140167D01*
X121142Y140060D01*
X121392Y139900D01*
X121558Y139713D01*
X121600Y139500D01*
X121558Y139287D01*
X121392Y139100D01*
X121142Y138940D01*
X120850Y138833D01*
X120517Y138780D01*
X120183D01*
X119850Y138833D01*
X119558Y138940D01*
X119308Y139100D01*
X119142Y139287D01*
X119100Y139500D01*
G01X121600Y138100D02*
X119100Y137727D01*
X121600Y137300D01*
X119100Y136873D01*
X121600Y136500D01*
G01X119100Y135687D02*
X121600D01*
Y135153D01*
X121475Y134940D01*
X121308Y134780D01*
X121058Y134647D01*
X120767Y134540D01*
X120350Y134513D01*
X119933Y134540D01*
X119642Y134647D01*
X119392Y134780D01*
X119225Y134940D01*
X119100Y135153D01*
Y135687D01*
G01Y133433D02*
X121600D01*
Y132767D01*
X121475Y132553D01*
X121308Y132420D01*
X120975Y132367D01*
X120642Y132420D01*
X120433Y132580D01*
X120308Y132767D01*
Y133433D01*
G01Y132767D02*
X119100Y132367D01*
G01X121600Y131367D02*
X119100Y130700D01*
X121600Y130033D01*
G01X118267Y129300D02*
Y127700D01*
G01X119100Y126300D02*
X119142Y126513D01*
X119308Y126700D01*
X119558Y126860D01*
X119850Y126967D01*
X120183Y127020D01*
X120517D01*
X120850Y126967D01*
X121142Y126860D01*
X121392Y126700D01*
X121558Y126513D01*
X121600Y126300D01*
X121558Y126087D01*
X121392Y125900D01*
X121142Y125740D01*
X120850Y125633D01*
X120517Y125580D01*
X120183D01*
X119850Y125633D01*
X119558Y125740D01*
X119308Y125900D01*
X119142Y126087D01*
X119100Y126300D01*
G01X119767Y126087D02*
X119100Y125767D01*
G01X118600Y176260D02*
X121100D01*
G01Y175140D02*
X118600D01*
G01X119850D02*
Y176260D01*
G01X121100Y173820D02*
Y173180D01*
G01Y173500D02*
X118600D01*
G01Y173820D02*
Y173180D01*
G01Y171887D02*
X121100D01*
Y171353D01*
X120975Y171140D01*
X120808Y170980D01*
X120558Y170847D01*
X120267Y170740D01*
X119850Y170713D01*
X119433Y170740D01*
X119142Y170847D01*
X118892Y170980D01*
X118725Y171140D01*
X118600Y171353D01*
Y171887D01*
G01Y169633D02*
X121100D01*
Y168967D01*
X120975Y168753D01*
X120808Y168620D01*
X120475Y168567D01*
X120142Y168620D01*
X119933Y168780D01*
X119808Y168967D01*
Y169633D01*
G01Y168967D02*
X118600Y168567D01*
G01X121100Y167567D02*
X118600Y166900D01*
X121100Y166233D01*
G01X117767Y165500D02*
Y163900D01*
G01X118600Y162500D02*
X118642Y162713D01*
X118808Y162900D01*
X119058Y163060D01*
X119350Y163167D01*
X119683Y163220D01*
X120017D01*
X120350Y163167D01*
X120642Y163060D01*
X120892Y162900D01*
X121058Y162713D01*
X121100Y162500D01*
X121058Y162287D01*
X120892Y162100D01*
X120642Y161940D01*
X120350Y161833D01*
X120017Y161780D01*
X119683D01*
X119350Y161833D01*
X119058Y161940D01*
X118808Y162100D01*
X118642Y162287D01*
X118600Y162500D01*
G01X119267Y162287D02*
X118600Y161967D01*
G01X222367Y165413D02*
X222242Y165520D01*
X222033Y165600D01*
X221742Y165653D01*
X221492Y165600D01*
X221325Y165493D01*
X221200Y165307D01*
Y164587D01*
X223700D01*
Y165467D01*
X223533Y165653D01*
X223283Y165760D01*
X222992Y165813D01*
X222700Y165760D01*
X222450Y165600D01*
X222367Y165413D01*
Y164587D01*
G01X223700Y166733D02*
X221200Y167400D01*
X223700Y168067D01*
G01X222825Y167827D02*
Y166973D01*
G01X221200Y169600D02*
X223700D01*
G01X221200Y168987D02*
Y170213D01*
G01X223700Y171213D02*
X221200D01*
Y171747D01*
X221325Y171960D01*
X221492Y172120D01*
X221742Y172253D01*
X222033Y172360D01*
X222450Y172387D01*
X222867Y172360D01*
X223158Y172253D01*
X223408Y172120D01*
X223575Y171960D01*
X223700Y171747D01*
Y171213D01*
G01Y173467D02*
X221200D01*
Y174133D01*
X221325Y174347D01*
X221492Y174480D01*
X221825Y174533D01*
X222158Y174480D01*
X222367Y174320D01*
X222492Y174133D01*
Y173467D01*
G01Y174133D02*
X223700Y174533D01*
G01X221200Y175533D02*
X223700Y176200D01*
X221200Y176867D01*
G01X224533Y177600D02*
Y179200D01*
G01X223700Y180600D02*
X223658Y180387D01*
X223492Y180200D01*
X223242Y180040D01*
X222950Y179933D01*
X222617Y179880D01*
X222283D01*
X221950Y179933D01*
X221658Y180040D01*
X221408Y180200D01*
X221242Y180387D01*
X221200Y180600D01*
X221242Y180813D01*
X221408Y181000D01*
X221658Y181160D01*
X221950Y181267D01*
X222283Y181320D01*
X222617D01*
X222950Y181267D01*
X223242Y181160D01*
X223492Y181000D01*
X223658Y180813D01*
X223700Y180600D01*
G01X223033Y180813D02*
X223700Y181133D01*
G01X279400Y72500D02*
Y62500D01*
X295400D01*
Y72500D01*
X279400D01*
G01X286840Y60133D02*
X287053Y59925D01*
X287293Y59800D01*
X287507D01*
X287720Y59925D01*
X287880Y60133D01*
X287960Y60425D01*
X287907Y60717D01*
X287773Y60967D01*
X287533Y61133D01*
X287213Y61217D01*
X287027Y61383D01*
X286947Y61675D01*
X287000Y61967D01*
X287133Y62175D01*
X287320Y62300D01*
X287507D01*
X287693Y62217D01*
X287853Y62008D01*
G01X289067Y60300D02*
X289200Y60050D01*
X289360Y59883D01*
X289547Y59800D01*
X289760Y59883D01*
X289920Y60050D01*
X290080Y60300D01*
X290133Y60633D01*
Y62300D01*
G01X291800Y59800D02*
Y62300D01*
X291480Y61800D01*
G01Y59800D02*
X292120D01*
G01X314775Y5630D02*
G02X313201Y4055I-1575J0D01*
G01X309264D01*
G02X307689Y5630I0J1575D01*
G01X313201Y7205D02*
G02X314775Y5630I-1J-1575D01*
G01X307689D02*
G02X309264Y7205I1575J0D01*
G01X313201D01*
G01X314775Y34370D02*
G02X313201Y32795I-1575J0D01*
G01X309264D01*
G02X307689Y34370I0J1575D01*
G01X313201Y35945D02*
G02X314775Y34370I-1J-1575D01*
G01X307689D02*
G02X309264Y35945I1575J0D01*
G01X313201D01*
G01X316400Y85500D02*
Y56300D01*
X347600D01*
Y85500D01*
X316400D01*
G01Y128050D02*
Y98850D01*
X347600D01*
Y128050D01*
X316400D01*
G01Y170600D02*
Y141400D01*
X347600D01*
Y170600D01*
X316400D01*
G01Y213150D02*
Y183950D01*
X347600D01*
Y213150D01*
X316400D01*
G01X335642Y5630D02*
G02X334067Y4055I-1576J1D01*
G01X330130D01*
G02X328555Y5630I0J1575D01*
G01X334067Y7205D02*
G02X335642Y5630I-1J-1576D01*
G01X328555D02*
G02X330130Y7205I1575J0D01*
G01X334067D01*
G01X335642Y34370D02*
G02X334067Y32795I-1576J1D01*
G01X330130D01*
G02X328555Y34370I0J1575D01*
G01X334067Y35945D02*
G02X335642Y34370I-1J-1576D01*
G01X328555D02*
G02X330130Y35945I1575J0D01*
G01X334067D01*
G54D13*
G01X2723Y98500D02*
X3763D01*
G01X3200Y99258D02*
Y97741D01*
G01X6400Y97333D02*
Y100833D01*
X5880Y100133D01*
G01Y97333D02*
X6920D01*
G01X8647Y97858D02*
X8907Y97566D01*
X9210Y97391D01*
X9600Y97333D01*
X9990Y97450D01*
X10293Y97683D01*
X10510Y98091D01*
X10553Y98558D01*
X10467Y99025D01*
X10250Y99316D01*
X9947Y99550D01*
X9643Y99608D01*
X9340Y99550D01*
X8950Y99316D01*
X9080Y100833D01*
X10250D01*
G01X11717D02*
X12800Y97333D01*
X13883Y100833D01*
G01X1100Y128660D02*
Y88260D01*
X34400D01*
Y128660D01*
X1100D01*
G01X750Y138700D02*
G03I-300J0D01*
G01Y132700D02*
G03I-300J0D01*
G01Y144700D02*
G03I-300J0D01*
G01X2223Y184000D02*
X3263D01*
G01X2700Y184758D02*
Y183241D01*
G01X5900Y182833D02*
Y186333D01*
X5380Y185633D01*
G01Y182833D02*
X6420D01*
G01X8277Y185750D02*
X8537Y186100D01*
X8840Y186275D01*
X9187Y186333D01*
X9620Y186216D01*
X9923Y185925D01*
X10010Y185575D01*
X9967Y185225D01*
X9793Y184933D01*
X8927Y184350D01*
X8537Y183941D01*
X8277Y183358D01*
X8190Y182833D01*
X10010D01*
G01X11217Y186333D02*
X12300Y182833D01*
X13383Y186333D01*
G01X350Y214200D02*
Y173800D01*
X33650D01*
Y214200D01*
X350D01*
G01X14000Y5400D02*
X38600D01*
Y20200D01*
X14000D01*
Y5400D01*
G01Y21500D02*
X38600D01*
Y36300D01*
X14000D01*
Y21500D01*
G01X15350Y56700D02*
G03I-300J0D01*
G01Y50000D02*
G03I-300J0D01*
G01Y43300D02*
G03I-300J0D01*
G01Y63400D02*
G03I-300J0D01*
G01X8747Y109700D02*
X8920Y109875D01*
X9050Y110166D01*
X9137Y110575D01*
X9050Y110925D01*
X8877Y111158D01*
X8573Y111333D01*
X7403D01*
Y107833D01*
X8833D01*
X9137Y108066D01*
X9310Y108416D01*
X9397Y108825D01*
X9310Y109233D01*
X9050Y109583D01*
X8747Y109700D01*
X7403D01*
G01X10517Y107833D02*
X11600Y111333D01*
X12683Y107833D01*
G01X12293Y109058D02*
X10907D01*
G01X14800Y111333D02*
Y107833D01*
G01X13803Y111333D02*
X15797D01*
G01X18000D02*
Y107833D01*
G01X17003Y111333D02*
X18997D01*
G01X22067Y107833D02*
X20333D01*
Y111333D01*
X22067D01*
G01X21373Y109641D02*
X20333D01*
G01X23533Y107833D02*
Y111333D01*
X24617D01*
X24963Y111158D01*
X25180Y110925D01*
X25267Y110458D01*
X25180Y109991D01*
X24920Y109700D01*
X24617Y109525D01*
X23533D01*
G01X24617D02*
X25267Y107833D01*
G01X27600D02*
Y109408D01*
X26733Y111333D01*
G01X28467D02*
X27600Y109408D01*
G01X12250Y132700D02*
G03I-300J0D01*
G01Y138700D02*
G03I-300J0D01*
G01X9800Y148550D02*
G03I-300J0D01*
G01X12250Y144700D02*
G03I-300J0D01*
G01X16200Y163350D02*
G03I-300J0D01*
G01X22800Y163450D02*
G03I-300J0D01*
G01X11850Y165000D02*
G03I-300J0D01*
G01X8647Y193333D02*
Y196833D01*
X9513D01*
X9860Y196658D01*
X10120Y196425D01*
X10337Y196075D01*
X10510Y195666D01*
X10553Y195083D01*
X10510Y194500D01*
X10337Y194091D01*
X10120Y193741D01*
X9860Y193508D01*
X9513Y193333D01*
X8647D01*
G01X13753Y196541D02*
X13493Y196716D01*
X13190Y196833D01*
X12843D01*
X12453Y196658D01*
X12150Y196366D01*
X11933Y196016D01*
X11760Y195433D01*
X11717Y194908D01*
X11803Y194383D01*
X11933Y194033D01*
X12193Y193683D01*
X12497Y193450D01*
X12800Y193333D01*
X13103D01*
X13407Y193450D01*
X13667Y193625D01*
X13883Y193858D01*
G01X18680Y196833D02*
X19720D01*
G01X19200D02*
Y193333D01*
G01X18680D02*
X19720D01*
G01X21403D02*
Y196833D01*
X23397Y193333D01*
Y196833D01*
G01X37750Y5300D02*
G03I-300J0D01*
G01X37850Y21300D02*
G03I-300J0D01*
G01X35650Y37650D02*
X52350D01*
G01X26950Y56700D02*
G03I-300J0D01*
G01Y50000D02*
G03I-300J0D01*
G01Y43300D02*
G03I-300J0D01*
G01X52350Y58350D02*
X35650D01*
G01X37800Y79950D02*
G03I-300J0D01*
G01X26950Y63400D02*
G03I-300J0D01*
G01X38050Y109890D02*
Y101310D01*
G01X38300Y188550D02*
G03I-300J0D01*
G01X38800Y199650D02*
G03I-300J0D01*
G01X43850Y62000D02*
G03I-300J0D01*
G01X62800Y79950D02*
G03I-300J0D01*
G01X57850Y81000D02*
G03I-300J0D01*
G01X53950Y78900D02*
X46050D01*
G01X53950Y71170D02*
Y73830D01*
G01X46050Y66100D02*
X53950D01*
G01X46150Y101310D02*
Y109890D01*
G01X58250D02*
Y101310D01*
G01X48150Y109890D02*
Y101310D01*
G01X56250D02*
Y109890D01*
G01X53800Y154450D02*
G03I-300J0D01*
G01X53250Y169500D02*
G03I-300J0D01*
G01X63300Y181850D02*
G03I-300J0D01*
G01X59350Y190000D02*
G03I-300J0D01*
G01X72319Y2800D02*
X301719D01*
Y23000D01*
X72319D01*
Y2800D01*
G01X71020Y40680D02*
Y39520D01*
X72180D01*
G01Y68480D02*
X71020D01*
Y67320D01*
G01X76100Y92850D02*
G03I-300J0D01*
G01X66350Y101310D02*
Y109890D01*
G01X68350D02*
Y101310D01*
G01X76450D02*
Y109890D01*
G01X80760Y139830D02*
X83670D01*
Y142740D01*
G01X64330D02*
Y139830D01*
X67240D01*
G01X65750Y159000D02*
G03I-300J0D01*
G01X67240Y159170D02*
X64330D01*
Y156260D01*
G01X83670D02*
Y159170D01*
X80760D01*
G01X72319Y192800D02*
X301719D01*
Y213000D01*
X72319D01*
Y192800D01*
G01X98820Y39520D02*
X99980D01*
Y40680D01*
G01Y67320D02*
Y68480D01*
X98820D01*
G01X97300Y144450D02*
G03I-300J0D01*
G01X91350Y160500D02*
G03I-300J0D01*
G01X102750Y156400D02*
X96250D01*
Y152410D01*
G01X102750Y148660D02*
Y151340D01*
G01X96250Y147590D02*
Y143600D01*
X102750D01*
G01X91850Y169500D02*
G03I-300J0D01*
G01X103350Y164500D02*
G03I-300J0D01*
G01X98960Y173400D02*
X111040D01*
G01X90350Y179000D02*
G03I-300J0D01*
G01X83850Y189000D02*
G03I-300J0D01*
G01X111040Y184600D02*
X98960D01*
G01X141900Y28000D02*
Y59000D01*
X121100D01*
Y28000D01*
X141900D01*
G01X112750Y32500D02*
G03I-300J0D01*
G01X110300Y33050D02*
G03I-300J0D01*
G01X116800D02*
G03I-300J0D01*
G01X104920Y139100D02*
G03I-500J0D01*
G01X110250Y189000D02*
G03I-300J0D01*
G01X138300Y123050D02*
G03I-300J0D01*
G01X142000Y143790D02*
Y130750D01*
X187000D01*
Y143790D01*
G01X137800Y151500D02*
G03I-300J0D01*
G01X187000Y159210D02*
Y172250D01*
X142000D01*
Y159210D01*
G01X160050Y61350D02*
X177550D01*
G01Y78850D02*
X160050D01*
G01X157150Y70100D02*
G03I-300J0D01*
G01X165930Y60000D02*
X163300D01*
Y59100D01*
G01X176700D02*
Y60000D01*
X174070D01*
G01X163300Y47500D02*
Y46600D01*
X165930D01*
G01X174070D02*
X176700D01*
Y47500D01*
G01X186850Y135500D02*
G03I-300J0D01*
G01X207040Y157100D02*
X194960D01*
G01Y145900D02*
X207040D01*
G01X186350Y151500D02*
G03I-300J0D01*
G01X218850Y52000D02*
G03I-300J0D01*
G01Y93000D02*
G03I-300J0D01*
G01X240520Y50680D02*
Y49520D01*
X241680D01*
G01Y78480D02*
X240520D01*
Y77320D01*
G01X238150Y132650D02*
X255650D01*
G01X224800Y152050D02*
G03I-300J0D01*
G01X240900Y152300D02*
Y151400D01*
X243530D01*
G01X255650Y150150D02*
X238150D01*
G01X231300Y177950D02*
G03I-300J0D01*
G01X224800D02*
G03I-300J0D01*
G01X243530Y164800D02*
X240900D01*
Y163900D01*
G01X246750Y27000D02*
G03I-300J0D01*
G01Y34000D02*
G03I-300J0D01*
G01X258750Y27000D02*
G03I-300J0D01*
G01Y34000D02*
G03I-300J0D01*
G01X247850Y88000D02*
G03I-300J0D01*
G01X251750D02*
G03I-300J0D01*
G01X251650Y95000D02*
G03I-300J0D01*
G01X259150Y141400D02*
G03I-300J0D01*
G01X251670Y151400D02*
X254300D01*
Y152300D01*
G01Y163900D02*
Y164800D01*
X251670D01*
G01X280650Y41300D02*
G03I-300J0D01*
G01X279750Y33500D02*
G03I-300J0D01*
G01X279850Y26900D02*
G03I-300J0D01*
G01X280650Y47600D02*
G03I-300J0D01*
G01X268320Y49520D02*
X269480D01*
Y50680D01*
G01Y77320D02*
Y78480D01*
X268320D01*
G01X275460Y80250D02*
X280540D01*
G01Y91750D02*
X275460D01*
G01X266850Y86000D02*
G03I-300J0D01*
G01X276650Y173890D02*
Y165310D01*
G01X293700Y26150D02*
X294300D01*
G01Y33850D02*
X293700D01*
G01X284750Y165310D02*
Y173890D01*
G01X294250Y165310D02*
Y173890D01*
G01X286150D02*
Y165310D01*
G01X312300Y54550D02*
G03I-300J0D01*
G01Y72550D02*
G03I-300J0D01*
G01Y96550D02*
G03I-300J0D01*
G01Y114550D02*
G03I-300J0D01*
G01Y139550D02*
G03I-300J0D01*
G01Y157550D02*
G03I-300J0D01*
G01Y182550D02*
G03I-300J0D01*
G01Y199550D02*
G03I-300J0D01*
G01X335800Y41250D02*
G03I-300J0D01*
G01Y83850D02*
G03I-300J0D01*
G01Y126450D02*
G03I-300J0D01*
G01Y168950D02*
G03I-300J0D01*
M02*
